<?xml version="1.0" standalone="no"?>
<!DOCTYPE svg PUBLIC "-//W3C//DTD SVG 1.1//EN" "http://www.w3.org/Graphics/SVG/1.1/DTD/svg11.dtd" >
<svg xmlns="http://www.w3.org/2000/svg" xmlns:xlink="http://www.w3.org/1999/xlink" version="1.1">
<metadata>
Created by FontForge 20190801 at Sun Jan 12 22:15:08 2020
 By Jimmy Wärting
Copyright \(c\) 2020 by MadeType. All rights reserved.
</metadata>
<defs>
<font id="MADEMirage-Medium" horiz-adv-x="726" >
  <font-face 
    font-family="MADE Mirage"
    font-weight="500"
    font-stretch="normal"
    units-per-em="1000"
    panose-1="2 0 6 3 0 0 0 2 0 4"
    ascent="800"
    descent="-200"
    x-height="474"
    cap-height="700"
    bbox="-104 -316 1251 989"
    underline-thickness="50"
    underline-position="-100"
    unicode-range="U+0020-F6C3"
  />
<missing-glyph horiz-adv-x="200" 
 />
    <glyph glyph-name=".notdef" horiz-adv-x="200" 
 />
    <glyph glyph-name="B" unicode="B" horiz-adv-x="640" 
d="M422 376c112 -13 198 -68 198 -180c0 -137 -141 -196 -282 -196h-293v22c38 4 48 21 48 60v537c0 39 -10 56 -48 59v22h227c136 0 279 -32 279 -175c0 -76 -54 -130 -129 -149zM261 662h-62v-276h69c103 0 177 37 177 139c0 106 -81 137 -184 137zM321 39
c104 0 188 40 188 154c0 107 -90 155 -195 155h-115v-309h122z" />
    <glyph glyph-name="C" unicode="C" horiz-adv-x="689" 
d="M639 199h20l-21 -138c-61 -44 -126 -75 -242 -71c-207 6 -376 142 -376 360s159 360 370 360c90 0 183 -29 248 -71v-142h-21c-30 125 -118 185 -227 185c-156 0 -253 -140 -253 -332s97 -323 253 -333c122 -7 210 55 249 182z" />
    <glyph glyph-name="D" unicode="D" horiz-adv-x="719" 
d="M307 700c261 0 392 -161 392 -350s-131 -350 -392 -350l-262 1v21c37 4 47 21 47 60v537c0 39 -10 56 -47 59v22h262zM293 39c192 0 293 118 293 311s-101 312 -293 312h-94v-623h94z" />
    <glyph glyph-name="E" unicode="E" horiz-adv-x="597" 
d="M544 156h18l-19 -156h-498v22c37 4 47 21 47 60v537c0 39 -10 56 -47 59v22h476l19 -155h-19c-16 51 -43 117 -136 117h-187v-288h124c70 0 89 23 96 65h18v-169h-18c-7 42 -26 66 -96 66h-124v-297h210c93 0 119 66 136 117z" />
    <glyph glyph-name="F" unicode="F" horiz-adv-x="562" 
d="M518 700l19 -155h-19c-16 51 -43 117 -135 117h-184v-304h120c70 0 89 24 96 66h18v-169h-18c-7 42 -26 65 -96 65h-120v-238c0 -39 10 -56 47 -60v-22h-201v22c37 4 47 21 47 60v537c0 39 -10 56 -47 59v22h473z" />
    <glyph glyph-name="G" unicode="G" horiz-adv-x="725" 
d="M514 293h196v-22c-37 -3 -47 -20 -47 -59v-135c-52 -50 -151 -91 -267 -87c-207 6 -376 142 -376 360s159 360 370 360c90 0 183 -29 248 -71v-142h-21c-30 125 -119 185 -227 185c-156 0 -253 -140 -253 -332s97 -323 253 -333c67 -4 126 15 171 55v140
c0 39 -10 56 -47 59v22z" />
    <glyph glyph-name="H" unicode="H" horiz-adv-x="756" 
d="M711 678c-37 -3 -47 -20 -47 -59v-537c0 -39 10 -56 47 -60v-22h-201v22c38 4 48 21 48 60v257h-359v-257c0 -39 10 -56 48 -60v-22h-202v22c38 4 48 21 48 60v537c0 39 -10 56 -48 59v22h202v-22c-38 -3 -48 -20 -48 -59v-242h359v242c0 39 -10 56 -48 59v22h201v-22z
" />
    <glyph glyph-name="I" unicode="I" horiz-adv-x="291" 
d="M246 678c-37 -3 -47 -20 -47 -59v-537c0 -39 10 -56 47 -60v-22h-201v22c38 4 47 21 47 60v537c0 39 -9 56 -47 59v22h201v-22z" />
    <glyph glyph-name="J" unicode="J" horiz-adv-x="485" 
d="M249 700h201v-22c-37 -3 -47 -20 -47 -59v-357c0 -191 -71 -272 -209 -272c-72 0 -144 32 -173 84c-13 23 -15 57 -3 76c16 25 53 31 77 11c22 -18 16 -46 17 -66c3 -40 26 -76 81 -76c78 0 103 73 103 205v395c0 39 -10 56 -47 59v22z" />
    <glyph glyph-name="K" unicode="K" horiz-adv-x="712" 
d="M625 82c22 -37 44 -55 72 -60v-22h-215v22c35 3 39 31 19 62l-185 296l-118 -126v-172c0 -39 10 -57 48 -60v-22h-201v22c37 3 47 21 47 60v537c0 39 -10 56 -47 59v22h201v-22c-38 -3 -48 -20 -48 -59v-309l292 308c30 32 25 55 0 60v22h136v-22c-29 -5 -53 -26 -84 -59
l-151 -160z" />
    <glyph glyph-name="L" unicode="L" horiz-adv-x="579" 
d="M546 156h18l-19 -156h-500v22c37 4 47 21 47 60v537c0 39 -10 56 -47 59v22h201v-22c-37 -3 -47 -20 -47 -59v-580h211c93 0 119 66 136 117z" />
    <glyph glyph-name="M" unicode="M" horiz-adv-x="911" 
d="M827 81c8 -38 22 -55 59 -59v-22h-206v22c34 2 45 22 37 61l-91 468l-188 -551h-39l-206 558l-74 -476c-5 -38 4 -56 42 -60v-22h-136v22c38 4 50 21 56 60l82 531c6 37 1 62 -37 65v22h127l198 -550l188 550h117v-22c-35 -3 -46 -24 -38 -66z" />
    <glyph glyph-name="N" unicode="N" 
d="M553 700h133v-22c-38 -3 -48 -20 -48 -59v-619h-62l-446 570v-488c0 -39 10 -56 47 -60v-22h-132v22c37 4 47 21 47 60v537c0 39 -10 56 -47 59v22h123l432 -551v470c0 39 -10 56 -47 59v22z" />
    <glyph glyph-name="O" unicode="O" horiz-adv-x="795" 
d="M398 710c211 0 372 -150 372 -360c0 -209 -161 -360 -372 -360s-373 151 -373 360c0 210 162 360 373 360zM398 17c143 0 259 120 259 333c0 214 -116 333 -259 333s-259 -119 -259 -333c0 -213 116 -333 259 -333z" />
    <glyph glyph-name="P" unicode="P" horiz-adv-x="593" 
d="M285 700c148 0 283 -69 283 -215c0 -145 -135 -214 -283 -214h-86v-189c0 -39 10 -57 47 -60v-22h-201v22c38 3 47 21 47 60v537c0 39 -9 56 -47 59v22h240zM275 309c111 0 182 61 182 176c0 116 -71 177 -182 177h-76v-353h76z" />
    <glyph glyph-name="Q" unicode="Q" horiz-adv-x="795" 
d="M844 -61l14 -13c-32 -142 -283 -150 -476 64c-203 8 -357 156 -357 360c0 210 162 360 373 360s372 -150 372 -360c0 -200 -147 -347 -345 -359c99 -53 300 -133 419 -52zM138 350c0 -213 117 -333 260 -333s259 120 259 333c0 214 -116 333 -259 333
s-260 -119 -260 -333z" />
    <glyph glyph-name="R" unicode="R" horiz-adv-x="672" 
d="M581 82c22 -34 49 -54 76 -60v-22h-144l-184 291c-10 0 -21 -1 -31 -1h-99v-208c0 -39 10 -57 47 -60v-22h-201v22c38 3 48 21 48 60v537c0 39 -10 56 -48 59v22h253c147 0 276 -62 276 -205c0 -97 -59 -156 -144 -185zM288 329c106 0 175 63 175 166s-69 167 -175 167
h-89v-333h89z" />
    <glyph glyph-name="S" unicode="S" horiz-adv-x="539" 
d="M321 409c125 -73 214 -132 180 -267c-30 -114 -135 -152 -239 -152c-91 0 -167 25 -232 71v141h19c36 -115 104 -180 199 -185c96 -5 144 45 155 108c17 98 -63 141 -155 193c-101 57 -210 125 -180 259c22 98 106 134 201 134c77 0 134 -27 200 -71v-135h-19
c-30 124 -88 175 -168 178c-78 4 -118 -36 -123 -97c-8 -87 71 -124 162 -177z" />
    <glyph glyph-name="T" unicode="T" horiz-adv-x="640" 
d="M601 700l19 -155h-19c-16 51 -42 117 -135 117h-93v-580c0 -39 10 -57 48 -60v-22h-202v22c38 3 48 21 48 60v580h-93c-93 0 -119 -66 -135 -117h-19l19 155h562z" />
    <glyph glyph-name="U" unicode="U" 
d="M558 700h133v-22c-37 -3 -47 -20 -47 -59v-348c0 -160 -97 -281 -260 -281c-156 0 -292 92 -292 279v350c0 39 -10 56 -47 59v22h201v-22c-38 -3 -48 -20 -48 -59v-352c0 -170 95 -236 211 -236c132 0 196 109 196 238v350c0 39 -10 56 -47 59v22z" />
    <glyph glyph-name="V" unicode="V" horiz-adv-x="716" 
d="M553 700h148v-22c-37 -3 -55 -22 -69 -59l-231 -619h-56l-261 619c-15 36 -32 56 -69 59v22h225v-22c-40 0 -54 -31 -39 -68l203 -497l187 500c16 44 0 65 -38 65v22z" />
    <glyph glyph-name="W" unicode="W" horiz-adv-x="1037" 
d="M878 700h144v-22c-37 -3 -55 -21 -68 -59l-210 -619h-47l-176 549l-186 -549h-47l-210 619c-13 38 -26 56 -63 59v22h220v-22c-39 1 -54 -32 -41 -73l146 -462l193 557h46l174 -559l160 472c12 39 3 62 -35 65v22z" />
    <glyph glyph-name="X" unicode="X" horiz-adv-x="681" 
d="M580 82c23 -34 44 -57 81 -60v-22h-214v22c31 1 44 23 23 55l-166 246l-156 -239c-24 -36 -16 -61 21 -62v-22h-149v22c38 3 61 27 82 60l179 275l-176 262c-23 34 -43 56 -80 59v22h214v-22c-31 0 -43 -24 -22 -55l136 -203l129 197c23 35 15 60 -22 61v22h149v-22
c-37 -3 -61 -26 -82 -59l-151 -233z" />
    <glyph glyph-name="Y" unicode="Y" horiz-adv-x="663" 
d="M499 700h149v-22c-37 -3 -57 -24 -77 -59l-174 -317v-220c0 -39 10 -57 48 -60v-22h-201v22c37 3 47 21 47 60v210l-201 327c-20 33 -38 56 -75 59v22h215v-22c-32 0 -47 -23 -29 -54l171 -286l158 284c16 33 5 55 -31 56v22z" />
    <glyph glyph-name="Z" unicode="Z" horiz-adv-x="614" 
d="M565 156h19l-19 -156h-535v38l411 624h-236c-93 0 -120 -66 -136 -117h-19l19 155h493v-38l-411 -624h279c93 0 119 67 135 118z" />
    <glyph glyph-name="a" unicode="a" horiz-adv-x="480" 
d="M470 43l10 -17c-21 -26 -49 -36 -79 -36c-38 0 -84 18 -85 77c-25 -49 -78 -77 -137 -77c-78 0 -163 34 -168 122c-7 104 74 151 174 160c62 5 107 9 131 11v39c0 88 -21 135 -90 140c-38 2 -80 -19 -78 -67c2 -54 -34 -69 -66 -57c-27 11 -35 42 -20 73
c26 56 101 72 161 72c93 0 197 -31 197 -179v-236c0 -36 28 -42 50 -25zM211 28c64 2 105 52 105 133v99c-15 -2 -40 -4 -79 -9c-82 -10 -127 -60 -126 -123c1 -69 45 -102 100 -100z" />
    <glyph glyph-name="b" unicode="b" horiz-adv-x="575" 
d="M339 483c119 0 216 -95 216 -246s-97 -247 -216 -247c-87 0 -141 48 -174 106l-72 -96h-21v619c0 39 -10 56 -47 59v22l135 36h17v-340c33 50 84 87 162 87zM313 27c88 0 136 89 136 210s-48 210 -136 210s-136 -82 -136 -210s48 -210 136 -210z" />
    <glyph glyph-name="c" unicode="c" horiz-adv-x="468" 
d="M434 115l14 -11c-34 -67 -104 -114 -192 -114c-133 0 -246 97 -246 254c0 149 115 239 244 239c84 0 148 -28 178 -78c17 -29 15 -75 -23 -88c-31 -11 -71 9 -68 64c3 51 -34 84 -90 79c-75 -7 -145 -86 -138 -216c11 -221 234 -242 321 -129z" />
    <glyph glyph-name="d" unicode="d" horiz-adv-x="557" 
d="M551 36l6 -19c-24 -19 -51 -27 -83 -27c-43 0 -85 19 -85 79v9c-33 -50 -85 -88 -163 -88c-119 0 -216 96 -216 247s97 246 216 246c78 0 130 -37 163 -87v223c0 39 -10 56 -47 59v22l135 36h16v-665c0 -36 29 -45 58 -35zM252 27c88 0 137 82 137 210s-49 210 -137 210
c-87 0 -135 -89 -135 -210s48 -210 135 -210z" />
    <glyph glyph-name="e" unicode="e" horiz-adv-x="478" 
d="M457 259v-6h-344c0 -3 0 -6 1 -9c11 -221 236 -242 323 -129l14 -12c-34 -66 -110 -113 -195 -113c-132 0 -246 97 -246 254c0 152 103 239 236 239c145 0 213 -101 211 -224zM244 461c-70 -1 -123 -67 -130 -172h247c3 89 -34 173 -117 172z" />
    <glyph glyph-name="f" unicode="f" horiz-adv-x="310" 
d="M359 658c14 -18 27 -59 -2 -80c-20 -14 -51 -9 -63 12c-11 20 -12 47 -19 64c-11 24 -25 33 -51 32c-35 -2 -53 -31 -51 -67c5 -63 22 -46 22 -138v-7h124v-36h-124v-356c0 -39 10 -57 48 -60v-22h-199v22c37 3 47 21 47 60v356h-86v36h86v40c0 106 34 196 139 199
c50 1 98 -15 129 -55z" />
    <glyph glyph-name="g" unicode="g" horiz-adv-x="560" 
d="M284 77c178 0 264 -43 260 -140c-4 -113 -106 -203 -268 -203c-141 0 -280 52 -270 155c6 49 49 89 117 112c-65 19 -100 53 -90 102c11 49 73 71 120 81c-43 28 -71 73 -71 133c0 107 91 166 193 166c39 0 77 -8 109 -25c2 24 10 48 22 72c23 43 82 56 102 20
c15 -30 -7 -69 -49 -64c-20 2 -31 0 -41 -7s-13 -20 -14 -34c39 -28 65 -72 65 -128c0 -107 -92 -168 -194 -168c-32 0 -64 7 -92 18c-33 -5 -86 -18 -88 -45c-4 -39 55 -45 189 -45zM275 458c-56 0 -98 -49 -98 -141c0 -93 42 -142 98 -142c57 0 99 49 99 142
c0 92 -42 141 -99 141zM464 -113c13 80 -58 97 -193 97c-35 0 -68 2 -97 6c-42 -15 -82 -46 -85 -104c-5 -97 105 -124 192 -124c85 -1 169 43 183 125z" />
    <glyph glyph-name="h" unicode="h" horiz-adv-x="575" 
d="M512 82c0 -39 10 -57 48 -60v-22h-199v22c37 3 47 21 47 60v223c0 81 -36 140 -114 140c-69 0 -117 -56 -117 -131v-232c0 -39 10 -57 47 -60v-22h-199v22c37 3 47 21 47 60v537c0 39 -10 56 -47 59v22l136 36h16v-322c38 47 91 69 150 69c124 0 185 -83 185 -188v-213z
" />
    <glyph glyph-name="i" unicode="i" horiz-adv-x="239" 
d="M117 553c-38 0 -70 24 -70 67s32 67 70 67s70 -24 70 -67s-32 -67 -70 -67zM177 82c0 -39 10 -57 47 -60v-22h-199v22c37 3 47 21 47 60v284c0 39 -10 57 -47 60v22l136 35h16v-401z" />
    <glyph glyph-name="j" unicode="j" horiz-adv-x="238" 
d="M116 553c-38 0 -70 24 -70 67s32 67 70 67c33 0 62 -19 68 -52c3 -6 4 -13 4 -21c0 -17 -7 -31 -18 -39c-13 -14 -33 -22 -54 -22zM24 448l136 35h16v-493c0 -106 -25 -189 -112 -194c-50 -3 -100 13 -131 55c-17 23 -29 69 2 91c20 15 49 9 61 -12c11 -21 9 -44 14 -63
c7 -32 28 -49 58 -44c23 4 37 29 30 62c-11 63 -27 45 -27 138v343c0 39 -10 57 -47 60v22z" />
    <glyph glyph-name="k" unicode="k" horiz-adv-x="572" 
d="M485 82c26 -35 47 -53 77 -60v-22h-199v22c33 4 33 25 6 60l-128 166l-65 -59v-107c0 -39 10 -57 48 -60v-22h-199v22c37 3 47 21 47 60v537c0 39 -10 56 -47 59v22l135 36h16v-506l186 169c32 29 30 50 -7 53v22h147v-22c-42 -6 -69 -27 -104 -59l-86 -80z" />
    <glyph glyph-name="l" unicode="l" horiz-adv-x="240" 
d="M177 82c0 -39 10 -57 48 -60v-22h-200v22c38 3 48 21 48 60v537c0 39 -10 56 -48 59v22l136 36h16v-654z" />
    <glyph glyph-name="m" unicode="m" horiz-adv-x="884" 
d="M821 82c0 -39 10 -57 48 -60v-22h-200v22c38 3 48 21 48 60v223c0 81 -31 140 -108 140c-67 0 -110 -56 -110 -131v-232c0 -39 10 -57 47 -60v-22h-199v22c37 3 47 21 47 60v223c0 81 -30 140 -107 140c-67 0 -111 -56 -111 -131v-232c0 -39 10 -57 48 -60v-22h-199v22
c37 3 47 21 47 60v284c0 39 -10 57 -47 60v22l132 35h16v-71c36 48 88 71 147 71c82 0 135 -37 160 -94c36 64 94 94 163 94c121 0 178 -83 178 -188v-213z" />
    <glyph glyph-name="n" unicode="n" horiz-adv-x="575" 
d="M513 82c0 -39 10 -57 47 -60v-22h-199v22c37 3 47 21 47 60v223c0 81 -36 140 -114 140c-69 0 -117 -56 -117 -131v-232c0 -39 10 -57 48 -60v-22h-200v22c38 3 48 21 48 60v284c0 39 -10 57 -48 60v22l133 35h16v-73c38 50 92 73 154 73c123 0 185 -83 185 -188v-213z
" />
    <glyph glyph-name="o" unicode="o" horiz-adv-x="527" 
d="M256 483c133 0 251 -90 251 -246s-118 -247 -251 -247s-251 91 -251 247s118 246 251 246zM256 19c90 0 143 88 143 218s-53 218 -143 218s-143 -88 -143 -218s53 -218 143 -218z" />
    <glyph glyph-name="p" unicode="p" horiz-adv-x="575" 
d="M330 483c119 0 215 -95 215 -246c0 -152 -96 -247 -215 -247c-78 0 -130 38 -163 87v-222c0 -39 10 -56 47 -59v-22h-199v22c38 3 48 20 48 59v511c0 39 -10 57 -48 60v22l136 35h16v-87c33 50 85 87 163 87zM304 27c87 0 135 89 135 210s-48 210 -135 210
c-88 0 -137 -82 -137 -210s49 -210 137 -210z" />
    <glyph glyph-name="q" unicode="q" horiz-adv-x="560" 
d="M493 -145c0 -39 10 -56 47 -59v-22h-199v22c37 3 47 20 47 59v222c-33 -49 -84 -87 -162 -87c-119 0 -216 95 -216 247c0 151 97 246 216 246c87 0 141 -47 174 -105l72 96h21v-619zM252 27c88 0 136 82 136 210s-48 210 -136 210s-136 -89 -136 -210s48 -210 136 -210z
" />
    <glyph glyph-name="r" unicode="r" horiz-adv-x="436" 
d="M413 421c8 -27 -1 -63 -29 -73c-33 -11 -69 1 -73 50c-4 37 -24 44 -52 39c-40 -7 -82 -61 -82 -133v-223c0 -39 10 -56 47 -59v-22h-199v22c37 3 47 20 47 59v285c0 39 -10 57 -47 60v22l133 35h16v-85c28 55 73 84 131 85c47 1 94 -20 108 -62z" />
    <glyph glyph-name="s" unicode="s" horiz-adv-x="403" 
d="M240 285c76 -35 159 -77 132 -178c-20 -77 -90 -117 -187 -117c-61 0 -131 18 -175 52v109h16c22 -95 94 -132 159 -134c50 -2 92 17 102 60c15 65 -51 91 -115 120c-96 44 -162 89 -136 191c17 68 90 95 160 95c51 0 103 -17 147 -51v-97h-17c-23 90 -64 125 -130 123
c-35 -1 -74 -14 -79 -58c-7 -59 57 -85 123 -115z" />
    <glyph glyph-name="t" unicode="t" horiz-adv-x="344" 
d="M306 64l13 -18c-22 -31 -57 -56 -107 -56c-72 0 -128 38 -128 140v308h-74v36c84 0 131 57 147 138h31v-138h103v-36h-103v-308c0 -44 14 -71 43 -80c29 -10 55 -1 75 14z" />
    <glyph glyph-name="u" unicode="u" horiz-adv-x="571" 
d="M499 81c0 -39 10 -56 47 -59v-22h-152v57c-35 -45 -85 -67 -144 -67c-123 0 -198 75 -198 189v187c0 39 -10 57 -47 60v22l135 35h17v-314c0 -91 42 -140 120 -140c66 0 117 56 117 131v206c0 39 -10 57 -47 60v22l135 35h17v-402z" />
    <glyph glyph-name="v" unicode="v" horiz-adv-x="512" 
d="M381 474h111v-22c-29 -4 -38 -17 -51 -47l-171 -405h-45l-175 388c-18 39 -27 59 -65 64v22h196v-22c-31 -2 -34 -28 -21 -57l122 -288l121 288c11 28 10 54 -22 57v22z" />
    <glyph glyph-name="w" unicode="w" horiz-adv-x="753" 
d="M620 474h113v-22c-28 -5 -37 -16 -48 -43l-154 -409h-45l-119 339l-124 -339h-43l-152 388c-16 39 -25 59 -63 64v22h199v-22c-31 -2 -37 -27 -27 -57l96 -278l129 357h44l116 -356l104 278c10 28 6 53 -26 56v22z" />
    <glyph glyph-name="x" unicode="x" horiz-adv-x="527" 
d="M442 64c17 -23 33 -39 60 -42v-22h-192v22c28 2 31 23 10 53l-102 140l-95 -139c-19 -28 -20 -50 9 -54v-22h-122v22c31 4 54 22 75 52l114 168l-125 170c-16 22 -31 37 -58 40v22h192v-22c-27 -2 -31 -23 -11 -52l82 -113l77 111c19 28 20 50 -9 54v22h121v-22
c-31 -4 -53 -22 -74 -52l-95 -140z" />
    <glyph glyph-name="y" unicode="y" horiz-adv-x="517" 
d="M386 474h111v-22c-29 -4 -38 -17 -51 -47l-182 -430c-69 -150 -101 -185 -158 -197c-31 -6 -80 -3 -110 20c-22 18 -30 55 -6 80c23 23 60 15 69 -14c6 -21 14 -51 51 -46c29 3 67 25 122 157l4 10l-182 403c-17 39 -27 59 -64 64v22h195v-22c-31 -2 -33 -28 -21 -57
l123 -289l121 289c11 27 9 54 -22 57v22z" />
    <glyph glyph-name="z" unicode="z" horiz-adv-x="469" 
d="M416 132h18l-19 -132h-390v36l276 402h-108c-92 0 -119 -45 -135 -97h-19l19 133h357v-36l-272 -402h137c93 0 119 45 136 96z" />
    <glyph glyph-name="space" unicode=" " horiz-adv-x="200" 
 />
    <glyph glyph-name="one" unicode="1" horiz-adv-x="291" 
d="M199 82c0 -39 10 -57 47 -60v-22h-193v22c37 3 47 21 47 60v514h-60v22l141 82h18v-618z" />
    <glyph glyph-name="two" unicode="2" horiz-adv-x="556" 
d="M497 152h19l-19 -152h-457v25c186 192 327 296 338 485c6 103 -35 170 -116 173c-70 3 -105 -32 -105 -77c0 -41 -4 -60 -19 -71c-25 -19 -65 -6 -75 15c-13 27 -1 58 12 78c28 43 92 82 187 82c129 0 236 -64 228 -200c-9 -169 -188 -305 -343 -433h215
c92 0 119 24 135 75z" />
    <glyph glyph-name="three" unicode="3" horiz-adv-x="576" 
d="M316 375c141 -18 220 -83 220 -182c0 -123 -106 -203 -257 -203c-110 0 -192 46 -220 85c-19 27 -23 58 -12 78c17 29 57 35 79 16c23 -19 23 -53 22 -72c-3 -45 52 -80 131 -80c97 0 143 65 143 171c0 103 -58 173 -194 173v25c92 8 148 63 148 163
c0 79 -33 134 -97 134c-71 0 -98 -34 -97 -77c0 -43 -6 -61 -19 -71c-29 -22 -65 -2 -76 15c-11 19 -4 53 12 78c26 40 88 82 178 82c103 0 210 -53 210 -161c0 -84 -68 -151 -171 -174z" />
    <glyph glyph-name="four" unicode="4" horiz-adv-x="565" 
d="M540 174h-96v-92c0 -39 10 -57 48 -60v-22h-194v22c38 3 48 21 48 60v92h-336v36l336 490h98v-490h96v-36zM54 210h292v424z" />
    <glyph glyph-name="five" unicode="5" horiz-adv-x="569" 
d="M282 441c149 0 247 -92 247 -222c0 -137 -105 -229 -262 -229c-93 0 -184 47 -212 85c-11 16 -29 46 -13 78c13 25 54 38 80 16c20 -17 22 -49 22 -72c-1 -45 54 -80 123 -80c106 0 154 91 154 197c0 103 -51 187 -147 194c-64 4 -121 -27 -149 -53l-27 5l27 340h362v-77
h-336l-18 -228c35 24 83 46 149 46z" />
    <glyph glyph-name="six" unicode="6" horiz-adv-x="593" 
d="M311 447c134 0 244 -89 241 -228c-4 -139 -104 -229 -247 -229c-150 0 -259 98 -264 264c-9 282 105 448 280 456c97 4 173 -41 197 -82c18 -30 21 -55 10 -78c-10 -23 -46 -35 -75 -15c-14 10 -23 26 -20 71c3 43 -34 84 -115 77c-94 -7 -162 -93 -177 -323
c35 50 100 87 170 87zM298 17c95 0 154 76 154 202c0 122 -58 195 -154 195c-95 0 -153 -73 -153 -195c0 -126 59 -202 153 -202z" />
    <glyph glyph-name="seven" unicode="7" horiz-adv-x="522" 
d="M49 700h438v-25c-138 -138 -199 -434 -206 -621c-2 -51 -24 -64 -45 -64c-24 0 -57 13 -55 56c6 178 106 420 231 577h-228c-92 0 -119 -24 -135 -75h-19z" />
    <glyph glyph-name="eight" unicode="8" horiz-adv-x="607" 
d="M378 385c103 -40 201 -95 187 -211c-14 -107 -121 -184 -262 -184c-128 0 -277 75 -261 210c10 94 83 142 171 163c-115 52 -149 134 -128 215c22 88 116 132 218 132c111 0 223 -57 225 -153c3 -89 -56 -147 -150 -172zM162 564c-6 -91 88 -129 182 -163
c64 35 97 77 100 146c3 76 -52 136 -141 136c-81 0 -136 -40 -141 -119zM310 17c94 0 160 52 160 145c0 100 -110 137 -222 183c-53 -24 -102 -65 -111 -150c-12 -119 87 -178 173 -178z" />
    <glyph glyph-name="nine" unicode="9" horiz-adv-x="593" 
d="M552 447c10 -277 -104 -448 -273 -457c-94 -5 -174 42 -198 83c-17 29 -21 54 -10 77s48 34 75 16c15 -10 24 -26 20 -71c-3 -43 37 -82 115 -78c90 5 155 93 170 324c-35 -51 -99 -88 -170 -88c-133 0 -243 90 -240 229c4 141 111 228 247 228c141 0 258 -97 264 -263z
M294 287c96 0 154 72 154 195c0 125 -59 202 -154 202c-94 0 -154 -77 -154 -202c0 -123 59 -195 154 -195z" />
    <glyph glyph-name="zero" unicode="0" horiz-adv-x="585" 
d="M293 710c158 0 267 -143 267 -360s-109 -360 -267 -360c-159 0 -268 143 -268 360s109 360 268 360zM293 17c101 0 162 117 162 333c0 217 -61 333 -162 333c-102 0 -162 -116 -162 -333c0 -216 60 -333 162 -333z" />
    <glyph glyph-name="period" unicode="." horiz-adv-x="213" 
d="M106 108c34 0 62 -21 62 -59c0 -37 -28 -59 -62 -59c-33 0 -61 22 -61 59c0 38 28 59 61 59z" />
    <glyph glyph-name="comma" unicode="," horiz-adv-x="211" 
d="M105 108c33 0 59 -25 60 -67c2 -90 -53 -153 -94 -185l-17 18c44 47 56 76 61 116h-10c-33 0 -60 21 -60 59s27 59 60 59z" />
    <glyph glyph-name="colon" unicode=":" horiz-adv-x="213" 
d="M106 108c34 0 62 -21 62 -59c0 -37 -28 -59 -62 -59c-33 0 -61 22 -61 59c0 38 28 59 61 59zM106 341c-33 0 -61 22 -61 59c0 38 28 59 61 59c34 0 62 -21 62 -59c0 -37 -28 -59 -62 -59z" />
    <glyph glyph-name="semicolon" unicode=";" horiz-adv-x="213" 
d="M107 341c-34 0 -62 22 -62 59c0 38 28 59 62 59c33 0 61 -21 61 -59c0 -37 -28 -59 -61 -59zM105 108c33 0 60 -25 61 -67c1 -90 -53 -153 -94 -185l-17 18c44 47 56 76 60 116h-10c-32 0 -60 21 -60 59s28 59 60 59z" />
    <glyph glyph-name="exclam" unicode="!" horiz-adv-x="213" 
d="M106 108c33 0 62 -21 62 -59c0 -37 -29 -59 -62 -59s-61 22 -61 59c0 38 28 59 61 59zM88 200c-4 170 -22 230 -32 454c-1 38 21 56 50 56c30 0 52 -18 50 -56c-9 -224 -28 -284 -32 -454c0 -18 -4 -30 -18 -30s-17 12 -18 30z" />
    <glyph glyph-name="question" unicode="?" horiz-adv-x="504" 
d="M226 108c34 0 62 -21 62 -59c0 -37 -28 -59 -62 -59c-33 0 -61 22 -61 59c0 38 28 59 61 59zM242 710c116 0 224 -57 216 -167c-13 -184 -200 -139 -219 -347c0 -8 -2 -26 -15 -26c-15 0 -17 13 -17 26c8 201 140 207 152 346c7 91 -40 141 -117 141
c-73 0 -99 -34 -97 -77c2 -36 -1 -59 -17 -71c-32 -24 -69 -1 -77 15c-13 30 1 61 14 80c26 39 83 80 177 80z" />
    <glyph glyph-name="minus" unicode="&#x2212;" horiz-adv-x="446" 
d="M45 350h356v-39h-356v39z" />
    <glyph glyph-name="plus" unicode="+" horiz-adv-x="446" 
d="M401 350v-39h-159v-159h-38v159h-159v39h159v158h38v-158h159z" />
    <glyph glyph-name="equal" unicode="=" horiz-adv-x="446" 
d="M45 234v38h356v-38h-356zM45 419h356v-38h-356v38z" />
    <glyph glyph-name="multiply" unicode="&#xd7;" horiz-adv-x="368" 
d="M323 443l-112 -113l112 -112l-27 -27l-112 112l-112 -112l-27 27l112 112l-112 113l27 27l112 -113l112 113z" />
    <glyph glyph-name="divide" unicode="&#xf7;" horiz-adv-x="446" 
d="M45 350h356v-39h-356v39zM223 240c33 0 61 -21 61 -59c0 -37 -28 -59 -61 -59s-62 22 -62 59c0 38 29 59 62 59zM223 425c-33 0 -62 22 -62 59c0 38 29 60 62 60s61 -22 61 -60c0 -37 -28 -59 -61 -59z" />
    <glyph glyph-name="notequal" unicode="&#x2260;" horiz-adv-x="446" 
d="M401 381h-127l-63 -109h190v-38h-212l-61 -106l-30 20l49 86h-102v38h124l63 109h-187v38h209l61 106l30 -20l-49 -86h105v-38z" />
    <glyph glyph-name="plusminus" unicode="&#xb1;" horiz-adv-x="445" 
d="M45 147v38h355v-38h-355zM242 443h158v-38h-158v-159h-39v159h-158v38h158v159h39v-159z" />
    <glyph glyph-name="numbersign" unicode="#" horiz-adv-x="686" 
d="M641 459h-146l-40 -188h142v-38h-150l-50 -233h-35l50 233h-185l-50 -233h-35l50 233h-147v38h155l40 188h-151v38h159l43 203h35l-43 -203h185l43 203h35l-43 -203h138v-38zM420 271l40 188h-185l-40 -188h185z" />
    <glyph glyph-name="bracketleft" unicode="[" horiz-adv-x="264" 
d="M219 714h-95v-747h95v-38h-174v823h174v-38z" />
    <glyph glyph-name="bracketright" unicode="]" horiz-adv-x="265" 
d="M45 752h175v-823h-175v38h96v747h-96v38z" />
    <glyph glyph-name="questiondown" unicode="&#xbf;" horiz-adv-x="504" 
d="M278 376c-33 0 -61 22 -61 59c0 38 28 60 61 60c34 0 62 -22 62 -60c0 -37 -28 -59 -62 -59zM453 -66c14 -29 0 -60 -13 -79c-27 -40 -84 -80 -178 -80c-115 0 -224 57 -216 167c13 184 200 139 219 347c1 8 2 26 16 26s17 -14 16 -26c-7 -201 -139 -207 -151 -347
c-8 -91 40 -141 116 -141c73 0 99 35 97 78c-2 35 2 59 17 71c32 24 69 1 77 -16z" />
    <glyph glyph-name="exclamdown" unicode="&#xa1;" horiz-adv-x="213" 
d="M106 376c-33 0 -61 22 -61 59c0 38 28 60 61 60c34 0 62 -22 62 -60c0 -37 -28 -59 -62 -59zM124 284c4 -170 23 -230 32 -453c2 -39 -20 -56 -50 -56c-29 0 -51 17 -50 56c10 223 29 283 32 453c1 18 4 31 18 31c15 0 18 -13 18 -31z" />
    <glyph glyph-name="quotesinglbase" unicode="&#x201a;" horiz-adv-x="212" 
d="M106 108c32 0 59 -25 60 -67c2 -90 -53 -153 -94 -185l-17 18c44 47 56 76 60 116h-9c-33 0 -61 21 -61 59s28 59 61 59z" />
    <glyph glyph-name="quotedblbase" unicode="&#x201e;" horiz-adv-x="393" 
d="M105 108c33 0 59 -25 60 -67c2 -90 -53 -153 -94 -185l-16 18c44 47 55 76 60 116h-10c-33 0 -60 21 -60 59s27 59 60 59zM287 108c33 0 59 -25 60 -67c2 -90 -53 -153 -94 -185l-16 18c44 47 55 76 60 116h-10c-33 0 -60 21 -60 59s27 59 60 59z" />
    <glyph glyph-name="quotedblleft" unicode="&#x201c;" horiz-adv-x="393" 
d="M288 653c33 0 60 -22 60 -59c0 -38 -27 -60 -60 -60s-60 26 -60 67c-2 90 52 154 94 185l16 -17c-44 -48 -56 -77 -60 -116h10zM106 653c33 0 60 -22 60 -59c0 -38 -27 -60 -60 -60s-60 26 -60 67c-2 90 52 154 93 185l17 -17c-44 -48 -56 -77 -60 -116h10z" />
    <glyph glyph-name="quoteleft" unicode="&#x2018;" horiz-adv-x="211" 
d="M106 653c33 0 60 -22 60 -59c0 -38 -27 -60 -60 -60s-60 26 -60 67c-2 90 53 154 94 185l16 -17c-44 -48 -56 -77 -60 -116h10z" />
    <glyph glyph-name="quoteright" unicode="&#x2019;" horiz-adv-x="212" 
d="M106 727c32 0 59 -25 60 -67c2 -90 -53 -153 -94 -185l-17 18c44 47 56 76 60 116h-9c-33 0 -61 22 -61 59c0 38 28 59 61 59z" />
    <glyph glyph-name="quotedblright" unicode="&#x201d;" horiz-adv-x="394" 
d="M105 727c33 0 60 -25 61 -67c1 -90 -53 -153 -94 -185l-17 18c44 47 56 76 60 116h-10c-33 0 -60 22 -60 59c0 38 27 59 60 59zM287 727c33 0 60 -25 61 -67c1 -90 -53 -153 -94 -185l-17 18c44 47 56 76 60 116h-10c-32 0 -60 22 -60 59c0 38 28 59 60 59z" />
    <glyph glyph-name="slash" unicode="/" horiz-adv-x="382" 
d="M299 700h38l-253 -700h-39z" />
    <glyph glyph-name="backslash" unicode="\" horiz-adv-x="381" 
d="M83 700l253 -700h-38l-253 700h38z" />
    <glyph glyph-name="parenright" unicode=")" horiz-adv-x="269" 
d="M61 761c72 -81 163 -222 163 -411s-91 -330 -163 -410l-16 15c70 115 94 272 94 395c0 124 -24 281 -94 396z" />
    <glyph glyph-name="parenleft" unicode="(" horiz-adv-x="270" 
d="M225 746c-70 -115 -94 -272 -94 -396c0 -123 24 -280 94 -395l-16 -15c-72 80 -164 221 -164 410s92 330 164 411z" />
    <glyph glyph-name="guilsinglright" unicode="&#x203a;" horiz-adv-x="271" 
d="M59 480l167 -139v-35l-167 -139l-14 16l108 141l-108 140z" />
    <glyph glyph-name="guilsinglleft" unicode="&#x2039;" horiz-adv-x="271" 
d="M226 464l-108 -140l108 -141l-14 -16l-167 139v35l167 139z" />
    <glyph glyph-name="guillemotright" unicode="&#xbb;" horiz-adv-x="461" 
d="M45 464l14 16l167 -139v-35l-167 -139l-14 16l108 141zM249 480l167 -139v-35l-167 -139l-14 16l108 141l-108 140z" />
    <glyph glyph-name="guillemotleft" unicode="&#xab;" horiz-adv-x="461" 
d="M416 464l-108 -140l108 -141l-14 -16l-167 139v35l167 139zM213 480l14 -16l-109 -140l109 -141l-14 -16l-168 139v35z" />
    <glyph glyph-name="bar" unicode="|" horiz-adv-x="169" 
d="M45 700h79v-817h-79v817z" />
    <glyph glyph-name="hyphen" unicode="-" horiz-adv-x="446" 
d="M45 349h356v-38h-356v38z" />
    <glyph glyph-name="endash" unicode="&#x2013;" horiz-adv-x="485" 
d="M45 349h395v-38h-395v38z" />
    <glyph glyph-name="emdash" unicode="&#x2014;" horiz-adv-x="538" 
d="M45 349h448v-38h-448v38z" />
    <glyph glyph-name="underscore" unicode="_" horiz-adv-x="445" 
d="M45 0h355v-38h-355v38z" />
    <glyph glyph-name="quotesingle" unicode="'" horiz-adv-x="173" 
d="M86 710c26 0 44 -16 41 -49c-6 -57 -14 -107 -22 -145c-3 -15 -7 -21 -19 -21s-16 6 -19 21c-7 38 -15 88 -21 145c-4 33 14 49 40 49z" />
    <glyph glyph-name="quotedbl" unicode="&#x22;" horiz-adv-x="314" 
d="M87 710c26 0 44 -16 40 -49c-6 -57 -14 -107 -21 -145c-3 -15 -7 -21 -19 -21s-16 6 -19 21c-8 38 -16 88 -22 145c-3 33 15 49 41 49zM227 710c26 0 44 -16 41 -49c-6 -57 -14 -107 -22 -145c-3 -15 -7 -21 -19 -21c-11 0 -15 6 -18 21c-8 38 -16 88 -22 145
c-4 33 15 49 40 49z" />
    <glyph glyph-name="asciitilde" unicode="~" horiz-adv-x="422" 
d="M142 418c29 0 52 -8 84 -24c29 -14 53 -29 80 -29c26 0 40 14 48 41h23c-5 -68 -38 -103 -85 -103c-38 0 -63 15 -98 29c-28 12 -44 19 -68 19s-43 -12 -58 -39h-23c5 68 45 106 97 106z" />
    <glyph glyph-name="approxequal" unicode="&#x2248;" horiz-adv-x="422" 
d="M126 420c-24 0 -43 -12 -57 -40h-24c5 68 45 107 97 107c29 0 53 -9 84 -24c29 -15 53 -30 80 -30c26 0 40 14 48 41h23c-5 -68 -38 -102 -85 -102c-38 0 -63 14 -98 29c-28 11 -44 19 -68 19zM306 290c26 0 40 14 48 41h23c-5 -68 -38 -103 -85 -103
c-38 0 -63 15 -98 29c-28 12 -44 19 -68 19s-43 -12 -57 -39h-24c5 68 45 106 97 106c29 0 53 -8 84 -24c29 -15 53 -29 80 -29z" />
    <glyph glyph-name="asciicircum" unicode="^" horiz-adv-x="390" 
d="M212 761l133 -167l-17 -14l-133 108l-134 -108l-16 14l132 167h35z" />
    <glyph glyph-name="percent" unicode="%" horiz-adv-x="845" 
d="M378 521c0 -114 -81 -190 -176 -190c-96 0 -177 76 -177 190s81 189 177 189c95 0 176 -75 176 -189zM202 353c64 0 98 66 98 168s-34 168 -98 168s-99 -66 -99 -168s35 -168 99 -168zM644 369c95 0 176 -75 176 -190c0 -114 -81 -189 -176 -189c-96 0 -177 75 -177 189
c0 115 81 190 177 190zM644 11c64 0 98 66 98 168s-34 168 -98 168s-98 -66 -98 -168s34 -168 98 -168zM605 700h40l-403 -700h-33z" />
    <glyph glyph-name="perthousand" unicode="&#x2030;" horiz-adv-x="1276" 
d="M378 521c0 -114 -81 -190 -177 -190c-95 0 -176 76 -176 190s81 189 176 189c96 0 177 -75 177 -189zM201 353c64 0 99 66 99 168s-35 168 -99 168c-63 0 -98 -66 -98 -168s35 -168 98 -168zM643 369c96 0 177 -75 177 -190c0 -114 -81 -189 -177 -189
c-95 0 -176 75 -176 189c0 115 81 190 176 190zM643 11c64 0 99 66 99 168s-35 168 -99 168c-63 0 -98 -66 -98 -168s35 -168 98 -168zM1074 369c96 0 177 -75 177 -190c0 -114 -81 -189 -177 -189c-95 0 -176 75 -176 189c0 115 81 190 176 190zM1074 11c64 0 99 66 99 168
s-35 168 -99 168c-63 0 -98 -66 -98 -168s35 -168 98 -168zM605 700h40l-403 -700h-34z" />
    <glyph glyph-name="bullet" unicode="&#x2022;" horiz-adv-x="275" 
d="M137 479c51 0 93 -33 93 -91s-42 -91 -93 -91c-50 0 -92 33 -92 91s42 91 92 91z" />
    <glyph glyph-name="degree" unicode="&#xb0;" horiz-adv-x="376" 
d="M188 710c78 0 143 -54 143 -139s-65 -139 -143 -139s-143 54 -143 139s65 139 143 139zM188 453c53 0 81 54 81 118s-28 119 -81 119c-54 0 -82 -55 -82 -119s28 -118 82 -118z" />
    <glyph glyph-name="afii61352" unicode="&#x2116;" horiz-adv-x="1172" 
d="M726 337h421v-38h-421v38zM554 678v22h132v-22c-37 -3 -47 -20 -47 -59v-619h-62l-446 570v-488c0 -40 10 -57 47 -60v-22h-133v22c38 3 48 20 48 60v537c0 39 -10 56 -48 59v22h124l432 -552v471c0 39 -10 56 -47 59zM937 432c-78 0 -143 54 -143 139s65 139 143 139
s143 -54 143 -139s-65 -139 -143 -139zM937 690c-54 0 -82 -55 -82 -119s28 -118 82 -118c53 0 81 54 81 118s-28 119 -81 119z" />
    <glyph glyph-name="section" unicode="&#xa7;" horiz-adv-x="558" 
d="M508 214c-7 -37 -28 -70 -58 -95c22 -35 32 -77 20 -130c-23 -98 -106 -134 -201 -134c-94 0 -168 40 -197 83c-13 19 -25 51 -12 77c11 22 50 35 75 16c16 -12 18 -30 19 -71c2 -45 49 -78 105 -78c78 0 121 36 127 97c7 88 -74 126 -162 183c-126 81 -196 138 -174 255
c7 37 29 69 58 95c-22 34 -31 76 -19 130c22 98 105 133 200 133c94 0 169 -39 198 -82c13 -20 24 -51 11 -78c-10 -21 -49 -34 -75 -15c-15 11 -17 30 -19 71c-1 45 -48 77 -104 77c-78 0 -121 -36 -127 -97c-8 -87 73 -125 162 -182c126 -81 196 -138 173 -255zM424 183
c15 88 -72 141 -161 200c-43 28 -87 56 -121 88c-3 -7 -6 -15 -7 -24c-15 -87 72 -141 161 -200c43 -28 87 -55 121 -88c3 7 5 15 7 24z" />
    <glyph glyph-name="paragraph" unicode="&#xb6;" horiz-adv-x="520" 
d="M216 700h259v-22c-38 -4 -48 -21 -48 -60v-618h-38v661h-94v-661h-38v340h-41c-102 0 -171 70 -171 180s69 180 171 180z" />
    <glyph glyph-name="brokenbar" unicode="&#xa6;" horiz-adv-x="168" 
d="M45 -117v342h78v-342h-78zM45 700h78v-342h-78v342z" />
    <glyph glyph-name="greater" unicode="&#x3e;" horiz-adv-x="387" 
d="M45 423l297 -148v-47l-297 -148v64l223 107l-223 108v64z" />
    <glyph glyph-name="less" unicode="&#x3c;" horiz-adv-x="387" 
d="M342 423v-64l-223 -108l223 -107v-64l-297 148v47z" />
    <glyph glyph-name="ellipsis" unicode="&#x2026;" horiz-adv-x="598" 
d="M106 108c33 0 61 -22 61 -59c0 -38 -28 -59 -61 -59s-61 21 -61 59c0 37 28 59 61 59zM299 108c33 0 61 -22 61 -59c0 -38 -28 -59 -61 -59c-34 0 -62 21 -62 59c0 37 28 59 62 59zM491 108c34 0 62 -22 62 -59c0 -38 -28 -59 -62 -59c-33 0 -61 21 -61 59
c0 37 28 59 61 59z" />
    <glyph glyph-name="dagger" unicode="&#x2020;" horiz-adv-x="497" 
d="M402 562c34 4 50 -14 50 -40s-16 -44 -50 -41c-52 6 -99 13 -136 20v-10c4 -170 16 -229 26 -453c1 -38 -14 -57 -44 -57c-29 0 -45 19 -43 57c10 224 22 283 25 453c0 4 1 7 1 10c-37 -7 -84 -14 -137 -20c-33 -3 -49 15 -49 41s16 44 49 40c52 -5 99 -12 135 -19
c-7 38 -15 87 -21 143c-4 34 15 50 40 50c26 0 44 -16 41 -50c-6 -56 -14 -105 -22 -143c37 7 84 14 135 19z" />
    <glyph glyph-name="daggerdbl" unicode="&#x2021;" horiz-adv-x="498" 
d="M403 360c34 3 50 -15 50 -41s-16 -44 -50 -40c-48 4 -91 11 -127 18c5 -68 11 -140 16 -259c2 -38 -14 -57 -43 -57c-30 0 -45 19 -44 57c5 119 11 191 16 259c-35 -7 -78 -14 -126 -18c-34 -4 -50 14 -50 40s16 44 50 41c49 -6 93 -12 129 -19c3 44 5 90 7 150v10
c-37 -7 -84 -14 -136 -20c-34 -3 -50 15 -50 41s16 44 50 40c52 -5 98 -12 135 -19c-8 38 -16 87 -22 143c-3 34 15 50 41 50s44 -16 40 -50c-6 -56 -14 -105 -21 -143c37 7 83 14 135 19c34 4 50 -14 50 -40s-16 -44 -50 -41c-53 6 -100 13 -137 20c0 -3 1 -6 1 -10
c1 -60 3 -106 6 -150c36 7 81 13 130 19z" />
    <glyph glyph-name="copyright" unicode="&#xa9;" horiz-adv-x="777" 
d="M394 156c72 -5 127 32 149 106h12l-12 -81c-36 -26 -77 -44 -145 -42c-121 4 -221 84 -221 212s93 211 217 211c53 0 111 -17 149 -41v-84h-12c-18 74 -73 109 -137 109c-91 0 -148 -82 -148 -195s57 -190 148 -195zM388 708c201 0 364 -164 364 -364
s-163 -364 -364 -364c-200 0 -363 164 -363 364s163 364 363 364zM388 13c183 0 331 148 331 331s-148 331 -331 331c-182 0 -331 -148 -331 -331s149 -331 331 -331z" />
    <glyph glyph-name="registered" unicode="&#xae;" horiz-adv-x="777" 
d="M389 -19c-201 0 -364 163 -364 363c0 201 163 364 364 364c200 0 363 -163 363 -364c0 -200 -163 -363 -363 -363zM389 676c-183 0 -332 -149 -332 -332c0 -182 149 -331 332 -331c182 0 331 149 331 331c0 183 -149 332 -331 332zM545 193c13 -20 29 -31 45 -35v-13h-85
l-108 171h-18h-58v-123c0 -23 5 -33 27 -35v-13h-118v13c22 2 28 12 28 35v316c0 23 -6 33 -28 35v13h149c86 0 162 -37 162 -121c0 -57 -35 -92 -85 -109zM373 338c62 0 103 38 103 98c0 61 -41 98 -103 98h-52v-196h52z" />
    <glyph glyph-name="asterisk" unicode="*" horiz-adv-x="454" 
d="M406 860c8 -22 0 -43 -31 -50c-43 -11 -83 -18 -116 -23c26 -24 56 -54 88 -89c21 -23 16 -44 -3 -59c-19 -14 -41 -12 -57 15c-25 42 -45 81 -60 113c-15 -32 -35 -71 -60 -113c-15 -27 -38 -29 -57 -15c-19 15 -24 36 -3 59c32 35 63 65 88 89c-33 5 -73 12 -117 23
c-30 7 -38 28 -30 50s27 33 55 20c40 -19 76 -38 104 -54c-6 32 -12 73 -17 117c-3 31 14 46 38 46c23 0 40 -15 37 -46c-5 -44 -11 -84 -17 -116c29 16 63 34 103 53c28 13 47 2 55 -20z" />
    <glyph glyph-name="braceleft" unicode="{" horiz-adv-x="327" 
d="M282 726c-17 -5 -44 -9 -68 -52c-29 -51 -11 -140 -12 -220c-2 -106 -74 -121 -74 -121s72 -16 74 -121c1 -81 -17 -169 12 -221c24 -43 51 -47 68 -51v-22c-34 4 -103 15 -134 63c-24 38 -27 82 -19 199c7 117 -24 126 -46 134c-17 7 -38 7 -38 7v23s21 1 38 7
c22 8 53 17 46 134c-8 118 -5 161 19 200c31 48 100 59 134 62v-21z" />
    <glyph glyph-name="braceright" unicode="}" horiz-adv-x="327" 
d="M244 351c17 -6 38 -7 38 -7v-23s-21 0 -38 -7c-22 -8 -53 -17 -46 -134c8 -117 5 -161 -19 -199c-31 -48 -100 -59 -134 -63v22c17 4 44 8 68 51c29 52 11 140 12 221c2 105 74 121 74 121s-72 15 -74 121c-1 80 17 169 -12 220c-24 43 -51 47 -68 52v21
c34 -3 103 -14 134 -62c24 -39 27 -82 19 -200c-7 -117 24 -126 46 -134z" />
    <glyph glyph-name="sterling" unicode="&#xa3;" horiz-adv-x="566" 
d="M513 152h18l-18 -152h-471v25c56 128 57 209 47 303h-64v38h60c-6 43 -12 89 -16 144c-10 139 99 200 229 200c95 0 151 -39 180 -82c13 -20 25 -51 12 -78c-11 -21 -50 -34 -75 -15c-16 11 -19 30 -19 71c-1 45 -28 81 -98 78c-82 -4 -124 -71 -117 -174
c4 -51 6 -99 5 -144h169v-38h-171c-6 -91 -26 -171 -71 -251h264c93 0 120 24 136 75z" />
    <glyph glyph-name="Euro" unicode="&#x20ac;" horiz-adv-x="750" 
d="M695 200h20l-21 -138c-61 -44 -126 -75 -242 -72c-176 6 -324 105 -365 269h-67v38h60c-3 17 -4 35 -4 54c0 11 1 22 1 33h-57v38h62c31 178 177 288 364 288c90 0 183 -28 248 -70v-142h-21c-30 125 -118 186 -227 186c-136 0 -227 -107 -249 -262h277v-38h-280
c-1 -11 -1 -22 -1 -33c0 -19 1 -37 2 -54h246v-38h-240c27 -141 116 -233 245 -241c122 -7 210 55 249 182z" />
    <glyph glyph-name="dollar" unicode="$" horiz-adv-x="538" 
d="M321 409c124 -73 214 -132 179 -267c-27 -104 -117 -145 -212 -151v-114h-38v113c-86 2 -158 27 -220 71v141h18c36 -115 104 -180 199 -185h3v300c-1 1 -2 1 -2 1c-101 57 -211 125 -180 259c20 92 94 129 182 133v113h38v-113c68 -4 120 -30 181 -70v-135h-19
c-30 121 -85 172 -162 178v-255c11 -6 21 -13 33 -19zM158 587c-5 -64 35 -101 92 -136v231c-57 -7 -87 -44 -92 -95zM402 125c15 83 -41 127 -114 170v-276c69 9 105 52 114 106z" />
    <glyph glyph-name="yen" unicode="&#xa5;" horiz-adv-x="674" 
d="M505 700h149v-22c-38 -3 -58 -24 -77 -59l-168 -306h115v-38h-121v-55h121v-39h-121v-99c0 -39 10 -57 47 -60v-22h-201v22c38 3 48 21 48 60v99h-126v39h126v55h-126v38h113l-188 306c-20 33 -38 56 -76 59v22h215v-22c-31 0 -47 -23 -28 -54l170 -286l158 284
c17 33 5 55 -30 56v22z" />
    <glyph glyph-name="cent" unicode="&#xa2;" horiz-adv-x="469" 
d="M435 229l14 -12c-35 -66 -104 -114 -193 -114h-1v-128h-38v131c-115 17 -207 110 -207 251c0 135 94 222 207 238v131h38v-129c84 0 148 -29 178 -79c17 -29 14 -74 -24 -88c-30 -10 -71 9 -68 64c3 50 -32 82 -86 79v-408c66 -14 138 10 180 64zM114 357
c4 -95 48 -152 103 -179v387c-60 -24 -109 -98 -103 -208z" />
    <glyph glyph-name="currency" unicode="&#xa4;" horiz-adv-x="648" 
d="M575 350c0 -68 -23 -124 -59 -165l87 -87l-27 -27l-88 88c-45 -36 -103 -56 -164 -56c-62 0 -120 20 -165 56l-87 -88l-27 27l87 87c-37 41 -59 97 -59 165s22 124 59 165l-87 87l27 27l87 -87c45 36 103 55 165 55c61 0 119 -19 164 -55l88 87l27 -27l-87 -87
c36 -41 59 -97 59 -165zM324 132c90 0 143 88 143 218s-53 218 -143 218s-143 -88 -143 -218s53 -218 143 -218z" />
    <glyph glyph-name="ampersand" unicode="&#x26;" horiz-adv-x="806" 
d="M586 134c45 -45 136 -115 200 -107v-26c-106 -36 -195 22 -241 62c-12 10 -32 29 -57 52c-28 -54 -83 -125 -197 -125c-140 0 -256 76 -256 197c0 100 66 173 172 198c-57 42 -104 104 -95 179c10 93 84 146 184 146c105 0 197 -54 200 -147c2 -88 -62 -166 -157 -193
c38 -36 104 -98 159 -151c37 98 72 169 155 175c47 3 95 -20 109 -63c8 -27 -1 -63 -30 -73c-32 -11 -68 1 -73 50c-3 37 -24 46 -51 39c-33 -8 -64 -85 -88 -149c31 -30 56 -54 66 -64zM188 576c0 -61 66 -126 125 -178c59 27 101 78 104 162c3 73 -45 124 -114 124
c-72 0 -115 -40 -115 -108zM298 18c101 0 145 70 168 118c-83 77 -197 186 -229 217c-63 -24 -102 -79 -107 -158c-7 -120 85 -177 168 -177z" />
    <glyph glyph-name="at" unicode="@" horiz-adv-x="843" 
d="M416 746c229 0 402 -166 402 -379c0 -103 -43 -199 -126 -216c-59 -11 -142 12 -163 75c-26 -43 -68 -78 -135 -78c-95 0 -173 77 -173 198c0 122 78 198 173 198c70 0 113 -38 139 -85l58 77h17v-262c0 -75 47 -95 82 -90c62 8 98 90 98 183c0 177 -147 350 -372 350
c-213 0 -362 -168 -362 -360c0 -213 160 -366 379 -366c62 0 126 21 158 43v-33c-29 -19 -99 -40 -158 -40c-247 0 -408 162 -408 396c0 220 165 389 391 389zM415 178c70 0 109 66 109 168c0 103 -39 168 -109 168s-109 -71 -109 -168s39 -168 109 -168z" />
    <glyph glyph-name="AE" unicode="&#xc6;" horiz-adv-x="987" 
d="M933 156h19l-19 -156h-499v22c37 3 47 21 47 60v144h-236l-93 -144c-24 -38 -19 -57 18 -60v-22h-155v22c38 3 69 25 91 60l341 530c23 36 12 63 -24 66v22h487l19 -155h-19c-16 51 -43 117 -135 117h-187v-288h123c70 0 89 23 96 65h18v-169h-18c-7 42 -26 66 -96 66
h-123v-298h209c93 0 120 67 136 118zM269 264h212v331z" />
    <glyph glyph-name="OE" unicode="&#x152;" horiz-adv-x="1179" 
d="M1125 156h19l-19 -156h-499v22c37 3 47 21 47 60v20c-67 -70 -165 -112 -276 -112c-211 0 -372 151 -372 360c0 210 161 360 372 360c111 0 209 -41 276 -112v21c0 39 -10 56 -47 59v22h476l19 -155h-19c-16 51 -43 117 -135 117h-187v-288h124c69 0 88 23 95 65h18v-169
h-18c-7 42 -26 66 -95 66h-124v-298h209c93 0 120 67 136 118zM397 17c143 0 259 120 259 333s-116 333 -259 333s-259 -120 -259 -333s116 -333 259 -333z" />
    <glyph glyph-name="Dcroat" unicode="&#x110;" horiz-adv-x="719" 
d="M307 700c261 0 392 -161 392 -350s-131 -350 -392 -350h-262v22c38 4 48 21 48 60v256h-48v38h48v243c0 39 -10 56 -48 59v22h262zM294 38c191 0 292 119 292 312s-101 312 -292 312h-95v-286h186v-38h-186v-300h95z" />
    <glyph glyph-name="Oslash" unicode="&#xd8;" horiz-adv-x="795" 
d="M673 599c61 -63 97 -149 97 -249c0 -209 -161 -360 -372 -360c-97 0 -183 31 -248 86l-83 -83l-27 27l82 82c-61 63 -97 149 -97 248c0 210 162 360 373 360c96 0 182 -31 247 -85l83 83l27 -27zM138 350c0 -76 15 -140 41 -192l417 418c-47 70 -119 107 -198 107
c-144 0 -260 -120 -260 -333zM398 17c143 0 259 120 259 333c0 76 -15 141 -41 192l-417 -418c47 -70 119 -107 199 -107z" />
    <glyph glyph-name="Thorn" unicode="&#xde;" horiz-adv-x="587" 
d="M285 565c148 0 282 -69 282 -215s-134 -215 -282 -215h-87v-53c0 -39 10 -57 48 -60v-22h-201v22c37 3 47 21 47 60v537c0 39 -10 56 -47 59v22h201v-22c-38 -3 -48 -20 -48 -59v-54h87zM274 174c112 0 182 61 182 176c0 116 -70 177 -182 177h-76v-353h76z" />
    <glyph glyph-name="Lslash" unicode="&#x141;" horiz-adv-x="579" 
d="M545 156h19l-19 -156h-500v22c37 3 47 21 47 60v99l-47 -14v38l47 14v400c0 39 -10 56 -47 59v22h201v-22c-37 -3 -47 -20 -47 -59v-367l186 57v-38l-186 -57v-176h211c93 0 119 67 135 118z" />
    <glyph glyph-name="Hbar" unicode="&#x126;" horiz-adv-x="756" 
d="M711 498h-47v-416c0 -39 10 -57 47 -60v-22h-201v22c37 3 47 21 47 60v257h-358v-257c0 -39 10 -57 47 -60v-22h-201v22c38 3 48 21 48 60v416h-48v38h48v83c0 39 -10 56 -48 59v22h201v-22c-37 -3 -47 -20 -47 -59v-83h358v83c0 39 -10 56 -47 59v22h201v-22
c-37 -3 -47 -20 -47 -59v-83h47v-38zM557 377v121h-358v-121h358z" />
    <glyph glyph-name="Eng" unicode="&#x14a;" 
d="M553 700h133v-22c-37 -3 -47 -20 -47 -59v-606c0 -123 -46 -239 -177 -239c-85 0 -169 32 -199 84c-13 23 -14 57 -3 75c17 26 54 32 77 12c22 -19 16 -46 18 -66c2 -40 40 -76 106 -76c92 0 138 73 139 197h-24l-446 570v-488c0 -39 10 -57 48 -60v-22h-133v22
c37 3 47 21 47 60v537c0 39 -10 56 -47 59v22h123l432 -552v471c0 39 -10 56 -47 59v22z" />
    <glyph glyph-name="Tbar" unicode="&#x166;" horiz-adv-x="640" 
d="M601 700l19 -155h-19c-16 51 -42 117 -135 117h-93v-293h117v-38h-117v-249c0 -39 10 -57 48 -60v-22h-202v22c38 3 48 21 48 60v249h-117v38h117v293h-93c-93 0 -119 -66 -135 -117h-19l19 155h562z" />
    <glyph glyph-name="germandbls" unicode="&#xdf;" horiz-adv-x="638" 
d="M435 368c101 -46 203 -105 179 -227c-20 -99 -105 -151 -202 -151c-72 0 -141 26 -205 75v144h22c30 -124 103 -192 183 -192c58 0 100 33 110 95c13 85 -38 122 -127 164c-125 58 -179 135 -133 208c25 39 32 80 33 116c2 50 -12 83 -59 83c-70 -5 -60 -94 -60 -196
v-487h-151v22c37 3 47 21 47 60v425c0 115 46 203 165 203c114 0 159 -58 152 -119c-5 -51 -38 -81 -86 -107c-58 -31 40 -75 132 -116z" />
    <glyph glyph-name="bitcoin" unicode="&#x20bf;" horiz-adv-x="640" 
d="M620 196c0 -126 -117 -185 -244 -195v-124h-39v123h-80v-123h-38v123h-174v22c37 3 47 20 47 59v537c0 39 -10 57 -47 60v22h174v123h38v-123h14c22 0 45 -1 66 -3v126h39v-131c96 -16 175 -61 175 -168c0 -76 -54 -130 -129 -149c112 -13 198 -68 198 -179zM199 661
v-276h68c103 0 178 38 178 139c0 107 -82 137 -184 137h-62zM320 38c105 0 189 41 189 154c0 107 -90 155 -195 155h-115v-309h121z" />
    <glyph glyph-name="ruble" unicode="&#x20bd;" horiz-adv-x="588" 
d="M285 271h-86v-56h199v-38h-199v-95c0 -39 10 -57 47 -60v-22h-201v22c38 3 48 21 48 60v95h-48v38h48v56h-48v38h48v310c0 39 -10 56 -48 59v22h240c148 0 283 -69 283 -215c0 -145 -135 -214 -283 -214zM199 662v-353h76c111 0 182 61 182 176c0 116 -71 177 -182 177
h-76z" />
    <glyph glyph-name="ae" unicode="&#xe6;" horiz-adv-x="781" 
d="M765 253h-344v-4v-6c12 -220 236 -241 324 -128l14 -12c-35 -66 -110 -113 -195 -113c-95 0 -180 50 -221 135c-16 -105 -93 -135 -163 -135c-79 0 -163 34 -169 122c-7 104 75 151 175 160c62 5 106 9 131 11v39c0 88 -21 135 -90 139c-38 3 -80 -18 -78 -66
c2 -54 -35 -69 -66 -57c-28 11 -35 41 -20 73c26 55 101 72 161 72s125 -12 163 -61c42 40 100 61 166 61c145 0 213 -101 212 -224v-6zM552 461c-70 -1 -123 -67 -130 -172h246c4 89 -34 173 -116 172zM212 28c64 2 105 52 105 133v99c-15 -2 -40 -4 -79 -9
c-82 -10 -127 -60 -126 -123c1 -69 45 -102 100 -100z" />
    <glyph glyph-name="oe" unicode="&#x153;" horiz-adv-x="873" 
d="M852 259v-6h-344v-10c12 -220 237 -241 324 -128l14 -12c-35 -66 -110 -113 -195 -113c-77 0 -148 33 -194 92c-47 -59 -121 -92 -201 -92c-133 0 -251 91 -251 247s118 246 251 246c77 0 149 -30 196 -86c43 56 110 86 189 86c144 0 213 -101 211 -224zM256 19
c90 0 143 88 143 218s-53 218 -143 218s-143 -88 -143 -218s53 -218 143 -218zM756 289c3 89 -35 173 -117 172c-70 -1 -123 -67 -130 -172h247z" />
    <glyph glyph-name="dcroat" unicode="&#x111;" horiz-adv-x="557" 
d="M493 540v-469c0 -36 29 -45 58 -35l6 -19c-24 -19 -51 -27 -83 -27c-43 0 -85 19 -85 79v8c-33 -49 -85 -87 -163 -87c-119 0 -216 95 -216 247c0 151 97 246 216 246c78 0 130 -37 163 -87v144h-172v38h172v41c0 39 -10 56 -47 59v22l135 36h16v-158h64v-38h-64zM252 27
c88 0 137 82 137 210s-49 210 -137 210c-87 0 -135 -89 -135 -210s48 -210 135 -210z" />
    <glyph glyph-name="oslash" unicode="&#xf8;" horiz-adv-x="527" 
d="M512 466l-64 -64c37 -41 59 -97 59 -165c0 -156 -118 -247 -251 -247c-61 0 -119 19 -164 56l-65 -65l-27 27l64 64c-36 41 -59 97 -59 165c0 156 118 246 251 246c61 0 120 -19 164 -55l65 65zM113 237c0 -38 5 -73 14 -103l243 244c-24 48 -63 77 -114 77
c-90 0 -143 -88 -143 -218zM399 237c0 38 -5 73 -13 102l-244 -243c24 -49 63 -77 114 -77c90 0 143 88 143 218z" />
    <glyph glyph-name="thorn" unicode="&#xfe;" horiz-adv-x="575" 
d="M329 483c119 0 216 -95 216 -246c0 -152 -97 -247 -216 -247c-78 0 -129 38 -163 87v-222c0 -39 10 -56 48 -59v-22h-199v22c37 3 47 20 47 59v764c0 39 -10 56 -47 59v22l135 36h16v-340c34 50 85 87 163 87zM303 27c88 0 136 89 136 210s-48 210 -136 210
s-137 -82 -137 -210s49 -210 137 -210z" />
    <glyph glyph-name="lslash" unicode="&#x142;" horiz-adv-x="240" 
d="M262 271l-85 -33v-156c0 -40 10 -57 48 -60v-22h-200v22c38 3 48 20 48 60v117l-85 -33v39l85 32v382c0 39 -10 56 -48 59v22l136 36h16v-459l85 32v-38z" />
    <glyph glyph-name="hbar" unicode="&#x127;" horiz-adv-x="584" 
d="M522 82c0 -40 10 -57 47 -60v-22h-199v22c37 3 47 20 47 60v223c0 81 -36 140 -114 140c-69 0 -117 -56 -117 -131v-232c0 -40 10 -57 48 -60v-22h-200v22c38 3 48 20 48 60v467h-57v38h57v32c0 39 -10 56 -48 59v22l136 36h16v-149h179v-38h-179v-135
c38 47 91 69 151 69c123 0 185 -83 185 -188v-213z" />
    <glyph glyph-name="eng" unicode="&#x14b;" horiz-adv-x="572" 
d="M327 483c123 0 185 -90 185 -195v-310c0 -106 -32 -199 -119 -204c-49 -3 -106 13 -137 55c-17 22 -29 69 2 91c20 15 49 9 61 -12c11 -21 9 -45 14 -63c7 -32 35 -49 65 -44c23 4 43 29 36 62c-11 63 -27 45 -27 138v304c0 81 -36 140 -114 140
c-68 0 -117 -56 -117 -131v-232c0 -40 10 -57 48 -60v-22h-199v22c37 3 47 20 47 60v284c0 39 -10 56 -47 60v22l132 35h16v-73c38 49 93 73 154 73z" />
    <glyph glyph-name="tbar" unicode="&#x167;" horiz-adv-x="344" 
d="M307 64l12 -18c-21 -31 -57 -56 -106 -56c-73 0 -129 38 -129 140v175h-74v35h74v98h-74v36c84 0 132 57 148 138h31v-138h103v-36h-103v-98h83v-35h-83v-175c0 -44 14 -71 43 -80s55 -1 75 14z" />
    <glyph glyph-name="longs" unicode="&#x17f;" horiz-adv-x="295" 
d="M359 658c14 -18 27 -59 -2 -80c-20 -15 -51 -9 -63 12c-11 20 -12 46 -19 64c-11 24 -25 33 -51 32c-35 -2 -53 -31 -50 -67c4 -64 22 -46 22 -138v-400c0 -39 10 -56 47 -59v-22h-199v22c37 3 47 20 47 60v356h-86v36h86v40c0 106 34 196 140 199c49 1 97 -15 128 -55z
" />
    <glyph glyph-name="eth" unicode="&#xf0;" horiz-adv-x="558" 
d="M391 601c82 -78 138 -195 131 -347c-9 -166 -115 -264 -265 -264c-142 0 -243 90 -246 229c-4 138 107 228 240 228c70 0 135 -37 170 -87c-6 91 -37 160 -79 211l-90 -56l-17 28l85 52c-62 61 -137 90 -188 94l3 27c77 -4 161 -36 231 -92l83 51l16 -28zM264 17
c95 0 154 76 154 202c0 122 -59 195 -154 195s-154 -73 -154 -195c0 -126 59 -202 154 -202z" />
    <glyph glyph-name="ogonek" unicode="&#x2db;" horiz-adv-x="251" 
d="M143 0h28c-25 -20 -50 -56 -55 -97c-8 -57 52 -61 80 -40l10 -13c-12 -20 -35 -42 -79 -42c-58 0 -95 42 -77 97c14 43 63 80 93 95z" />
    <glyph glyph-name="cedilla" unicode="&#xb8;" horiz-adv-x="255" 
d="M148 -55c46 -7 64 -39 61 -69c-3 -41 -40 -68 -90 -68c-30 0 -62 13 -74 27l11 17c5 -4 20 -14 39 -14c22 0 37 13 41 41c2 23 -5 37 -24 40c-11 2 -21 1 -28 -2l-7 18l22 65h26l-19 -57c13 2 28 3 42 2z" />
    <glyph glyph-name="commaaccent" unicode="&#xf6c3;" horiz-adv-x="212" 
d="M105 -64c33 0 60 -25 61 -67c1 -90 -53 -153 -94 -185l-17 18c44 47 56 76 60 116h-10c-33 0 -60 21 -60 59s27 59 60 59z" />
    <glyph glyph-name="grave" unicode="`" horiz-adv-x="272" 
d="M216 595c10 -8 13 -14 8 -24c-5 -9 -11 -10 -24 -6c-35 10 -78 25 -126 45c-29 12 -34 33 -23 54s32 28 58 11c42 -29 79 -57 107 -80z" />
    <glyph glyph-name="Aogonek" unicode="&#x104;" horiz-adv-x="720" 
d="M634 0c-25 -20 -50 -56 -55 -97c-8 -57 52 -61 80 -40l10 -13c-12 -20 -35 -42 -79 -42c-58 0 -95 42 -77 97c13 43 62 80 93 95h-126v22c38 2 55 27 41 63l-58 140h-282l-54 -144c-14 -38 2 -56 40 -59v-22h-152v22c37 3 55 22 69 59l201 538c12 31 5 55 -30 59v22h120
l260 -619c16 -37 33 -56 70 -59v-22h-71zM195 264h253l-133 323z" />
    <glyph glyph-name="Ccedilla" unicode="&#xc7;" horiz-adv-x="690" 
d="M638 61c-60 -44 -125 -74 -239 -71l-15 -47c12 2 28 3 42 2c46 -7 64 -39 61 -69c-4 -41 -41 -68 -91 -68c-30 0 -62 13 -73 27l11 17c4 -4 19 -14 39 -14c21 0 37 13 40 41c3 23 -5 37 -23 40c-12 2 -21 1 -29 -2l-7 18l19 56c-196 16 -353 149 -353 359
c0 218 159 360 370 360c90 0 183 -29 248 -71v-141h-20c-31 124 -119 185 -228 185c-156 0 -253 -140 -253 -333c0 -192 97 -323 253 -332c122 -8 210 54 249 182h21z" />
    <glyph glyph-name="Eogonek" unicode="&#x118;" horiz-adv-x="598" 
d="M489 0c-25 -20 -49 -56 -55 -97c-8 -57 53 -61 80 -40l11 -13c-12 -20 -35 -42 -80 -42c-57 0 -95 42 -77 97c14 43 63 80 93 95h-416v22c37 3 47 20 47 59v537c0 39 -10 57 -47 60v22h476l19 -156h-19c-16 51 -43 118 -135 118h-188v-289h124c70 0 89 24 96 66h18v-169
h-18c-7 42 -26 65 -96 65h-124v-297h210c93 0 120 66 136 117h19l-19 -155h-55z" />
    <glyph glyph-name="Iogonek" unicode="&#x12e;" horiz-adv-x="291" 
d="M246 678c-38 -3 -48 -21 -48 -60v-537c0 -39 10 -56 48 -59v-22h-61c-25 -20 -49 -56 -55 -97c-8 -57 53 -61 80 -40l11 -13c-12 -20 -35 -42 -80 -42c-57 0 -95 42 -77 97c14 43 63 80 93 95h-112v22c37 3 47 20 47 59v537c0 39 -10 57 -47 60v22h201v-22z" />
    <glyph glyph-name="Scedilla" unicode="&#x15e;" horiz-adv-x="538" 
d="M320 408c125 -72 215 -131 180 -266c-27 -106 -119 -146 -214 -152l-16 -47c12 2 28 3 42 2c46 -7 64 -39 61 -69c-4 -41 -40 -68 -91 -68c-30 0 -62 13 -73 27l11 17c5 -4 20 -14 39 -14c22 0 37 13 40 41c3 23 -4 37 -23 40c-12 2 -21 1 -28 -2l-8 18l19 54
c-89 1 -165 26 -229 71v142h18c36 -116 104 -181 199 -186c96 -4 144 45 155 108c17 99 -62 142 -155 194c-101 57 -210 124 -180 258c23 98 106 134 201 134c78 0 134 -27 200 -71l1 -135h-19c-31 125 -88 175 -169 179c-78 4 -118 -36 -123 -97c-8 -88 71 -125 162 -178z
" />
    <glyph glyph-name="Uogonek" unicode="&#x172;" horiz-adv-x="727" 
d="M559 700h133v-22c-38 -3 -48 -21 -48 -60v-347c0 -149 -82 -264 -224 -280c-22 -20 -41 -52 -46 -88c-8 -57 52 -61 80 -40l10 -13c-11 -20 -35 -42 -79 -42c-58 0 -95 42 -77 97c11 35 46 66 75 84c-155 1 -290 93 -290 280v349c0 39 -10 57 -48 60v22h202v-22
c-38 -3 -48 -21 -48 -60v-352c0 -169 95 -236 210 -236c133 0 197 109 197 238v350c0 39 -10 57 -47 60v22z" />
    <glyph glyph-name="aogonek" unicode="&#x105;" horiz-adv-x="480" 
d="M417 -10c-21 -20 -40 -52 -45 -87c-8 -57 53 -61 80 -40l11 -13c-12 -20 -35 -42 -79 -42c-58 0 -96 42 -78 97c12 36 48 68 77 86c-33 5 -66 26 -67 75c-25 -49 -78 -77 -137 -77c-78 0 -163 35 -168 123c-7 103 74 150 174 159c62 6 107 10 131 12v39
c0 88 -21 135 -90 139c-38 2 -80 -18 -78 -67c2 -54 -34 -69 -66 -56c-27 11 -35 41 -20 73c26 55 101 72 161 72c94 0 197 -31 197 -179v-236c0 -36 29 -42 51 -26l10 -17c-18 -21 -40 -31 -64 -35zM316 161v98c-15 -1 -40 -4 -78 -9c-83 -10 -127 -59 -127 -123
c1 -69 45 -101 100 -100c64 2 105 52 105 134z" />
    <glyph glyph-name="ccedilla" unicode="&#xe7;" horiz-adv-x="469" 
d="M449 103c-34 -64 -101 -111 -186 -114l-15 -46c12 2 28 3 42 2c46 -7 64 -39 61 -69c-4 -41 -41 -68 -91 -68c-30 0 -62 13 -73 27l11 17c5 -4 19 -14 39 -14c21 0 37 13 40 41c3 23 -4 37 -23 40c-12 2 -21 1 -28 -2l-8 18l19 55c-124 9 -227 104 -227 253
c0 150 115 240 245 240c84 0 148 -29 178 -79c17 -28 14 -74 -24 -88c-30 -10 -70 9 -67 65c2 50 -34 83 -90 78c-75 -6 -145 -85 -138 -216c11 -220 234 -241 321 -128z" />
    <glyph glyph-name="eogonek" unicode="&#x119;" horiz-adv-x="478" 
d="M457 258v-5h-344c0 -4 0 -7 1 -10c11 -220 236 -242 323 -129l14 -12c-30 -58 -92 -101 -164 -111c-21 -20 -41 -52 -46 -88c-8 -57 53 -61 80 -40l11 -13c-12 -20 -35 -42 -79 -42c-58 0 -96 42 -78 97c12 35 46 66 75 84c-129 3 -240 100 -240 254
c0 152 103 240 236 240c145 0 213 -101 211 -225zM361 288c3 90 -34 173 -117 172c-70 -1 -123 -67 -130 -172h247z" />
    <glyph glyph-name="iogonek" unicode="&#x12f;" horiz-adv-x="239" 
d="M117 552c-38 0 -70 25 -70 68c0 42 32 67 70 67c37 0 69 -25 69 -67c0 -43 -32 -68 -69 -68zM169 0c-25 -20 -50 -56 -55 -97c-8 -57 52 -61 80 -40l10 -13c-12 -20 -35 -42 -79 -42c-58 0 -95 42 -77 97c13 43 62 80 93 95h-117v22c38 3 48 20 48 59v285
c0 39 -10 56 -48 59v22l136 36h16v-402c0 -39 10 -56 48 -59v-22h-55z" />
    <glyph glyph-name="scedilla" unicode="&#x15f;" horiz-adv-x="403" 
d="M239 284c76 -34 159 -77 133 -177c-19 -71 -80 -111 -164 -117l-16 -47c12 2 28 3 42 2c46 -7 64 -39 61 -69c-4 -41 -40 -68 -91 -68c-30 0 -62 13 -73 27l11 17c5 -4 20 -14 39 -14c21 0 37 13 40 41c3 23 -4 37 -23 40c-12 2 -21 1 -28 -2l-8 18l19 54
c-61 1 -128 20 -171 52v109h16c22 -95 94 -131 159 -134c50 -2 92 18 102 60c15 65 -52 91 -116 120c-96 44 -162 89 -136 192c17 68 90 95 161 95c50 0 103 -18 147 -51v-98h-17c-24 90 -65 125 -130 123c-35 -1 -74 -14 -79 -57c-7 -59 56 -86 122 -116z" />
    <glyph glyph-name="uogonek" unicode="&#x173;" horiz-adv-x="571" 
d="M486 0c-25 -20 -49 -56 -55 -97c-8 -57 53 -61 80 -40l11 -13c-12 -20 -35 -42 -80 -42c-57 0 -95 42 -77 97c14 43 63 80 93 95h-64v57c-36 -45 -85 -68 -144 -68c-123 0 -198 75 -198 190v187c0 39 -10 56 -47 59v22l135 36h17v-315c0 -90 42 -139 120 -139
c66 0 117 56 117 131v206c0 39 -10 56 -47 59v22l135 36h17v-402c0 -39 10 -56 47 -59v-22h-60z" />
    <glyph glyph-name="acute" unicode="&#xb4;" horiz-adv-x="273" 
d="M222 664c11 -21 6 -42 -23 -54c-48 -20 -92 -35 -126 -45c-13 -4 -20 -3 -25 6c-5 10 -2 16 9 24c27 23 64 51 107 80c26 17 46 10 58 -11z" />
    <glyph glyph-name="macron" unicode="&#xaf;" horiz-adv-x="417" 
d="M45 639h327v-32h-327v32z" />
    <glyph glyph-name="dieresis" unicode="&#xa8;" horiz-adv-x="376" 
d="M103 688c31 0 58 -20 58 -56c0 -35 -27 -56 -58 -56s-58 21 -58 56c0 36 27 56 58 56zM273 688c32 0 58 -20 58 -56c0 -35 -26 -56 -58 -56c-31 0 -58 21 -58 56c0 36 27 56 58 56z" />
    <glyph glyph-name="breve" unicode="&#x2d8;" horiz-adv-x="342" 
d="M278 680l19 -5c-7 -56 -52 -112 -126 -112s-119 56 -126 112l19 5c16 -38 53 -60 107 -60s91 22 107 60z" />
    <glyph glyph-name="dotaccent" unicode="&#x2d9;" horiz-adv-x="205" 
d="M102 688c32 0 58 -20 58 -56c0 -35 -26 -56 -58 -56c-31 0 -57 21 -57 56c0 36 26 56 57 56z" />
    <glyph glyph-name="tilde" unicode="&#x2dc;" horiz-adv-x="423" 
d="M142 673c30 0 53 -8 84 -24c29 -15 53 -29 81 -29c25 0 40 14 47 41h24c-5 -68 -39 -96 -86 -96c-37 0 -63 14 -98 29c-27 11 -43 19 -67 19s-44 -12 -58 -40h-24c6 68 45 100 97 100z" />
    <glyph glyph-name="circumflex" unicode="&#x2c6;" horiz-adv-x="402" 
d="M218 698l139 -128l-13 -17l-143 85l-144 -85l-12 17l138 128h35z" />
    <glyph glyph-name="ring" unicode="&#x2da;" horiz-adv-x="306" 
d="M153 739c57 0 108 -37 108 -96c0 -60 -51 -96 -108 -96s-108 36 -108 96c0 59 51 96 108 96zM153 562c35 0 54 35 54 81c0 45 -19 81 -54 81s-54 -36 -54 -81c0 -46 19 -81 54 -81z" />
    <glyph glyph-name="caron" unicode="&#x2c7;" horiz-adv-x="401" 
d="M344 698l12 -17l-138 -128h-35l-138 128l12 17l144 -84z" />
    <glyph glyph-name="hungarumlaut" unicode="&#x2dd;" horiz-adv-x="394" 
d="M335 690c17 -16 19 -38 -4 -59c-39 -34 -76 -62 -105 -83c-11 -8 -17 -9 -25 -2c-8 8 -7 14 0 26c19 30 45 69 76 110c19 24 41 24 58 8zM185 690c17 -16 20 -38 -4 -59c-39 -34 -75 -62 -104 -83c-12 -8 -18 -9 -26 -2c-8 8 -7 14 1 26c18 30 44 69 75 110
c19 24 41 24 58 8z" />
    <glyph glyph-name="Aacute" unicode="&#xc1;" horiz-adv-x="720" 
d="M635 82c16 -37 32 -57 70 -60v-22h-225v22c37 3 55 28 41 64l-58 140h-282l-54 -144c-14 -38 2 -56 40 -60v-22h-152v22c38 4 55 22 69 59l201 538c12 32 5 56 -30 59v22h120zM195 264h253l-133 324zM414 864c11 -21 6 -42 -23 -54c-48 -20 -92 -35 -126 -45
c-13 -4 -20 -3 -25 6c-5 10 -2 16 9 24c27 23 64 51 107 80c26 17 46 10 58 -11z" />
    <glyph glyph-name="Abreve" unicode="&#x102;" horiz-adv-x="720" 
d="M635 82c16 -37 32 -57 70 -60v-22h-225v22c37 3 55 28 41 64l-58 140h-282l-54 -144c-14 -38 2 -56 40 -60v-22h-152v22c38 4 55 22 69 59l201 538c12 32 5 56 -30 59v22h120zM195 264h253l-133 324zM442 880l19 -5c-7 -56 -52 -112 -126 -112s-119 56 -126 112l19 5
c16 -38 53 -60 107 -60s91 22 107 60z" />
    <glyph glyph-name="Acircumflex" unicode="&#xc2;" horiz-adv-x="720" 
d="M635 82c16 -37 32 -57 70 -60v-22h-225v22c37 3 55 28 41 64l-58 140h-282l-54 -144c-14 -38 2 -56 40 -60v-22h-152v22c38 4 55 22 69 59l201 538c12 32 5 56 -30 59v22h120zM195 264h253l-133 324zM352 898l139 -128l-13 -17l-143 85l-144 -85l-12 17l138 128h35z" />
    <glyph glyph-name="Agrave" unicode="&#xc0;" horiz-adv-x="720" 
d="M635 82c16 -37 32 -57 70 -60v-22h-225v22c37 3 55 28 41 64l-58 140h-282l-54 -144c-14 -38 2 -56 40 -60v-22h-152v22c38 4 55 22 69 59l201 538c12 32 5 56 -30 59v22h120zM195 264h253l-133 324zM411 795c10 -8 13 -14 8 -24c-5 -9 -11 -10 -24 -6
c-35 10 -78 25 -126 45c-29 12 -34 33 -23 54s32 28 58 11c42 -29 79 -57 107 -80z" />
    <glyph glyph-name="Adieresis" unicode="&#xc4;" horiz-adv-x="720" 
d="M635 82c16 -37 32 -57 70 -60v-22h-225v22c37 3 55 28 41 64l-58 140h-282l-54 -144c-14 -38 2 -56 40 -60v-22h-152v22c38 4 55 22 69 59l201 538c12 32 5 56 -30 59v22h120zM195 264h253l-133 324zM250 888c31 0 58 -20 58 -56c0 -35 -27 -56 -58 -56s-58 21 -58 56
c0 36 27 56 58 56zM420 888c32 0 58 -20 58 -56c0 -35 -26 -56 -58 -56c-31 0 -58 21 -58 56c0 36 27 56 58 56z" />
    <glyph glyph-name="Amacron" unicode="&#x100;" horiz-adv-x="720" 
d="M635 82c16 -37 32 -57 70 -60v-22h-225v22c37 3 55 28 41 64l-58 140h-282l-54 -144c-14 -38 2 -56 40 -60v-22h-152v22c38 4 55 22 69 59l201 538c12 32 5 56 -30 59v22h120zM195 264h253l-133 324zM171 829h327v-32h-327v32z" />
    <glyph glyph-name="Aring" unicode="&#xc5;" horiz-adv-x="720" 
d="M635 82c16 -37 32 -57 70 -60v-22h-225v22c37 3 55 28 41 64l-58 140h-282l-54 -144c-14 -38 2 -56 40 -60v-22h-152v22c38 4 55 22 69 59l201 538c12 32 5 56 -30 59v22h120zM195 264h253l-133 324zM335 939c57 0 108 -37 108 -96c0 -60 -51 -96 -108 -96
s-108 36 -108 96c0 59 51 96 108 96zM335 762c35 0 54 35 54 81c0 45 -19 81 -54 81s-54 -36 -54 -81c0 -46 19 -81 54 -81z" />
    <glyph glyph-name="Atilde" unicode="&#xc3;" horiz-adv-x="720" 
d="M635 82c16 -37 32 -57 70 -60v-22h-225v22c37 3 55 28 41 64l-58 140h-282l-54 -144c-14 -38 2 -56 40 -60v-22h-152v22c38 4 55 22 69 59l201 538c12 32 5 56 -30 59v22h120zM195 264h253l-133 324zM265 873c30 0 53 -8 84 -24c29 -15 53 -29 81 -29c25 0 40 14 47 41
h24c-5 -68 -39 -96 -86 -96c-37 0 -63 14 -98 29c-27 11 -43 19 -67 19s-44 -12 -58 -40h-24c6 68 45 100 97 100z" />
    <glyph glyph-name="AEacute" unicode="&#x1fc;" horiz-adv-x="987" 
d="M933 156h19l-19 -156h-499v22c37 3 47 21 47 60v144h-236l-93 -144c-24 -38 -19 -57 18 -60v-22h-155v22c38 3 69 25 91 60l341 530c23 36 12 63 -24 66v22h487l19 -155h-19c-16 51 -43 117 -135 117h-187v-288h123c70 0 89 23 96 65h18v-169h-18c-7 42 -26 66 -96 66
h-123v-298h209c93 0 120 67 136 118zM269 264h212v331zM687 864c11 -21 6 -42 -23 -54c-48 -20 -92 -35 -126 -45c-13 -4 -20 -3 -25 6c-5 10 -2 16 9 24c27 23 64 51 107 80c26 17 46 10 58 -11z" />
    <glyph glyph-name="Cacute" unicode="&#x106;" horiz-adv-x="689" 
d="M639 199h20l-21 -138c-61 -44 -126 -75 -242 -71c-207 6 -376 142 -376 360s159 360 370 360c90 0 183 -29 248 -71v-142h-21c-30 125 -118 185 -227 185c-156 0 -253 -140 -253 -332s97 -323 253 -333c122 -7 210 55 249 182zM453 864c11 -21 6 -42 -23 -54
c-48 -20 -92 -35 -126 -45c-13 -4 -20 -3 -25 6c-5 10 -2 16 9 24c27 23 64 51 107 80c26 17 46 10 58 -11z" />
    <glyph glyph-name="Ccaron" unicode="&#x10c;" horiz-adv-x="689" 
d="M639 199h20l-21 -138c-61 -44 -126 -75 -242 -71c-207 6 -376 142 -376 360s159 360 370 360c90 0 183 -29 248 -71v-142h-21c-30 125 -118 185 -227 185c-156 0 -253 -140 -253 -332s97 -323 253 -333c122 -7 210 55 249 182zM513 898l12 -17l-138 -128h-35l-138 128
l12 17l144 -84z" />
    <glyph glyph-name="Ccircumflex" unicode="&#x108;" horiz-adv-x="689" 
d="M639 199h20l-21 -138c-61 -44 -126 -75 -242 -71c-207 6 -376 142 -376 360s159 360 370 360c90 0 183 -29 248 -71v-142h-21c-30 125 -118 185 -227 185c-156 0 -253 -140 -253 -332s97 -323 253 -333c122 -7 210 55 249 182zM386 898l139 -128l-13 -17l-143 85
l-144 -85l-12 17l138 128h35z" />
    <glyph glyph-name="Cdotaccent" unicode="&#x10a;" horiz-adv-x="689" 
d="M639 199h20l-21 -138c-61 -44 -126 -75 -242 -71c-207 6 -376 142 -376 360s159 360 370 360c90 0 183 -29 248 -71v-142h-21c-30 125 -118 185 -227 185c-156 0 -253 -140 -253 -332s97 -323 253 -333c122 -7 210 55 249 182zM369 888c32 0 58 -20 58 -56
c0 -35 -26 -56 -58 -56c-31 0 -57 21 -57 56c0 36 26 56 57 56z" />
    <glyph glyph-name="Dcaron" unicode="&#x10e;" horiz-adv-x="719" 
d="M307 700c261 0 392 -161 392 -350s-131 -350 -392 -350l-262 1v21c37 4 47 21 47 60v537c0 39 -10 56 -47 59v22h262zM293 39c192 0 293 118 293 311s-101 312 -293 312h-94v-623h94zM495 898l12 -17l-138 -128h-35l-138 128l12 17l144 -84z" />
    <glyph glyph-name="Eacute" unicode="&#xc9;" horiz-adv-x="597" 
d="M544 156h18l-19 -156h-498v22c37 4 47 21 47 60v537c0 39 -10 56 -47 59v22h476l19 -155h-19c-16 51 -43 117 -136 117h-187v-288h124c70 0 89 23 96 65h18v-169h-18c-7 42 -26 66 -96 66h-124v-297h210c93 0 119 66 136 117zM387 864c11 -21 6 -42 -23 -54
c-48 -20 -92 -35 -126 -45c-13 -4 -20 -3 -25 6c-5 10 -2 16 9 24c27 23 64 51 107 80c26 17 46 10 58 -11z" />
    <glyph glyph-name="Ebreve" unicode="&#x114;" horiz-adv-x="597" 
d="M544 156h18l-19 -156h-498v22c37 4 47 21 47 60v537c0 39 -10 56 -47 59v22h476l19 -155h-19c-16 51 -43 117 -136 117h-187v-288h124c70 0 89 23 96 65h18v-169h-18c-7 42 -26 66 -96 66h-124v-297h210c93 0 119 66 136 117zM410 880l19 -5c-7 -56 -52 -112 -126 -112
s-119 56 -126 112l19 5c16 -38 53 -60 107 -60s91 22 107 60z" />
    <glyph glyph-name="Ecaron" unicode="&#x11a;" horiz-adv-x="597" 
d="M544 156h18l-19 -156h-498v22c37 4 47 21 47 60v537c0 39 -10 56 -47 59v22h476l19 -155h-19c-16 51 -43 117 -136 117h-187v-288h124c70 0 89 23 96 65h18v-169h-18c-7 42 -26 66 -96 66h-124v-297h210c93 0 119 66 136 117zM447 898l12 -17l-138 -128h-35l-138 128
l12 17l144 -84z" />
    <glyph glyph-name="Ecircumflex" unicode="&#xca;" horiz-adv-x="597" 
d="M544 156h18l-19 -156h-498v22c37 4 47 21 47 60v537c0 39 -10 56 -47 59v22h476l19 -155h-19c-16 51 -43 117 -136 117h-187v-288h124c70 0 89 23 96 65h18v-169h-18c-7 42 -26 66 -96 66h-124v-297h210c93 0 119 66 136 117zM320 898l139 -128l-13 -17l-143 85l-144 -85
l-12 17l138 128h35z" />
    <glyph glyph-name="Edieresis" unicode="&#xcb;" horiz-adv-x="597" 
d="M544 156h18l-19 -156h-498v22c37 4 47 21 47 60v537c0 39 -10 56 -47 59v22h476l19 -155h-19c-16 51 -43 117 -136 117h-187v-288h124c70 0 89 23 96 65h18v-169h-18c-7 42 -26 66 -96 66h-124v-297h210c93 0 119 66 136 117zM218 888c31 0 58 -20 58 -56
c0 -35 -27 -56 -58 -56s-58 21 -58 56c0 36 27 56 58 56zM388 888c32 0 58 -20 58 -56c0 -35 -26 -56 -58 -56c-31 0 -58 21 -58 56c0 36 27 56 58 56z" />
    <glyph glyph-name="Edotaccent" unicode="&#x116;" horiz-adv-x="597" 
d="M544 156h18l-19 -156h-498v22c37 4 47 21 47 60v537c0 39 -10 56 -47 59v22h476l19 -155h-19c-16 51 -43 117 -136 117h-187v-288h124c70 0 89 23 96 65h18v-169h-18c-7 42 -26 66 -96 66h-124v-297h210c93 0 119 66 136 117zM303 888c32 0 58 -20 58 -56
c0 -35 -26 -56 -58 -56c-31 0 -57 21 -57 56c0 36 26 56 57 56z" />
    <glyph glyph-name="Egrave" unicode="&#xc8;" horiz-adv-x="597" 
d="M544 156h18l-19 -156h-498v22c37 4 47 21 47 60v537c0 39 -10 56 -47 59v22h476l19 -155h-19c-16 51 -43 117 -136 117h-187v-288h124c70 0 89 23 96 65h18v-169h-18c-7 42 -26 66 -96 66h-124v-297h210c93 0 119 66 136 117zM385 795c10 -8 13 -14 8 -24
c-5 -9 -11 -10 -24 -6c-35 10 -78 25 -126 45c-29 12 -34 33 -23 54s32 28 58 11c42 -29 79 -57 107 -80z" />
    <glyph glyph-name="Emacron" unicode="&#x112;" horiz-adv-x="597" 
d="M544 156h18l-19 -156h-498v22c37 4 47 21 47 60v537c0 39 -10 56 -47 59v22h476l19 -155h-19c-16 51 -43 117 -136 117h-187v-288h124c70 0 89 23 96 65h18v-169h-18c-7 42 -26 66 -96 66h-124v-297h210c93 0 119 66 136 117zM140 839h327v-32h-327v32z" />
    <glyph glyph-name="Gbreve" unicode="&#x11e;" horiz-adv-x="725" 
d="M514 293h196v-22c-37 -3 -47 -20 -47 -59v-135c-52 -50 -151 -91 -267 -87c-207 6 -376 142 -376 360s159 360 370 360c90 0 183 -29 248 -71v-142h-21c-30 125 -119 185 -227 185c-156 0 -253 -140 -253 -332s97 -323 253 -333c67 -4 126 15 171 55v140
c0 39 -10 56 -47 59v22zM502 880l19 -5c-7 -56 -52 -112 -126 -112s-119 56 -126 112l19 5c16 -38 53 -60 107 -60s91 22 107 60z" />
    <glyph glyph-name="Gcircumflex" unicode="&#x11c;" horiz-adv-x="725" 
d="M514 293h196v-22c-37 -3 -47 -20 -47 -59v-135c-52 -50 -151 -91 -267 -87c-207 6 -376 142 -376 360s159 360 370 360c90 0 183 -29 248 -71v-142h-21c-30 125 -119 185 -227 185c-156 0 -253 -140 -253 -332s97 -323 253 -333c67 -4 126 15 171 55v140
c0 39 -10 56 -47 59v22zM412 898l139 -128l-13 -17l-143 85l-144 -85l-12 17l138 128h35z" />
    <glyph glyph-name="Gcommaaccent" unicode="&#x122;" horiz-adv-x="725" 
d="M514 293h196v-22c-37 -3 -47 -20 -47 -59v-135c-52 -50 -151 -91 -267 -87c-207 6 -376 142 -376 360s159 360 370 360c90 0 183 -29 248 -71v-142h-21c-30 125 -119 185 -227 185c-156 0 -253 -140 -253 -332s97 -323 253 -333c67 -4 126 15 171 55v140
c0 39 -10 56 -47 59v22zM394 -64c33 0 60 -25 61 -67c1 -90 -53 -153 -94 -185l-17 18c44 47 56 76 60 116h-10c-33 0 -60 21 -60 59s27 59 60 59z" />
    <glyph glyph-name="Gdotaccent" unicode="&#x120;" horiz-adv-x="725" 
d="M514 293h196v-22c-37 -3 -47 -20 -47 -59v-135c-52 -50 -151 -91 -267 -87c-207 6 -376 142 -376 360s159 360 370 360c90 0 183 -29 248 -71v-142h-21c-30 125 -119 185 -227 185c-156 0 -253 -140 -253 -332s97 -323 253 -333c67 -4 126 15 171 55v140
c0 39 -10 56 -47 59v22zM394 888c32 0 58 -20 58 -56c0 -35 -26 -56 -58 -56c-31 0 -57 21 -57 56c0 36 26 56 57 56z" />
    <glyph glyph-name="Hcircumflex" unicode="&#x124;" horiz-adv-x="756" 
d="M711 678c-37 -3 -47 -20 -47 -59v-537c0 -39 10 -56 47 -60v-22h-201v22c38 4 48 21 48 60v257h-359v-257c0 -39 10 -56 48 -60v-22h-202v22c38 4 48 21 48 60v537c0 39 -10 56 -48 59v22h202v-22c-38 -3 -48 -20 -48 -59v-242h359v242c0 39 -10 56 -48 59v22h201v-22z
M395 898l139 -128l-13 -17l-143 85l-144 -85l-12 17l138 128h35z" />
    <glyph glyph-name="Iacute" unicode="&#xcd;" horiz-adv-x="291" 
d="M248 678c-37 -3 -47 -20 -47 -59v-537c0 -39 10 -56 47 -60v-22h-201v22c38 4 47 21 47 60v537c0 39 -9 56 -47 59v22h201v-22zM221 864c11 -21 6 -42 -23 -54c-48 -20 -92 -35 -126 -45c-13 -4 -20 -3 -25 6c-5 10 -2 16 9 24c27 23 64 51 107 80c26 17 46 10 58 -11z
" />
    <glyph glyph-name="Ibreve" unicode="&#x12c;" horiz-adv-x="291" 
d="M246 678c-37 -3 -47 -20 -47 -59v-537c0 -39 10 -56 47 -60v-22h-201v22c38 4 47 21 47 60v537c0 39 -9 56 -47 59v22h201v-22zM253 880l19 -5c-7 -56 -52 -112 -126 -112s-119 56 -126 112l19 5c16 -38 53 -60 107 -60s91 22 107 60z" />
    <glyph glyph-name="Icircumflex" unicode="&#xce;" horiz-adv-x="291" 
d="M245 678c-37 -3 -47 -20 -47 -59v-537c0 -39 10 -56 47 -60v-22h-201v22c38 4 47 21 47 60v537c0 39 -9 56 -47 59v22h201v-22zM162 898l139 -128l-13 -17l-143 85l-144 -85l-12 17l138 128h35z" />
    <glyph glyph-name="Idieresis" unicode="&#xcf;" horiz-adv-x="291" 
d="M246 678c-37 -3 -47 -20 -47 -59v-537c0 -39 10 -56 47 -60v-22h-201v22c38 4 47 21 47 60v537c0 39 -9 56 -47 59v22h201v-22zM61 888c31 0 58 -20 58 -56c0 -35 -27 -56 -58 -56s-58 21 -58 56c0 36 27 56 58 56zM231 888c32 0 58 -20 58 -56c0 -35 -26 -56 -58 -56
c-31 0 -58 21 -58 56c0 36 27 56 58 56z" />
    <glyph glyph-name="Idotaccent" unicode="&#x130;" horiz-adv-x="291" 
d="M246 678c-37 -3 -47 -20 -47 -59v-537c0 -39 10 -56 47 -60v-22h-201v22c38 4 47 21 47 60v537c0 39 -9 56 -47 59v22h201v-22zM145 888c32 0 58 -20 58 -56c0 -35 -26 -56 -58 -56c-31 0 -57 21 -57 56c0 36 26 56 57 56z" />
    <glyph glyph-name="Igrave" unicode="&#xcc;" horiz-adv-x="291" 
d="M245 678c-37 -3 -47 -20 -47 -59v-537c0 -39 10 -56 47 -60v-22h-201v22c38 4 47 21 47 60v537c0 39 -9 56 -47 59v22h201v-22zM236 795c10 -8 13 -14 8 -24c-5 -9 -11 -10 -24 -6c-35 10 -78 25 -126 45c-29 12 -34 33 -23 54s32 28 58 11c42 -29 79 -57 107 -80z" />
    <glyph glyph-name="Imacron" unicode="&#x12a;" horiz-adv-x="291" 
d="M246 678c-37 -3 -47 -20 -47 -59v-537c0 -39 10 -56 47 -60v-22h-201v22c38 4 47 21 47 60v537c0 39 -9 56 -47 59v22h201v-22zM-18 839h327v-32h-327v32z" />
    <glyph glyph-name="Itilde" unicode="&#x128;" horiz-adv-x="291" 
d="M246 678c-37 -3 -47 -20 -47 -59v-537c0 -39 10 -56 47 -60v-22h-201v22c38 4 47 21 47 60v537c0 39 -9 56 -47 59v22h201v-22zM76 873c30 0 53 -8 84 -24c29 -15 53 -29 81 -29c25 0 40 14 47 41h24c-5 -68 -39 -96 -86 -96c-37 0 -63 14 -98 29c-27 11 -43 19 -67 19
s-44 -12 -58 -40h-24c6 68 45 100 97 100z" />
    <glyph glyph-name="IJ" unicode="&#x132;" horiz-adv-x="801" 
d="M246 678c-37 -3 -47 -20 -47 -59v-537c0 -39 10 -56 47 -60v-22h-201v22c38 4 47 21 47 60v537c0 39 -9 56 -47 59v22h201v-22zM555 700h201v-22c-37 -3 -47 -20 -47 -59v-357c0 -191 -71 -272 -209 -272c-72 0 -144 32 -173 84c-13 23 -15 57 -3 76c16 25 53 31 77 11
c22 -18 16 -46 17 -66c3 -40 26 -76 81 -76c78 0 103 73 103 205v395c0 39 -10 56 -47 59v22z" />
    <glyph glyph-name="Jcircumflex" unicode="&#x134;" horiz-adv-x="485" 
d="M249 700h201v-22c-37 -3 -47 -20 -47 -59v-357c0 -191 -71 -272 -209 -272c-72 0 -144 32 -173 84c-13 23 -15 57 -3 76c16 25 53 31 77 11c22 -18 16 -46 17 -66c3 -40 26 -76 81 -76c78 0 103 73 103 205v395c0 39 -10 56 -47 59v22zM307 898l139 -128l-13 -17l-143 85
l-144 -85l-12 17l138 128h35z" />
    <glyph glyph-name="Kcommaaccent" unicode="&#x136;" horiz-adv-x="712" 
d="M625 82c22 -37 44 -55 72 -60v-22h-215v22c35 3 39 31 19 62l-185 296l-118 -126v-172c0 -39 10 -57 48 -60v-22h-201v22c37 3 47 21 47 60v537c0 39 -10 56 -47 59v22h201v-22c-38 -3 -48 -20 -48 -59v-309l292 308c30 32 25 55 0 60v22h136v-22c-29 -5 -53 -26 -84 -59
l-151 -160zM361 -64c33 0 60 -25 61 -67c1 -90 -53 -153 -94 -185l-17 18c44 47 56 76 60 116h-10c-33 0 -60 21 -60 59s27 59 60 59z" />
    <glyph glyph-name="Lacute" unicode="&#x139;" horiz-adv-x="579" 
d="M546 156h18l-19 -156h-500v22c37 4 47 21 47 60v537c0 39 -10 56 -47 59v22h201v-22c-37 -3 -47 -20 -47 -59v-580h211c93 0 119 66 136 117zM228 864c11 -21 6 -42 -23 -54c-48 -20 -92 -35 -126 -45c-13 -4 -20 -3 -25 6c-5 10 -2 16 9 24c27 23 64 51 107 80
c26 17 46 10 58 -11z" />
    <glyph glyph-name="Lcaron" unicode="&#x13d;" horiz-adv-x="579" 
d="M546 156h18l-19 -156h-500v22c37 4 47 21 47 60v537c0 39 -10 56 -47 59v22h201v-22c-37 -3 -47 -20 -47 -59v-580h211c93 0 119 66 136 117zM407 710c32 0 59 -25 60 -67c2 -90 -53 -153 -94 -185l-17 18c44 47 56 76 60 116h-9c-33 0 -61 22 -61 59c0 38 28 59 61 59z
" />
    <glyph glyph-name="Lcommaaccent" unicode="&#x13b;" horiz-adv-x="579" 
d="M546 156h18l-19 -156h-500v22c37 4 47 21 47 60v537c0 39 -10 56 -47 59v22h201v-22c-37 -3 -47 -20 -47 -59v-580h211c93 0 119 66 136 117zM323 -64c33 0 60 -25 61 -67c1 -90 -53 -153 -94 -185l-17 18c44 47 56 76 60 116h-10c-33 0 -60 21 -60 59s27 59 60 59z" />
    <glyph glyph-name="Ldot" unicode="&#x13f;" horiz-adv-x="579" 
d="M546 156h18l-19 -156h-500v22c37 4 47 21 47 60v537c0 39 -10 56 -47 59v22h201v-22c-37 -3 -47 -20 -47 -59v-580h211c93 0 119 66 136 117zM406 411c32 0 58 -20 58 -56c0 -35 -26 -56 -58 -56c-31 0 -57 21 -57 56c0 36 26 56 57 56z" />
    <glyph glyph-name="Nacute" unicode="&#x143;" 
d="M553 700h133v-22c-38 -3 -48 -20 -48 -59v-619h-62l-446 570v-488c0 -39 10 -56 47 -60v-22h-132v22c37 4 47 21 47 60v537c0 39 -10 56 -47 59v22h123l432 -551v470c0 39 -10 56 -47 59v22zM469 864c11 -21 6 -42 -23 -54c-48 -20 -92 -35 -126 -45c-13 -4 -20 -3 -25 6
c-5 10 -2 16 9 24c27 23 64 51 107 80c26 17 46 10 58 -11z" />
    <glyph glyph-name="Ncaron" unicode="&#x147;" 
d="M553 700h133v-22c-38 -3 -48 -20 -48 -59v-619h-62l-446 570v-488c0 -39 10 -56 47 -60v-22h-132v22c37 4 47 21 47 60v537c0 39 -10 56 -47 59v22h123l432 -551v470c0 39 -10 56 -47 59v22zM519 898l12 -17l-138 -128h-35l-138 128l12 17l144 -84z" />
    <glyph glyph-name="Ncommaaccent" unicode="&#x145;" 
d="M553 700h133v-22c-38 -3 -48 -20 -48 -59v-619h-62l-446 570v-488c0 -39 10 -56 47 -60v-22h-132v22c37 4 47 21 47 60v537c0 39 -10 56 -47 59v22h123l432 -551v470c0 39 -10 56 -47 59v22zM354 -64c33 0 60 -25 61 -67c1 -90 -53 -153 -94 -185l-17 18
c44 47 56 76 60 116h-10c-33 0 -60 21 -60 59s27 59 60 59z" />
    <glyph glyph-name="Ntilde" unicode="&#xd1;" 
d="M553 700h133v-22c-38 -3 -48 -20 -48 -59v-619h-62l-446 570v-488c0 -39 10 -56 47 -60v-22h-132v22c37 4 47 21 47 60v537c0 39 -10 56 -47 59v22h123l432 -551v470c0 39 -10 56 -47 59v22zM306 873c30 0 53 -8 84 -24c29 -15 53 -29 81 -29c25 0 40 14 47 41h24
c-5 -68 -39 -96 -86 -96c-37 0 -63 14 -98 29c-27 11 -43 19 -67 19s-44 -12 -58 -40h-24c6 68 45 100 97 100z" />
    <glyph glyph-name="Oacute" unicode="&#xd3;" horiz-adv-x="795" 
d="M398 710c211 0 372 -150 372 -360c0 -209 -161 -360 -372 -360s-373 151 -373 360c0 210 162 360 373 360zM398 17c143 0 259 120 259 333c0 214 -116 333 -259 333s-259 -119 -259 -333c0 -213 116 -333 259 -333zM481 864c11 -21 6 -42 -23 -54
c-48 -20 -92 -35 -126 -45c-13 -4 -20 -3 -25 6c-5 10 -2 16 9 24c27 23 64 51 107 80c26 17 46 10 58 -11z" />
    <glyph glyph-name="Obreve" unicode="&#x14e;" horiz-adv-x="795" 
d="M398 710c211 0 372 -150 372 -360c0 -209 -161 -360 -372 -360s-373 151 -373 360c0 210 162 360 373 360zM398 17c143 0 259 120 259 333c0 214 -116 333 -259 333s-259 -119 -259 -333c0 -213 116 -333 259 -333zM504 880l19 -5c-7 -56 -52 -112 -126 -112
s-119 56 -126 112l19 5c16 -38 53 -60 107 -60s91 22 107 60z" />
    <glyph glyph-name="Ocircumflex" unicode="&#xd4;" horiz-adv-x="795" 
d="M398 710c211 0 372 -150 372 -360c0 -209 -161 -360 -372 -360s-373 151 -373 360c0 210 162 360 373 360zM398 17c143 0 259 120 259 333c0 214 -116 333 -259 333s-259 -119 -259 -333c0 -213 116 -333 259 -333zM414 898l139 -128l-13 -17l-143 85l-144 -85l-12 17
l138 128h35z" />
    <glyph glyph-name="Odieresis" unicode="&#xd6;" horiz-adv-x="795" 
d="M398 710c211 0 372 -150 372 -360c0 -209 -161 -360 -372 -360s-373 151 -373 360c0 210 162 360 373 360zM398 17c143 0 259 120 259 333c0 214 -116 333 -259 333s-259 -119 -259 -333c0 -213 116 -333 259 -333zM312 888c31 0 58 -20 58 -56c0 -35 -27 -56 -58 -56
s-58 21 -58 56c0 36 27 56 58 56zM482 888c32 0 58 -20 58 -56c0 -35 -26 -56 -58 -56c-31 0 -58 21 -58 56c0 36 27 56 58 56z" />
    <glyph glyph-name="Ograve" unicode="&#xd2;" horiz-adv-x="795" 
d="M398 710c211 0 372 -150 372 -360c0 -209 -161 -360 -372 -360s-373 151 -373 360c0 210 162 360 373 360zM398 17c143 0 259 120 259 333c0 214 -116 333 -259 333s-259 -119 -259 -333c0 -213 116 -333 259 -333zM479 795c10 -8 13 -14 8 -24c-5 -9 -11 -10 -24 -6
c-35 10 -78 25 -126 45c-29 12 -34 33 -23 54s32 28 58 11c42 -29 79 -57 107 -80z" />
    <glyph glyph-name="Ohungarumlaut" unicode="&#x150;" horiz-adv-x="795" 
d="M398 710c211 0 372 -150 372 -360c0 -209 -161 -360 -372 -360s-373 151 -373 360c0 210 162 360 373 360zM398 17c143 0 259 120 259 333c0 214 -116 333 -259 333s-259 -119 -259 -333c0 -213 116 -333 259 -333zM574 890c17 -16 19 -38 -4 -59
c-39 -34 -76 -62 -105 -83c-11 -8 -17 -9 -25 -2c-8 8 -7 14 0 26c19 30 45 69 76 110c19 24 41 24 58 8zM424 890c17 -16 20 -38 -4 -59c-39 -34 -75 -62 -104 -83c-12 -8 -18 -9 -26 -2c-8 8 -7 14 1 26c18 30 44 69 75 110c19 24 41 24 58 8z" />
    <glyph glyph-name="Omacron" unicode="&#x14c;" horiz-adv-x="795" 
d="M398 710c211 0 372 -150 372 -360c0 -209 -161 -360 -372 -360s-373 151 -373 360c0 210 162 360 373 360zM398 17c143 0 259 120 259 333c0 214 -116 333 -259 333s-259 -119 -259 -333c0 -213 116 -333 259 -333zM234 839h327v-32h-327v32z" />
    <glyph glyph-name="Oslashacute" unicode="&#x1fe;" horiz-adv-x="795" 
d="M673 599c61 -63 97 -149 97 -249c0 -209 -161 -360 -372 -360c-97 0 -183 31 -248 86l-83 -83l-27 27l82 82c-61 63 -97 149 -97 248c0 210 162 360 373 360c96 0 182 -31 247 -85l83 83l27 -27zM138 350c0 -76 15 -140 41 -192l417 418c-47 70 -119 107 -198 107
c-144 0 -260 -120 -260 -333zM398 17c143 0 259 120 259 333c0 76 -15 141 -41 192l-417 -418c47 -70 119 -107 199 -107zM481 864c11 -21 6 -42 -23 -54c-48 -20 -92 -35 -126 -45c-13 -4 -20 -3 -25 6c-5 10 -2 16 9 24c27 23 64 51 107 80c26 17 46 10 58 -11z" />
    <glyph glyph-name="Otilde" unicode="&#xd5;" horiz-adv-x="795" 
d="M398 710c211 0 372 -150 372 -360c0 -209 -161 -360 -372 -360s-373 151 -373 360c0 210 162 360 373 360zM398 17c143 0 259 120 259 333c0 214 -116 333 -259 333s-259 -119 -259 -333c0 -213 116 -333 259 -333zM328 873c30 0 53 -8 84 -24c29 -15 53 -29 81 -29
c25 0 40 14 47 41h24c-5 -68 -39 -96 -86 -96c-37 0 -63 14 -98 29c-27 11 -43 19 -67 19s-44 -12 -58 -40h-24c6 68 45 100 97 100z" />
    <glyph glyph-name="Racute" unicode="&#x154;" horiz-adv-x="672" 
d="M581 82c22 -34 49 -54 76 -60v-22h-144l-184 291c-10 0 -21 -1 -31 -1h-99v-208c0 -39 10 -57 47 -60v-22h-201v22c38 3 48 21 48 60v537c0 39 -10 56 -48 59v22h253c147 0 276 -62 276 -205c0 -97 -59 -156 -144 -185zM288 329c106 0 175 63 175 166s-69 167 -175 167
h-89v-333h89zM393 864c11 -21 6 -42 -23 -54c-48 -20 -92 -35 -126 -45c-13 -4 -20 -3 -25 6c-5 10 -2 16 9 24c27 23 64 51 107 80c26 17 46 10 58 -11z" />
    <glyph glyph-name="Rcaron" unicode="&#x158;" horiz-adv-x="672" 
d="M581 82c22 -34 49 -54 76 -60v-22h-144l-184 291c-10 0 -21 -1 -31 -1h-99v-208c0 -39 10 -57 47 -60v-22h-201v22c38 3 48 21 48 60v537c0 39 -10 56 -48 59v22h253c147 0 276 -62 276 -205c0 -97 -59 -156 -144 -185zM288 329c106 0 175 63 175 166s-69 167 -175 167
h-89v-333h89zM442 898l12 -17l-138 -128h-35l-138 128l12 17l144 -84z" />
    <glyph glyph-name="Rcommaaccent" unicode="&#x156;" horiz-adv-x="672" 
d="M581 82c22 -34 49 -54 76 -60v-22h-144l-184 291c-10 0 -21 -1 -31 -1h-99v-208c0 -39 10 -57 47 -60v-22h-201v22c38 3 48 21 48 60v537c0 39 -10 56 -48 59v22h253c147 0 276 -62 276 -205c0 -97 -59 -156 -144 -185zM288 329c106 0 175 63 175 166s-69 167 -175 167
h-89v-333h89zM358 -64c33 0 60 -25 61 -67c1 -90 -53 -153 -94 -185l-17 18c44 47 56 76 60 116h-10c-33 0 -60 21 -60 59s27 59 60 59z" />
    <glyph glyph-name="Sacute" unicode="&#x15a;" horiz-adv-x="539" 
d="M321 409c125 -73 214 -132 180 -267c-30 -114 -135 -152 -239 -152c-91 0 -167 25 -232 71v141h19c36 -115 104 -180 199 -185c96 -5 144 45 155 108c17 98 -63 141 -155 193c-101 57 -210 125 -180 259c22 98 106 134 201 134c77 0 134 -27 200 -71v-135h-19
c-30 124 -88 175 -168 178c-78 4 -118 -36 -123 -97c-8 -87 71 -124 162 -177zM383 864c11 -21 6 -42 -23 -54c-48 -20 -92 -35 -126 -45c-13 -4 -20 -3 -25 6c-5 10 -2 16 9 24c27 23 64 51 107 80c26 17 46 10 58 -11z" />
    <glyph glyph-name="Scaron" unicode="&#x160;" horiz-adv-x="539" 
d="M321 409c125 -73 214 -132 180 -267c-30 -114 -135 -152 -239 -152c-91 0 -167 25 -232 71v141h19c36 -115 104 -180 199 -185c96 -5 144 45 155 108c17 98 -63 141 -155 193c-101 57 -210 125 -180 259c22 98 106 134 201 134c77 0 134 -27 200 -71v-135h-19
c-30 124 -88 175 -168 178c-78 4 -118 -36 -123 -97c-8 -87 71 -124 162 -177zM433 898l12 -17l-138 -128h-35l-138 128l12 17l144 -84z" />
    <glyph glyph-name="Scircumflex" unicode="&#x15c;" horiz-adv-x="539" 
d="M321 409c125 -73 214 -132 180 -267c-30 -114 -135 -152 -239 -152c-91 0 -167 25 -232 71v141h19c36 -115 104 -180 199 -185c96 -5 144 45 155 108c17 98 -63 141 -155 193c-101 57 -210 125 -180 259c22 98 106 134 201 134c77 0 134 -27 200 -71v-135h-19
c-30 124 -88 175 -168 178c-78 4 -118 -36 -123 -97c-8 -87 71 -124 162 -177zM306 898l139 -128l-13 -17l-143 85l-144 -85l-12 17l138 128h35z" />
    <glyph glyph-name="Scommaaccent" unicode="&#x218;" horiz-adv-x="539" 
d="M321 409c125 -73 214 -132 180 -267c-30 -114 -135 -152 -239 -152c-91 0 -167 25 -232 71v141h19c36 -115 104 -180 199 -185c96 -5 144 45 155 108c17 98 -63 141 -155 193c-101 57 -210 125 -180 259c22 98 106 134 201 134c77 0 134 -27 200 -71v-135h-19
c-30 124 -88 175 -168 178c-78 4 -118 -36 -123 -97c-8 -87 71 -124 162 -177zM283 -64c33 0 60 -25 61 -67c1 -90 -53 -153 -94 -185l-17 18c44 47 56 76 60 116h-10c-33 0 -60 21 -60 59s27 59 60 59z" />
    <glyph glyph-name="Tcaron" unicode="&#x164;" horiz-adv-x="640" 
d="M601 700l19 -155h-19c-16 51 -42 117 -135 117h-93v-580c0 -39 10 -57 48 -60v-22h-202v22c38 3 48 21 48 60v580h-93c-93 0 -119 -66 -135 -117h-19l19 155h562zM463 898l12 -17l-138 -128h-35l-138 128l12 17l144 -84z" />
    <glyph glyph-name="Tcommaaccent" unicode="&#x162;" horiz-adv-x="640" 
d="M601 700l19 -155h-19c-16 51 -42 117 -135 117h-93v-580c0 -39 10 -57 48 -60v-22h-202v22c38 3 48 21 48 60v580h-93c-93 0 -119 -66 -135 -117h-19l19 155h562zM319 -64c33 0 60 -25 61 -67c1 -90 -53 -153 -94 -185l-17 18c44 47 56 76 60 116h-10
c-33 0 -60 21 -60 59s27 59 60 59z" />
    <glyph glyph-name="Uacute" unicode="&#xda;" 
d="M558 700h133v-22c-37 -3 -47 -20 -47 -59v-348c0 -160 -97 -281 -260 -281c-156 0 -292 92 -292 279v350c0 39 -10 56 -47 59v22h201v-22c-38 -3 -48 -20 -48 -59v-352c0 -170 95 -236 211 -236c132 0 196 109 196 238v350c0 39 -10 56 -47 59v22zM492 864
c11 -21 6 -42 -23 -54c-48 -20 -92 -35 -126 -45c-13 -4 -20 -3 -25 6c-5 10 -2 16 9 24c27 23 64 51 107 80c26 17 46 10 58 -11z" />
    <glyph glyph-name="Ubreve" unicode="&#x16c;" 
d="M558 700h133v-22c-37 -3 -47 -20 -47 -59v-348c0 -160 -97 -281 -260 -281c-156 0 -292 92 -292 279v350c0 39 -10 56 -47 59v22h201v-22c-38 -3 -48 -20 -48 -59v-352c0 -170 95 -236 211 -236c132 0 196 109 196 238v350c0 39 -10 56 -47 59v22zM515 880l19 -5
c-7 -56 -52 -112 -126 -112s-119 56 -126 112l19 5c16 -38 53 -60 107 -60s91 22 107 60z" />
    <glyph glyph-name="Ucircumflex" unicode="&#xdb;" 
d="M558 700h133v-22c-37 -3 -47 -20 -47 -59v-348c0 -160 -97 -281 -260 -281c-156 0 -292 92 -292 279v350c0 39 -10 56 -47 59v22h201v-22c-38 -3 -48 -20 -48 -59v-352c0 -170 95 -236 211 -236c132 0 196 109 196 238v350c0 39 -10 56 -47 59v22zM425 898l139 -128
l-13 -17l-143 85l-144 -85l-12 17l138 128h35z" />
    <glyph glyph-name="Udieresis" unicode="&#xdc;" 
d="M558 700h133v-22c-37 -3 -47 -20 -47 -59v-348c0 -160 -97 -281 -260 -281c-156 0 -292 92 -292 279v350c0 39 -10 56 -47 59v22h201v-22c-38 -3 -48 -20 -48 -59v-352c0 -170 95 -236 211 -236c132 0 196 109 196 238v350c0 39 -10 56 -47 59v22zM323 888
c31 0 58 -20 58 -56c0 -35 -27 -56 -58 -56s-58 21 -58 56c0 36 27 56 58 56zM493 888c32 0 58 -20 58 -56c0 -35 -26 -56 -58 -56c-31 0 -58 21 -58 56c0 36 27 56 58 56z" />
    <glyph glyph-name="Ugrave" unicode="&#xd9;" 
d="M558 700h133v-22c-37 -3 -47 -20 -47 -59v-348c0 -160 -97 -281 -260 -281c-156 0 -292 92 -292 279v350c0 39 -10 56 -47 59v22h201v-22c-38 -3 -48 -20 -48 -59v-352c0 -170 95 -236 211 -236c132 0 196 109 196 238v350c0 39 -10 56 -47 59v22zM489 795
c10 -8 13 -14 8 -24c-5 -9 -11 -10 -24 -6c-35 10 -78 25 -126 45c-29 12 -34 33 -23 54s32 28 58 11c42 -29 79 -57 107 -80z" />
    <glyph glyph-name="Uhungarumlaut" unicode="&#x170;" 
d="M558 700h133v-22c-37 -3 -47 -20 -47 -59v-348c0 -160 -97 -281 -260 -281c-156 0 -292 92 -292 279v350c0 39 -10 56 -47 59v22h201v-22c-38 -3 -48 -20 -48 -59v-352c0 -170 95 -236 211 -236c132 0 196 109 196 238v350c0 39 -10 56 -47 59v22zM564 890
c17 -16 19 -38 -4 -59c-39 -34 -76 -62 -105 -83c-11 -8 -17 -9 -25 -2c-8 8 -7 14 0 26c19 30 45 69 76 110c19 24 41 24 58 8zM414 890c17 -16 20 -38 -4 -59c-39 -34 -75 -62 -104 -83c-12 -8 -18 -9 -26 -2c-8 8 -7 14 1 26c18 30 44 69 75 110c19 24 41 24 58 8z" />
    <glyph glyph-name="Umacron" unicode="&#x16a;" 
d="M558 700h133v-22c-37 -3 -47 -20 -47 -59v-348c0 -160 -97 -281 -260 -281c-156 0 -292 92 -292 279v350c0 39 -10 56 -47 59v22h201v-22c-38 -3 -48 -20 -48 -59v-352c0 -170 95 -236 211 -236c132 0 196 109 196 238v350c0 39 -10 56 -47 59v22zM244 839h327v-32h-327
v32z" />
    <glyph glyph-name="Uring" unicode="&#x16e;" 
d="M558 700h133v-22c-37 -3 -47 -20 -47 -59v-348c0 -160 -97 -281 -260 -281c-156 0 -292 92 -292 279v350c0 39 -10 56 -47 59v22h201v-22c-38 -3 -48 -20 -48 -59v-352c0 -170 95 -236 211 -236c132 0 196 109 196 238v350c0 39 -10 56 -47 59v22zM398 939
c57 0 108 -37 108 -96c0 -60 -51 -96 -108 -96s-108 36 -108 96c0 59 51 96 108 96zM398 762c35 0 54 35 54 81c0 45 -19 81 -54 81s-54 -36 -54 -81c0 -46 19 -81 54 -81z" />
    <glyph glyph-name="Utilde" unicode="&#x168;" 
d="M558 700h133v-22c-37 -3 -47 -20 -47 -59v-348c0 -160 -97 -281 -260 -281c-156 0 -292 92 -292 279v350c0 39 -10 56 -47 59v22h201v-22c-38 -3 -48 -20 -48 -59v-352c0 -170 95 -236 211 -236c132 0 196 109 196 238v350c0 39 -10 56 -47 59v22zM338 873
c30 0 53 -8 84 -24c29 -15 53 -29 81 -29c25 0 40 14 47 41h24c-5 -68 -39 -96 -86 -96c-37 0 -63 14 -98 29c-27 11 -43 19 -67 19s-44 -12 -58 -40h-24c6 68 45 100 97 100z" />
    <glyph glyph-name="Wacute" unicode="&#x1e82;" horiz-adv-x="1037" 
d="M878 700h144v-22c-37 -3 -55 -21 -68 -59l-210 -619h-47l-176 549l-186 -549h-47l-210 619c-13 38 -26 56 -63 59v22h220v-22c-39 1 -54 -32 -41 -73l146 -462l193 557h46l174 -559l160 472c12 39 3 62 -35 65v22zM642 864c11 -21 6 -42 -23 -54
c-48 -20 -92 -35 -126 -45c-13 -4 -20 -3 -25 6c-5 10 -2 16 9 24c27 23 64 51 107 80c26 17 46 10 58 -11z" />
    <glyph glyph-name="Wcircumflex" unicode="&#x174;" horiz-adv-x="1037" 
d="M878 700h144v-22c-37 -3 -55 -21 -68 -59l-210 -619h-47l-176 549l-186 -549h-47l-210 619c-13 38 -26 56 -63 59v22h220v-22c-39 1 -54 -32 -41 -73l146 -462l193 557h46l174 -559l160 472c12 39 3 62 -35 65v22zM575 898l139 -128l-13 -17l-143 85l-144 -85l-12 17
l138 128h35z" />
    <glyph glyph-name="Wdieresis" unicode="&#x1e84;" horiz-adv-x="1037" 
d="M878 700h144v-22c-37 -3 -55 -21 -68 -59l-210 -619h-47l-176 549l-186 -549h-47l-210 619c-13 38 -26 56 -63 59v22h220v-22c-39 1 -54 -32 -41 -73l146 -462l193 557h46l174 -559l160 472c12 39 3 62 -35 65v22zM473 888c31 0 58 -20 58 -56c0 -35 -27 -56 -58 -56
s-58 21 -58 56c0 36 27 56 58 56zM643 888c32 0 58 -20 58 -56c0 -35 -26 -56 -58 -56c-31 0 -58 21 -58 56c0 36 27 56 58 56z" />
    <glyph glyph-name="Wgrave" unicode="&#x1e80;" horiz-adv-x="1037" 
d="M878 700h144v-22c-37 -3 -55 -21 -68 -59l-210 -619h-47l-176 549l-186 -549h-47l-210 619c-13 38 -26 56 -63 59v22h220v-22c-39 1 -54 -32 -41 -73l146 -462l193 557h46l174 -559l160 472c12 39 3 62 -35 65v22zM640 795c10 -8 13 -14 8 -24c-5 -9 -11 -10 -24 -6
c-35 10 -78 25 -126 45c-29 12 -34 33 -23 54s32 28 58 11c42 -29 79 -57 107 -80z" />
    <glyph glyph-name="Yacute" unicode="&#xdd;" horiz-adv-x="663" 
d="M499 700h149v-22c-37 -3 -57 -24 -77 -59l-174 -317v-220c0 -39 10 -57 48 -60v-22h-201v22c37 3 47 21 47 60v210l-201 327c-20 33 -38 56 -75 59v22h215v-22c-32 0 -47 -23 -29 -54l171 -286l158 284c16 33 5 55 -31 56v22zM455 864c11 -21 6 -42 -23 -54
c-48 -20 -92 -35 -126 -45c-13 -4 -20 -3 -25 6c-5 10 -2 16 9 24c27 23 64 51 107 80c26 17 46 10 58 -11z" />
    <glyph glyph-name="Ycircumflex" unicode="&#x176;" horiz-adv-x="663" 
d="M499 700h149v-22c-37 -3 -57 -24 -77 -59l-174 -317v-220c0 -39 10 -57 48 -60v-22h-201v22c37 3 47 21 47 60v210l-201 327c-20 33 -38 56 -75 59v22h215v-22c-32 0 -47 -23 -29 -54l171 -286l158 284c16 33 5 55 -31 56v22zM388 898l139 -128l-13 -17l-143 85l-144 -85
l-12 17l138 128h35z" />
    <glyph glyph-name="Ydieresis" unicode="&#x178;" horiz-adv-x="663" 
d="M499 700h149v-22c-37 -3 -57 -24 -77 -59l-174 -317v-220c0 -39 10 -57 48 -60v-22h-201v22c37 3 47 21 47 60v210l-201 327c-20 33 -38 56 -75 59v22h215v-22c-32 0 -47 -23 -29 -54l171 -286l158 284c16 33 5 55 -31 56v22zM276 888c31 0 58 -20 58 -56
c0 -35 -27 -56 -58 -56s-58 21 -58 56c0 36 27 56 58 56zM446 888c32 0 58 -20 58 -56c0 -35 -26 -56 -58 -56c-31 0 -58 21 -58 56c0 36 27 56 58 56z" />
    <glyph glyph-name="Ygrave" unicode="&#x1ef2;" horiz-adv-x="663" 
d="M499 700h149v-22c-37 -3 -57 -24 -77 -59l-174 -317v-220c0 -39 10 -57 48 -60v-22h-201v22c37 3 47 21 47 60v210l-201 327c-20 33 -38 56 -75 59v22h215v-22c-32 0 -47 -23 -29 -54l171 -286l158 284c16 33 5 55 -31 56v22zM443 795c10 -8 13 -14 8 -24
c-5 -9 -11 -10 -24 -6c-35 10 -78 25 -126 45c-29 12 -34 33 -23 54s32 28 58 11c42 -29 79 -57 107 -80z" />
    <glyph glyph-name="Zacute" unicode="&#x179;" horiz-adv-x="614" 
d="M565 156h19l-19 -156h-535v38l411 624h-236c-93 0 -120 -66 -136 -117h-19l19 155h493v-38l-411 -624h279c93 0 119 67 135 118zM411 864c11 -21 6 -42 -23 -54c-48 -20 -92 -35 -126 -45c-13 -4 -20 -3 -25 6c-5 10 -2 16 9 24c27 23 64 51 107 80c26 17 46 10 58 -11z
" />
    <glyph glyph-name="Zcaron" unicode="&#x17d;" horiz-adv-x="614" 
d="M565 156h19l-19 -156h-535v38l411 624h-236c-93 0 -120 -66 -136 -117h-19l19 155h493v-38l-411 -624h279c93 0 119 67 135 118zM460 898l12 -17l-138 -128h-35l-138 128l12 17l144 -84z" />
    <glyph glyph-name="Zdotaccent" unicode="&#x17b;" horiz-adv-x="614" 
d="M565 156h19l-19 -156h-535v38l411 624h-236c-93 0 -120 -66 -136 -117h-19l19 155h493v-38l-411 -624h279c93 0 119 67 135 118zM316 888c32 0 58 -20 58 -56c0 -35 -26 -56 -58 -56c-31 0 -57 21 -57 56c0 36 26 56 57 56z" />
    <glyph glyph-name="aacute" unicode="&#xe1;" horiz-adv-x="480" 
d="M470 43l10 -17c-21 -26 -49 -36 -79 -36c-38 0 -84 18 -85 77c-25 -49 -78 -77 -137 -77c-78 0 -163 34 -168 122c-7 104 74 151 174 160c62 5 107 9 131 11v39c0 88 -21 135 -90 140c-38 2 -80 -19 -78 -67c2 -54 -34 -69 -66 -57c-27 11 -35 42 -20 73
c26 56 101 72 161 72c93 0 197 -31 197 -179v-236c0 -36 28 -42 50 -25zM211 28c64 2 105 52 105 133v99c-15 -2 -40 -4 -79 -9c-82 -10 -127 -60 -126 -123c1 -69 45 -102 100 -100zM319 654c11 -21 6 -42 -23 -54c-48 -20 -92 -35 -126 -45c-13 -4 -20 -3 -25 6
c-5 10 -2 16 9 24c27 23 64 51 107 80c26 17 46 10 58 -11z" />
    <glyph glyph-name="abreve" unicode="&#x103;" horiz-adv-x="480" 
d="M470 43l10 -17c-21 -26 -49 -36 -79 -36c-38 0 -84 18 -85 77c-25 -49 -78 -77 -137 -77c-78 0 -163 34 -168 122c-7 104 74 151 174 160c62 5 107 9 131 11v39c0 88 -21 135 -90 140c-38 2 -80 -19 -78 -67c2 -54 -34 -69 -66 -57c-27 11 -35 42 -20 73
c26 56 101 72 161 72c93 0 197 -31 197 -179v-236c0 -36 28 -42 50 -25zM211 28c64 2 105 52 105 133v99c-15 -2 -40 -4 -79 -9c-82 -10 -127 -60 -126 -123c1 -69 45 -102 100 -100zM342 670l19 -5c-7 -56 -52 -112 -126 -112s-119 56 -126 112l19 5c16 -38 53 -60 107 -60
s91 22 107 60z" />
    <glyph glyph-name="acircumflex" unicode="&#xe2;" horiz-adv-x="480" 
d="M470 43l10 -17c-21 -26 -49 -36 -79 -36c-38 0 -84 18 -85 77c-25 -49 -78 -77 -137 -77c-78 0 -163 34 -168 122c-7 104 74 151 174 160c62 5 107 9 131 11v39c0 88 -21 135 -90 140c-38 2 -80 -19 -78 -67c2 -54 -34 -69 -66 -57c-27 11 -35 42 -20 73
c26 56 101 72 161 72c93 0 197 -31 197 -179v-236c0 -36 28 -42 50 -25zM211 28c64 2 105 52 105 133v99c-15 -2 -40 -4 -79 -9c-82 -10 -127 -60 -126 -123c1 -69 45 -102 100 -100zM252 688l139 -128l-13 -17l-143 85l-144 -85l-12 17l138 128h35z" />
    <glyph glyph-name="adieresis" unicode="&#xe4;" horiz-adv-x="480" 
d="M470 43l10 -17c-21 -26 -49 -36 -79 -36c-38 0 -84 18 -85 77c-25 -49 -78 -77 -137 -77c-78 0 -163 34 -168 122c-7 104 74 151 174 160c62 5 107 9 131 11v39c0 88 -21 135 -90 140c-38 2 -80 -19 -78 -67c2 -54 -34 -69 -66 -57c-27 11 -35 42 -20 73
c26 56 101 72 161 72c93 0 197 -31 197 -179v-236c0 -36 28 -42 50 -25zM211 28c64 2 105 52 105 133v99c-15 -2 -40 -4 -79 -9c-82 -10 -127 -60 -126 -123c1 -69 45 -102 100 -100zM150 678c31 0 58 -20 58 -56c0 -35 -27 -56 -58 -56s-58 21 -58 56c0 36 27 56 58 56z
M320 678c32 0 58 -20 58 -56c0 -35 -26 -56 -58 -56c-31 0 -58 21 -58 56c0 36 27 56 58 56z" />
    <glyph glyph-name="agrave" unicode="&#xe0;" horiz-adv-x="480" 
d="M470 43l10 -17c-21 -26 -49 -36 -79 -36c-38 0 -84 18 -85 77c-25 -49 -78 -77 -137 -77c-78 0 -163 34 -168 122c-7 104 74 151 174 160c62 5 107 9 131 11v39c0 88 -21 135 -90 140c-38 2 -80 -19 -78 -67c2 -54 -34 -69 -66 -57c-27 11 -35 42 -20 73
c26 56 101 72 161 72c93 0 197 -31 197 -179v-236c0 -36 28 -42 50 -25zM211 28c64 2 105 52 105 133v99c-15 -2 -40 -4 -79 -9c-82 -10 -127 -60 -126 -123c1 -69 45 -102 100 -100zM316 585c10 -8 13 -14 8 -24c-5 -9 -11 -10 -24 -6c-35 10 -78 25 -126 45
c-29 12 -34 33 -23 54s32 28 58 11c42 -29 79 -57 107 -80z" />
    <glyph glyph-name="amacron" unicode="&#x101;" horiz-adv-x="480" 
d="M470 43l10 -17c-21 -26 -49 -36 -79 -36c-38 0 -84 18 -85 77c-25 -49 -78 -77 -137 -77c-78 0 -163 34 -168 122c-7 104 74 151 174 160c62 5 107 9 131 11v39c0 88 -21 135 -90 140c-38 2 -80 -19 -78 -67c2 -54 -34 -69 -66 -57c-27 11 -35 42 -20 73
c26 56 101 72 161 72c93 0 197 -31 197 -179v-236c0 -36 28 -42 50 -25zM211 28c64 2 105 52 105 133v99c-15 -2 -40 -4 -79 -9c-82 -10 -127 -60 -126 -123c1 -69 45 -102 100 -100zM71 629h327v-32h-327v32z" />
    <glyph glyph-name="aring" unicode="&#xe5;" horiz-adv-x="480" 
d="M470 43l10 -17c-21 -26 -49 -36 -79 -36c-38 0 -84 18 -85 77c-25 -49 -78 -77 -137 -77c-78 0 -163 34 -168 122c-7 104 74 151 174 160c62 5 107 9 131 11v39c0 88 -21 135 -90 140c-38 2 -80 -19 -78 -67c2 -54 -34 -69 -66 -57c-27 11 -35 42 -20 73
c26 56 101 72 161 72c93 0 197 -31 197 -179v-236c0 -36 28 -42 50 -25zM211 28c64 2 105 52 105 133v99c-15 -2 -40 -4 -79 -9c-82 -10 -127 -60 -126 -123c1 -69 45 -102 100 -100zM235 739c57 0 108 -37 108 -96c0 -60 -51 -96 -108 -96s-108 36 -108 96
c0 59 51 96 108 96zM235 562c35 0 54 35 54 81c0 45 -19 81 -54 81s-54 -36 -54 -81c0 -46 19 -81 54 -81z" />
    <glyph glyph-name="atilde" unicode="&#xe3;" horiz-adv-x="480" 
d="M470 43l10 -17c-21 -26 -49 -36 -79 -36c-38 0 -84 18 -85 77c-25 -49 -78 -77 -137 -77c-78 0 -163 34 -168 122c-7 104 74 151 174 160c62 5 107 9 131 11v39c0 88 -21 135 -90 140c-38 2 -80 -19 -78 -67c2 -54 -34 -69 -66 -57c-27 11 -35 42 -20 73
c26 56 101 72 161 72c93 0 197 -31 197 -179v-236c0 -36 28 -42 50 -25zM211 28c64 2 105 52 105 133v99c-15 -2 -40 -4 -79 -9c-82 -10 -127 -60 -126 -123c1 -69 45 -102 100 -100zM165 663c30 0 53 -8 84 -24c29 -15 53 -29 81 -29c25 0 40 14 47 41h24
c-5 -68 -39 -96 -86 -96c-37 0 -63 14 -98 29c-27 11 -43 19 -67 19s-44 -12 -58 -40h-24c6 68 45 100 97 100z" />
    <glyph glyph-name="aeacute" unicode="&#x1fd;" horiz-adv-x="781" 
d="M765 253h-344v-4v-6c12 -220 236 -241 324 -128l14 -12c-35 -66 -110 -113 -195 -113c-95 0 -180 50 -221 135c-16 -105 -93 -135 -163 -135c-79 0 -163 34 -169 122c-7 104 75 151 175 160c62 5 106 9 131 11v39c0 88 -21 135 -90 139c-38 3 -80 -18 -78 -66
c2 -54 -35 -69 -66 -57c-28 11 -35 41 -20 73c26 55 101 72 161 72s125 -12 163 -61c42 40 100 61 166 61c145 0 213 -101 212 -224v-6zM552 461c-70 -1 -123 -67 -130 -172h246c4 89 -34 173 -116 172zM212 28c64 2 105 52 105 133v99c-15 -2 -40 -4 -79 -9
c-82 -10 -127 -60 -126 -123c1 -69 45 -102 100 -100zM522 654c11 -21 6 -42 -23 -54c-48 -20 -92 -35 -126 -45c-13 -4 -20 -3 -25 6c-5 10 -2 16 9 24c27 23 64 51 107 80c26 17 46 10 58 -11z" />
    <glyph glyph-name="cacute" unicode="&#x107;" horiz-adv-x="468" 
d="M434 115l14 -11c-34 -67 -104 -114 -192 -114c-133 0 -246 97 -246 254c0 149 115 239 244 239c84 0 148 -28 178 -78c17 -29 15 -75 -23 -88c-31 -11 -71 9 -68 64c3 51 -34 84 -90 79c-75 -7 -145 -86 -138 -216c11 -221 234 -242 321 -129zM343 654
c11 -21 6 -42 -23 -54c-48 -20 -92 -35 -126 -45c-13 -4 -20 -3 -25 6c-5 10 -2 16 9 24c27 23 64 51 107 80c26 17 46 10 58 -11z" />
    <glyph glyph-name="ccaron" unicode="&#x10d;" horiz-adv-x="468" 
d="M434 115l14 -11c-34 -67 -104 -114 -192 -114c-133 0 -246 97 -246 254c0 149 115 239 244 239c84 0 148 -28 178 -78c17 -29 15 -75 -23 -88c-31 -11 -71 9 -68 64c3 51 -34 84 -90 79c-75 -7 -145 -86 -138 -216c11 -221 234 -242 321 -129zM402 688l12 -17l-138 -128
h-35l-138 128l12 17l144 -84z" />
    <glyph glyph-name="ccircumflex" unicode="&#x109;" horiz-adv-x="468" 
d="M434 115l14 -11c-34 -67 -104 -114 -192 -114c-133 0 -246 97 -246 254c0 149 115 239 244 239c84 0 148 -28 178 -78c17 -29 15 -75 -23 -88c-31 -11 -71 9 -68 64c3 51 -34 84 -90 79c-75 -7 -145 -86 -138 -216c11 -221 234 -242 321 -129zM276 688l139 -128l-13 -17
l-143 85l-144 -85l-12 17l138 128h35z" />
    <glyph glyph-name="cdotaccent" unicode="&#x10b;" horiz-adv-x="468" 
d="M434 115l14 -11c-34 -67 -104 -114 -192 -114c-133 0 -246 97 -246 254c0 149 115 239 244 239c84 0 148 -28 178 -78c17 -29 15 -75 -23 -88c-31 -11 -71 9 -68 64c3 51 -34 84 -90 79c-75 -7 -145 -86 -138 -216c11 -221 234 -242 321 -129zM258 678
c32 0 58 -20 58 -56c0 -35 -26 -56 -58 -56c-31 0 -57 21 -57 56c0 36 26 56 57 56z" />
    <glyph glyph-name="dcaron" unicode="&#x10f;" horiz-adv-x="623" 
d="M551 36l6 -19c-24 -19 -51 -27 -83 -27c-43 0 -85 19 -85 79v9c-33 -50 -85 -88 -163 -88c-119 0 -216 96 -216 247s97 246 216 246c78 0 130 -37 163 -87v223c0 39 -10 56 -47 59v22l135 36h16v-665c0 -36 29 -45 58 -35zM252 27c88 0 137 82 137 210s-49 210 -137 210
c-87 0 -135 -89 -135 -210s48 -210 135 -210zM597 741c32 0 59 -25 60 -67c2 -90 -53 -153 -94 -185l-17 18c44 47 56 76 60 116h-9c-33 0 -61 22 -61 59c0 38 28 59 61 59z" />
    <glyph glyph-name="eacute" unicode="&#xe9;" horiz-adv-x="478" 
d="M457 259v-6h-344c0 -3 0 -6 1 -9c11 -221 236 -242 323 -129l14 -12c-34 -66 -110 -113 -195 -113c-132 0 -246 97 -246 254c0 152 103 239 236 239c145 0 213 -101 211 -224zM244 461c-70 -1 -123 -67 -130 -172h247c3 89 -34 173 -117 172zM338 654
c11 -21 6 -42 -23 -54c-48 -20 -92 -35 -126 -45c-13 -4 -20 -3 -25 6c-5 10 -2 16 9 24c27 23 64 51 107 80c26 17 46 10 58 -11z" />
    <glyph glyph-name="ebreve" unicode="&#x115;" horiz-adv-x="478" 
d="M457 259v-6h-344c0 -3 0 -6 1 -9c11 -221 236 -242 323 -129l14 -12c-34 -66 -110 -113 -195 -113c-132 0 -246 97 -246 254c0 152 103 239 236 239c145 0 213 -101 211 -224zM244 461c-70 -1 -123 -67 -130 -172h247c3 89 -34 173 -117 172zM361 670l19 -5
c-7 -56 -52 -112 -126 -112s-119 56 -126 112l19 5c16 -38 53 -60 107 -60s91 22 107 60z" />
    <glyph glyph-name="ecaron" unicode="&#x11b;" horiz-adv-x="478" 
d="M457 259v-6h-344c0 -3 0 -6 1 -9c11 -221 236 -242 323 -129l14 -12c-34 -66 -110 -113 -195 -113c-132 0 -246 97 -246 254c0 152 103 239 236 239c145 0 213 -101 211 -224zM244 461c-70 -1 -123 -67 -130 -172h247c3 89 -34 173 -117 172zM397 688l12 -17l-138 -128
h-35l-138 128l12 17l144 -84z" />
    <glyph glyph-name="ecircumflex" unicode="&#xea;" horiz-adv-x="478" 
d="M457 259v-6h-344c0 -3 0 -6 1 -9c11 -221 236 -242 323 -129l14 -12c-34 -66 -110 -113 -195 -113c-132 0 -246 97 -246 254c0 152 103 239 236 239c145 0 213 -101 211 -224zM244 461c-70 -1 -123 -67 -130 -172h247c3 89 -34 173 -117 172zM271 688l139 -128l-13 -17
l-143 85l-144 -85l-12 17l138 128h35z" />
    <glyph glyph-name="edieresis" unicode="&#xeb;" horiz-adv-x="478" 
d="M457 259v-6h-344c0 -3 0 -6 1 -9c11 -221 236 -242 323 -129l14 -12c-34 -66 -110 -113 -195 -113c-132 0 -246 97 -246 254c0 152 103 239 236 239c145 0 213 -101 211 -224zM244 461c-70 -1 -123 -67 -130 -172h247c3 89 -34 173 -117 172zM169 678c31 0 58 -20 58 -56
c0 -35 -27 -56 -58 -56s-58 21 -58 56c0 36 27 56 58 56zM339 678c32 0 58 -20 58 -56c0 -35 -26 -56 -58 -56c-31 0 -58 21 -58 56c0 36 27 56 58 56z" />
    <glyph glyph-name="edotaccent" unicode="&#x117;" horiz-adv-x="478" 
d="M457 259v-6h-344c0 -3 0 -6 1 -9c11 -221 236 -242 323 -129l14 -12c-34 -66 -110 -113 -195 -113c-132 0 -246 97 -246 254c0 152 103 239 236 239c145 0 213 -101 211 -224zM244 461c-70 -1 -123 -67 -130 -172h247c3 89 -34 173 -117 172zM243 678c32 0 58 -20 58 -56
c0 -35 -26 -56 -58 -56c-31 0 -57 21 -57 56c0 36 26 56 57 56z" />
    <glyph glyph-name="egrave" unicode="&#xe8;" horiz-adv-x="478" 
d="M457 259v-6h-344c0 -3 0 -6 1 -9c11 -221 236 -242 323 -129l14 -12c-34 -66 -110 -113 -195 -113c-132 0 -246 97 -246 254c0 152 103 239 236 239c145 0 213 -101 211 -224zM244 461c-70 -1 -123 -67 -130 -172h247c3 89 -34 173 -117 172zM335 585c10 -8 13 -14 8 -24
c-5 -9 -11 -10 -24 -6c-35 10 -78 25 -126 45c-29 12 -34 33 -23 54s32 28 58 11c42 -29 79 -57 107 -80z" />
    <glyph glyph-name="emacron" unicode="&#x113;" horiz-adv-x="478" 
d="M457 259v-6h-344c0 -3 0 -6 1 -9c11 -221 236 -242 323 -129l14 -12c-34 -66 -110 -113 -195 -113c-132 0 -246 97 -246 254c0 152 103 239 236 239c145 0 213 -101 211 -224zM244 461c-70 -1 -123 -67 -130 -172h247c3 89 -34 173 -117 172zM80 629h327v-32h-327v32z
" />
    <glyph glyph-name="gbreve" unicode="&#x11f;" horiz-adv-x="560" 
d="M284 77c178 0 264 -43 260 -140c-4 -113 -106 -203 -268 -203c-141 0 -280 52 -270 155c6 49 49 89 117 112c-65 19 -100 53 -90 102c11 49 73 71 120 81c-43 28 -71 73 -71 133c0 107 91 166 193 166c39 0 77 -8 109 -25c2 24 10 48 22 72c23 43 82 56 102 20
c15 -30 -7 -69 -49 -64c-20 2 -31 0 -41 -7s-13 -20 -14 -34c39 -28 65 -72 65 -128c0 -107 -92 -168 -194 -168c-32 0 -64 7 -92 18c-33 -5 -86 -18 -88 -45c-4 -39 55 -45 189 -45zM275 458c-56 0 -98 -49 -98 -141c0 -93 42 -142 98 -142c57 0 99 49 99 142
c0 92 -42 141 -99 141zM464 -113c13 80 -58 97 -193 97c-35 0 -68 2 -97 6c-42 -15 -82 -46 -85 -104c-5 -97 105 -124 192 -124c85 -1 169 43 183 125zM382 670l19 -5c-7 -56 -52 -112 -126 -112s-119 56 -126 112l19 5c16 -38 53 -60 107 -60s91 22 107 60z" />
    <glyph glyph-name="gcircumflex" unicode="&#x11d;" horiz-adv-x="560" 
d="M284 77c178 0 264 -43 260 -140c-4 -113 -106 -203 -268 -203c-141 0 -280 52 -270 155c6 49 49 89 117 112c-65 19 -100 53 -90 102c11 49 73 71 120 81c-43 28 -71 73 -71 133c0 107 91 166 193 166c39 0 77 -8 109 -25c2 24 10 48 22 72c23 43 82 56 102 20
c15 -30 -7 -69 -49 -64c-20 2 -31 0 -41 -7s-13 -20 -14 -34c39 -28 65 -72 65 -128c0 -107 -92 -168 -194 -168c-32 0 -64 7 -92 18c-33 -5 -86 -18 -88 -45c-4 -39 55 -45 189 -45zM275 458c-56 0 -98 -49 -98 -141c0 -93 42 -142 98 -142c57 0 99 49 99 142
c0 92 -42 141 -99 141zM464 -113c13 80 -58 97 -193 97c-35 0 -68 2 -97 6c-42 -15 -82 -46 -85 -104c-5 -97 105 -124 192 -124c85 -1 169 43 183 125zM292 698l139 -128l-13 -17l-143 85l-144 -85l-12 17l138 128h35z" />
    <glyph glyph-name="gcommaaccent" unicode="&#x123;" horiz-adv-x="560" 
d="M284 77c178 0 264 -43 260 -140c-4 -113 -106 -203 -268 -203c-141 0 -280 52 -270 155c6 49 49 89 117 112c-65 19 -100 53 -90 102c11 49 73 71 120 81c-43 28 -71 73 -71 133c0 107 91 166 193 166c39 0 77 -8 109 -25c2 24 10 48 22 72c23 43 82 56 102 20
c15 -30 -7 -69 -49 -64c-20 2 -31 0 -41 -7s-13 -20 -14 -34c39 -28 65 -72 65 -128c0 -107 -92 -168 -194 -168c-32 0 -64 7 -92 18c-33 -5 -86 -18 -88 -45c-4 -39 55 -45 189 -45zM275 458c-56 0 -98 -49 -98 -141c0 -93 42 -142 98 -142c57 0 99 49 99 142
c0 92 -42 141 -99 141zM464 -113c13 80 -58 97 -193 97c-35 0 -68 2 -97 6c-42 -15 -82 -46 -85 -104c-5 -97 105 -124 192 -124c85 -1 169 43 183 125zM269 685c33 0 60 -22 60 -59c0 -38 -27 -60 -60 -60s-60 26 -60 67c-2 90 53 154 94 185l16 -17
c-44 -48 -56 -77 -60 -116h10z" />
    <glyph glyph-name="gdotaccent" unicode="&#x121;" horiz-adv-x="560" 
d="M284 77c178 0 264 -43 260 -140c-4 -113 -106 -203 -268 -203c-141 0 -280 52 -270 155c6 49 49 89 117 112c-65 19 -100 53 -90 102c11 49 73 71 120 81c-43 28 -71 73 -71 133c0 107 91 166 193 166c39 0 77 -8 109 -25c2 24 10 48 22 72c23 43 82 56 102 20
c15 -30 -7 -69 -49 -64c-20 2 -31 0 -41 -7s-13 -20 -14 -34c39 -28 65 -72 65 -128c0 -107 -92 -168 -194 -168c-32 0 -64 7 -92 18c-33 -5 -86 -18 -88 -45c-4 -39 55 -45 189 -45zM275 458c-56 0 -98 -49 -98 -141c0 -93 42 -142 98 -142c57 0 99 49 99 142
c0 92 -42 141 -99 141zM464 -113c13 80 -58 97 -193 97c-35 0 -68 2 -97 6c-42 -15 -82 -46 -85 -104c-5 -97 105 -124 192 -124c85 -1 169 43 183 125zM274 678c32 0 58 -20 58 -56c0 -35 -26 -56 -58 -56c-31 0 -57 21 -57 56c0 36 26 56 57 56z" />
    <glyph glyph-name="hcircumflex" unicode="&#x125;" horiz-adv-x="587" 
d="M524 82c0 -39 10 -57 48 -60v-22h-199v22c37 3 47 21 47 60v223c0 81 -36 140 -114 140c-69 0 -117 -56 -117 -131v-232c0 -39 10 -57 47 -60v-22h-199v22c37 3 47 21 47 60v537c0 39 -10 56 -47 59v22l136 36h16v-322c38 47 91 69 150 69c124 0 185 -83 185 -188v-213z
M198 896l139 -128l-13 -17l-143 85l-144 -85l-12 17l138 128h35z" />
    <glyph glyph-name="dotlessi" unicode="&#x131;" horiz-adv-x="239" 
d="M177 82c0 -39 10 -57 47 -60v-22h-199v22c37 3 47 21 47 60v284c0 39 -10 57 -47 60v22l136 35h16v-401z" />
    <glyph glyph-name="iacute" unicode="&#xed;" horiz-adv-x="239" 
d="M177 82c0 -39 10 -57 47 -60v-22h-199v22c37 3 47 21 47 60v284c0 39 -10 57 -47 60v22l136 35h16v-401zM188 654c11 -21 6 -42 -23 -54c-48 -20 -92 -35 -126 -45c-13 -4 -20 -3 -25 6c-5 10 -2 16 9 24c27 23 64 51 107 80c26 17 46 10 58 -11z" />
    <glyph glyph-name="ibreve" unicode="&#x12d;" horiz-adv-x="239" 
d="M177 82c0 -39 10 -57 47 -60v-22h-199v22c37 3 47 21 47 60v284c0 39 -10 57 -47 60v22l136 35h16v-401zM222 670l19 -5c-7 -56 -52 -112 -126 -112s-119 56 -126 112l19 5c16 -38 53 -60 107 -60s91 22 107 60z" />
    <glyph glyph-name="icircumflex" unicode="&#xee;" horiz-adv-x="239" 
d="M177 82c0 -39 10 -57 47 -60v-22h-199v22c37 3 47 21 47 60v284c0 39 -10 57 -47 60v22l136 35h16v-401zM132 688l139 -128l-13 -17l-143 85l-144 -85l-12 17l138 128h35z" />
    <glyph glyph-name="idieresis" unicode="&#xef;" horiz-adv-x="239" 
d="M177 82c0 -39 10 -57 47 -60v-22h-199v22c37 3 47 21 47 60v284c0 39 -10 57 -47 60v22l136 35h16v-401zM30 678c31 0 58 -20 58 -56c0 -35 -27 -56 -58 -56s-58 21 -58 56c0 36 27 56 58 56zM200 678c32 0 58 -20 58 -56c0 -35 -26 -56 -58 -56c-31 0 -58 21 -58 56
c0 36 27 56 58 56z" />
    <glyph glyph-name="igrave" unicode="&#xec;" horiz-adv-x="239" 
d="M177 82c0 -39 10 -57 47 -60v-22h-199v22c37 3 47 21 47 60v284c0 39 -10 57 -47 60v22l136 35h16v-401zM186 585c10 -8 13 -14 8 -24c-5 -9 -11 -10 -24 -6c-35 10 -78 25 -126 45c-29 12 -34 33 -23 54s32 28 58 11c42 -29 79 -57 107 -80z" />
    <glyph glyph-name="imacron" unicode="&#x12b;" horiz-adv-x="239" 
d="M176 82c0 -39 10 -57 47 -60v-22h-199v22c37 3 47 21 47 60v284c0 39 -10 57 -47 60v22l136 35h16v-401zM-50 629h327v-32h-327v32z" />
    <glyph glyph-name="itilde" unicode="&#x129;" horiz-adv-x="239" 
d="M176 82c0 -39 10 -57 47 -60v-22h-199v22c37 3 47 21 47 60v284c0 39 -10 57 -47 60v22l136 35h16v-401zM44 663c30 0 53 -8 84 -24c29 -15 53 -29 81 -29c25 0 40 14 47 41h24c-5 -68 -39 -96 -86 -96c-37 0 -63 14 -98 29c-27 11 -43 19 -67 19s-44 -12 -58 -40h-24
c6 68 45 100 97 100z" />
    <glyph glyph-name="ij" unicode="&#x133;" horiz-adv-x="497" 
d="M117 553c-38 0 -70 24 -70 67s32 67 70 67s70 -24 70 -67s-32 -67 -70 -67zM177 82c0 -39 10 -57 47 -60v-22h-199v22c37 3 47 21 47 60v284c0 39 -10 57 -47 60v22l136 35h16v-401zM385 553c-38 0 -70 24 -70 67s32 67 70 67c33 0 62 -19 68 -52c3 -6 4 -13 4 -21
c0 -17 -7 -31 -18 -39c-13 -14 -33 -22 -54 -22zM293 448l136 35h16v-493c0 -106 -25 -189 -112 -194c-50 -3 -100 13 -131 55c-17 23 -29 69 2 91c20 15 49 9 61 -12c11 -21 9 -44 14 -63c7 -32 28 -49 58 -44c23 4 37 29 30 62c-11 63 -27 45 -27 138v343
c0 39 -10 57 -47 60v22z" />
    <glyph glyph-name="jcircumflex" unicode="&#x135;" horiz-adv-x="238" 
d="M24 448l136 35h16v-493c0 -106 -25 -189 -112 -194c-50 -3 -100 13 -131 55c-17 23 -29 69 2 91c20 15 49 9 61 -12c11 -21 9 -44 14 -63c7 -32 28 -49 58 -44c23 4 37 29 30 62c-11 63 -27 45 -27 138v343c0 39 -10 57 -47 60v22zM69 698l139 -128l-13 -17l-143 85
l-144 -85l-12 17l138 128h35z" />
    <glyph glyph-name="kcommaaccent" unicode="&#x137;" horiz-adv-x="572" 
d="M485 82c26 -35 47 -53 77 -60v-22h-199v22c33 4 33 25 6 60l-128 166l-65 -59v-107c0 -39 10 -57 48 -60v-22h-199v22c37 3 47 21 47 60v537c0 39 -10 56 -47 59v22l135 36h16v-506l186 169c32 29 30 50 -7 53v22h147v-22c-42 -6 -69 -27 -104 -59l-86 -80zM296 -64
c33 0 60 -25 61 -67c1 -90 -53 -153 -94 -185l-17 18c44 47 56 76 60 116h-10c-33 0 -60 21 -60 59s27 59 60 59z" />
    <glyph glyph-name="kgreenlandic" unicode="&#x138;" horiz-adv-x="572" 
d="M485 82c26 -35 47 -53 77 -60v-22h-198v22c32 4 32 25 5 60l-128 166l-65 -59v-107c0 -39 10 -57 48 -60v-22h-199v22c37 3 47 21 47 60v349c0 40 -10 57 -47 60v22l135 36h16v-319l186 169c32 29 30 50 -7 53v22h147v-22c-42 -6 -68 -27 -102 -58l-88 -81z" />
    <glyph glyph-name="lacute" unicode="&#x13a;" horiz-adv-x="240" 
d="M177 82c0 -39 10 -57 48 -60v-22h-200v22c38 3 48 21 48 60v537c0 39 -10 56 -48 59v22l136 36h16v-654zM189 866c11 -21 6 -42 -23 -54c-48 -20 -92 -35 -126 -45c-13 -4 -20 -3 -25 6c-5 10 -2 16 9 24c27 23 64 51 107 80c26 17 46 10 58 -11z" />
    <glyph glyph-name="lcaron" unicode="&#x13e;" horiz-adv-x="318" 
d="M177 82c0 -39 10 -57 48 -60v-22h-200v22c38 3 48 21 48 60v537c0 39 -10 56 -48 59v22l136 36h16v-654zM292 741c32 0 59 -25 60 -67c2 -90 -53 -153 -94 -185l-17 18c44 47 56 76 60 116h-9c-33 0 -61 22 -61 59c0 38 28 59 61 59z" />
    <glyph glyph-name="lcommaaccent" unicode="&#x13c;" horiz-adv-x="240" 
d="M177 82c0 -39 10 -57 48 -60v-22h-200v22c38 3 48 21 48 60v537c0 39 -10 56 -48 59v22l136 36h16v-654zM124 -64c33 0 60 -25 61 -67c1 -90 -53 -153 -94 -185l-17 18c44 47 56 76 60 116h-10c-33 0 -60 21 -60 59s27 59 60 59z" />
    <glyph glyph-name="ldot" unicode="&#x140;" horiz-adv-x="369" 
d="M177 82c0 -39 10 -57 48 -60v-22h-200v22c38 3 48 21 48 60v537c0 39 -10 56 -48 59v22l136 36h16v-654zM296 411c32 0 58 -20 58 -56c0 -35 -26 -56 -58 -56c-31 0 -57 21 -57 56c0 36 26 56 57 56z" />
    <glyph glyph-name="nacute" unicode="&#x144;" horiz-adv-x="575" 
d="M513 82c0 -39 10 -57 47 -60v-22h-199v22c37 3 47 21 47 60v223c0 81 -36 140 -114 140c-69 0 -117 -56 -117 -131v-232c0 -39 10 -57 48 -60v-22h-200v22c38 3 48 21 48 60v284c0 39 -10 57 -48 60v22l133 35h16v-73c38 50 92 73 154 73c123 0 185 -83 185 -188v-213z
M356 654c11 -21 6 -42 -23 -54c-48 -20 -92 -35 -126 -45c-13 -4 -20 -3 -25 6c-5 10 -2 16 9 24c27 23 64 51 107 80c26 17 46 10 58 -11z" />
    <glyph glyph-name="napostrophe" unicode="&#x149;" horiz-adv-x="700" 
d="M638 82c0 -39 10 -57 47 -60v-22h-199v22c37 3 47 21 47 60v223c0 81 -36 140 -114 140c-69 0 -117 -56 -117 -131v-232c0 -39 10 -57 48 -60v-22h-200v22c38 3 48 21 48 60v284c0 39 -10 57 -48 60v22l133 35h16v-73c38 50 92 73 154 73c123 0 185 -83 185 -188v-213z
M75 709c33 0 60 -25 61 -67c1 -90 -53 -153 -94 -185l-17 18c44 47 56 76 60 116h-10c-33 0 -60 21 -60 59s27 59 60 59z" />
    <glyph glyph-name="ncaron" unicode="&#x148;" horiz-adv-x="575" 
d="M513 82c0 -39 10 -57 47 -60v-22h-199v22c37 3 47 21 47 60v223c0 81 -36 140 -114 140c-69 0 -117 -56 -117 -131v-232c0 -39 10 -57 48 -60v-22h-200v22c38 3 48 21 48 60v284c0 39 -10 57 -48 60v22l133 35h16v-73c38 50 92 73 154 73c123 0 185 -83 185 -188v-213z
M426 688l12 -17l-138 -128h-35l-138 128l12 17l144 -84z" />
    <glyph glyph-name="ncommaaccent" unicode="&#x146;" horiz-adv-x="575" 
d="M513 82c0 -39 10 -57 47 -60v-22h-199v22c37 3 47 21 47 60v223c0 81 -36 140 -114 140c-69 0 -117 -56 -117 -131v-232c0 -39 10 -57 48 -60v-22h-200v22c38 3 48 21 48 60v284c0 39 -10 57 -48 60v22l133 35h16v-73c38 50 92 73 154 73c123 0 185 -83 185 -188v-213z
M291 -64c33 0 60 -25 61 -67c1 -90 -53 -153 -94 -185l-17 18c44 47 56 76 60 116h-10c-33 0 -60 21 -60 59s27 59 60 59z" />
    <glyph glyph-name="ntilde" unicode="&#xf1;" horiz-adv-x="575" 
d="M513 82c0 -39 10 -57 47 -60v-22h-199v22c37 3 47 21 47 60v223c0 81 -36 140 -114 140c-69 0 -117 -56 -117 -131v-232c0 -39 10 -57 48 -60v-22h-200v22c38 3 48 21 48 60v284c0 39 -10 57 -48 60v22l133 35h16v-73c38 50 92 73 154 73c123 0 185 -83 185 -188v-213z
M213 663c30 0 53 -8 84 -24c29 -15 53 -29 81 -29c25 0 40 14 47 41h24c-5 -68 -39 -96 -86 -96c-37 0 -63 14 -98 29c-27 11 -43 19 -67 19s-44 -12 -58 -40h-24c6 68 45 100 97 100z" />
    <glyph glyph-name="oacute" unicode="&#xf3;" horiz-adv-x="527" 
d="M256 483c133 0 251 -90 251 -246s-118 -247 -251 -247s-251 91 -251 247s118 246 251 246zM256 19c90 0 143 88 143 218s-53 218 -143 218s-143 -88 -143 -218s53 -218 143 -218zM340 654c11 -21 6 -42 -23 -54c-48 -20 -92 -35 -126 -45c-13 -4 -20 -3 -25 6
c-5 10 -2 16 9 24c27 23 64 51 107 80c26 17 46 10 58 -11z" />
    <glyph glyph-name="obreve" unicode="&#x14f;" horiz-adv-x="527" 
d="M256 483c133 0 251 -90 251 -246s-118 -247 -251 -247s-251 91 -251 247s118 246 251 246zM256 19c90 0 143 88 143 218s-53 218 -143 218s-143 -88 -143 -218s53 -218 143 -218zM363 670l19 -5c-7 -56 -52 -112 -126 -112s-119 56 -126 112l19 5c16 -38 53 -60 107 -60
s91 22 107 60z" />
    <glyph glyph-name="ocircumflex" unicode="&#xf4;" horiz-adv-x="527" 
d="M256 483c133 0 251 -90 251 -246s-118 -247 -251 -247s-251 91 -251 247s118 246 251 246zM256 19c90 0 143 88 143 218s-53 218 -143 218s-143 -88 -143 -218s53 -218 143 -218zM273 688l139 -128l-13 -17l-143 85l-144 -85l-12 17l138 128h35z" />
    <glyph glyph-name="odieresis" unicode="&#xf6;" horiz-adv-x="527" 
d="M256 483c133 0 251 -90 251 -246s-118 -247 -251 -247s-251 91 -251 247s118 246 251 246zM256 19c90 0 143 88 143 218s-53 218 -143 218s-143 -88 -143 -218s53 -218 143 -218zM171 678c31 0 58 -20 58 -56c0 -35 -27 -56 -58 -56s-58 21 -58 56c0 36 27 56 58 56z
M341 678c32 0 58 -20 58 -56c0 -35 -26 -56 -58 -56c-31 0 -58 21 -58 56c0 36 27 56 58 56z" />
    <glyph glyph-name="ograve" unicode="&#xf2;" horiz-adv-x="527" 
d="M256 483c133 0 251 -90 251 -246s-118 -247 -251 -247s-251 91 -251 247s118 246 251 246zM256 19c90 0 143 88 143 218s-53 218 -143 218s-143 -88 -143 -218s53 -218 143 -218zM337 585c10 -8 13 -14 8 -24c-5 -9 -11 -10 -24 -6c-35 10 -78 25 -126 45
c-29 12 -34 33 -23 54s32 28 58 11c42 -29 79 -57 107 -80z" />
    <glyph glyph-name="ohungarumlaut" unicode="&#x151;" horiz-adv-x="527" 
d="M256 483c133 0 251 -90 251 -246s-118 -247 -251 -247s-251 91 -251 247s118 246 251 246zM256 19c90 0 143 88 143 218s-53 218 -143 218s-143 -88 -143 -218s53 -218 143 -218zM422 680c17 -16 19 -38 -4 -59c-39 -34 -76 -62 -105 -83c-11 -8 -17 -9 -25 -2
c-8 8 -7 14 0 26c19 30 45 69 76 110c19 24 41 24 58 8zM272 680c17 -16 20 -38 -4 -59c-39 -34 -75 -62 -104 -83c-12 -8 -18 -9 -26 -2c-8 8 -7 14 1 26c18 30 44 69 75 110c19 24 41 24 58 8z" />
    <glyph glyph-name="omacron" unicode="&#x14d;" horiz-adv-x="527" 
d="M256 483c133 0 251 -90 251 -246s-118 -247 -251 -247s-251 91 -251 247s118 246 251 246zM256 19c90 0 143 88 143 218s-53 218 -143 218s-143 -88 -143 -218s53 -218 143 -218zM92 629h327v-32h-327v32z" />
    <glyph glyph-name="oslashacute" unicode="&#x1ff;" horiz-adv-x="527" 
d="M512 466l-64 -64c37 -41 59 -97 59 -165c0 -156 -118 -247 -251 -247c-61 0 -119 19 -164 56l-65 -65l-27 27l64 64c-36 41 -59 97 -59 165c0 156 118 246 251 246c61 0 120 -19 164 -55l65 65zM113 237c0 -38 5 -73 14 -103l243 244c-24 48 -63 77 -114 77
c-90 0 -143 -88 -143 -218zM399 237c0 38 -5 73 -13 102l-244 -243c24 -49 63 -77 114 -77c90 0 143 88 143 218zM335 654c11 -21 6 -42 -23 -54c-48 -20 -92 -35 -126 -45c-13 -4 -20 -3 -25 6c-5 10 -2 16 9 24c27 23 64 51 107 80c26 17 46 10 58 -11z" />
    <glyph glyph-name="otilde" unicode="&#xf5;" horiz-adv-x="527" 
d="M256 483c133 0 251 -90 251 -246s-118 -247 -251 -247s-251 91 -251 247s118 246 251 246zM256 19c90 0 143 88 143 218s-53 218 -143 218s-143 -88 -143 -218s53 -218 143 -218zM186 663c30 0 53 -8 84 -24c29 -15 53 -29 81 -29c25 0 40 14 47 41h24
c-5 -68 -39 -96 -86 -96c-37 0 -63 14 -98 29c-27 11 -43 19 -67 19s-44 -12 -58 -40h-24c6 68 45 100 97 100z" />
    <glyph glyph-name="racute" unicode="&#x155;" horiz-adv-x="436" 
d="M413 421c8 -27 -1 -63 -29 -73c-33 -11 -69 1 -73 50c-4 37 -24 44 -52 39c-40 -7 -82 -61 -82 -133v-223c0 -39 10 -56 47 -59v-22h-199v22c37 3 47 20 47 59v285c0 39 -10 57 -47 60v22l133 35h16v-85c28 55 73 84 131 85c47 1 94 -20 108 -62zM304 654
c11 -21 6 -42 -23 -54c-48 -20 -92 -35 -126 -45c-13 -4 -20 -3 -25 6c-5 10 -2 16 9 24c27 23 64 51 107 80c26 17 46 10 58 -11z" />
    <glyph glyph-name="rcaron" unicode="&#x159;" horiz-adv-x="436" 
d="M413 421c8 -27 -1 -63 -29 -73c-33 -11 -69 1 -73 50c-4 37 -24 44 -52 39c-40 -7 -82 -61 -82 -133v-223c0 -39 10 -56 47 -59v-22h-199v22c37 3 47 20 47 59v285c0 39 -10 57 -47 60v22l133 35h16v-85c28 55 73 84 131 85c47 1 94 -20 108 -62zM364 688l12 -17
l-138 -128h-35l-138 128l12 17l144 -84z" />
    <glyph glyph-name="rcommaaccent" unicode="&#x157;" horiz-adv-x="436" 
d="M413 421c8 -27 -1 -63 -29 -73c-33 -11 -69 1 -73 50c-4 37 -24 44 -52 39c-40 -7 -82 -61 -82 -133v-223c0 -39 10 -56 47 -59v-22h-199v22c37 3 47 20 47 59v285c0 39 -10 57 -47 60v22l133 35h16v-85c28 55 73 84 131 85c47 1 94 -20 108 -62zM122 -64
c33 0 60 -25 61 -67c1 -90 -53 -153 -94 -185l-17 18c44 47 56 76 60 116h-10c-33 0 -60 21 -60 59s27 59 60 59z" />
    <glyph glyph-name="sacute" unicode="&#x15b;" horiz-adv-x="403" 
d="M240 285c76 -35 159 -77 132 -178c-20 -77 -90 -117 -187 -117c-61 0 -131 18 -175 52v109h16c22 -95 94 -132 159 -134c50 -2 92 17 102 60c15 65 -51 91 -115 120c-96 44 -162 89 -136 191c17 68 90 95 160 95c51 0 103 -17 147 -51v-97h-17c-23 90 -64 125 -130 123
c-35 -1 -74 -14 -79 -58c-7 -59 57 -85 123 -115zM298 654c11 -21 6 -42 -23 -54c-48 -20 -92 -35 -126 -45c-13 -4 -20 -3 -25 6c-5 10 -2 16 9 24c27 23 64 51 107 80c26 17 46 10 58 -11z" />
    <glyph glyph-name="scaron" unicode="&#x161;" horiz-adv-x="403" 
d="M240 285c76 -35 159 -77 132 -178c-20 -77 -90 -117 -187 -117c-61 0 -131 18 -175 52v109h16c22 -95 94 -132 159 -134c50 -2 92 17 102 60c15 65 -51 91 -115 120c-96 44 -162 89 -136 191c17 68 90 95 160 95c51 0 103 -17 147 -51v-97h-17c-23 90 -64 125 -130 123
c-35 -1 -74 -14 -79 -58c-7 -59 57 -85 123 -115zM347 688l12 -17l-138 -128h-35l-138 128l12 17l144 -84z" />
    <glyph glyph-name="scircumflex" unicode="&#x15d;" horiz-adv-x="403" 
d="M240 285c76 -35 159 -77 132 -178c-20 -77 -90 -117 -187 -117c-61 0 -131 18 -175 52v109h16c22 -95 94 -132 159 -134c50 -2 92 17 102 60c15 65 -51 91 -115 120c-96 44 -162 89 -136 191c17 68 90 95 160 95c51 0 103 -17 147 -51v-97h-17c-23 90 -64 125 -130 123
c-35 -1 -74 -14 -79 -58c-7 -59 57 -85 123 -115zM221 688l139 -128l-13 -17l-143 85l-144 -85l-12 17l138 128h35z" />
    <glyph glyph-name="scommaaccent" unicode="&#x219;" horiz-adv-x="403" 
d="M240 285c76 -35 159 -77 132 -178c-20 -77 -90 -117 -187 -117c-61 0 -131 18 -175 52v109h16c22 -95 94 -132 159 -134c50 -2 92 17 102 60c15 65 -51 91 -115 120c-96 44 -162 89 -136 191c17 68 90 95 160 95c51 0 103 -17 147 -51v-97h-17c-23 90 -64 125 -130 123
c-35 -1 -74 -14 -79 -58c-7 -59 57 -85 123 -115zM193 -64c33 0 60 -25 61 -67c1 -90 -53 -153 -94 -185l-17 18c44 47 56 76 60 116h-10c-33 0 -60 21 -60 59s27 59 60 59z" />
    <glyph glyph-name="tcaron" unicode="&#x165;" horiz-adv-x="397" 
d="M306 64l13 -18c-22 -31 -57 -56 -107 -56c-72 0 -128 38 -128 140v308h-74v36c84 0 131 57 147 138h31v-138h103v-36h-103v-308c0 -44 14 -71 43 -80c29 -10 55 -1 75 14zM366 717c32 0 59 -25 60 -67c2 -90 -53 -153 -94 -185l-17 18c44 47 56 76 60 116h-9
c-33 0 -61 22 -61 59c0 38 28 59 61 59z" />
    <glyph glyph-name="tcommaaccent" unicode="&#x163;" horiz-adv-x="344" 
d="M306 64l13 -18c-22 -31 -57 -56 -107 -56c-72 0 -128 38 -128 140v308h-74v36c84 0 131 57 147 138h31v-138h103v-36h-103v-308c0 -44 14 -71 43 -80c29 -10 55 -1 75 14zM153 -64c33 0 60 -25 61 -67c1 -90 -53 -153 -94 -185l-17 18c44 47 56 76 60 116h-10
c-33 0 -60 21 -60 59s27 59 60 59z" />
    <glyph glyph-name="uacute" unicode="&#xfa;" horiz-adv-x="571" 
d="M499 81c0 -39 10 -56 47 -59v-22h-152v57c-35 -45 -85 -67 -144 -67c-123 0 -198 75 -198 189v187c0 39 -10 57 -47 60v22l135 35h17v-314c0 -91 42 -140 120 -140c66 0 117 56 117 131v206c0 39 -10 57 -47 60v22l135 35h17v-402zM369 654c11 -21 6 -42 -23 -54
c-48 -20 -92 -35 -126 -45c-13 -4 -20 -3 -25 6c-5 10 -2 16 9 24c27 23 64 51 107 80c26 17 46 10 58 -11z" />
    <glyph glyph-name="ubreve" unicode="&#x16d;" horiz-adv-x="571" 
d="M499 81c0 -39 10 -56 47 -59v-22h-152v57c-35 -45 -85 -67 -144 -67c-123 0 -198 75 -198 189v187c0 39 -10 57 -47 60v22l135 35h17v-314c0 -91 42 -140 120 -140c66 0 117 56 117 131v206c0 39 -10 57 -47 60v22l135 35h17v-402zM382 670l19 -5
c-7 -56 -52 -112 -126 -112s-119 56 -126 112l19 5c16 -38 53 -60 107 -60s91 22 107 60z" />
    <glyph glyph-name="ucircumflex" unicode="&#xfb;" horiz-adv-x="571" 
d="M499 81c0 -39 10 -56 47 -59v-22h-152v57c-35 -45 -85 -67 -144 -67c-123 0 -198 75 -198 189v187c0 39 -10 57 -47 60v22l135 35h17v-314c0 -91 42 -140 120 -140c66 0 117 56 117 131v206c0 39 -10 57 -47 60v22l135 35h17v-402zM292 688l139 -128l-13 -17l-143 85
l-144 -85l-12 17l138 128h35z" />
    <glyph glyph-name="udieresis" unicode="&#xfc;" horiz-adv-x="571" 
d="M499 81c0 -39 10 -56 47 -59v-22h-152v57c-35 -45 -85 -67 -144 -67c-123 0 -198 75 -198 189v187c0 39 -10 57 -47 60v22l135 35h17v-314c0 -91 42 -140 120 -140c66 0 117 56 117 131v206c0 39 -10 57 -47 60v22l135 35h17v-402zM190 678c31 0 58 -20 58 -56
c0 -35 -27 -56 -58 -56s-58 21 -58 56c0 36 27 56 58 56zM360 678c32 0 58 -20 58 -56c0 -35 -26 -56 -58 -56c-31 0 -58 21 -58 56c0 36 27 56 58 56z" />
    <glyph glyph-name="uhungarumlaut" unicode="&#x171;" horiz-adv-x="571" 
d="M499 81c0 -39 10 -56 47 -59v-22h-152v57c-35 -45 -85 -67 -144 -67c-123 0 -198 75 -198 189v187c0 39 -10 57 -47 60v22l135 35h17v-314c0 -91 42 -140 120 -140c66 0 117 56 117 131v206c0 39 -10 57 -47 60v22l135 35h17v-402zM422 680c17 -16 19 -38 -4 -59
c-39 -34 -76 -62 -105 -83c-11 -8 -17 -9 -25 -2c-8 8 -7 14 0 26c19 30 45 69 76 110c19 24 41 24 58 8zM272 680c17 -16 20 -38 -4 -59c-39 -34 -75 -62 -104 -83c-12 -8 -18 -9 -26 -2c-8 8 -7 14 1 26c18 30 44 69 75 110c19 24 41 24 58 8z" />
    <glyph glyph-name="ugrave" unicode="&#xf9;" horiz-adv-x="571" 
d="M499 81c0 -39 10 -56 47 -59v-22h-152v57c-35 -45 -85 -67 -144 -67c-123 0 -198 75 -198 189v187c0 39 -10 57 -47 60v22l135 35h17v-314c0 -91 42 -140 120 -140c66 0 117 56 117 131v206c0 39 -10 57 -47 60v22l135 35h17v-402zM347 585c10 -8 13 -14 8 -24
c-5 -9 -11 -10 -24 -6c-35 10 -78 25 -126 45c-29 12 -34 33 -23 54s32 28 58 11c42 -29 79 -57 107 -80z" />
    <glyph glyph-name="umacron" unicode="&#x16b;" horiz-adv-x="571" 
d="M499 81c0 -39 10 -56 47 -59v-22h-152v57c-35 -45 -85 -67 -144 -67c-123 0 -198 75 -198 189v187c0 39 -10 57 -47 60v22l135 35h17v-314c0 -91 42 -140 120 -140c66 0 117 56 117 131v206c0 39 -10 57 -47 60v22l135 35h17v-402zM112 629h327v-32h-327v32z" />
    <glyph glyph-name="uring" unicode="&#x16f;" horiz-adv-x="571" 
d="M499 81c0 -39 10 -56 47 -59v-22h-152v57c-35 -45 -85 -67 -144 -67c-123 0 -198 75 -198 189v187c0 39 -10 57 -47 60v22l135 35h17v-314c0 -91 42 -140 120 -140c66 0 117 56 117 131v206c0 39 -10 57 -47 60v22l135 35h17v-402zM275 729c57 0 108 -37 108 -96
c0 -60 -51 -96 -108 -96s-108 36 -108 96c0 59 51 96 108 96zM275 552c35 0 54 35 54 81c0 45 -19 81 -54 81s-54 -36 -54 -81c0 -46 19 -81 54 -81z" />
    <glyph glyph-name="utilde" unicode="&#x169;" horiz-adv-x="571" 
d="M499 81c0 -39 10 -56 47 -59v-22h-152v57c-35 -45 -85 -67 -144 -67c-123 0 -198 75 -198 189v187c0 39 -10 57 -47 60v22l135 35h17v-314c0 -91 42 -140 120 -140c66 0 117 56 117 131v206c0 39 -10 57 -47 60v22l135 35h17v-402zM206 663c30 0 53 -8 84 -24
c29 -15 53 -29 81 -29c25 0 40 14 47 41h24c-5 -68 -39 -96 -86 -96c-37 0 -63 14 -98 29c-27 11 -43 19 -67 19s-44 -12 -58 -40h-24c6 68 45 100 97 100z" />
    <glyph glyph-name="wacute" unicode="&#x1e83;" horiz-adv-x="753" 
d="M620 474h113v-22c-28 -5 -37 -16 -48 -43l-154 -409h-45l-119 339l-124 -339h-43l-152 388c-16 39 -25 59 -63 64v22h199v-22c-31 -2 -37 -27 -27 -57l96 -278l129 357h44l116 -356l104 278c10 28 6 53 -26 56v22zM493 654c11 -21 6 -42 -23 -54
c-48 -20 -92 -35 -126 -45c-13 -4 -20 -3 -25 6c-5 10 -2 16 9 24c27 23 64 51 107 80c26 17 46 10 58 -11z" />
    <glyph glyph-name="wcircumflex" unicode="&#x175;" horiz-adv-x="753" 
d="M620 474h113v-22c-28 -5 -37 -16 -48 -43l-154 -409h-45l-119 339l-124 -339h-43l-152 388c-16 39 -25 59 -63 64v22h199v-22c-31 -2 -37 -27 -27 -57l96 -278l129 357h44l116 -356l104 278c10 28 6 53 -26 56v22zM426 688l139 -128l-13 -17l-143 85l-144 -85l-12 17
l138 128h35z" />
    <glyph glyph-name="wdieresis" unicode="&#x1e85;" horiz-adv-x="753" 
d="M620 474h113v-22c-28 -5 -37 -16 -48 -43l-154 -409h-45l-119 339l-124 -339h-43l-152 388c-16 39 -25 59 -63 64v22h199v-22c-31 -2 -37 -27 -27 -57l96 -278l129 357h44l116 -356l104 278c10 28 6 53 -26 56v22zM324 678c31 0 58 -20 58 -56c0 -35 -27 -56 -58 -56
s-58 21 -58 56c0 36 27 56 58 56zM494 678c32 0 58 -20 58 -56c0 -35 -26 -56 -58 -56c-31 0 -58 21 -58 56c0 36 27 56 58 56z" />
    <glyph glyph-name="wgrave" unicode="&#x1e81;" horiz-adv-x="753" 
d="M620 474h113v-22c-28 -5 -37 -16 -48 -43l-154 -409h-45l-119 339l-124 -339h-43l-152 388c-16 39 -25 59 -63 64v22h199v-22c-31 -2 -37 -27 -27 -57l96 -278l129 357h44l116 -356l104 278c10 28 6 53 -26 56v22zM480 585c10 -8 13 -14 8 -24c-5 -9 -11 -10 -24 -6
c-35 10 -78 25 -126 45c-29 12 -34 33 -23 54s32 28 58 11c42 -29 79 -57 107 -80z" />
    <glyph glyph-name="yacute" unicode="&#xfd;" horiz-adv-x="517" 
d="M386 474h111v-22c-29 -4 -38 -17 -51 -47l-182 -430c-69 -150 -101 -185 -158 -197c-31 -6 -80 -3 -110 20c-22 18 -30 55 -6 80c23 23 60 15 69 -14c6 -21 14 -51 51 -46c29 3 67 25 122 157l4 10l-182 403c-17 39 -27 59 -64 64v22h195v-22c-31 -2 -33 -28 -21 -57
l123 -289l121 289c11 27 9 54 -22 57v22zM370 654c11 -21 6 -42 -23 -54c-48 -20 -92 -35 -126 -45c-13 -4 -20 -3 -25 6c-5 10 -2 16 9 24c27 23 64 51 107 80c26 17 46 10 58 -11z" />
    <glyph glyph-name="ycircumflex" unicode="&#x177;" horiz-adv-x="517" 
d="M386 474h111v-22c-29 -4 -38 -17 -51 -47l-182 -430c-69 -150 -101 -185 -158 -197c-31 -6 -80 -3 -110 20c-22 18 -30 55 -6 80c23 23 60 15 69 -14c6 -21 14 -51 51 -46c29 3 67 25 122 157l4 10l-182 403c-17 39 -27 59 -64 64v22h195v-22c-31 -2 -33 -28 -21 -57
l123 -289l121 289c11 27 9 54 -22 57v22zM303 688l139 -128l-13 -17l-143 85l-144 -85l-12 17l138 128h35z" />
    <glyph glyph-name="ydieresis" unicode="&#xff;" horiz-adv-x="517" 
d="M386 474h111v-22c-29 -4 -38 -17 -51 -47l-182 -430c-69 -150 -101 -185 -158 -197c-31 -6 -80 -3 -110 20c-22 18 -30 55 -6 80c23 23 60 15 69 -14c6 -21 14 -51 51 -46c29 3 67 25 122 157l4 10l-182 403c-17 39 -27 59 -64 64v22h195v-22c-31 -2 -33 -28 -21 -57
l123 -289l121 289c11 27 9 54 -22 57v22zM201 678c31 0 58 -20 58 -56c0 -35 -27 -56 -58 -56s-58 21 -58 56c0 36 27 56 58 56zM371 678c32 0 58 -20 58 -56c0 -35 -26 -56 -58 -56c-31 0 -58 21 -58 56c0 36 27 56 58 56z" />
    <glyph glyph-name="ygrave" unicode="&#x1ef3;" horiz-adv-x="517" 
d="M386 474h111v-22c-29 -4 -38 -17 -51 -47l-182 -430c-69 -150 -101 -185 -158 -197c-31 -6 -80 -3 -110 20c-22 18 -30 55 -6 80c23 23 60 15 69 -14c6 -21 14 -51 51 -46c29 3 67 25 122 157l4 10l-182 403c-17 39 -27 59 -64 64v22h195v-22c-31 -2 -33 -28 -21 -57
l123 -289l121 289c11 27 9 54 -22 57v22zM367 585c10 -8 13 -14 8 -24c-5 -9 -11 -10 -24 -6c-35 10 -78 25 -126 45c-29 12 -34 33 -23 54s32 28 58 11c42 -29 79 -57 107 -80z" />
    <glyph glyph-name="zacute" unicode="&#x17a;" horiz-adv-x="469" 
d="M416 132h18l-19 -132h-390v36l276 402h-108c-92 0 -119 -45 -135 -97h-19l19 133h357v-36l-272 -402h137c93 0 119 45 136 96zM343 654c11 -21 6 -42 -23 -54c-48 -20 -92 -35 -126 -45c-13 -4 -20 -3 -25 6c-5 10 -2 16 9 24c27 23 64 51 107 80c26 17 46 10 58 -11z
" />
    <glyph glyph-name="zcaron" unicode="&#x17e;" horiz-adv-x="469" 
d="M416 132h18l-19 -132h-390v36l276 402h-108c-92 0 -119 -45 -135 -97h-19l19 133h357v-36l-272 -402h137c93 0 119 45 136 96zM393 688l12 -17l-138 -128h-35l-138 128l12 17l144 -84z" />
    <glyph glyph-name="zdotaccent" unicode="&#x17c;" horiz-adv-x="469" 
d="M416 132h18l-19 -132h-390v36l276 402h-108c-92 0 -119 -45 -135 -97h-19l19 133h357v-36l-272 -402h137c93 0 119 45 136 96zM249 678c32 0 58 -20 58 -56c0 -35 -26 -56 -58 -56c-31 0 -57 21 -57 56c0 36 26 56 57 56z" />
    <glyph glyph-name="Eth" unicode="&#xd0;" horiz-adv-x="719" 
d="M307 700c261 0 392 -161 392 -350s-131 -350 -392 -350h-262v22c38 4 48 21 48 60v256h-48v38h48v243c0 39 -10 56 -48 59v22h262zM294 38c191 0 292 119 292 312s-101 312 -292 312h-95v-286h186v-38h-186v-300h95z" />
    <glyph glyph-name="fraction" unicode="&#x2044;" horiz-adv-x="382" 
d="M299 700h38l-253 -700h-39z" />
    <glyph glyph-name="A" unicode="A" horiz-adv-x="720" 
d="M635 82c16 -37 32 -57 70 -60v-22h-225v22c37 3 55 28 41 64l-58 140h-282l-54 -144c-14 -38 2 -56 40 -60v-22h-152v22c38 4 55 22 69 59l201 538c12 32 5 56 -30 59v22h120zM195 264h253l-133 324z" />
    </font>
</defs>
</svg>
