<?xml version="1.0" standalone="no"?>
<!DOCTYPE svg PUBLIC "-//W3C//DTD SVG 1.1//EN" "http://www.w3.org/Graphics/SVG/1.1/DTD/svg11.dtd" >
<svg xmlns="http://www.w3.org/2000/svg" xmlns:xlink="http://www.w3.org/1999/xlink" version="1.1">
<metadata>
Created by FontForge 20190801 at Sun Jan 12 22:15:20 2020
 By Jimmy Wärting
Copyright \(c\) 2020 by MadeType. All rights reserved.
</metadata>
<defs>
<font id="MADEMirage-Bold" horiz-adv-x="267" >
  <font-face 
    font-family="MADE Mirage"
    font-weight="700"
    font-stretch="normal"
    units-per-em="1000"
    panose-1="2 0 8 3 0 0 0 2 0 4"
    ascent="800"
    descent="-200"
    x-height="474"
    cap-height="700"
    bbox="-108 -335 1259 1002"
    underline-thickness="50"
    underline-position="-100"
    unicode-range="U+0020-F6C3"
  />
<missing-glyph horiz-adv-x="200" 
 />
    <glyph glyph-name=".notdef" horiz-adv-x="200" 
 />
    <glyph glyph-name="B" unicode="B" horiz-adv-x="661" 
d="M461 377c113 -12 190 -76 184 -181c-8 -128 -122 -196 -288 -196h-317v32c37 3 47 24 47 63v511c0 39 -10 59 -47 63v31h258c166 0 280 -57 275 -182c-2 -67 -44 -121 -112 -141zM427 518c0 77 -38 125 -145 125h-50v-249h50c107 0 145 47 145 124zM324 58
c107 0 162 48 162 138c0 89 -55 137 -162 137h-92v-275h92z" />
    <glyph glyph-name="C" unicode="C" horiz-adv-x="698" 
d="M640 209h28l-23 -151c-63 -48 -149 -73 -250 -68c-214 10 -380 142 -380 360s163 360 377 360c90 0 188 -26 253 -68v-158h-28c-30 125 -110 190 -219 189c-150 -2 -223 -143 -223 -323c0 -190 91 -317 233 -323c118 -5 191 55 232 182z" />
    <glyph glyph-name="D" unicode="D" horiz-adv-x="735" 
d="M321 700c267 0 399 -155 399 -350c0 -194 -132 -350 -399 -350h-281v32c38 3 48 24 48 63v511c0 39 -10 59 -48 63v31h281zM301 58c173 0 260 117 260 292s-87 293 -260 293h-69v-585h69z" />
    <glyph glyph-name="E" unicode="E" horiz-adv-x="607" 
d="M552 189h25l-20 -189h-517v32c38 3 47 24 47 63v511c0 39 -9 59 -47 63v31h498l19 -188h-25c-14 53 -47 131 -141 131h-159v-259h106c69 0 82 23 89 65h25v-188h-25c-7 42 -20 65 -89 65h-106v-268h179c93 0 127 78 141 131z" />
    <glyph glyph-name="F" unicode="F" horiz-adv-x="578" 
d="M538 700l20 -188h-26c-14 53 -47 131 -140 131h-159v-272h105c69 0 82 23 89 65h25v-188h-25c-7 42 -20 65 -89 65h-105v-218c0 -39 10 -60 47 -63v-32h-240v32c38 3 48 24 48 63v511c0 39 -10 59 -48 63v31h498z" />
    <glyph glyph-name="G" unicode="G" horiz-adv-x="734" 
d="M486 304h233v-31c-37 -4 -47 -24 -47 -63v-131c-63 -64 -176 -94 -276 -89c-214 10 -381 142 -381 360s163 360 377 360c90 0 189 -26 254 -68v-158h-28c-31 125 -111 190 -219 189c-151 -2 -223 -143 -223 -323c0 -190 90 -317 233 -323c55 -3 95 9 125 35v148
c0 39 -10 59 -48 63v31z" />
    <glyph glyph-name="H" unicode="H" horiz-adv-x="766" 
d="M726 669c-38 -4 -48 -24 -48 -63v-511c0 -39 10 -60 48 -63v-32h-240v32c38 3 48 24 48 63v238h-302v-238c0 -39 10 -60 48 -63v-32h-240v32c38 3 48 24 48 63v511c0 39 -10 59 -48 63v31h240v-31c-38 -4 -48 -24 -48 -63v-216h302v216c0 39 -10 59 -48 63v31h240v-31z
" />
    <glyph glyph-name="I" unicode="I" horiz-adv-x="320" 
d="M280 669c-38 -4 -48 -24 -48 -63v-511c0 -39 10 -60 48 -63v-32h-240v32c37 3 47 24 47 63v511c0 39 -10 59 -47 63v31h240v-31z" />
    <glyph glyph-name="J" unicode="J" horiz-adv-x="503" 
d="M233 700h240v-31c-38 -4 -48 -24 -48 -63v-334c0 -191 -67 -282 -225 -282c-82 0 -154 36 -182 89c-12 22 -17 55 -6 80c16 37 69 45 99 20c28 -24 23 -64 24 -84c1 -33 19 -67 64 -67c57 0 82 60 82 192v386c0 39 -10 59 -48 63v31z" />
    <glyph glyph-name="K" unicode="K" horiz-adv-x="748" 
d="M659 95c22 -36 50 -58 79 -63v-32h-272v32c35 2 47 26 24 63l-166 262l-92 -97v-165c0 -39 10 -60 47 -63v-32h-239v32c37 3 47 24 47 63v511c0 39 -10 59 -47 62v32h239v-32c-37 -3 -47 -23 -47 -62v-274l253 272c23 24 27 42 21 52c-4 9 -11 11 -25 12v32h185v-32
c-33 -3 -52 -8 -108 -66l-128 -134z" />
    <glyph glyph-name="L" unicode="L" horiz-adv-x="595" 
d="M555 189h25l-20 -189h-520v32c37 3 47 24 47 63v511c0 39 -10 59 -47 63v31h240v-31c-38 -4 -48 -24 -48 -63v-548h182c93 0 127 78 141 131z" />
    <glyph glyph-name="M" unicode="M" horiz-adv-x="901" 
d="M827 95c8 -38 22 -60 59 -63v-32h-237v32c37 3 48 23 41 61l-82 436l-178 -529h-54l-187 529l-67 -434c-7 -42 1 -60 39 -63v-32h-146v32c37 3 47 23 54 63l78 511c7 42 -2 59 -39 63v31h164l170 -489l164 489h158v-31c-38 -4 -49 -20 -40 -63z" />
    <glyph glyph-name="N" unicode="N" horiz-adv-x="740" 
d="M552 700h153v-31c-38 -4 -48 -24 -48 -63v-606h-87l-425 538v-443c0 -39 10 -60 48 -63v-32h-153v32c38 3 48 24 48 63v511c0 39 -10 59 -48 63v31h167l393 -499v405c0 39 -10 59 -48 63v31z" />
    <glyph glyph-name="O" unicode="O" horiz-adv-x="795" 
d="M397 710c211 0 378 -150 378 -360c0 -209 -167 -360 -378 -360s-377 151 -377 360c0 210 166 360 377 360zM397 27c126 0 220 121 220 323c0 203 -94 323 -220 323c-125 0 -219 -120 -219 -323c0 -202 94 -323 219 -323z" />
    <glyph glyph-name="P" unicode="P" horiz-adv-x="613" 
d="M311 700c174 0 282 -89 282 -221c0 -133 -108 -221 -282 -221h-78v-163c0 -39 10 -60 47 -63v-32h-240v32c38 3 48 24 48 63v511c0 39 -10 59 -48 62v32h271zM279 315c113 0 161 74 161 164s-48 163 -161 163h-46v-327h46z" />
    <glyph glyph-name="Q" unicode="Q" horiz-adv-x="795" 
d="M857 -56l18 -18c-48 -183 -325 -171 -506 65c-197 13 -349 159 -349 359c0 210 167 360 378 360s377 -150 377 -360c0 -199 -151 -346 -348 -359c101 -52 308 -130 430 -47zM398 27c125 0 219 121 219 323s-94 323 -219 323c-126 0 -220 -121 -220 -323s94 -323 220 -323
z" />
    <glyph glyph-name="R" unicode="R" horiz-adv-x="696" 
d="M610 95c23 -35 47 -58 76 -63v-32h-188l-174 284h-6h-86v-189c0 -39 10 -60 48 -63v-32h-240v32c38 3 48 24 48 63v511c0 39 -10 59 -48 62v32h278c166 0 281 -80 281 -208c0 -84 -49 -147 -130 -181zM232 341h53c107 0 162 61 162 151s-55 150 -162 150h-53v-301z" />
    <glyph glyph-name="S" unicode="S" horiz-adv-x="562" 
d="M343 421c125 -73 220 -128 178 -279c-30 -111 -136 -152 -247 -152c-90 0 -179 22 -244 68v164h25c36 -115 104 -189 199 -195c85 -4 130 40 137 101c10 90 -55 113 -141 162c-101 58 -227 133 -186 287c25 97 121 133 223 133c80 0 135 -23 201 -68l1 -144h-25
c-31 124 -83 171 -164 175c-77 4 -114 -38 -116 -87c-3 -69 68 -112 159 -165z" />
    <glyph glyph-name="T" unicode="T" horiz-adv-x="670" 
d="M631 700l19 -188h-25c-14 53 -47 130 -141 130h-77v-547c0 -39 10 -60 48 -63v-32h-240v32c38 3 48 24 48 63v547h-77c-94 0 -127 -77 -141 -130h-25l19 188h592z" />
    <glyph glyph-name="U" unicode="U" horiz-adv-x="730" 
d="M548 700h152v-32c-37 -3 -47 -23 -47 -62v-330c0 -169 -100 -286 -271 -286c-158 0 -295 86 -295 280v336c0 39 -10 59 -47 62v32h240v-32c-38 -3 -48 -23 -48 -62v-342c0 -142 75 -217 186 -217c120 0 177 102 177 219v340c0 39 -10 59 -47 62v32z" />
    <glyph glyph-name="V" unicode="V" horiz-adv-x="722" 
d="M553 700h159v-32c-37 -3 -57 -25 -70 -62l-223 -606h-84l-254 606c-15 37 -34 59 -71 62v32h269v-32c-39 -2 -55 -31 -41 -67l177 -457l170 462c15 39 5 61 -32 62v32z" />
    <glyph glyph-name="W" unicode="W" horiz-adv-x="1030" 
d="M863 700h157v-32c-35 -2 -51 -18 -63 -56l-194 -612h-71l-168 514l-167 -514h-71l-212 614c-14 41 -26 51 -64 54v32h259v-32c-32 -2 -50 -29 -37 -70l129 -401l164 503h80l162 -501l128 407c14 44 2 61 -32 62v32z" />
    <glyph glyph-name="X" unicode="X" horiz-adv-x="699" 
d="M602 91c22 -33 45 -56 82 -59v-32h-258v32c32 1 43 26 25 53l-147 218l-142 -218c-26 -39 -2 -50 26 -53v-32h-170v32c34 3 56 21 75 50l177 271l-173 257c-22 32 -44 55 -82 58v32h259v-32c-30 0 -41 -26 -23 -54l118 -175l113 173c24 36 9 56 -21 56v32h167v-32
c-33 -2 -55 -19 -74 -46l-151 -233z" />
    <glyph glyph-name="Y" unicode="Y" horiz-adv-x="678" 
d="M504 700h164v-32c-31 -2 -47 -15 -63 -41l-177 -318v-214c0 -39 10 -60 47 -63v-32h-240v32c38 3 48 24 48 63v201l-196 314c-21 34 -40 55 -77 58v32h258v-32c-30 0 -48 -23 -30 -53l151 -258l142 256c18 31 4 55 -27 55v32z" />
    <glyph glyph-name="Z" unicode="Z" horiz-adv-x="622" 
d="M572 189h25l-20 -189h-552v58l386 584h-206c-94 0 -127 -77 -141 -130h-25l20 188h513v-58l-383 -584h242c93 0 127 78 141 131z" />
    <glyph glyph-name="a" unicode="a" horiz-adv-x="514" 
d="M502 56l12 -22c-12 -20 -47 -44 -87 -44c-42 0 -106 20 -110 79c-25 -57 -81 -79 -133 -79c-84 0 -170 33 -173 125c-3 119 95 154 192 163c46 4 82 7 107 10v41c0 77 -15 116 -66 122c-29 3 -72 -10 -69 -56c5 -63 -40 -81 -75 -70c-34 12 -49 45 -30 86
c27 59 104 72 170 72c93 0 212 -36 212 -178v-224c0 -39 33 -41 50 -25zM229 42c56 2 81 64 81 132v78c-14 -1 -32 -4 -55 -7c-72 -9 -102 -47 -104 -111c-2 -66 34 -93 78 -92z" />
    <glyph glyph-name="b" unicode="b" horiz-adv-x="596" 
d="M354 483c133 0 222 -93 222 -246s-89 -247 -222 -247c-86 0 -140 45 -174 100l-81 -90h-32v606c0 39 -10 59 -47 62v32l164 39h25v-317c33 36 80 61 145 61zM322 31c77 0 114 90 114 206s-37 206 -114 206c-75 0 -113 -82 -113 -206s38 -206 113 -206z" />
    <glyph glyph-name="c" unicode="c" horiz-adv-x="482" 
d="M443 128l19 -15c-35 -67 -108 -123 -202 -123c-132 0 -255 86 -255 254c0 152 109 239 253 239c88 0 152 -29 181 -76c24 -39 22 -97 -27 -114c-40 -15 -93 10 -88 76c4 50 -14 85 -68 82c-68 -5 -121 -86 -111 -207c17 -199 216 -209 298 -116z" />
    <glyph glyph-name="d" unicode="d" horiz-adv-x="576" 
d="M567 49l9 -28c-21 -18 -54 -31 -94 -31s-93 20 -102 71c-34 -41 -83 -71 -153 -71c-133 0 -222 94 -222 247s89 246 222 246c65 0 112 -25 145 -61v184c0 39 -10 59 -47 62v32l164 39h25v-658c0 -39 28 -44 53 -32zM259 31c75 0 113 82 113 206s-38 206 -113 206
c-77 0 -114 -90 -114 -206s37 -206 114 -206z" />
    <glyph glyph-name="e" unicode="e" horiz-adv-x="489" 
d="M468 259v-15h-322c13 -197 216 -209 298 -116l18 -15c-35 -67 -107 -123 -201 -123c-133 0 -256 86 -256 254c0 148 103 239 247 239c143 0 218 -101 216 -224zM250 451c-58 -2 -99 -63 -105 -156h194c1 69 -16 158 -89 156z" />
    <glyph glyph-name="f" unicode="f" horiz-adv-x="331" 
d="M379 660c18 -22 36 -64 5 -95c-25 -25 -71 -16 -86 20c-9 20 -9 37 -13 54c-9 32 -31 42 -55 38s-39 -30 -33 -64c12 -61 27 -56 28 -139h118v-51h-118v-328c0 -39 10 -60 47 -63v-32h-236v32c37 3 47 24 47 63v328h-83v51h83v56c0 111 55 179 154 185
c61 3 111 -18 142 -55z" />
    <glyph glyph-name="g" unicode="g" horiz-adv-x="567" 
d="M287 86c184 2 275 -35 269 -149c-6 -113 -114 -206 -277 -206c-161 0 -284 51 -273 158c5 44 40 81 97 105c-58 22 -90 59 -76 109c14 46 73 68 121 77c-44 30 -72 75 -72 134c0 108 97 169 203 169c37 0 73 -7 104 -21c4 21 10 43 20 65c25 56 93 80 123 33
c23 -36 -8 -90 -58 -82c-24 4 -42 3 -49 -10c-4 -6 -6 -14 -7 -23c42 -29 70 -74 70 -131c0 -109 -98 -171 -203 -171c-32 0 -64 6 -92 17c-27 -5 -64 -15 -66 -37c-2 -26 30 -38 166 -37zM279 448c-50 0 -79 -48 -79 -134c0 -87 29 -135 79 -135c49 0 79 48 79 135
c0 86 -30 134 -79 134zM445 -114c6 78 -75 82 -171 82c-37 0 -73 3 -105 8c-27 -18 -48 -46 -49 -90c-3 -93 85 -121 165 -121c79 0 154 43 160 121z" />
    <glyph glyph-name="h" unicode="h" horiz-adv-x="598" 
d="M540 95c0 -39 10 -60 48 -63v-32h-237v32c38 3 47 24 47 63v212c0 75 -26 125 -92 125c-63 0 -97 -55 -97 -122v-215c0 -39 10 -60 48 -63v-32h-237v32c38 3 48 24 48 63v511c0 39 -10 59 -48 62v32l165 39h24v-318c37 42 87 62 144 62c132 0 187 -81 187 -192v-196z" />
    <glyph glyph-name="i" unicode="i" 
d="M209 95c0 -39 10 -60 48 -63v-32h-237v32c38 3 48 24 48 63v256c0 39 -10 59 -48 62v32l165 38h24v-388zM133 541c-48 0 -88 31 -88 85c0 53 40 85 88 85s88 -32 88 -85c0 -54 -40 -85 -88 -85z" />
    <glyph glyph-name="j" unicode="j" horiz-adv-x="238" 
d="M7 445l165 38h24v-509c0 -111 -36 -187 -135 -191c-61 -3 -119 19 -149 66c-15 24 -27 82 17 104c30 15 62 8 78 -23c9 -19 8 -46 12 -63c9 -32 29 -45 52 -40c18 4 30 24 23 58c-12 63 -39 62 -39 154v312c0 39 -10 59 -48 62v32zM120 541c-48 0 -88 31 -88 85
c0 53 40 85 88 85s88 -32 88 -85c0 -54 -40 -85 -88 -85z" />
    <glyph glyph-name="k" unicode="k" horiz-adv-x="603" 
d="M508 95c23 -32 45 -53 80 -63v-32h-229v32c30 5 22 28 -3 63l-96 136l-51 -46v-90c0 -39 10 -60 47 -63v-32h-236v32c37 3 47 24 47 63v511c0 39 -10 59 -47 62v32l164 39h25v-505l177 158c26 23 29 48 1 50v32h162v-32c-32 -4 -70 -15 -103 -45l-95 -85z" />
    <glyph glyph-name="l" unicode="l" 
d="M210 95c0 -39 9 -60 47 -63v-32h-237v32c38 3 48 24 48 63v511c0 39 -10 59 -48 62v32l165 39h25v-644z" />
    <glyph glyph-name="m" unicode="m" horiz-adv-x="902" 
d="M845 95c0 -39 10 -60 47 -63v-32h-236v32c37 3 47 24 47 63v212c0 75 -24 125 -86 125c-58 0 -90 -55 -90 -122v-215c0 -39 10 -60 47 -63v-32h-236v32c37 3 47 24 47 63v212c0 75 -23 125 -86 125c-57 0 -90 -55 -90 -122v-215c0 -39 10 -60 48 -63v-32h-237v32
c38 3 48 24 48 63v256c0 39 -10 59 -48 62v32l158 38h25v-68c35 46 84 68 143 68c84 0 135 -34 161 -89c35 60 89 89 157 89c128 0 181 -81 181 -192v-196z" />
    <glyph glyph-name="n" unicode="n" horiz-adv-x="597" 
d="M540 95c0 -39 10 -60 47 -63v-32h-236v32c37 3 47 24 47 63v212c0 75 -26 125 -92 125c-63 0 -97 -55 -97 -122v-215c0 -39 10 -60 47 -63v-32h-236v32c37 3 47 24 47 63v256c0 39 -10 59 -47 62v32l158 38h25v-71c36 48 89 71 150 71c132 0 187 -81 187 -192v-196z" />
    <glyph glyph-name="o" unicode="o" horiz-adv-x="543" 
d="M264 483c139 0 259 -85 259 -246s-120 -247 -259 -247s-259 86 -259 247s120 246 259 246zM264 31c73 0 113 87 113 206s-40 205 -113 205s-114 -86 -114 -205s41 -206 114 -206z" />
    <glyph glyph-name="p" unicode="p" horiz-adv-x="579" 
d="M344 483c133 0 215 -93 215 -246s-82 -247 -215 -247c-65 0 -112 26 -145 62v-184c0 -39 10 -59 47 -62v-32h-236v32c37 3 47 23 47 62v483c0 39 -10 59 -47 62v32l164 38h25v-61c33 36 80 61 145 61zM312 31c77 0 107 90 107 206s-30 206 -107 206
c-75 0 -114 -82 -114 -206s39 -206 114 -206z" />
    <glyph glyph-name="q" unicode="q" horiz-adv-x="575" 
d="M508 -132c0 -39 10 -59 47 -62v-32h-236v32c37 3 47 23 47 62v184c-34 -36 -81 -62 -146 -62c-132 0 -215 94 -215 247s83 246 215 246c86 0 141 -44 174 -99l82 90h32v-606zM252 31c76 0 114 82 114 206s-38 206 -114 206s-107 -90 -107 -206s31 -206 107 -206z" />
    <glyph glyph-name="r" unicode="r" horiz-adv-x="450" 
d="M429 420c11 -27 10 -74 -35 -93c-35 -15 -86 6 -93 56c-4 30 -16 41 -34 40c-37 -3 -58 -47 -58 -119v-209c0 -39 10 -60 48 -63v-32h-237v32c38 3 48 24 48 63v256c0 39 -10 59 -48 62v32l159 38h24v-70c22 45 58 68 113 70c54 2 95 -20 113 -63z" />
    <glyph glyph-name="s" unicode="s" horiz-adv-x="411" 
d="M132 398c-7 -52 52 -75 118 -105c75 -34 166 -76 134 -186c-21 -76 -97 -117 -194 -117c-62 0 -141 18 -185 52v121h23c22 -95 97 -138 162 -138c40 0 75 17 82 51c11 52 -40 69 -104 98c-96 44 -174 91 -144 210c20 78 105 101 177 99c50 -1 104 -17 148 -51l1 -108h-23
c-24 90 -61 125 -126 125c-26 0 -63 -9 -69 -51z" />
    <glyph glyph-name="t" unicode="t" horiz-adv-x="358" 
d="M322 84l16 -27c-21 -34 -64 -67 -124 -67c-69 0 -140 27 -140 140v293h-69v51c88 0 147 64 167 144h43v-144h95v-51h-95v-293c0 -33 17 -51 38 -59c23 -8 49 -2 69 13z" />
    <glyph glyph-name="u" unicode="u" horiz-adv-x="587" 
d="M520 95c0 -39 10 -60 47 -63v-32h-189v54c-36 -43 -86 -64 -143 -64c-132 0 -187 82 -187 193v168c0 39 -10 59 -48 62v32l165 38h24v-316c0 -75 27 -125 93 -125c63 0 96 55 96 122v187c0 39 -10 59 -47 62v32l165 38h24v-388z" />
    <glyph glyph-name="v" unicode="v" horiz-adv-x="537" 
d="M384 474h138v-32c-32 -2 -51 -14 -66 -49l-164 -393h-70l-172 379c-16 37 -33 60 -70 63v32h251v-32c-37 -3 -45 -26 -30 -63l102 -244l107 258c11 27 4 48 -26 49v32z" />
    <glyph glyph-name="w" unicode="w" horiz-adv-x="772" 
d="M618 474h139v-32c-33 -2 -49 -13 -62 -49l-142 -393h-71l-113 312l-109 -312h-64l-151 379c-15 38 -28 60 -65 63v32h251v-32c-37 -3 -49 -26 -36 -63l76 -222l114 317h70l106 -325l87 242c10 30 1 50 -30 51v32z" />
    <glyph glyph-name="x" unicode="x" horiz-adv-x="539" 
d="M445 95c28 -37 41 -60 74 -63v-32h-237v32c34 3 32 30 8 63l-70 96l-79 -113c-20 -27 -12 -45 12 -46v-32h-139v32c32 2 56 14 80 50l98 147l-110 151c-26 36 -44 61 -77 62v32h239v-32c-33 -3 -31 -29 -7 -63l57 -78l67 95c19 27 12 45 -12 46v32h139v-32
c-33 -2 -56 -13 -81 -49l-86 -129z" />
    <glyph glyph-name="y" unicode="y" horiz-adv-x="528" 
d="M381 474h132v-32c-32 -2 -45 -14 -60 -49l-174 -418c-66 -151 -103 -191 -165 -202c-33 -6 -88 1 -116 26c-19 16 -44 58 -12 91c30 31 76 14 87 -23c6 -22 11 -48 45 -45c26 2 59 17 114 150l-184 407c-17 37 -34 60 -71 63v32h251v-32c-37 -3 -44 -26 -29 -63l101 -244
l107 258c11 27 5 48 -26 49v32z" />
    <glyph glyph-name="z" unicode="z" horiz-adv-x="476" 
d="M421 143h25l-19 -143h-407v52l250 371h-79c-83 0 -115 -42 -131 -92h-25l20 143h374v-51l-246 -371h107c84 0 115 41 131 91z" />
    <glyph glyph-name="one" unicode="1" horiz-adv-x="322" 
d="M235 95c0 -39 10 -60 47 -63v-32h-234v32c37 3 47 24 47 63v482h-60v32l176 91h24v-605z" />
    <glyph glyph-name="two" unicode="2" horiz-adv-x="559" 
d="M499 175h25l-19 -175h-470v45c170 165 300 304 312 465c7 92 -19 157 -90 163c-54 5 -87 -22 -84 -67c2 -44 -4 -72 -23 -87c-37 -29 -95 -12 -107 22c-9 28 -1 58 13 81c36 58 109 88 201 88c125 0 248 -62 244 -200c-5 -159 -174 -290 -327 -407h194
c83 0 115 23 131 72z" />
    <glyph glyph-name="three" unicode="3" horiz-adv-x="585" 
d="M356 379c124 -21 194 -83 194 -186c0 -123 -119 -203 -269 -203c-110 0 -198 37 -229 88c-17 29 -20 60 -12 81c14 41 70 57 107 25c30 -26 15 -63 22 -89c14 -54 55 -68 112 -68c74 0 119 61 119 161c0 103 -46 167 -171 167v37c92 11 129 57 129 157
c0 68 -21 122 -84 124c-44 2 -74 -24 -72 -67c2 -44 -1 -72 -23 -88c-42 -33 -96 -5 -107 23c-9 25 -2 57 13 81c32 51 97 88 193 88c116 0 223 -53 223 -161c0 -76 -53 -140 -145 -170z" />
    <glyph glyph-name="four" unicode="4" horiz-adv-x="568" 
d="M548 174h-87v-79c0 -39 10 -60 47 -63v-32h-234v32c37 3 47 24 47 63v79h-316v52l323 474h133v-474h87v-52zM69 226h252v370z" />
    <glyph glyph-name="five" unicode="5" horiz-adv-x="576" 
d="M282 444c152 0 259 -84 259 -219c0 -137 -110 -235 -268 -235c-93 0 -185 28 -225 88c-11 17 -25 47 -13 81s64 61 107 25c30 -24 15 -62 22 -89c13 -47 50 -68 103 -68c78 0 123 85 125 187c1 94 -35 177 -125 184c-66 5 -109 -22 -136 -50l-40 12l28 340h388v-103h-350
l-15 -191c34 21 81 38 140 38z" />
    <glyph glyph-name="six" unicode="6" horiz-adv-x="606" 
d="M329 447c134 0 244 -89 241 -228c-4 -139 -117 -229 -260 -229c-150 0 -267 98 -274 264c-13 286 122 448 296 456c97 4 177 -37 204 -87c15 -27 20 -60 9 -86c-15 -36 -69 -47 -100 -19c-18 15 -25 42 -22 88c2 39 -30 76 -100 67c-77 -10 -135 -88 -151 -307
c28 48 92 81 157 81zM303 27c75 0 125 74 125 192c0 102 -46 185 -125 185c-78 0 -127 -83 -127 -185c0 -118 52 -192 127 -192z" />
    <glyph glyph-name="seven" unicode="7" horiz-adv-x="531" 
d="M44 700h457v-45c-138 -137 -179 -401 -187 -588c-2 -51 -34 -77 -69 -77c-40 0 -76 23 -74 72c7 169 111 383 232 535h-222c-84 0 -115 -22 -131 -72h-25z" />
    <glyph glyph-name="eight" unicode="8" horiz-adv-x="610" 
d="M402 390c103 -40 185 -100 171 -216c-13 -107 -118 -184 -268 -184c-141 0 -285 72 -268 207c11 91 76 132 163 153c-121 59 -145 135 -120 228c24 90 122 132 225 132c119 0 229 -57 232 -153c2 -89 -49 -142 -135 -167zM189 564c0 -70 73 -108 163 -149
c48 36 61 86 61 137c0 70 -33 121 -108 121c-70 0 -116 -39 -116 -109zM312 27c80 0 133 45 133 122c0 78 -75 128 -196 173c-51 -32 -72 -69 -78 -127c-10 -111 61 -168 141 -168z" />
    <glyph glyph-name="nine" unicode="9" horiz-adv-x="602" 
d="M566 447c13 -286 -118 -447 -286 -457c-97 -6 -183 38 -210 88c-15 27 -20 59 -9 85c15 37 68 47 100 20c17 -15 25 -42 22 -88c-2 -39 37 -77 106 -68c78 11 127 94 144 307c-27 -47 -91 -81 -157 -81c-133 0 -243 90 -240 229c4 138 117 228 260 228
c149 0 263 -97 270 -263zM302 297c79 0 128 83 128 185c0 117 -53 192 -128 192s-124 -75 -124 -192c0 -102 45 -185 124 -185z" />
    <glyph glyph-name="zero" unicode="0" horiz-adv-x="601" 
d="M300 710c162 0 284 -143 284 -360s-122 -360 -284 -360s-283 143 -283 360s121 360 283 360zM300 27c93 0 139 121 139 323s-46 323 -139 323s-138 -121 -138 -323s45 -323 138 -323z" />
    <glyph glyph-name="period" unicode="." horiz-adv-x="224" 
d="M112 129c39 0 72 -25 72 -69s-33 -70 -72 -70s-72 26 -72 70s33 69 72 69z" />
    <glyph glyph-name="comma" unicode="," horiz-adv-x="222" 
d="M111 129c38 0 69 -30 70 -78c2 -106 -55 -165 -103 -202l-20 21c40 39 59 75 64 120h-11c-39 0 -71 26 -71 70s32 69 71 69z" />
    <glyph glyph-name="colon" unicode=":" horiz-adv-x="224" 
d="M112 129c39 0 72 -25 72 -69s-33 -70 -72 -70s-72 26 -72 70s33 69 72 69zM112 324c-39 0 -72 25 -72 69s33 70 72 70s72 -26 72 -70s-33 -69 -72 -69z" />
    <glyph glyph-name="semicolon" unicode=";" horiz-adv-x="224" 
d="M112 324c-39 0 -72 25 -72 69s33 70 72 70s72 -26 72 -70s-33 -69 -72 -69zM112 129c39 0 70 -30 71 -78c2 -106 -56 -165 -104 -202l-19 21c39 39 58 75 64 120h-12c-38 0 -71 26 -71 70s33 69 71 69z" />
    <glyph glyph-name="exclam" unicode="!" horiz-adv-x="224" 
d="M112 129c39 0 72 -25 72 -69s-33 -70 -72 -70s-72 26 -72 70s33 69 72 69zM87 214c-7 149 -27 213 -38 427c-2 45 25 69 63 69s65 -24 63 -69c-11 -214 -32 -278 -39 -427c-1 -19 -10 -31 -24 -31s-24 12 -25 31z" />
    <glyph glyph-name="question" unicode="?" horiz-adv-x="506" 
d="M227 129c39 0 72 -25 72 -69s-33 -70 -72 -70s-72 26 -72 70s33 69 72 69zM243 710c116 0 226 -55 222 -167c-7 -186 -192 -142 -212 -334c-2 -15 -10 -26 -26 -26c-14 0 -27 8 -26 26c8 194 131 202 142 333c7 84 -33 131 -100 131c-48 0 -85 -24 -82 -67
c3 -46 -1 -75 -22 -91c-32 -25 -81 -13 -94 27c-10 28 0 61 12 80c26 43 92 88 186 88z" />
    <glyph glyph-name="minus" unicode="&#x2212;" horiz-adv-x="443" 
d="M40 360h363v-48h-363v48z" />
    <glyph glyph-name="plus" unicode="+" horiz-adv-x="443" 
d="M403 360v-48h-157v-158h-48v158h-158v48h158v157h48v-157h157z" />
    <glyph glyph-name="equal" unicode="=" horiz-adv-x="443" 
d="M40 429h363v-48h-363v48zM40 229v48h363v-48h-363z" />
    <glyph glyph-name="multiply" unicode="&#xd7;" horiz-adv-x="371" 
d="M331 447l-111 -111l111 -112l-34 -34l-111 112l-112 -112l-34 34l112 112l-112 111l34 34l112 -112l111 112z" />
    <glyph glyph-name="divide" unicode="&#xf7;" horiz-adv-x="443" 
d="M40 360h363v-48h-363v48zM222 425c-39 0 -72 26 -72 70s33 70 72 70s72 -26 72 -70s-33 -70 -72 -70zM222 261c39 0 72 -25 72 -69s-33 -70 -72 -70s-72 26 -72 70s33 69 72 69z" />
    <glyph glyph-name="notequal" unicode="&#x2260;" horiz-adv-x="443" 
d="M403 381h-125l-60 -104h185v-48h-212l-61 -105l-39 24l47 81h-98v48h126l59 104h-185v48h213l61 105l39 -24l-47 -81h97v-48z" />
    <glyph glyph-name="plusminus" unicode="&#xb1;" horiz-adv-x="443" 
d="M40 147v48h363v-48h-363zM245 452h158v-48h-158v-158h-48v158h-157v48h157v157h48v-157z" />
    <glyph glyph-name="numbersign" unicode="#" horiz-adv-x="689" 
d="M649 449h-148l-38 -178h142v-44h-151l-49 -226h-44l48 226h-175l-49 -226h-44l48 226h-149v44h158l38 178h-152v48h163l43 203h45l-44 -203h175l44 203h45l-44 -203h138v-48zM418 271l38 178h-175l-38 -178h175z" />
    <glyph glyph-name="bracketleft" unicode="[" horiz-adv-x="268" 
d="M228 704h-90v-727h90v-48h-188v823h188v-48z" />
    <glyph glyph-name="bracketright" unicode="]" horiz-adv-x="268" 
d="M40 752h188v-823h-188v48h90v727h-90v48z" />
    <glyph glyph-name="questiondown" unicode="&#xbf;" horiz-adv-x="506" 
d="M280 356c-39 0 -72 25 -72 69s33 70 72 70s72 -26 72 -70s-33 -69 -72 -69zM462 -57c10 -28 -1 -61 -12 -80c-26 -43 -92 -88 -186 -88c-116 0 -227 55 -223 167c7 186 193 142 213 334c1 15 10 26 25 26s27 -8 27 -26c-8 -194 -131 -202 -142 -333
c-7 -84 33 -131 100 -131c48 0 85 24 82 67c-4 46 1 75 21 91c33 25 82 13 95 -27z" />
    <glyph glyph-name="exclamdown" unicode="&#xa1;" horiz-adv-x="224" 
d="M112 356c-39 0 -72 25 -72 69s33 70 72 70s72 -26 72 -70s-33 -69 -72 -69zM136 271c7 -149 28 -213 39 -427c2 -45 -25 -69 -63 -69s-65 24 -63 69c11 214 31 278 38 427c1 19 11 31 25 31s24 -12 24 -31z" />
    <glyph glyph-name="quotesinglbase" unicode="&#x201a;" horiz-adv-x="222" 
d="M111 129c38 0 70 -30 70 -78c2 -106 -55 -165 -103 -202l-20 21c40 39 59 75 64 120h-11c-39 0 -71 26 -71 70s32 69 71 69z" />
    <glyph glyph-name="quotedblbase" unicode="&#x201e;" horiz-adv-x="419" 
d="M111 129c38 0 69 -30 70 -78c2 -106 -55 -165 -103 -202l-20 21c40 39 59 75 64 120h-11c-39 0 -71 26 -71 70s32 69 71 69zM307 129c38 0 70 -30 71 -78c2 -106 -56 -165 -104 -202l-20 21c40 39 59 75 64 120h-11c-38 0 -71 26 -71 70s33 69 71 69z" />
    <glyph glyph-name="quotedblleft" unicode="&#x201c;" horiz-adv-x="418" 
d="M308 673c38 0 70 -25 70 -69s-32 -70 -70 -70c-39 0 -70 31 -71 79c-2 105 56 164 104 201l19 -20c-39 -40 -58 -75 -64 -121h12zM112 673c38 0 70 -25 70 -69s-32 -70 -70 -70c-39 0 -70 31 -71 79c-2 105 55 164 104 201l19 -20c-40 -40 -58 -75 -64 -121h12z" />
    <glyph glyph-name="quoteleft" unicode="&#x2018;" horiz-adv-x="222" 
d="M111 673c39 0 71 -25 71 -69s-32 -70 -71 -70c-38 0 -70 31 -70 79c-2 105 55 164 103 201l20 -20c-40 -40 -59 -75 -64 -121h11z" />
    <glyph glyph-name="quoteright" unicode="&#x2019;" horiz-adv-x="222" 
d="M111 728c38 0 69 -31 70 -79c2 -105 -55 -164 -103 -201l-20 20c40 40 58 75 64 121h-11c-39 0 -71 25 -71 69s32 70 71 70z" />
    <glyph glyph-name="quotedblright" unicode="&#x201d;" horiz-adv-x="418" 
d="M110 728c39 0 70 -31 71 -79c2 -105 -55 -164 -104 -201l-19 20c39 40 58 75 64 121h-12c-38 0 -70 25 -70 69s32 70 70 70zM307 728c38 0 69 -31 70 -79c2 -105 -55 -164 -103 -201l-20 20c40 40 59 75 64 121h-11c-39 0 -71 25 -71 69s32 70 71 70z" />
    <glyph glyph-name="slash" unicode="/" horiz-adv-x="378" 
d="M293 700h45l-253 -699h-45z" />
    <glyph glyph-name="backslash" unicode="\" horiz-adv-x="378" 
d="M85 700l253 -699h-44l-254 699h45z" />
    <glyph glyph-name="parenleft" unicode="(" horiz-adv-x="275" 
d="M235 747c-70 -115 -90 -265 -90 -397c0 -131 20 -281 90 -396l-18 -17c-77 75 -177 224 -177 413c0 190 100 339 177 414z" />
    <glyph glyph-name="parenright" unicode=")" horiz-adv-x="275" 
d="M58 764c77 -75 177 -224 177 -414c0 -189 -100 -338 -177 -413l-18 17c70 115 90 265 90 396c0 132 -20 282 -90 397z" />
    <glyph glyph-name="guilsinglright" unicode="&#x203a;" horiz-adv-x="271" 
d="M57 483l174 -139v-41l-174 -139l-17 20l105 140l-105 140z" />
    <glyph glyph-name="guilsinglleft" unicode="&#x2039;" horiz-adv-x="272" 
d="M232 464l-106 -140l106 -140l-18 -20l-174 139v41l174 139z" />
    <glyph glyph-name="guillemotright" unicode="&#xbb;" horiz-adv-x="462" 
d="M232 344v-41l-174 -139l-18 20l106 140l-106 140l18 19zM248 483l174 -139v-41l-174 -139l-18 20l105 140l-105 140z" />
    <glyph glyph-name="guillemotleft" unicode="&#xab;" horiz-adv-x="461" 
d="M421 464l-105 -140l105 -140l-17 -20l-174 139v41l174 139zM231 464l-105 -140l105 -140l-17 -20l-174 139v41l174 139z" />
    <glyph glyph-name="bar" unicode="|" horiz-adv-x="165" 
d="M40 700h85v-817h-85v817z" />
    <glyph glyph-name="hyphen" unicode="-" horiz-adv-x="443" 
d="M40 359h363v-48h-363v48z" />
    <glyph glyph-name="emdash" unicode="&#x2014;" horiz-adv-x="541" 
d="M40 359h461v-48h-461v48z" />
    <glyph glyph-name="endash" unicode="&#x2013;" horiz-adv-x="488" 
d="M40 359h408v-48h-408v48z" />
    <glyph glyph-name="underscore" unicode="_" horiz-adv-x="443" 
d="M40 0h363v-48h-363v48z" />
    <glyph glyph-name="quotesingle" unicode="'" horiz-adv-x="183" 
d="M91 710c35 0 55 -25 51 -62c-7 -57 -17 -104 -25 -142c-4 -16 -12 -27 -26 -27c-13 0 -22 11 -25 27c-8 38 -18 85 -25 142c-5 37 16 62 50 62z" />
    <glyph glyph-name="quotedbl" unicode="&#x22;" horiz-adv-x="337" 
d="M92 710c34 0 55 -25 50 -62c-7 -57 -17 -104 -25 -142c-3 -16 -12 -27 -25 -27c-14 0 -22 11 -26 27c-8 38 -18 85 -25 142c-4 37 16 62 51 62zM246 710c34 0 55 -25 50 -62c-7 -57 -17 -104 -25 -142c-3 -16 -12 -27 -25 -27c-14 0 -22 11 -26 27c-8 38 -17 85 -25 142
c-4 37 16 62 51 62z" />
    <glyph glyph-name="asciitilde" unicode="~" horiz-adv-x="428" 
d="M141 425c35 0 57 -8 88 -24c29 -15 56 -29 84 -29c25 0 41 13 49 40h26c-4 -68 -29 -115 -90 -115c-37 0 -66 14 -101 29c-28 12 -47 19 -71 19s-45 -12 -59 -40h-27c5 68 49 120 101 120z" />
    <glyph glyph-name="approxequal" unicode="&#x2248;" horiz-adv-x="428" 
d="M141 350c35 0 57 -9 88 -24c29 -15 56 -29 84 -29c25 0 41 13 49 40h26c-4 -68 -29 -115 -90 -115c-37 0 -66 14 -101 29c-28 12 -47 19 -71 19s-45 -12 -59 -40h-27c5 68 49 120 101 120zM141 500c35 0 57 -8 88 -24c29 -15 56 -29 84 -29c25 0 41 13 49 40h26
c-4 -67 -29 -115 -90 -115c-37 0 -66 15 -101 29c-28 12 -47 19 -71 19s-45 -12 -59 -39h-27c5 67 49 119 101 119z" />
    <glyph glyph-name="asciicircum" unicode="^" horiz-adv-x="386" 
d="M214 762l132 -175l-20 -17l-133 105l-133 -105l-20 17l133 175h41z" />
    <glyph glyph-name="percent" unicode="%" horiz-adv-x="848" 
d="M385 521c0 -114 -82 -190 -182 -190c-101 0 -183 76 -183 190s82 189 183 189c100 0 182 -75 182 -189zM203 360c52 0 85 63 85 161c0 99 -33 161 -85 161c-53 0 -86 -62 -86 -161c0 -98 33 -161 86 -161zM645 369c101 0 183 -75 183 -189c0 -115 -82 -190 -183 -190
s-183 75 -183 190c0 114 82 189 183 189zM645 18c52 0 85 63 85 162c0 98 -33 161 -85 161c-53 0 -86 -63 -86 -161c0 -99 33 -162 86 -162zM601 700h50l-403 -700h-44z" />
    <glyph glyph-name="perthousand" unicode="&#x2030;" horiz-adv-x="1279" 
d="M386 521c0 -114 -82 -190 -183 -190s-183 76 -183 190s82 189 183 189s183 -75 183 -189zM203 360c52 0 85 63 85 161c0 99 -33 161 -85 161s-85 -62 -85 -161c0 -98 33 -161 85 -161zM645 369c101 0 183 -75 183 -189c0 -115 -82 -190 -183 -190s-183 75 -183 190
c0 114 82 189 183 189zM645 18c52 0 86 63 86 162c0 98 -34 161 -86 161s-85 -63 -85 -161c0 -99 33 -162 85 -162zM1076 369c101 0 183 -75 183 -189c0 -115 -82 -190 -183 -190s-183 75 -183 190c0 114 82 189 183 189zM1076 18c52 0 86 63 86 162c0 98 -34 161 -86 161
s-85 -63 -85 -161c0 -99 33 -162 85 -162zM602 700h50l-403 -700h-44z" />
    <glyph glyph-name="bullet" unicode="&#x2022;" horiz-adv-x="274" 
d="M137 484c53 0 97 -35 97 -96s-44 -96 -97 -96s-97 35 -97 96s44 96 97 96z" />
    <glyph glyph-name="degree" unicode="&#xb0;" horiz-adv-x="379" 
d="M190 710c81 0 149 -53 149 -138s-68 -139 -149 -139c-82 0 -150 54 -150 139s68 138 150 138zM190 457c48 0 72 53 72 115c0 61 -24 115 -72 115c-49 0 -72 -54 -72 -115c0 -62 23 -115 72 -115z" />
    <glyph glyph-name="afii61352" unicode="&#x2116;" horiz-adv-x="1181" 
d="M552 668v32h153v-32c-38 -3 -48 -23 -48 -62v-606h-87l-425 538v-443c0 -39 10 -60 48 -63v-32h-153v32c38 3 48 24 48 63v511c0 39 -10 59 -48 62v32h167l393 -499v405c0 39 -10 59 -48 62zM943 433c-81 0 -149 54 -149 139s68 138 149 138c82 0 150 -53 150 -138
s-68 -139 -150 -139zM943 687c-48 0 -72 -54 -72 -115c0 -62 24 -115 72 -115c49 0 72 53 72 115c0 61 -23 115 -72 115zM726 347h435v-48h-435v48z" />
    <glyph glyph-name="section" unicode="&#xa7;" horiz-adv-x="610" 
d="M382 485c125 -72 217 -139 178 -278c-10 -36 -35 -69 -68 -92c22 -37 30 -82 15 -140c-26 -97 -121 -134 -223 -134c-91 0 -173 31 -209 89c-14 23 -22 52 -13 80c12 35 70 52 106 23c19 -15 26 -43 24 -87c-3 -45 39 -67 85 -67c74 0 108 38 110 86
c2 69 -68 113 -159 166c-125 73 -218 140 -179 278c11 37 36 70 69 93c-22 37 -31 82 -15 139c25 98 121 134 223 134c91 0 173 -30 209 -88c14 -23 22 -53 12 -81c-12 -35 -69 -51 -106 -22c-19 15 -25 43 -23 87c3 45 -39 67 -85 67c-74 0 -108 -38 -110 -87
c-3 -69 68 -113 159 -166zM321 255c37 -23 78 -47 113 -76c1 2 2 5 2 8c16 87 -63 123 -147 175c-37 23 -79 47 -114 76c0 -3 -1 -5 -2 -8c-15 -87 64 -123 148 -175z" />
    <glyph glyph-name="paragraph" unicode="&#xb6;" horiz-adv-x="543" 
d="M216 700h287v-32c-37 -3 -47 -23 -47 -63v-605h-58v662h-84v-662h-58v329h-40c-105 0 -176 72 -176 185c0 114 71 186 176 186z" />
    <glyph glyph-name="brokenbar" unicode="&#xa6;" horiz-adv-x="165" 
d="M40 700h85v-342h-85v342zM40 -117v342h85v-342h-85z" />
    <glyph glyph-name="greater" unicode="&#x3e;" horiz-adv-x="390" 
d="M40 432l310 -147v-66l-310 -148v87l211 94l-211 94v86z" />
    <glyph glyph-name="less" unicode="&#x3c;" horiz-adv-x="390" 
d="M350 432v-86l-211 -94l211 -94v-87l-310 148v66z" />
    <glyph glyph-name="ellipsis" unicode="&#x2026;" horiz-adv-x="631" 
d="M112 129c39 0 72 -26 72 -70s-33 -69 -72 -69s-72 25 -72 69s33 70 72 70zM519 129c40 0 72 -26 72 -70s-32 -69 -72 -69c-39 0 -72 25 -72 69s33 70 72 70zM316 129c39 0 72 -26 72 -70s-33 -69 -72 -69s-72 25 -72 69s33 70 72 70z" />
    <glyph glyph-name="dagger" unicode="&#x2020;" horiz-adv-x="515" 
d="M413 572c37 5 62 -15 62 -50c0 -34 -25 -55 -62 -50c-51 6 -94 15 -131 22c7 -146 21 -243 32 -455c2 -45 -18 -70 -56 -70c-39 0 -59 25 -57 70c11 212 25 309 32 455c-36 -7 -79 -16 -130 -22c-38 -5 -63 16 -63 50c0 35 25 55 63 50c50 -6 93 -14 128 -22
c-7 37 -17 83 -24 137c-4 37 16 62 51 62c34 0 55 -25 50 -62c-7 -54 -16 -100 -24 -137c36 8 79 16 129 22z" />
    <glyph glyph-name="daggerdbl" unicode="&#x2021;" horiz-adv-x="516" 
d="M413 370c37 4 63 -16 63 -51c0 -34 -26 -55 -63 -50c-44 6 -82 13 -115 20c5 -69 11 -146 16 -250c3 -45 -18 -70 -56 -70s-58 25 -56 70c5 104 11 181 17 250c-33 -7 -72 -14 -116 -20c-37 -5 -63 16 -63 50c0 35 26 55 63 51c47 -6 87 -14 121 -21c4 47 7 93 9 145
c-36 -7 -79 -16 -130 -22c-37 -5 -63 16 -63 50c0 35 26 55 63 50c50 -6 93 -14 129 -22c-8 37 -17 83 -24 137c-5 37 16 62 50 62c35 0 55 -25 50 -62c-6 -54 -16 -100 -23 -137c35 8 78 16 128 22c37 5 63 -15 63 -50c0 -34 -26 -55 -63 -50c-51 6 -94 15 -130 22
c2 -52 6 -98 10 -145c34 7 74 15 120 21z" />
    <glyph glyph-name="copyright" unicode="&#xa9;" horiz-adv-x="774" 
d="M387 -23c-202 0 -367 165 -367 367c0 203 165 367 367 367s367 -164 367 -367c0 -202 -165 -367 -367 -367zM387 672c-181 0 -328 -147 -328 -328s147 -328 328 -328s328 147 328 328s-147 328 -328 328zM542 268h17l-14 -89c-37 -28 -91 -43 -150 -40
c-125 6 -223 84 -223 212s96 211 221 211c53 0 114 -15 152 -40v-92h-16c-18 73 -68 111 -132 110c-88 -1 -131 -84 -131 -189c0 -112 53 -186 137 -190c69 -3 115 32 139 107z" />
    <glyph glyph-name="registered" unicode="&#xae;" horiz-adv-x="774" 
d="M387 -23c-202 0 -367 165 -367 367c0 203 165 367 367 367c203 0 367 -164 367 -367c0 -202 -164 -367 -367 -367zM387 672c-180 0 -328 -147 -328 -328c0 -180 148 -328 328 -328c181 0 328 148 328 328c0 181 -147 328 -328 328zM552 201c13 -20 27 -34 44 -37v-18
h-110l-102 166h-4h-50v-111c0 -23 6 -35 28 -37v-18h-140v18c22 2 27 14 27 37v300c0 23 -5 35 -27 36v19h162c98 0 166 -47 166 -122c0 -49 -29 -86 -77 -106zM330 346h31c63 0 95 35 95 88s-32 88 -95 88h-31v-176z" />
    <glyph glyph-name="asterisk" unicode="*" horiz-adv-x="452" 
d="M408 869c10 -29 -5 -54 -38 -61c-37 -8 -71 -13 -99 -18c22 -20 47 -44 74 -73c24 -24 22 -53 -3 -72c-25 -18 -53 -10 -69 19c-20 36 -35 68 -48 96c-13 -28 -28 -60 -48 -96c-16 -29 -44 -37 -69 -19c-25 19 -27 48 -3 72c27 29 52 53 75 74c-29 4 -62 9 -98 17
c-33 7 -49 32 -39 61c11 29 39 39 69 24c33 -17 61 -33 86 -48c-6 29 -12 63 -17 101c-5 33 14 56 45 56s49 -23 45 -56c-5 -38 -11 -72 -17 -101c25 15 53 31 86 48c30 15 58 5 68 -24z" />
    <glyph glyph-name="braceleft" unicode="{" horiz-adv-x="331" 
d="M291 723c-19 -6 -38 -16 -56 -49c-26 -45 -11 -140 -12 -220c-1 -106 -64 -120 -74 -121c10 -1 73 -16 74 -121c1 -81 -14 -175 12 -220c18 -33 37 -43 56 -49v-28c-35 3 -110 18 -141 66c-24 38 -28 82 -20 199c8 113 -24 123 -45 131c-16 6 -45 7 -45 7v30s29 1 45 7
c21 8 53 18 45 131c-8 117 -4 161 20 199c31 48 106 62 141 66v-28z" />
    <glyph glyph-name="braceright" unicode="}" horiz-adv-x="331" 
d="M245 355c16 -6 46 -7 46 -7v-30s-30 -1 -46 -7c-21 -8 -53 -18 -45 -131c8 -117 5 -161 -20 -199c-31 -48 -106 -63 -140 -66v28c18 6 37 16 55 49c26 45 11 139 12 220c2 105 65 120 74 121c-9 1 -72 15 -74 121c-1 80 14 175 -12 220c-18 33 -37 43 -55 49v28
c34 -4 109 -18 140 -66c25 -38 28 -82 20 -199c-8 -113 24 -123 45 -131z" />
    <glyph glyph-name="sterling" unicode="&#xa3;" horiz-adv-x="587" 
d="M532 175h25l-19 -175h-482v45c46 107 42 186 31 278h-67v48h61c-6 41 -11 87 -12 139c-4 138 119 200 244 200c91 0 164 -30 200 -88c14 -23 22 -53 13 -81c-12 -35 -70 -52 -106 -23c-19 15 -26 44 -24 87c3 46 -30 73 -83 68c-72 -7 -98 -71 -91 -164
c4 -48 5 -94 2 -138h159v-48h-164c-11 -82 -35 -156 -78 -220h260c84 0 115 23 131 72z" />
    <glyph glyph-name="Euro" unicode="&#x20ac;" horiz-adv-x="754" 
d="M696 210h28l-23 -151c-63 -48 -149 -74 -250 -69c-180 9 -326 104 -368 264h-68v48h59c-2 15 -3 32 -3 49c0 9 1 19 1 28h-57v48h63c34 174 182 283 370 283c90 0 188 -26 253 -68v-157h-28c-30 124 -110 190 -219 188c-128 -1 -199 -104 -217 -246h245v-48h-249
c-1 -9 -1 -19 -1 -28c0 -17 1 -34 2 -49h216v-48h-209c25 -135 107 -221 223 -226c118 -6 191 55 232 182z" />
    <glyph glyph-name="dollar" unicode="$" horiz-adv-x="561" 
d="M343 420c125 -72 219 -128 178 -278c-28 -101 -117 -144 -216 -151v-120h-48v119c-85 3 -166 25 -227 68v164h25c36 -115 104 -190 199 -195h3v259c-3 2 -5 3 -7 4c-101 58 -227 133 -186 286c23 88 102 126 193 133v120h48v-119c70 -4 122 -27 183 -68v-145h-24
c-30 123 -81 170 -159 176v-230c12 -7 25 -15 38 -23zM184 586c-2 -45 27 -79 73 -112v195c-48 -11 -71 -45 -73 -83zM391 128c7 69 -30 99 -86 131v-228c52 12 80 49 86 97z" />
    <glyph glyph-name="yen" unicode="&#xa5;" horiz-adv-x="678" 
d="M504 700h164v-32c-31 -3 -47 -16 -63 -41l-172 -309h99v-48h-104v-46h104v-48h-104v-81c0 -39 10 -60 47 -63v-32h-240v32c38 3 48 24 48 63v81h-110v48h110v46h-110v48h96l-182 291c-21 35 -40 56 -77 59v32h258v-32c-30 0 -48 -24 -30 -53l151 -258l142 256
c18 31 4 55 -27 55v32z" />
    <glyph glyph-name="cent" unicode="&#xa2;" horiz-adv-x="482" 
d="M462 226c-34 -66 -106 -121 -198 -123v-135h-48v138c-114 18 -210 102 -211 251c0 136 89 221 211 237v138h48v-135c84 -1 146 -31 175 -77c24 -39 22 -97 -26 -114c-41 -15 -94 10 -89 76c4 47 -12 81 -60 82v-373c64 -18 137 2 180 50zM146 357c5 -69 33 -115 70 -142
v336c-47 -27 -78 -98 -70 -194z" />
    <glyph glyph-name="currency" unicode="&#xa4;" horiz-adv-x="654" 
d="M586 350c0 -70 -23 -125 -59 -166l87 -87l-34 -34l-89 89c-45 -32 -103 -49 -164 -49s-119 17 -164 49l-89 -89l-34 34l87 87c-37 41 -59 96 -59 166s22 125 59 166l-87 87l34 34l89 -89c45 32 103 49 164 49s119 -17 164 -49l89 89l34 -34l-87 -87
c36 -41 59 -96 59 -166zM327 145c73 0 113 86 113 205s-40 205 -113 205s-114 -86 -114 -205s41 -205 114 -205z" />
    <glyph glyph-name="bitcoin" unicode="&#x20bf;" horiz-adv-x="661" 
d="M462 377c112 -12 189 -76 183 -182c-7 -119 -107 -185 -254 -194v-130h-48v129h-71v-129h-48v129h-184v32c37 3 47 24 47 63v510c0 39 -10 60 -47 63v32h184v129h48v-129h26c15 0 30 -1 45 -2v131h48v-136c114 -19 186 -76 182 -175c-2 -67 -44 -121 -111 -141zM427 518
c0 77 -38 124 -145 124h-50v-249h50c107 0 145 48 145 125zM324 58c107 0 162 47 162 137s-55 138 -162 138h-92v-275h92z" />
    <glyph glyph-name="ruble" unicode="&#x20bd;" horiz-adv-x="613" 
d="M311 258h-79v-38h167v-48h-167v-77c0 -39 10 -60 48 -63v-32h-240v32c37 3 47 24 47 63v77h-47v48h47v38h-47v57h47v291c0 39 -10 59 -47 62v32h271c174 0 282 -89 282 -221c0 -133 -108 -221 -282 -221zM232 642v-327h47c113 0 161 74 161 164s-48 163 -161 163h-47z
" />
    <glyph glyph-name="ampersand" unicode="&#x26;" horiz-adv-x="802" 
d="M601 134c45 -45 118 -99 186 -99v-34c-105 -36 -208 22 -254 62c-10 9 -26 24 -46 42c-32 -52 -90 -115 -195 -115c-129 0 -262 71 -262 197c0 99 60 163 165 191c-56 42 -104 106 -95 186c11 92 98 146 198 146c105 0 204 -58 212 -147c9 -96 -55 -169 -152 -197
c35 -33 90 -86 140 -133c37 100 75 162 162 168c53 3 96 -25 114 -69c10 -27 10 -74 -35 -92c-36 -15 -86 5 -93 56c-4 30 -16 40 -34 39c-32 -2 -60 -70 -83 -132c33 -32 60 -58 72 -69zM203 576c-3 -65 66 -127 125 -178c46 33 82 84 84 162c3 69 -44 113 -107 113
c-58 0 -100 -36 -102 -97zM299 28c87 3 133 61 158 105c-77 72 -182 172 -223 212c-46 -32 -85 -92 -89 -150c-9 -113 72 -170 154 -167z" />
    <glyph glyph-name="at" unicode="@" horiz-adv-x="839" 
d="M414 749c229 0 405 -165 405 -382c0 -103 -43 -198 -129 -216c-57 -11 -136 10 -160 69c-27 -40 -70 -72 -135 -72c-106 0 -172 75 -172 198s66 198 172 198c69 0 113 -36 140 -80l65 72h25v-262c0 -60 30 -86 63 -84c54 3 92 84 92 177c0 180 -148 346 -366 346
c-207 0 -355 -164 -355 -356c0 -206 140 -363 373 -363c62 0 125 21 157 44v-40c-29 -19 -99 -40 -157 -40c-254 0 -412 159 -412 399c0 220 172 392 394 392zM421 181c60 0 91 66 91 165s-31 165 -91 165c-61 0 -86 -72 -86 -165s25 -165 86 -165z" />
    <glyph glyph-name="AE" unicode="&#xc6;" horiz-adv-x="1015" 
d="M960 188h25l-20 -188h-517v32c37 3 47 24 47 63v118h-244l-75 -118c-24 -37 -12 -60 26 -63v-32h-192v32c37 3 73 27 96 62l323 508c21 33 19 65 -17 66v32h534l19 -188h-25c-14 53 -47 130 -141 130h-159v-258h106c69 0 81 23 88 65h26v-188h-26c-7 42 -19 65 -88 65
h-106v-268h179c93 0 126 77 141 130zM495 270v326l-207 -326h207z" />
    <glyph glyph-name="OE" unicode="&#x152;" horiz-adv-x="1200" 
d="M1145 188h25l-20 -188h-517v32c38 3 48 24 48 63v12c-69 -73 -170 -117 -284 -117c-211 0 -377 151 -377 360c0 210 166 360 377 360c114 0 215 -43 284 -117v13c0 39 -10 59 -48 62v32h498l19 -188h-25c-14 53 -47 130 -141 130h-159v-258h106c69 0 82 23 89 65h25v-188
h-25c-7 42 -20 65 -89 65h-106v-268h179c93 0 127 77 141 130zM397 27c126 0 220 121 220 323s-94 323 -220 323s-220 -121 -220 -323s94 -323 220 -323z" />
    <glyph glyph-name="Dcroat" unicode="&#x110;" horiz-adv-x="734" 
d="M321 700c267 0 398 -156 398 -350s-131 -350 -398 -350h-281v32c37 3 47 24 47 63v238h-47v48h47v225c0 39 -10 59 -47 62v32h281zM301 58c173 0 259 117 259 292s-86 292 -259 292h-69v-261h154v-48h-154v-275h69z" />
    <glyph glyph-name="Oslash" unicode="&#xd8;" horiz-adv-x="795" 
d="M679 597c60 -63 96 -149 96 -247c0 -209 -166 -360 -377 -360c-94 0 -179 30 -244 82l-88 -87l-34 33l86 86c-61 63 -97 148 -97 246c0 210 166 360 377 360c94 0 179 -29 245 -81l87 87l34 -34zM179 350c0 -61 8 -115 24 -161l370 370c-40 73 -102 114 -175 114
c-125 0 -219 -121 -219 -323zM398 27c126 0 220 121 220 323c0 62 -9 116 -25 161l-369 -369c39 -74 101 -115 174 -115z" />
    <glyph glyph-name="Thorn" unicode="&#xde;" horiz-adv-x="613" 
d="M311 571c174 0 282 -89 282 -221s-108 -221 -282 -221h-79v-34c0 -39 10 -60 48 -63v-32h-240v32c37 3 47 24 47 63v511c0 39 -10 59 -47 62v32h240v-32c-38 -3 -48 -23 -48 -62v-35h79zM279 187c113 0 161 73 161 163s-48 164 -161 164h-47v-327h47z" />
    <glyph glyph-name="Lslash" unicode="&#x141;" horiz-adv-x="595" 
d="M554 188h26l-20 -188h-520v32c37 3 47 24 47 63v78l-47 -15v48l47 15v385c0 39 -10 59 -47 62v32h239v-32c-37 -3 -47 -23 -47 -62v-340l164 51v-48l-164 -51v-160h182c93 0 126 77 140 130z" />
    <glyph glyph-name="Hbar" unicode="&#x126;" horiz-adv-x="765" 
d="M725 668c-37 -3 -47 -23 -47 -62v-65h47v-48h-47v-398c0 -39 10 -60 47 -63v-32h-239v32c37 3 47 24 47 63v237h-301v-237c0 -39 10 -60 47 -63v-32h-239v32c37 3 47 24 47 63v398h-47v48h47v65c0 39 -10 59 -47 62v32h239v-32c-37 -3 -47 -23 -47 -62v-65h301v65
c0 39 -10 59 -47 62v32h239v-32zM533 390v103h-301v-103h301z" />
    <glyph glyph-name="Eng" unicode="&#x14a;" horiz-adv-x="740" 
d="M552 700h153v-32c-38 -3 -48 -23 -48 -62v-584c0 -142 -48 -246 -186 -248c-102 -2 -190 40 -221 95c-13 22 -17 56 -6 81c17 37 69 45 99 19c28 -24 23 -63 24 -84c2 -41 52 -68 106 -67c86 1 126 64 127 182h-30l-425 538v-443c0 -39 10 -60 48 -63v-32h-153v32
c38 3 48 24 48 63v511c0 39 -10 59 -48 62v32h167l393 -499v405c0 39 -10 59 -48 62v32z" />
    <glyph glyph-name="Tbar" unicode="&#x166;" horiz-adv-x="671" 
d="M632 700l19 -188h-25c-14 53 -47 130 -141 130h-77v-268h101v-48h-101v-231c0 -39 10 -60 48 -63v-32h-240v32c37 3 47 24 47 63v231h-100v48h100v268h-77c-93 0 -126 -77 -140 -130h-26l20 188h592z" />
    <glyph glyph-name="germandbls" unicode="&#xdf;" horiz-adv-x="674" 
d="M489 364c117 -55 183 -112 160 -229c-20 -99 -109 -145 -209 -145c-72 0 -151 27 -204 62l-1 164h32c30 -125 87 -184 160 -189c60 -4 97 28 103 81c8 69 -37 106 -126 148c-139 66 -187 127 -133 228c22 41 32 80 33 116c2 50 -10 85 -47 83c-52 -2 -48 -114 -48 -215
v-468h-189v32c38 3 48 24 48 63v402c0 135 61 213 191 213c113 0 165 -58 159 -119c-5 -51 -35 -84 -87 -107c-54 -23 67 -78 158 -120z" />
    <glyph glyph-name="ae" unicode="&#xe6;" horiz-adv-x="791" 
d="M780 258v-14h-322v-1c14 -196 216 -208 298 -116l18 -15c-34 -66 -107 -122 -201 -122c-96 0 -186 44 -229 132c-22 -96 -82 -132 -160 -132c-84 0 -170 32 -173 124c-3 120 95 154 192 163c46 5 82 8 108 10v41c0 78 -16 117 -67 122c-29 3 -71 -9 -68 -56
c4 -63 -41 -81 -76 -69c-34 11 -49 45 -30 86c28 59 105 72 170 72c55 0 118 -12 162 -51c42 33 98 51 162 51c143 0 218 -101 216 -225zM562 450c-58 -1 -99 -62 -104 -155h193c1 68 -16 157 -89 155zM229 42c56 1 82 63 82 132v78c-14 -2 -32 -4 -56 -7
c-72 -10 -102 -48 -104 -111c-2 -67 34 -94 78 -92z" />
    <glyph glyph-name="oe" unicode="&#x153;" horiz-adv-x="871" 
d="M850 258v-14h-322v-1c13 -196 216 -208 298 -116l18 -15c-34 -66 -107 -122 -201 -122c-71 0 -139 24 -187 72c-48 -48 -117 -72 -192 -72c-139 0 -259 85 -259 246c0 162 120 247 259 247c73 0 141 -23 188 -68c44 44 107 68 182 68c143 0 218 -101 216 -225zM264 31
c73 0 114 86 114 205s-41 206 -114 206c-72 0 -113 -87 -113 -206s41 -205 113 -205zM721 295c1 68 -16 157 -89 155c-58 -1 -99 -62 -104 -155h193z" />
    <glyph glyph-name="dcroat" unicode="&#x111;" horiz-adv-x="576" 
d="M576 540h-62v-459c0 -40 28 -44 53 -33l9 -27c-21 -19 -54 -31 -94 -31s-93 19 -102 70c-34 -41 -83 -70 -154 -70c-132 0 -221 93 -221 246c0 154 89 247 221 247c65 0 112 -25 146 -62v119h-149v48h149v17c0 39 -10 60 -47 63v32l164 39h25v-151h62v-48zM259 31
c75 0 113 82 113 205c0 124 -38 206 -113 206c-77 0 -114 -90 -114 -206c0 -115 37 -205 114 -205z" />
    <glyph glyph-name="oslash" unicode="&#xf8;" horiz-adv-x="543" 
d="M526 464l-61 -62c36 -40 59 -96 59 -166c0 -161 -120 -246 -259 -246c-62 0 -119 16 -164 48l-64 -63l-34 34l62 61c-37 41 -59 97 -59 166c0 162 120 247 259 247c61 0 119 -16 164 -49l63 64zM151 236c0 -26 2 -51 6 -73l201 201c-19 48 -51 78 -93 78
c-73 0 -114 -87 -114 -206zM378 236c0 27 -2 51 -6 74l-200 -201c18 -48 50 -78 93 -78c73 0 113 86 113 205z" />
    <glyph glyph-name="thorn" unicode="&#xfe;" horiz-adv-x="580" 
d="M345 483c133 0 215 -93 215 -247c0 -153 -82 -246 -215 -246c-65 0 -112 25 -146 61v-183c0 -40 10 -60 48 -63v-32h-237v32c38 3 48 23 48 63v737c0 39 -10 60 -48 63v32l165 39h24v-318c34 37 81 62 146 62zM313 31c77 0 107 90 107 205c0 116 -30 206 -107 206
c-75 0 -114 -82 -114 -206c0 -123 39 -205 114 -205z" />
    <glyph glyph-name="lslash" unicode="&#x142;" 
d="M282 268l-73 -28v-146c0 -39 10 -59 48 -63v-31h-237v31c38 4 48 24 48 63v92l-73 -27v48l73 27v371c0 39 -10 60 -48 63v32l165 39h24v-451l73 28v-48z" />
    <glyph glyph-name="hbar" unicode="&#x127;" horiz-adv-x="597" 
d="M539 94c0 -39 10 -59 48 -63v-31h-237v31c38 4 48 24 48 63v212c0 76 -27 125 -93 125c-63 0 -96 -54 -96 -122v-215c0 -39 10 -59 47 -63v-31h-236v31c37 4 47 24 47 63v446h-47v48h47v17c0 39 -10 60 -47 63v32l164 39h25v-151h164v-48h-164v-120c36 43 86 63 143 63
c132 0 187 -82 187 -193v-196z" />
    <glyph glyph-name="eng" unicode="&#x14b;" horiz-adv-x="595" 
d="M352 483c133 0 188 -82 188 -193v-325c0 -111 -36 -188 -135 -192c-61 -2 -119 19 -149 66c-16 24 -28 82 16 104c31 16 62 8 78 -23c10 -19 8 -46 13 -63c8 -32 28 -45 51 -40c19 4 30 24 23 58c-12 63 -39 62 -39 155v276c0 76 -26 125 -92 125c-63 0 -97 -54 -97 -122
v-215c0 -39 10 -59 47 -63v-31h-236v31c37 4 47 24 47 63v256c0 39 -10 60 -47 63v31l158 39h24v-71c37 48 90 71 150 71z" />
    <glyph glyph-name="tbar" unicode="&#x167;" horiz-adv-x="357" 
d="M321 83l16 -27c-21 -34 -63 -66 -124 -66c-69 0 -140 26 -140 139v169h-68v48h68v77h-68v51c88 0 147 63 166 144h44v-144h94v-51h-94v-77h78v-48h-78v-169c0 -32 17 -51 38 -59c22 -8 48 -2 68 13z" />
    <glyph glyph-name="longs" unicode="&#x17f;" horiz-adv-x="301" 
d="M379 659c18 -21 36 -64 5 -95c-25 -24 -71 -16 -86 20c-9 20 -8 37 -13 54c-9 32 -31 42 -55 38c-24 -3 -39 -30 -33 -64c13 -62 27 -56 28 -145v-373c0 -39 10 -59 47 -63v-31h-236v31c37 4 47 24 47 63v329h-83v51h83v55c0 111 55 180 154 186c61 4 111 -19 142 -56z
" />
    <glyph glyph-name="eth" unicode="&#xf0;" horiz-adv-x="573" 
d="M410 602c87 -81 144 -202 130 -349c-16 -165 -124 -263 -274 -263c-143 0 -256 90 -260 228c-3 139 107 229 241 229c65 0 129 -34 156 -81c-5 79 -33 141 -70 189l-73 -46l-20 34l67 42c-61 61 -136 90 -179 96l3 39c83 0 173 -33 248 -91l81 51l20 -34zM272 27
c75 0 128 74 128 191c0 102 -49 185 -128 185c-78 0 -124 -83 -124 -185c0 -117 49 -191 124 -191z" />
    <glyph glyph-name="grave" unicode="`" horiz-adv-x="290" 
d="M235 603c13 -10 18 -22 12 -34s-20 -14 -35 -10c-37 11 -82 24 -134 44c-34 13 -47 43 -31 73c16 29 47 35 77 14c46 -32 82 -62 111 -87z" />
    <glyph glyph-name="ogonek" unicode="&#x2db;" horiz-adv-x="260" 
d="M149 0h35c-25 -25 -49 -61 -52 -96c-5 -53 47 -57 75 -36l13 -18c-12 -20 -44 -48 -90 -48c-61 0 -105 41 -84 104c16 47 75 81 103 94z" />
    <glyph glyph-name="cedilla" unicode="&#xb8;" horiz-adv-x="257" 
d="M149 -54c51 -8 72 -39 67 -76c-7 -46 -44 -68 -95 -68c-35 0 -70 17 -81 30l14 22c4 -4 17 -11 30 -12c24 -3 39 9 42 38c3 23 -5 34 -23 37c-11 2 -18 0 -25 -2l-8 21l22 64h33l-18 -54c12 1 27 2 42 0z" />
    <glyph glyph-name="commaaccent" unicode="&#xf6c3;" horiz-adv-x="222" 
d="M110 -55c39 0 70 -30 71 -78c2 -105 -55 -164 -104 -202l-19 21c39 40 58 75 64 121c-1 0 -11 -1 -12 -1c-38 0 -70 26 -70 70s32 69 70 69z" />
    <glyph glyph-name="Aogonek" unicode="&#x104;" horiz-adv-x="730" 
d="M645 0c-25 -25 -49 -61 -52 -96c-5 -53 48 -57 75 -36l14 -18c-12 -20 -45 -48 -91 -48c-61 0 -104 41 -84 104c16 47 75 81 103 94h-160v32c39 2 56 26 42 63l-46 117h-259l-43 -117c-14 -39 1 -60 38 -63v-32h-172v32c38 3 57 25 71 63l185 501c14 39 9 70 -31 72v32
h159l254 -605c15 -38 34 -60 72 -63v-32h-75zM209 270h214l-111 281z" />
    <glyph glyph-name="Ccedilla" unicode="&#xc7;" horiz-adv-x="698" 
d="M645 59c-62 -47 -147 -73 -247 -69l-15 -44c13 1 27 2 43 0c50 -8 72 -39 66 -76c-6 -46 -44 -68 -95 -68c-34 0 -69 17 -81 30l14 22c5 -4 17 -11 30 -12c24 -3 39 9 42 38c3 23 -5 34 -23 37c-10 2 -18 0 -25 -2l-7 21l19 57c-199 20 -351 150 -351 358
c0 218 163 359 377 359c90 0 188 -26 253 -68v-157h-28c-30 125 -110 190 -219 189c-150 -2 -222 -143 -222 -323c0 -191 90 -317 232 -323c118 -6 191 55 232 182h28z" />
    <glyph glyph-name="Eogonek" unicode="&#x118;" horiz-adv-x="606" 
d="M502 0c-25 -25 -49 -61 -52 -96c-5 -53 47 -57 75 -36l13 -18c-12 -20 -44 -48 -90 -48c-61 0 -105 41 -84 104c16 47 75 81 103 94h-427v32c37 3 47 23 47 63v510c0 40 -10 60 -47 63v32h497l20 -188h-25c-15 53 -48 130 -141 130h-159v-259h105c70 0 82 24 89 66h25
v-189h-25c-7 42 -19 66 -89 66h-105v-268h178c94 0 127 77 141 130h25l-19 -188h-55z" />
    <glyph glyph-name="Iogonek" unicode="&#x12e;" horiz-adv-x="320" 
d="M280 668c-37 -3 -47 -23 -47 -63v-510c0 -40 10 -60 47 -63v-32h-72c-25 -25 -49 -61 -52 -96c-4 -53 48 -57 75 -36l14 -18c-12 -20 -44 -48 -90 -48c-61 0 -105 41 -84 104c16 47 74 81 103 94h-133v32c37 3 47 23 47 63v510c0 40 -10 60 -47 63v32h239v-32z" />
    <glyph glyph-name="Scedilla" unicode="&#x15e;" horiz-adv-x="561" 
d="M343 420c124 -72 219 -128 178 -278c-29 -104 -122 -146 -225 -152l-14 -44c12 1 26 2 42 0c50 -8 72 -39 67 -76c-7 -46 -45 -68 -96 -68c-34 0 -69 17 -80 30l13 22c5 -4 17 -11 30 -12c24 -3 39 9 43 38c2 23 -6 34 -24 37c-10 2 -18 0 -25 -2l-7 21l18 54
c-86 2 -170 24 -233 68v164h25c36 -115 104 -190 199 -195c85 -5 130 39 136 101c10 89 -55 113 -140 162c-101 58 -227 133 -187 286c26 98 122 134 224 134c80 0 135 -24 201 -68v-145h-24c-31 125 -83 172 -164 176c-78 4 -114 -38 -116 -87c-3 -69 68 -113 159 -166z
" />
    <glyph glyph-name="Uogonek" unicode="&#x172;" horiz-adv-x="730" 
d="M548 700h152v-32c-37 -3 -47 -23 -47 -63v-330c0 -154 -84 -265 -229 -283c-22 -24 -42 -57 -45 -88c-4 -53 48 -57 75 -36l14 -18c-12 -20 -44 -48 -90 -48c-61 0 -105 41 -84 104c12 38 53 67 83 84c-156 2 -290 88 -290 280v335c0 40 -10 60 -47 63v32h239v-32
c-37 -3 -47 -23 -47 -63v-342c0 -141 75 -216 186 -216c120 0 177 102 177 219v339c0 40 -10 60 -47 63v32z" />
    <glyph glyph-name="aogonek" unicode="&#x105;" horiz-adv-x="514" 
d="M444 -9c-22 -24 -41 -56 -44 -87c-4 -53 48 -57 75 -36l14 -18c-12 -20 -45 -48 -91 -48c-60 0 -104 41 -83 104c13 39 56 70 86 86c-38 7 -81 29 -84 77c-25 -57 -81 -79 -134 -79c-83 0 -170 32 -172 125c-4 119 94 154 191 163c46 4 82 7 108 9v42
c0 77 -16 116 -67 121c-29 3 -71 -9 -68 -56c4 -62 -41 -81 -75 -69s-50 45 -31 86c28 59 105 72 171 72c93 0 212 -36 212 -179v-223c0 -39 33 -41 49 -26l13 -21c-10 -17 -37 -37 -70 -43zM310 174v78c-14 -1 -32 -4 -55 -7c-73 -9 -103 -47 -105 -111
c-2 -66 34 -93 78 -92c57 2 82 64 82 132z" />
    <glyph glyph-name="ccedilla" unicode="&#xe7;" horiz-adv-x="482" 
d="M462 112c-34 -64 -105 -120 -196 -122l-15 -44c12 1 27 2 43 0c50 -8 72 -39 66 -76c-7 -46 -44 -68 -95 -68c-35 0 -69 17 -81 30l14 22c5 -4 17 -11 30 -12c24 -3 39 9 42 38c3 23 -5 34 -23 37c-11 2 -18 0 -25 -2l-7 21l18 55c-121 11 -228 96 -228 252
c0 152 109 240 253 240c87 0 151 -30 181 -77c24 -38 21 -96 -27 -113c-40 -15 -93 10 -88 75c3 51 -14 86 -68 83c-68 -5 -121 -86 -111 -208c17 -198 216 -208 298 -115z" />
    <glyph glyph-name="eogonek" unicode="&#x119;" horiz-adv-x="488" 
d="M467 259v-15h-322v-1c14 -196 216 -208 298 -115l18 -16c-29 -56 -86 -105 -161 -118c-22 -25 -43 -58 -45 -90c-5 -53 47 -57 75 -36l13 -18c-12 -20 -44 -48 -90 -48c-61 0 -105 41 -84 104c13 38 53 67 83 84c-129 3 -247 89 -247 253c0 149 102 240 246 240
c143 0 218 -101 216 -224zM338 295c1 69 -16 157 -89 156c-58 -2 -99 -63 -104 -156h193z" />
    <glyph glyph-name="iogonek" unicode="&#x12f;" 
d="M132 540c-47 0 -88 31 -88 85s41 85 88 85c48 0 88 -31 88 -85s-40 -85 -88 -85zM191 0c-25 -25 -49 -61 -52 -96c-5 -53 47 -57 75 -36l13 -18c-12 -20 -44 -48 -90 -48c-61 0 -105 41 -84 104c16 47 75 81 103 94h-136v32c37 3 47 23 47 63v255c0 39 -10 60 -47 63v32
l165 38h24v-388c0 -40 10 -60 47 -63v-32h-65z" />
    <glyph glyph-name="scedilla" unicode="&#x15f;" horiz-adv-x="411" 
d="M250 293c75 -35 166 -76 134 -186c-20 -71 -86 -111 -173 -116l-15 -45c13 1 27 2 43 0c50 -8 72 -39 66 -76c-6 -46 -44 -68 -95 -68c-34 0 -69 17 -80 30l13 22c5 -4 17 -11 30 -12c24 -3 39 9 43 38c2 23 -6 34 -24 37c-10 2 -18 0 -25 -2l-7 21l18 54
c-59 2 -131 20 -173 52v121h23c22 -95 97 -138 162 -138c40 0 75 17 82 51c11 51 -40 68 -104 98c-96 44 -174 90 -144 210c20 78 105 101 177 99c50 -2 104 -18 148 -51v-108h-23c-23 90 -60 125 -125 125c-26 0 -63 -9 -69 -52c-7 -52 52 -74 118 -104z" />
    <glyph glyph-name="uogonek" unicode="&#x173;" horiz-adv-x="587" 
d="M503 0c-25 -25 -49 -61 -52 -96c-5 -53 47 -57 75 -36l13 -18c-12 -20 -44 -48 -90 -48c-61 0 -105 41 -84 104c16 47 75 81 103 94h-90v53c-36 -42 -86 -63 -143 -63c-132 0 -187 82 -187 193v167c0 39 -10 60 -48 63v32l165 38h24v-316c0 -75 27 -125 93 -125
c63 0 96 55 96 122v186c0 39 -10 60 -47 63v32l165 38h24v-388c0 -40 10 -60 47 -63v-32h-64z" />
    <glyph glyph-name="acute" unicode="&#xb4;" horiz-adv-x="290" 
d="M243 676c16 -30 3 -60 -31 -73c-52 -20 -97 -33 -134 -44c-16 -4 -29 -2 -35 10c-7 12 -1 24 12 34c29 25 65 55 110 87c30 21 62 15 78 -14z" />
    <glyph glyph-name="macron" unicode="&#xaf;" horiz-adv-x="426" 
d="M40 647h346v-48h-346v48z" />
    <glyph glyph-name="dieresis" unicode="&#xa8;" horiz-adv-x="384" 
d="M107 697c36 0 67 -24 67 -65s-31 -64 -67 -64s-67 23 -67 64s31 65 67 65zM277 697c36 0 67 -24 67 -65s-31 -64 -67 -64s-67 23 -67 64s31 65 67 65z" />
    <glyph glyph-name="breve" unicode="&#x2d8;" horiz-adv-x="349" 
d="M285 688l24 -7c-7 -72 -61 -125 -135 -125c-73 0 -127 53 -134 125l24 7c18 -36 59 -55 110 -55c52 0 93 19 111 55z" />
    <glyph glyph-name="dotaccent" unicode="&#x2d9;" horiz-adv-x="214" 
d="M107 697c36 0 67 -24 67 -65s-31 -64 -67 -64s-67 23 -67 64s31 65 67 65z" />
    <glyph glyph-name="tilde" unicode="&#x2dc;" horiz-adv-x="429" 
d="M142 680c34 0 56 -9 87 -24c29 -15 57 -30 84 -30c25 0 42 14 49 41h27c-5 -68 -29 -109 -90 -109c-38 0 -67 15 -102 30c-27 11 -46 19 -70 19s-45 -13 -60 -40h-27c6 68 50 113 102 113z" />
    <glyph glyph-name="circumflex" unicode="&#x2c6;" horiz-adv-x="402" 
d="M221 704l141 -131l-17 -23l-144 81l-145 -81l-16 23l140 131h41z" />
    <glyph glyph-name="ring" unicode="&#x2da;" horiz-adv-x="302" 
d="M151 739c59 0 111 -37 111 -96s-52 -96 -111 -96c-60 0 -111 37 -111 96s51 96 111 96zM151 565c30 0 44 36 44 78s-14 77 -44 77s-44 -35 -44 -77s14 -78 44 -78z" />
    <glyph glyph-name="caron" unicode="&#x2c7;" horiz-adv-x="402" 
d="M346 704l16 -22l-141 -132h-41l-140 132l16 22l145 -80z" />
    <glyph glyph-name="hungarumlaut" unicode="&#x2dd;" horiz-adv-x="417" 
d="M202 705c25 -23 22 -55 -6 -78c-43 -36 -81 -63 -112 -85c-14 -9 -27 -12 -37 -2c-10 9 -8 22 0 36c20 33 45 73 77 118c22 30 54 34 78 11zM359 705c25 -23 22 -55 -6 -78c-43 -36 -81 -63 -112 -85c-14 -9 -27 -12 -37 -2c-10 9 -8 22 0 36c20 33 45 73 77 118
c22 30 54 34 78 11z" />
    <glyph glyph-name="space" unicode=" " horiz-adv-x="200" 
 />
    <glyph glyph-name="Aacute" unicode="&#xc1;" horiz-adv-x="729" 
d="M647 95c16 -37 35 -60 72 -63v-32h-270v32c39 2 57 26 43 63l-47 118h-258l-44 -118c-14 -39 1 -60 39 -63v-32h-172v32c37 3 57 25 70 63l185 502c15 39 9 69 -31 72v31h160zM208 270h214l-110 282zM430 876c16 -30 3 -60 -31 -73c-52 -20 -97 -33 -134 -44
c-16 -4 -29 -2 -35 10c-7 12 -1 24 12 34c29 25 65 55 110 87c30 21 62 15 78 -14z" />
    <glyph glyph-name="Abreve" unicode="&#x102;" horiz-adv-x="729" 
d="M647 95c16 -37 35 -60 72 -63v-32h-270v32c39 2 57 26 43 63l-47 118h-258l-44 -118c-14 -39 1 -60 39 -63v-32h-172v32c37 3 57 25 70 63l185 502c15 39 9 69 -31 72v31h160zM208 270h214l-110 282zM445 888l24 -7c-7 -72 -61 -125 -135 -125c-73 0 -127 53 -134 125
l24 7c18 -36 59 -55 110 -55c52 0 93 19 111 55z" />
    <glyph glyph-name="Acircumflex" unicode="&#xc2;" horiz-adv-x="729" 
d="M647 95c16 -37 35 -60 72 -63v-32h-270v32c39 2 57 26 43 63l-47 118h-258l-44 -118c-14 -39 1 -60 39 -63v-32h-172v32c37 3 57 25 70 63l185 502c15 39 9 69 -31 72v31h160zM208 270h214l-110 282zM354 904l141 -131l-17 -23l-144 81l-145 -81l-16 23l140 131h41z" />
    <glyph glyph-name="Agrave" unicode="&#xc0;" horiz-adv-x="729" 
d="M647 95c16 -37 35 -60 72 -63v-32h-270v32c39 2 57 26 43 63l-47 118h-258l-44 -118c-14 -39 1 -60 39 -63v-32h-172v32c37 3 57 25 70 63l185 502c15 39 9 69 -31 72v31h160zM208 270h214l-110 282zM417 803c13 -10 18 -22 12 -34s-20 -14 -35 -10
c-37 11 -82 24 -134 44c-34 13 -47 43 -31 73c16 29 47 35 77 14c46 -32 82 -62 111 -87z" />
    <glyph glyph-name="Adieresis" unicode="&#xc4;" horiz-adv-x="729" 
d="M647 95c16 -37 35 -60 72 -63v-32h-270v32c39 2 57 26 43 63l-47 118h-258l-44 -118c-14 -39 1 -60 39 -63v-32h-172v32c37 3 57 25 70 63l185 502c15 39 9 69 -31 72v31h160zM208 270h214l-110 282zM249 897c36 0 67 -24 67 -65s-31 -64 -67 -64s-67 23 -67 64
s31 65 67 65zM419 897c36 0 67 -24 67 -65s-31 -64 -67 -64s-67 23 -67 64s31 65 67 65z" />
    <glyph glyph-name="Amacron" unicode="&#x100;" horiz-adv-x="729" 
d="M647 95c16 -37 35 -60 72 -63v-32h-270v32c39 2 57 26 43 63l-47 118h-258l-44 -118c-14 -39 1 -60 39 -63v-32h-172v32c37 3 57 25 70 63l185 502c15 39 9 69 -31 72v31h160zM208 270h214l-110 282zM161 847h346v-48h-346v48z" />
    <glyph glyph-name="Aring" unicode="&#xc5;" horiz-adv-x="729" 
d="M647 95c16 -37 35 -60 72 -63v-32h-270v32c39 2 57 26 43 63l-47 118h-258l-44 -118c-14 -39 1 -60 39 -63v-32h-172v32c37 3 57 25 70 63l185 502c15 39 9 69 -31 72v31h160zM208 270h214l-110 282zM334 939c59 0 111 -37 111 -96s-52 -96 -111 -96
c-60 0 -111 37 -111 96s51 96 111 96zM334 765c30 0 44 36 44 78s-14 77 -44 77s-44 -35 -44 -77s14 -78 44 -78z" />
    <glyph glyph-name="Atilde" unicode="&#xc3;" horiz-adv-x="729" 
d="M647 95c16 -37 35 -60 72 -63v-32h-270v32c39 2 57 26 43 63l-47 118h-258l-44 -118c-14 -39 1 -60 39 -63v-32h-172v32c37 3 57 25 70 63l185 502c15 39 9 69 -31 72v31h160zM208 270h214l-110 282zM262 880c34 0 56 -9 87 -24c29 -15 57 -30 84 -30c25 0 42 14 49 41
h27c-5 -68 -29 -109 -90 -109c-38 0 -67 15 -102 30c-27 11 -46 19 -70 19s-45 -13 -60 -40h-27c6 68 50 113 102 113z" />
    <glyph glyph-name="AEacute" unicode="&#x1fc;" horiz-adv-x="1015" 
d="M960 188h25l-20 -188h-517v32c37 3 47 24 47 63v118h-244l-75 -118c-24 -37 -12 -60 26 -63v-32h-192v32c37 3 73 27 96 62l323 508c21 33 19 65 -17 66v32h534l19 -188h-25c-14 53 -47 130 -141 130h-159v-258h106c69 0 81 23 88 65h26v-188h-26c-7 42 -19 65 -88 65
h-106v-268h179c93 0 126 77 141 130zM495 270v326l-207 -326h207zM703 876c16 -30 3 -60 -31 -73c-52 -20 -97 -33 -134 -44c-16 -4 -29 -2 -35 10c-7 12 -1 24 12 34c29 25 65 55 110 87c30 21 62 15 78 -14z" />
    <glyph glyph-name="Cacute" unicode="&#x106;" horiz-adv-x="698" 
d="M640 209h28l-23 -151c-63 -48 -149 -73 -250 -68c-214 10 -380 142 -380 360s163 360 377 360c90 0 188 -26 253 -68v-158h-28c-30 125 -110 190 -219 189c-150 -2 -223 -143 -223 -323c0 -190 91 -317 233 -323c118 -5 191 55 232 182zM477 876c16 -30 3 -60 -31 -73
c-52 -20 -97 -33 -134 -44c-16 -4 -29 -2 -35 10c-7 12 -1 24 12 34c29 25 65 55 110 87c30 21 62 15 78 -14z" />
    <glyph glyph-name="Ccaron" unicode="&#x10c;" horiz-adv-x="698" 
d="M640 209h28l-23 -151c-63 -48 -149 -73 -250 -68c-214 10 -380 142 -380 360s163 360 377 360c90 0 188 -26 253 -68v-158h-28c-30 125 -110 190 -219 189c-150 -2 -223 -143 -223 -323c0 -190 91 -317 233 -323c118 -5 191 55 232 182zM516 904l16 -22l-141 -132h-41
l-140 132l16 22l145 -80z" />
    <glyph glyph-name="Ccircumflex" unicode="&#x108;" horiz-adv-x="698" 
d="M640 209h28l-23 -151c-63 -48 -149 -73 -250 -68c-214 10 -380 142 -380 360s163 360 377 360c90 0 188 -26 253 -68v-158h-28c-30 125 -110 190 -219 189c-150 -2 -223 -143 -223 -323c0 -190 91 -317 233 -323c118 -5 191 55 232 182zM391 904l141 -131l-17 -23
l-144 81l-145 -81l-16 23l140 131h41z" />
    <glyph glyph-name="Cdotaccent" unicode="&#x10a;" horiz-adv-x="698" 
d="M640 209h28l-23 -151c-63 -48 -149 -73 -250 -68c-214 10 -380 142 -380 360s163 360 377 360c90 0 188 -26 253 -68v-158h-28c-30 125 -110 190 -219 189c-150 -2 -223 -143 -223 -323c0 -190 91 -317 233 -323c118 -5 191 55 232 182zM371 897c36 0 67 -24 67 -65
s-31 -64 -67 -64s-67 23 -67 64s31 65 67 65z" />
    <glyph glyph-name="Dcaron" unicode="&#x10e;" horiz-adv-x="735" 
d="M321 700c267 0 399 -155 399 -350c0 -194 -132 -350 -399 -350h-281v32c38 3 48 24 48 63v511c0 39 -10 59 -48 63v31h281zM301 58c173 0 260 117 260 292s-87 293 -260 293h-69v-585h69zM505 904l16 -22l-141 -132h-41l-140 132l16 22l145 -80z" />
    <glyph glyph-name="Eacute" unicode="&#xc9;" horiz-adv-x="607" 
d="M552 189h25l-20 -189h-517v32c38 3 47 24 47 63v511c0 39 -9 59 -47 63v31h498l19 -188h-25c-14 53 -47 131 -141 131h-159v-259h106c69 0 82 23 89 65h25v-188h-25c-7 42 -20 65 -89 65h-106v-268h179c93 0 127 78 141 131zM404 876c16 -30 3 -60 -31 -73
c-52 -20 -97 -33 -134 -44c-16 -4 -29 -2 -35 10c-7 12 -1 24 12 34c29 25 65 55 110 87c30 21 62 15 78 -14z" />
    <glyph glyph-name="Ebreve" unicode="&#x114;" horiz-adv-x="607" 
d="M552 189h25l-20 -189h-517v32c38 3 47 24 47 63v511c0 39 -9 59 -47 63v31h498l19 -188h-25c-14 53 -47 131 -141 131h-159v-259h106c69 0 82 23 89 65h25v-188h-25c-7 42 -20 65 -89 65h-106v-268h179c93 0 127 78 141 131zM419 888l24 -7c-7 -72 -61 -125 -135 -125
c-73 0 -127 53 -134 125l24 7c18 -36 59 -55 110 -55c52 0 93 19 111 55z" />
    <glyph glyph-name="Ecaron" unicode="&#x11a;" horiz-adv-x="607" 
d="M552 189h25l-20 -189h-517v32c38 3 47 24 47 63v511c0 39 -9 59 -47 63v31h498l19 -188h-25c-14 53 -47 131 -141 131h-159v-259h106c69 0 82 23 89 65h25v-188h-25c-7 42 -20 65 -89 65h-106v-268h179c93 0 127 78 141 131zM453 904l16 -22l-141 -132h-41l-140 132
l16 22l145 -80z" />
    <glyph glyph-name="Ecircumflex" unicode="&#xca;" horiz-adv-x="607" 
d="M552 189h25l-20 -189h-517v32c38 3 47 24 47 63v511c0 39 -9 59 -47 63v31h498l19 -188h-25c-14 53 -47 131 -141 131h-159v-259h106c69 0 82 23 89 65h25v-188h-25c-7 42 -20 65 -89 65h-106v-268h179c93 0 127 78 141 131zM328 904l141 -131l-17 -23l-144 81l-145 -81
l-16 23l140 131h41z" />
    <glyph glyph-name="Edieresis" unicode="&#xcb;" horiz-adv-x="607" 
d="M552 189h25l-20 -189h-517v32c38 3 47 24 47 63v511c0 39 -9 59 -47 63v31h498l19 -188h-25c-14 53 -47 131 -141 131h-159v-259h106c69 0 82 23 89 65h25v-188h-25c-7 42 -20 65 -89 65h-106v-268h179c93 0 127 78 141 131zM223 897c36 0 67 -24 67 -65s-31 -64 -67 -64
s-67 23 -67 64s31 65 67 65zM393 897c36 0 67 -24 67 -65s-31 -64 -67 -64s-67 23 -67 64s31 65 67 65z" />
    <glyph glyph-name="Edotaccent" unicode="&#x116;" horiz-adv-x="607" 
d="M552 189h25l-20 -189h-517v32c38 3 47 24 47 63v511c0 39 -9 59 -47 63v31h498l19 -188h-25c-14 53 -47 131 -141 131h-159v-259h106c69 0 82 23 89 65h25v-188h-25c-7 42 -20 65 -89 65h-106v-268h179c93 0 127 78 141 131zM308 897c36 0 67 -24 67 -65s-31 -64 -67 -64
s-67 23 -67 64s31 65 67 65z" />
    <glyph glyph-name="Egrave" unicode="&#xc8;" horiz-adv-x="607" 
d="M552 189h25l-20 -189h-517v32c38 3 47 24 47 63v511c0 39 -9 59 -47 63v31h498l19 -188h-25c-14 53 -47 131 -141 131h-159v-259h106c69 0 82 23 89 65h25v-188h-25c-7 42 -20 65 -89 65h-106v-268h179c93 0 127 78 141 131zM401 803c13 -10 18 -22 12 -34
s-20 -14 -35 -10c-37 11 -82 24 -134 44c-34 13 -47 43 -31 73c16 29 47 35 77 14c46 -32 82 -62 111 -87z" />
    <glyph glyph-name="Emacron" unicode="&#x112;" horiz-adv-x="607" 
d="M552 189h25l-20 -189h-517v32c38 3 47 24 47 63v511c0 39 -9 59 -47 63v31h498l19 -188h-25c-14 53 -47 131 -141 131h-159v-259h106c69 0 82 23 89 65h25v-188h-25c-7 42 -20 65 -89 65h-106v-268h179c93 0 127 78 141 131zM135 847h346v-48h-346v48z" />
    <glyph glyph-name="Gbreve" unicode="&#x11e;" horiz-adv-x="734" 
d="M486 304h233v-31c-37 -4 -47 -24 -47 -63v-131c-63 -64 -176 -94 -276 -89c-214 10 -381 142 -381 360s163 360 377 360c90 0 189 -26 254 -68v-158h-28c-31 125 -111 190 -219 189c-151 -2 -223 -143 -223 -323c0 -190 90 -317 233 -323c55 -3 95 9 125 35v148
c0 39 -10 59 -48 63v31zM507 888l24 -7c-7 -72 -61 -125 -135 -125c-73 0 -127 53 -134 125l24 7c18 -36 59 -55 110 -55c52 0 93 19 111 55z" />
    <glyph glyph-name="Gcircumflex" unicode="&#x11c;" horiz-adv-x="734" 
d="M486 304h233v-31c-37 -4 -47 -24 -47 -63v-131c-63 -64 -176 -94 -276 -89c-214 10 -381 142 -381 360s163 360 377 360c90 0 189 -26 254 -68v-158h-28c-31 125 -111 190 -219 189c-151 -2 -223 -143 -223 -323c0 -190 90 -317 233 -323c55 -3 95 9 125 35v148
c0 39 -10 59 -48 63v31zM417 904l141 -131l-17 -23l-144 81l-145 -81l-16 23l140 131h41z" />
    <glyph glyph-name="Gcommaaccent" unicode="&#x122;" horiz-adv-x="734" 
d="M486 304h233v-31c-37 -4 -47 -24 -47 -63v-131c-63 -64 -176 -94 -276 -89c-214 10 -381 142 -381 360s163 360 377 360c90 0 189 -26 254 -68v-158h-28c-31 125 -111 190 -219 189c-151 -2 -223 -143 -223 -323c0 -190 90 -317 233 -323c55 -3 95 9 125 35v148
c0 39 -10 59 -48 63v31zM395 -55c39 0 70 -30 71 -78c2 -105 -55 -164 -104 -202l-19 21c39 40 58 75 64 121c-1 0 -11 -1 -12 -1c-38 0 -70 26 -70 70s32 69 70 69z" />
    <glyph glyph-name="Gdotaccent" unicode="&#x120;" horiz-adv-x="734" 
d="M486 304h233v-31c-37 -4 -47 -24 -47 -63v-131c-63 -64 -176 -94 -276 -89c-214 10 -381 142 -381 360s163 360 377 360c90 0 189 -26 254 -68v-158h-28c-31 125 -111 190 -219 189c-151 -2 -223 -143 -223 -323c0 -190 90 -317 233 -323c55 -3 95 9 125 35v148
c0 39 -10 59 -48 63v31zM397 897c36 0 67 -24 67 -65s-31 -64 -67 -64s-67 23 -67 64s31 65 67 65z" />
    <glyph glyph-name="Hcircumflex" unicode="&#x124;" horiz-adv-x="766" 
d="M726 669c-38 -4 -48 -24 -48 -63v-511c0 -39 10 -60 48 -63v-32h-240v32c38 3 48 24 48 63v238h-302v-238c0 -39 10 -60 48 -63v-32h-240v32c38 3 48 24 48 63v511c0 39 -10 59 -48 63v31h240v-31c-38 -4 -48 -24 -48 -63v-216h302v216c0 39 -10 59 -48 63v31h240v-31z
M403 904l141 -131l-17 -23l-144 81l-145 -81l-16 23l140 131h41z" />
    <glyph glyph-name="Iacute" unicode="&#xcd;" horiz-adv-x="320" 
d="M280 669c-38 -4 -48 -24 -48 -63v-511c0 -39 10 -60 48 -63v-32h-240v32c37 3 47 24 47 63v511c0 39 -10 59 -47 63v31h240v-31zM255 876c16 -30 3 -60 -31 -73c-52 -20 -97 -33 -134 -44c-16 -4 -29 -2 -35 10c-7 12 -1 24 12 34c29 25 65 55 110 87c30 21 62 15 78 -14
z" />
    <glyph glyph-name="Ibreve" unicode="&#x12c;" horiz-adv-x="320" 
d="M280 669c-38 -4 -48 -24 -48 -63v-511c0 -39 10 -60 48 -63v-32h-240v32c37 3 47 24 47 63v511c0 39 -10 59 -47 63v31h240v-31zM271 888l24 -7c-7 -72 -61 -125 -135 -125c-73 0 -127 53 -134 125l24 7c18 -36 59 -55 110 -55c52 0 93 19 111 55z" />
    <glyph glyph-name="Icircumflex" unicode="&#xce;" horiz-adv-x="320" 
d="M280 669c-38 -4 -48 -24 -48 -63v-511c0 -39 10 -60 48 -63v-32h-240v32c37 3 47 24 47 63v511c0 39 -10 59 -47 63v31h240v-31zM180 904l141 -131l-17 -23l-144 81l-145 -81l-16 23l140 131h41z" />
    <glyph glyph-name="Idieresis" unicode="&#xcf;" horiz-adv-x="320" 
d="M280 669c-38 -4 -48 -24 -48 -63v-511c0 -39 10 -60 48 -63v-32h-240v32c37 3 47 24 47 63v511c0 39 -10 59 -47 63v31h240v-31zM75 897c36 0 67 -24 67 -65s-31 -64 -67 -64s-67 23 -67 64s31 65 67 65zM245 897c36 0 67 -24 67 -65s-31 -64 -67 -64s-67 23 -67 64
s31 65 67 65z" />
    <glyph glyph-name="Idotaccent" unicode="&#x130;" horiz-adv-x="320" 
d="M280 669c-38 -4 -48 -24 -48 -63v-511c0 -39 10 -60 48 -63v-32h-240v32c37 3 47 24 47 63v511c0 39 -10 59 -47 63v31h240v-31zM160 897c36 0 67 -24 67 -65s-31 -64 -67 -64s-67 23 -67 64s31 65 67 65z" />
    <glyph glyph-name="Igrave" unicode="&#xcc;" horiz-adv-x="320" 
d="M280 669c-38 -4 -48 -24 -48 -63v-511c0 -39 10 -60 48 -63v-32h-240v32c37 3 47 24 47 63v511c0 39 -10 59 -47 63v31h240v-31zM253 803c13 -10 18 -22 12 -34s-20 -14 -35 -10c-37 11 -82 24 -134 44c-34 13 -47 43 -31 73c16 29 47 35 77 14c46 -32 82 -62 111 -87z
" />
    <glyph glyph-name="Imacron" unicode="&#x12a;" horiz-adv-x="320" 
d="M280 669c-38 -4 -48 -24 -48 -63v-511c0 -39 10 -60 48 -63v-32h-240v32c37 3 47 24 47 63v511c0 39 -10 59 -47 63v31h240v-31zM-13 847h346v-48h-346v48z" />
    <glyph glyph-name="Itilde" unicode="&#x128;" horiz-adv-x="320" 
d="M279 669c-38 -4 -48 -24 -48 -63v-511c0 -39 10 -60 48 -63v-32h-240v32c37 3 47 24 47 63v511c0 39 -10 59 -47 63v31h240v-31zM87 880c34 0 56 -9 87 -24c29 -15 57 -30 84 -30c25 0 42 14 49 41h27c-5 -68 -29 -109 -90 -109c-38 0 -67 15 -102 30
c-27 11 -46 19 -70 19s-45 -13 -60 -40h-27c6 68 50 113 102 113z" />
    <glyph glyph-name="IJ" unicode="&#x132;" horiz-adv-x="798" 
d="M280 669c-38 -4 -48 -24 -48 -63v-511c0 -39 10 -60 48 -63v-32h-240v32c37 3 47 24 47 63v511c0 39 -10 59 -47 63v31h240v-31zM528 700h240v-31c-38 -4 -48 -24 -48 -63v-334c0 -191 -67 -282 -225 -282c-82 0 -154 36 -182 89c-12 22 -17 55 -6 80c16 37 69 45 99 20
c28 -24 23 -64 24 -84c1 -33 19 -67 64 -67c57 0 82 60 82 192v386c0 39 -10 59 -48 63v31z" />
    <glyph glyph-name="Jcircumflex" unicode="&#x134;" horiz-adv-x="503" 
d="M233 700h240v-31c-38 -4 -48 -24 -48 -63v-334c0 -191 -67 -282 -225 -282c-82 0 -154 36 -182 89c-12 22 -17 55 -6 80c16 37 69 45 99 20c28 -24 23 -64 24 -84c1 -33 19 -67 64 -67c57 0 82 60 82 192v386c0 39 -10 59 -48 63v31zM329 904l141 -131l-17 -23l-144 81
l-145 -81l-16 23l140 131h41z" />
    <glyph glyph-name="Kcommaaccent" unicode="&#x136;" horiz-adv-x="748" 
d="M659 95c22 -36 50 -58 79 -63v-32h-272v32c35 2 47 26 24 63l-166 262l-92 -97v-165c0 -39 10 -60 47 -63v-32h-239v32c37 3 47 24 47 63v511c0 39 -10 59 -47 62v32h239v-32c-37 -3 -47 -23 -47 -62v-274l253 272c23 24 27 42 21 52c-4 9 -11 11 -25 12v32h185v-32
c-33 -3 -52 -8 -108 -66l-128 -134zM387 -55c39 0 70 -30 71 -78c2 -105 -55 -164 -104 -202l-19 21c39 40 58 75 64 121c-1 0 -11 -1 -12 -1c-38 0 -70 26 -70 70s32 69 70 69z" />
    <glyph glyph-name="Lacute" unicode="&#x139;" horiz-adv-x="595" 
d="M555 189h25l-20 -189h-520v32c37 3 47 24 47 63v511c0 39 -10 59 -47 63v31h240v-31c-38 -4 -48 -24 -48 -63v-548h182c93 0 127 78 141 131zM255 876c16 -30 3 -60 -31 -73c-52 -20 -97 -33 -134 -44c-16 -4 -29 -2 -35 10c-7 12 -1 24 12 34c29 25 65 55 110 87
c30 21 62 15 78 -14z" />
    <glyph glyph-name="Lcaron" unicode="&#x13d;" horiz-adv-x="595" 
d="M555 189h25l-20 -189h-520v32c37 3 47 24 47 63v511c0 39 -10 59 -47 63v31h240v-31c-38 -4 -48 -24 -48 -63v-548h182c93 0 127 78 141 131zM431 710c38 0 69 -31 70 -79c2 -105 -55 -164 -103 -201l-20 20c40 40 58 75 64 121h-11c-39 0 -71 25 -71 69s32 70 71 70z
" />
    <glyph glyph-name="Lcommaaccent" unicode="&#x13b;" horiz-adv-x="595" 
d="M555 189h25l-20 -189h-520v32c37 3 47 24 47 63v511c0 39 -10 59 -47 63v31h240v-31c-38 -4 -48 -24 -48 -63v-548h182c93 0 127 78 141 131zM318 -55c39 0 70 -30 71 -78c2 -105 -55 -164 -104 -202l-19 21c39 40 58 75 64 121c-1 0 -11 -1 -12 -1c-38 0 -70 26 -70 70
s32 69 70 69z" />
    <glyph glyph-name="Ldot" unicode="&#x13f;" horiz-adv-x="595" 
d="M555 189h25l-20 -189h-520v32c37 3 47 24 47 63v511c0 39 -10 59 -47 63v31h240v-31c-38 -4 -48 -24 -48 -63v-548h182c93 0 127 78 141 131zM420 414c36 0 67 -24 67 -65s-31 -64 -67 -64s-67 23 -67 64s31 65 67 65z" />
    <glyph glyph-name="Nacute" unicode="&#x143;" horiz-adv-x="740" 
d="M552 700h153v-31c-38 -4 -48 -24 -48 -63v-606h-87l-425 538v-443c0 -39 10 -60 48 -63v-32h-153v32c38 3 48 24 48 63v511c0 39 -10 59 -48 63v31h167l393 -499v405c0 39 -10 59 -48 63v31zM478 876c16 -30 3 -60 -31 -73c-52 -20 -97 -33 -134 -44
c-16 -4 -29 -2 -35 10c-7 12 -1 24 12 34c29 25 65 55 110 87c30 21 62 15 78 -14z" />
    <glyph glyph-name="Ncaron" unicode="&#x147;" horiz-adv-x="740" 
d="M552 700h153v-31c-38 -4 -48 -24 -48 -63v-606h-87l-425 538v-443c0 -39 10 -60 48 -63v-32h-153v32c38 3 48 24 48 63v511c0 39 -10 59 -48 63v31h167l393 -499v405c0 39 -10 59 -48 63v31zM527 904l16 -22l-141 -132h-41l-140 132l16 22l145 -80z" />
    <glyph glyph-name="Ncommaaccent" unicode="&#x145;" horiz-adv-x="740" 
d="M552 700h153v-31c-38 -4 -48 -24 -48 -63v-606h-87l-425 538v-443c0 -39 10 -60 48 -63v-32h-153v32c38 3 48 24 48 63v511c0 39 -10 59 -48 63v31h167l393 -499v405c0 39 -10 59 -48 63v31zM371 -55c39 0 70 -30 71 -78c2 -105 -55 -164 -104 -202l-19 21
c39 40 58 75 64 121c-1 0 -11 -1 -12 -1c-38 0 -70 26 -70 70s32 69 70 69z" />
    <glyph glyph-name="Ntilde" unicode="&#xd1;" horiz-adv-x="740" 
d="M552 700h153v-31c-38 -4 -48 -24 -48 -63v-606h-87l-425 538v-443c0 -39 10 -60 48 -63v-32h-153v32c38 3 48 24 48 63v511c0 39 -10 59 -48 63v31h167l393 -499v405c0 39 -10 59 -48 63v31zM320 880c34 0 56 -9 87 -24c29 -15 57 -30 84 -30c25 0 42 14 49 41h27
c-5 -68 -29 -109 -90 -109c-38 0 -67 15 -102 30c-27 11 -46 19 -70 19s-45 -13 -60 -40h-27c6 68 50 113 102 113z" />
    <glyph glyph-name="Oacute" unicode="&#xd3;" horiz-adv-x="795" 
d="M397 710c211 0 378 -150 378 -360c0 -209 -167 -360 -378 -360s-377 151 -377 360c0 210 166 360 377 360zM397 27c126 0 220 121 220 323c0 203 -94 323 -220 323c-125 0 -219 -120 -219 -323c0 -202 94 -323 219 -323zM493 876c16 -30 3 -60 -31 -73
c-52 -20 -97 -33 -134 -44c-16 -4 -29 -2 -35 10c-7 12 -1 24 12 34c29 25 65 55 110 87c30 21 62 15 78 -14z" />
    <glyph glyph-name="Obreve" unicode="&#x14e;" horiz-adv-x="795" 
d="M397 710c211 0 378 -150 378 -360c0 -209 -167 -360 -378 -360s-377 151 -377 360c0 210 166 360 377 360zM397 27c126 0 220 121 220 323c0 203 -94 323 -220 323c-125 0 -219 -120 -219 -323c0 -202 94 -323 219 -323zM508 888l24 -7c-7 -72 -61 -125 -135 -125
c-73 0 -127 53 -134 125l24 7c18 -36 59 -55 110 -55c52 0 93 19 111 55z" />
    <glyph glyph-name="Ocircumflex" unicode="&#xd4;" horiz-adv-x="795" 
d="M397 710c211 0 378 -150 378 -360c0 -209 -167 -360 -378 -360s-377 151 -377 360c0 210 166 360 377 360zM397 27c126 0 220 121 220 323c0 203 -94 323 -220 323c-125 0 -219 -120 -219 -323c0 -202 94 -323 219 -323zM417 904l141 -131l-17 -23l-144 81l-145 -81
l-16 23l140 131h41z" />
    <glyph glyph-name="Odieresis" unicode="&#xd6;" horiz-adv-x="795" 
d="M397 710c211 0 378 -150 378 -360c0 -209 -167 -360 -378 -360s-377 151 -377 360c0 210 166 360 377 360zM397 27c126 0 220 121 220 323c0 203 -94 323 -220 323c-125 0 -219 -120 -219 -323c0 -202 94 -323 219 -323zM312 897c36 0 67 -24 67 -65s-31 -64 -67 -64
s-67 23 -67 64s31 65 67 65zM482 897c36 0 67 -24 67 -65s-31 -64 -67 -64s-67 23 -67 64s31 65 67 65z" />
    <glyph glyph-name="Ograve" unicode="&#xd2;" horiz-adv-x="795" 
d="M397 710c211 0 378 -150 378 -360c0 -209 -167 -360 -378 -360s-377 151 -377 360c0 210 166 360 377 360zM397 27c126 0 220 121 220 323c0 203 -94 323 -220 323c-125 0 -219 -120 -219 -323c0 -202 94 -323 219 -323zM490 803c13 -10 18 -22 12 -34s-20 -14 -35 -10
c-37 11 -82 24 -134 44c-34 13 -47 43 -31 73c16 29 47 35 77 14c46 -32 82 -62 111 -87z" />
    <glyph glyph-name="Ohungarumlaut" unicode="&#x150;" horiz-adv-x="795" 
d="M397 710c211 0 378 -150 378 -360c0 -209 -167 -360 -378 -360s-377 151 -377 360c0 210 166 360 377 360zM397 27c126 0 220 121 220 323c0 203 -94 323 -220 323c-125 0 -219 -120 -219 -323c0 -202 94 -323 219 -323zM429 905c25 -23 22 -55 -6 -78
c-43 -36 -81 -63 -112 -85c-14 -9 -27 -12 -37 -2c-10 9 -8 22 0 36c20 33 45 73 77 118c22 30 54 34 78 11zM586 905c25 -23 22 -55 -6 -78c-43 -36 -81 -63 -112 -85c-14 -9 -27 -12 -37 -2c-10 9 -8 22 0 36c20 33 45 73 77 118c22 30 54 34 78 11z" />
    <glyph glyph-name="Omacron" unicode="&#x14c;" horiz-adv-x="795" 
d="M397 710c211 0 378 -150 378 -360c0 -209 -167 -360 -378 -360s-377 151 -377 360c0 210 166 360 377 360zM397 27c126 0 220 121 220 323c0 203 -94 323 -220 323c-125 0 -219 -120 -219 -323c0 -202 94 -323 219 -323zM224 847h346v-48h-346v48z" />
    <glyph glyph-name="Oslashacute" unicode="&#x1fe;" horiz-adv-x="795" 
d="M679 597c60 -63 96 -149 96 -247c0 -209 -166 -360 -377 -360c-94 0 -179 30 -244 82l-88 -87l-34 33l86 86c-61 63 -97 148 -97 246c0 210 166 360 377 360c94 0 179 -29 245 -81l87 87l34 -34zM179 350c0 -61 8 -115 24 -161l370 370c-40 73 -102 114 -175 114
c-125 0 -219 -121 -219 -323zM398 27c126 0 220 121 220 323c0 62 -9 116 -25 161l-369 -369c39 -74 101 -115 174 -115zM494 876c16 -30 3 -60 -31 -73c-52 -20 -97 -33 -134 -44c-16 -4 -29 -2 -35 10c-7 12 -1 24 12 34c29 25 65 55 110 87c30 21 62 15 78 -14z" />
    <glyph glyph-name="Otilde" unicode="&#xd5;" horiz-adv-x="795" 
d="M397 710c211 0 378 -150 378 -360c0 -209 -167 -360 -378 -360s-377 151 -377 360c0 210 166 360 377 360zM397 27c126 0 220 121 220 323c0 203 -94 323 -220 323c-125 0 -219 -120 -219 -323c0 -202 94 -323 219 -323zM325 880c34 0 56 -9 87 -24c29 -15 57 -30 84 -30
c25 0 42 14 49 41h27c-5 -68 -29 -109 -90 -109c-38 0 -67 15 -102 30c-27 11 -46 19 -70 19s-45 -13 -60 -40h-27c6 68 50 113 102 113z" />
    <glyph glyph-name="Racute" unicode="&#x154;" horiz-adv-x="696" 
d="M610 95c23 -35 47 -58 76 -63v-32h-188l-174 284h-6h-86v-189c0 -39 10 -60 48 -63v-32h-240v32c38 3 48 24 48 63v511c0 39 -10 59 -48 62v32h278c166 0 281 -80 281 -208c0 -84 -49 -147 -130 -181zM232 341h53c107 0 162 61 162 151s-55 150 -162 150h-53v-301z
M411 876c16 -30 3 -60 -31 -73c-52 -20 -97 -33 -134 -44c-16 -4 -29 -2 -35 10c-7 12 -1 24 12 34c29 25 65 55 110 87c30 21 62 15 78 -14z" />
    <glyph glyph-name="Rcaron" unicode="&#x158;" horiz-adv-x="696" 
d="M610 95c23 -35 47 -58 76 -63v-32h-188l-174 284h-6h-86v-189c0 -39 10 -60 48 -63v-32h-240v32c38 3 48 24 48 63v511c0 39 -10 59 -48 62v32h278c166 0 281 -80 281 -208c0 -84 -49 -147 -130 -181zM232 341h53c107 0 162 61 162 151s-55 150 -162 150h-53v-301z
M450 904l16 -22l-141 -132h-41l-140 132l16 22l145 -80z" />
    <glyph glyph-name="Rcommaaccent" unicode="&#x156;" horiz-adv-x="696" 
d="M610 95c23 -35 47 -58 76 -63v-32h-188l-174 284h-6h-86v-189c0 -39 10 -60 48 -63v-32h-240v32c38 3 48 24 48 63v511c0 39 -10 59 -48 62v32h278c166 0 281 -80 281 -208c0 -84 -49 -147 -130 -181zM232 341h53c107 0 162 61 162 151s-55 150 -162 150h-53v-301z
M364 -55c39 0 70 -30 71 -78c2 -105 -55 -164 -104 -202l-19 21c39 40 58 75 64 121c-1 0 -11 -1 -12 -1c-38 0 -70 26 -70 70s32 69 70 69z" />
    <glyph glyph-name="Sacute" unicode="&#x15a;" horiz-adv-x="562" 
d="M343 421c125 -73 220 -128 178 -279c-30 -111 -136 -152 -247 -152c-90 0 -179 22 -244 68v164h25c36 -115 104 -189 199 -195c85 -4 130 40 137 101c10 90 -55 113 -141 162c-101 58 -227 133 -186 287c25 97 121 133 223 133c80 0 135 -23 201 -68l1 -144h-25
c-31 124 -83 171 -164 175c-77 4 -114 -38 -116 -87c-3 -69 68 -112 159 -165zM406 876c16 -30 3 -60 -31 -73c-52 -20 -97 -33 -134 -44c-16 -4 -29 -2 -35 10c-7 12 -1 24 12 34c29 25 65 55 110 87c30 21 62 15 78 -14z" />
    <glyph glyph-name="Scaron" unicode="&#x160;" horiz-adv-x="562" 
d="M343 421c125 -73 220 -128 178 -279c-30 -111 -136 -152 -247 -152c-90 0 -179 22 -244 68v164h25c36 -115 104 -189 199 -195c85 -4 130 40 137 101c10 90 -55 113 -141 162c-101 58 -227 133 -186 287c25 97 121 133 223 133c80 0 135 -23 201 -68l1 -144h-25
c-31 124 -83 171 -164 175c-77 4 -114 -38 -116 -87c-3 -69 68 -112 159 -165zM446 904l16 -22l-141 -132h-41l-140 132l16 22l145 -80z" />
    <glyph glyph-name="Scircumflex" unicode="&#x15c;" horiz-adv-x="562" 
d="M343 421c125 -73 220 -128 178 -279c-30 -111 -136 -152 -247 -152c-90 0 -179 22 -244 68v164h25c36 -115 104 -189 199 -195c85 -4 130 40 137 101c10 90 -55 113 -141 162c-101 58 -227 133 -186 287c25 97 121 133 223 133c80 0 135 -23 201 -68l1 -144h-25
c-31 124 -83 171 -164 175c-77 4 -114 -38 -116 -87c-3 -69 68 -112 159 -165zM321 904l141 -131l-17 -23l-144 81l-145 -81l-16 23l140 131h41z" />
    <glyph glyph-name="Scommaaccent" unicode="&#x218;" horiz-adv-x="562" 
d="M343 421c125 -73 220 -128 178 -279c-30 -111 -136 -152 -247 -152c-90 0 -179 22 -244 68v164h25c36 -115 104 -189 199 -195c85 -4 130 40 137 101c10 90 -55 113 -141 162c-101 58 -227 133 -186 287c25 97 121 133 223 133c80 0 135 -23 201 -68l1 -144h-25
c-31 124 -83 171 -164 175c-77 4 -114 -38 -116 -87c-3 -69 68 -112 159 -165zM284 -55c39 0 70 -30 71 -78c2 -105 -55 -164 -104 -202l-19 21c39 40 58 75 64 121c-1 0 -11 -1 -12 -1c-38 0 -70 26 -70 70s32 69 70 69z" />
    <glyph glyph-name="Tcaron" unicode="&#x164;" horiz-adv-x="670" 
d="M631 700l19 -188h-25c-14 53 -47 130 -141 130h-77v-547c0 -39 10 -60 48 -63v-32h-240v32c38 3 48 24 48 63v547h-77c-94 0 -127 -77 -141 -130h-25l19 188h592zM480 904l16 -22l-141 -132h-41l-140 132l16 22l145 -80z" />
    <glyph glyph-name="Tcommaaccent" unicode="&#x162;" horiz-adv-x="670" 
d="M631 700l19 -188h-25c-14 53 -47 130 -141 130h-77v-547c0 -39 10 -60 48 -63v-32h-240v32c38 3 48 24 48 63v547h-77c-94 0 -127 -77 -141 -130h-25l19 188h592zM333 -55c39 0 70 -30 71 -78c2 -105 -55 -164 -104 -202l-19 21c39 40 58 75 64 121c-1 0 -11 -1 -12 -1
c-38 0 -70 26 -70 70s32 69 70 69z" />
    <glyph glyph-name="Uacute" unicode="&#xda;" horiz-adv-x="730" 
d="M548 700h152v-32c-37 -3 -47 -23 -47 -62v-330c0 -169 -100 -286 -271 -286c-158 0 -295 86 -295 280v336c0 39 -10 59 -47 62v32h240v-32c-38 -3 -48 -23 -48 -62v-342c0 -142 75 -217 186 -217c120 0 177 102 177 219v340c0 39 -10 59 -47 62v32zM505 876
c16 -30 3 -60 -31 -73c-52 -20 -97 -33 -134 -44c-16 -4 -29 -2 -35 10c-7 12 -1 24 12 34c29 25 65 55 110 87c30 21 62 15 78 -14z" />
    <glyph glyph-name="Ubreve" unicode="&#x16c;" horiz-adv-x="730" 
d="M548 700h152v-32c-37 -3 -47 -23 -47 -62v-330c0 -169 -100 -286 -271 -286c-158 0 -295 86 -295 280v336c0 39 -10 59 -47 62v32h240v-32c-38 -3 -48 -23 -48 -62v-342c0 -142 75 -217 186 -217c120 0 177 102 177 219v340c0 39 -10 59 -47 62v32zM520 888l24 -7
c-7 -72 -61 -125 -135 -125c-73 0 -127 53 -134 125l24 7c18 -36 59 -55 110 -55c52 0 93 19 111 55z" />
    <glyph glyph-name="Ucircumflex" unicode="&#xdb;" horiz-adv-x="730" 
d="M548 700h152v-32c-37 -3 -47 -23 -47 -62v-330c0 -169 -100 -286 -271 -286c-158 0 -295 86 -295 280v336c0 39 -10 59 -47 62v32h240v-32c-38 -3 -48 -23 -48 -62v-342c0 -142 75 -217 186 -217c120 0 177 102 177 219v340c0 39 -10 59 -47 62v32zM430 904l141 -131
l-17 -23l-144 81l-145 -81l-16 23l140 131h41z" />
    <glyph glyph-name="Udieresis" unicode="&#xdc;" horiz-adv-x="730" 
d="M548 700h152v-32c-37 -3 -47 -23 -47 -62v-330c0 -169 -100 -286 -271 -286c-158 0 -295 86 -295 280v336c0 39 -10 59 -47 62v32h240v-32c-38 -3 -48 -23 -48 -62v-342c0 -142 75 -217 186 -217c120 0 177 102 177 219v340c0 39 -10 59 -47 62v32zM325 897
c36 0 67 -24 67 -65s-31 -64 -67 -64s-67 23 -67 64s31 65 67 65zM495 897c36 0 67 -24 67 -65s-31 -64 -67 -64s-67 23 -67 64s31 65 67 65z" />
    <glyph glyph-name="Ugrave" unicode="&#xd9;" horiz-adv-x="730" 
d="M548 700h152v-32c-37 -3 -47 -23 -47 -62v-330c0 -169 -100 -286 -271 -286c-158 0 -295 86 -295 280v336c0 39 -10 59 -47 62v32h240v-32c-38 -3 -48 -23 -48 -62v-342c0 -142 75 -217 186 -217c120 0 177 102 177 219v340c0 39 -10 59 -47 62v32zM503 803
c13 -10 18 -22 12 -34s-20 -14 -35 -10c-37 11 -82 24 -134 44c-34 13 -47 43 -31 73c16 29 47 35 77 14c46 -32 82 -62 111 -87z" />
    <glyph glyph-name="Uhungarumlaut" unicode="&#x170;" horiz-adv-x="730" 
d="M548 700h152v-32c-37 -3 -47 -23 -47 -62v-330c0 -169 -100 -286 -271 -286c-158 0 -295 86 -295 280v336c0 39 -10 59 -47 62v32h240v-32c-38 -3 -48 -23 -48 -62v-342c0 -142 75 -217 186 -217c120 0 177 102 177 219v340c0 39 -10 59 -47 62v32zM431 905
c25 -23 22 -55 -6 -78c-43 -36 -81 -63 -112 -85c-14 -9 -27 -12 -37 -2c-10 9 -8 22 0 36c20 33 45 73 77 118c22 30 54 34 78 11zM588 905c25 -23 22 -55 -6 -78c-43 -36 -81 -63 -112 -85c-14 -9 -27 -12 -37 -2c-10 9 -8 22 0 36c20 33 45 73 77 118c22 30 54 34 78 11z
" />
    <glyph glyph-name="Umacron" unicode="&#x16a;" horiz-adv-x="730" 
d="M548 700h152v-32c-37 -3 -47 -23 -47 -62v-330c0 -169 -100 -286 -271 -286c-158 0 -295 86 -295 280v336c0 39 -10 59 -47 62v32h240v-32c-38 -3 -48 -23 -48 -62v-342c0 -142 75 -217 186 -217c120 0 177 102 177 219v340c0 39 -10 59 -47 62v32zM247 847h346v-48h-346
v48z" />
    <glyph glyph-name="Uring" unicode="&#x16e;" horiz-adv-x="730" 
d="M548 700h152v-32c-37 -3 -47 -23 -47 -62v-330c0 -169 -100 -286 -271 -286c-158 0 -295 86 -295 280v336c0 39 -10 59 -47 62v32h240v-32c-38 -3 -48 -23 -48 -62v-342c0 -142 75 -217 186 -217c120 0 177 102 177 219v340c0 39 -10 59 -47 62v32zM420 939
c59 0 111 -37 111 -96s-52 -96 -111 -96c-60 0 -111 37 -111 96s51 96 111 96zM420 765c30 0 44 36 44 78s-14 77 -44 77s-44 -35 -44 -77s14 -78 44 -78z" />
    <glyph glyph-name="Utilde" unicode="&#x168;" horiz-adv-x="730" 
d="M548 700h152v-32c-37 -3 -47 -23 -47 -62v-330c0 -169 -100 -286 -271 -286c-158 0 -295 86 -295 280v336c0 39 -10 59 -47 62v32h240v-32c-38 -3 -48 -23 -48 -62v-342c0 -142 75 -217 186 -217c120 0 177 102 177 219v340c0 39 -10 59 -47 62v32zM347 880
c34 0 56 -9 87 -24c29 -15 57 -30 84 -30c25 0 42 14 49 41h27c-5 -68 -29 -109 -90 -109c-38 0 -67 15 -102 30c-27 11 -46 19 -70 19s-45 -13 -60 -40h-27c6 68 50 113 102 113z" />
    <glyph glyph-name="Wacute" unicode="&#x1e82;" horiz-adv-x="1030" 
d="M863 700h157v-32c-35 -2 -51 -18 -63 -56l-194 -612h-71l-168 514l-167 -514h-71l-212 614c-14 41 -26 51 -64 54v32h259v-32c-32 -2 -50 -29 -37 -70l129 -401l164 503h80l162 -501l128 407c14 44 2 61 -32 62v32zM670 876c16 -30 3 -60 -31 -73
c-52 -20 -97 -33 -134 -44c-16 -4 -29 -2 -35 10c-7 12 -1 24 12 34c29 25 65 55 110 87c30 21 62 15 78 -14z" />
    <glyph glyph-name="Wcircumflex" unicode="&#x174;" horiz-adv-x="1030" 
d="M863 700h157v-32c-35 -2 -51 -18 -63 -56l-194 -612h-71l-168 514l-167 -514h-71l-212 614c-14 41 -26 51 -64 54v32h259v-32c-32 -2 -50 -29 -37 -70l129 -401l164 503h80l162 -501l128 407c14 44 2 61 -32 62v32zM585 904l141 -131l-17 -23l-144 81l-145 -81l-16 23
l140 131h41z" />
    <glyph glyph-name="Wdieresis" unicode="&#x1e84;" horiz-adv-x="1030" 
d="M863 700h157v-32c-35 -2 -51 -18 -63 -56l-194 -612h-71l-168 514l-167 -514h-71l-212 614c-14 41 -26 51 -64 54v32h259v-32c-32 -2 -50 -29 -37 -70l129 -401l164 503h80l162 -501l128 407c14 44 2 61 -32 62v32zM480 897c36 0 67 -24 67 -65s-31 -64 -67 -64
s-67 23 -67 64s31 65 67 65zM650 897c36 0 67 -24 67 -65s-31 -64 -67 -64s-67 23 -67 64s31 65 67 65z" />
    <glyph glyph-name="Wgrave" unicode="&#x1e80;" horiz-adv-x="1030" 
d="M863 700h157v-32c-35 -2 -51 -18 -63 -56l-194 -612h-71l-168 514l-167 -514h-71l-212 614c-14 41 -26 51 -64 54v32h259v-32c-32 -2 -50 -29 -37 -70l129 -401l164 503h80l162 -501l128 407c14 44 2 61 -32 62v32zM658 803c13 -10 18 -22 12 -34s-20 -14 -35 -10
c-37 11 -82 24 -134 44c-34 13 -47 43 -31 73c16 29 47 35 77 14c46 -32 82 -62 111 -87z" />
    <glyph glyph-name="Yacute" unicode="&#xdd;" horiz-adv-x="678" 
d="M504 700h164v-32c-31 -2 -47 -15 -63 -41l-177 -318v-214c0 -39 10 -60 47 -63v-32h-240v32c38 3 48 24 48 63v201l-196 314c-21 34 -40 55 -77 58v32h258v-32c-30 0 -48 -23 -30 -53l151 -258l142 256c18 31 4 55 -27 55v32zM474 876c16 -30 3 -60 -31 -73
c-52 -20 -97 -33 -134 -44c-16 -4 -29 -2 -35 10c-7 12 -1 24 12 34c29 25 65 55 110 87c30 21 62 15 78 -14z" />
    <glyph glyph-name="Ycircumflex" unicode="&#x176;" horiz-adv-x="678" 
d="M504 700h164v-32c-31 -2 -47 -15 -63 -41l-177 -318v-214c0 -39 10 -60 47 -63v-32h-240v32c38 3 48 24 48 63v201l-196 314c-21 34 -40 55 -77 58v32h258v-32c-30 0 -48 -23 -30 -53l151 -258l142 256c18 31 4 55 -27 55v32zM409 904l141 -131l-17 -23l-144 81l-145 -81
l-16 23l140 131h41z" />
    <glyph glyph-name="Ydieresis" unicode="&#x178;" horiz-adv-x="678" 
d="M504 700h164v-32c-31 -2 -47 -15 -63 -41l-177 -318v-214c0 -39 10 -60 47 -63v-32h-240v32c38 3 48 24 48 63v201l-196 314c-21 34 -40 55 -77 58v32h258v-32c-30 0 -48 -23 -30 -53l151 -258l142 256c18 31 4 55 -27 55v32zM304 897c36 0 67 -24 67 -65
s-31 -64 -67 -64s-67 23 -67 64s31 65 67 65zM474 897c36 0 67 -24 67 -65s-31 -64 -67 -64s-67 23 -67 64s31 65 67 65z" />
    <glyph glyph-name="Ygrave" unicode="&#x1ef2;" horiz-adv-x="678" 
d="M504 700h164v-32c-31 -2 -47 -15 -63 -41l-177 -318v-214c0 -39 10 -60 47 -63v-32h-240v32c38 3 48 24 48 63v201l-196 314c-21 34 -40 55 -77 58v32h258v-32c-30 0 -48 -23 -30 -53l151 -258l142 256c18 31 4 55 -27 55v32zM472 803c13 -10 18 -22 12 -34
s-20 -14 -35 -10c-37 11 -82 24 -134 44c-34 13 -47 43 -31 73c16 29 47 35 77 14c46 -32 82 -62 111 -87z" />
    <glyph glyph-name="Zacute" unicode="&#x179;" horiz-adv-x="622" 
d="M572 189h25l-20 -189h-552v58l386 584h-206c-94 0 -127 -77 -141 -130h-25l20 188h513v-58l-383 -584h242c93 0 127 78 141 131zM436 876c16 -30 3 -60 -31 -73c-52 -20 -97 -33 -134 -44c-16 -4 -29 -2 -35 10c-7 12 -1 24 12 34c29 25 65 55 110 87c30 21 62 15 78 -14
z" />
    <glyph glyph-name="Zcaron" unicode="&#x17d;" horiz-adv-x="622" 
d="M572 189h25l-20 -189h-552v58l386 584h-206c-94 0 -127 -77 -141 -130h-25l20 188h513v-58l-383 -584h242c93 0 127 78 141 131zM476 904l16 -22l-141 -132h-41l-140 132l16 22l145 -80z" />
    <glyph glyph-name="Zdotaccent" unicode="&#x17b;" horiz-adv-x="622" 
d="M572 189h25l-20 -189h-552v58l386 584h-206c-94 0 -127 -77 -141 -130h-25l20 188h513v-58l-383 -584h242c93 0 127 78 141 131zM331 897c36 0 67 -24 67 -65s-31 -64 -67 -64s-67 23 -67 64s31 65 67 65z" />
    <glyph glyph-name="aacute" unicode="&#xe1;" horiz-adv-x="514" 
d="M502 56l12 -22c-12 -20 -47 -44 -87 -44c-42 0 -106 20 -110 79c-25 -57 -81 -79 -133 -79c-84 0 -170 33 -173 125c-3 119 95 154 192 163c46 4 82 7 107 10v41c0 77 -15 116 -66 122c-29 3 -72 -10 -69 -56c5 -63 -40 -81 -75 -70c-34 12 -49 45 -30 86
c27 59 104 72 170 72c93 0 212 -36 212 -178v-224c0 -39 33 -41 50 -25zM229 42c56 2 81 64 81 132v78c-14 -1 -32 -4 -55 -7c-72 -9 -102 -47 -104 -111c-2 -66 34 -93 78 -92zM347 666c16 -30 3 -60 -31 -73c-52 -20 -97 -33 -134 -44c-16 -4 -29 -2 -35 10
c-7 12 -1 24 12 34c29 25 65 55 110 87c30 21 62 15 78 -14z" />
    <glyph glyph-name="abreve" unicode="&#x103;" horiz-adv-x="514" 
d="M502 56l12 -22c-12 -20 -47 -44 -87 -44c-42 0 -106 20 -110 79c-25 -57 -81 -79 -133 -79c-84 0 -170 33 -173 125c-3 119 95 154 192 163c46 4 82 7 107 10v41c0 77 -15 116 -66 122c-29 3 -72 -10 -69 -56c5 -63 -40 -81 -75 -70c-34 12 -49 45 -30 86
c27 59 104 72 170 72c93 0 212 -36 212 -178v-224c0 -39 33 -41 50 -25zM229 42c56 2 81 64 81 132v78c-14 -1 -32 -4 -55 -7c-72 -9 -102 -47 -104 -111c-2 -66 34 -93 78 -92zM372 678l24 -7c-7 -72 -61 -125 -135 -125c-73 0 -127 53 -134 125l24 7
c18 -36 59 -55 110 -55c52 0 93 19 111 55z" />
    <glyph glyph-name="acircumflex" unicode="&#xe2;" horiz-adv-x="514" 
d="M502 56l12 -22c-12 -20 -47 -44 -87 -44c-42 0 -106 20 -110 79c-25 -57 -81 -79 -133 -79c-84 0 -170 33 -173 125c-3 119 95 154 192 163c46 4 82 7 107 10v41c0 77 -15 116 -66 122c-29 3 -72 -10 -69 -56c5 -63 -40 -81 -75 -70c-34 12 -49 45 -30 86
c27 59 104 72 170 72c93 0 212 -36 212 -178v-224c0 -39 33 -41 50 -25zM229 42c56 2 81 64 81 132v78c-14 -1 -32 -4 -55 -7c-72 -9 -102 -47 -104 -111c-2 -66 34 -93 78 -92zM282 694l141 -131l-17 -23l-144 81l-145 -81l-16 23l140 131h41z" />
    <glyph glyph-name="adieresis" unicode="&#xe4;" horiz-adv-x="514" 
d="M502 56l12 -22c-12 -20 -47 -44 -87 -44c-42 0 -106 20 -110 79c-25 -57 -81 -79 -133 -79c-84 0 -170 33 -173 125c-3 119 95 154 192 163c46 4 82 7 107 10v41c0 77 -15 116 -66 122c-29 3 -72 -10 -69 -56c5 -63 -40 -81 -75 -70c-34 12 -49 45 -30 86
c27 59 104 72 170 72c93 0 212 -36 212 -178v-224c0 -39 33 -41 50 -25zM229 42c56 2 81 64 81 132v78c-14 -1 -32 -4 -55 -7c-72 -9 -102 -47 -104 -111c-2 -66 34 -93 78 -92zM177 687c36 0 67 -24 67 -65s-31 -64 -67 -64s-67 23 -67 64s31 65 67 65zM347 687
c36 0 67 -24 67 -65s-31 -64 -67 -64s-67 23 -67 64s31 65 67 65z" />
    <glyph glyph-name="agrave" unicode="&#xe0;" horiz-adv-x="514" 
d="M502 56l12 -22c-12 -20 -47 -44 -87 -44c-42 0 -106 20 -110 79c-25 -57 -81 -79 -133 -79c-84 0 -170 33 -173 125c-3 119 95 154 192 163c46 4 82 7 107 10v41c0 77 -15 116 -66 122c-29 3 -72 -10 -69 -56c5 -63 -40 -81 -75 -70c-34 12 -49 45 -30 86
c27 59 104 72 170 72c93 0 212 -36 212 -178v-224c0 -39 33 -41 50 -25zM229 42c56 2 81 64 81 132v78c-14 -1 -32 -4 -55 -7c-72 -9 -102 -47 -104 -111c-2 -66 34 -93 78 -92zM365 593c13 -10 18 -22 12 -34s-20 -14 -35 -10c-37 11 -82 24 -134 44c-34 13 -47 43 -31 73
c16 29 47 35 77 14c46 -32 82 -62 111 -87z" />
    <glyph glyph-name="amacron" unicode="&#x101;" horiz-adv-x="514" 
d="M502 56l12 -22c-12 -20 -47 -44 -87 -44c-42 0 -106 20 -110 79c-25 -57 -81 -79 -133 -79c-84 0 -170 33 -173 125c-3 119 95 154 192 163c46 4 82 7 107 10v41c0 77 -15 116 -66 122c-29 3 -72 -10 -69 -56c5 -63 -40 -81 -75 -70c-34 12 -49 45 -30 86
c27 59 104 72 170 72c93 0 212 -36 212 -178v-224c0 -39 33 -41 50 -25zM229 42c56 2 81 64 81 132v78c-14 -1 -32 -4 -55 -7c-72 -9 -102 -47 -104 -111c-2 -66 34 -93 78 -92zM89 637h346v-48h-346v48z" />
    <glyph glyph-name="aring" unicode="&#xe5;" horiz-adv-x="514" 
d="M502 56l12 -22c-12 -20 -47 -44 -87 -44c-42 0 -106 20 -110 79c-25 -57 -81 -79 -133 -79c-84 0 -170 33 -173 125c-3 119 95 154 192 163c46 4 82 7 107 10v41c0 77 -15 116 -66 122c-29 3 -72 -10 -69 -56c5 -63 -40 -81 -75 -70c-34 12 -49 45 -30 86
c27 59 104 72 170 72c93 0 212 -36 212 -178v-224c0 -39 33 -41 50 -25zM229 42c56 2 81 64 81 132v78c-14 -1 -32 -4 -55 -7c-72 -9 -102 -47 -104 -111c-2 -66 34 -93 78 -92zM262 729c59 0 111 -37 111 -96s-52 -96 -111 -96c-60 0 -111 37 -111 96s51 96 111 96z
M262 555c30 0 44 36 44 78s-14 77 -44 77s-44 -35 -44 -77s14 -78 44 -78z" />
    <glyph glyph-name="atilde" unicode="&#xe3;" horiz-adv-x="514" 
d="M502 56l12 -22c-12 -20 -47 -44 -87 -44c-42 0 -106 20 -110 79c-25 -57 -81 -79 -133 -79c-84 0 -170 33 -173 125c-3 119 95 154 192 163c46 4 82 7 107 10v41c0 77 -15 116 -66 122c-29 3 -72 -10 -69 -56c5 -63 -40 -81 -75 -70c-34 12 -49 45 -30 86
c27 59 104 72 170 72c93 0 212 -36 212 -178v-224c0 -39 33 -41 50 -25zM229 42c56 2 81 64 81 132v78c-14 -1 -32 -4 -55 -7c-72 -9 -102 -47 -104 -111c-2 -66 34 -93 78 -92zM189 670c34 0 56 -9 87 -24c29 -15 57 -30 84 -30c25 0 42 14 49 41h27
c-5 -68 -29 -109 -90 -109c-38 0 -67 15 -102 30c-27 11 -46 19 -70 19s-45 -13 -60 -40h-27c6 68 50 113 102 113z" />
    <glyph glyph-name="aeacute" unicode="&#x1fd;" horiz-adv-x="801" 
d="M780 258v-14h-322v-1c14 -196 216 -208 298 -116l18 -15c-34 -66 -107 -122 -201 -122c-96 0 -186 44 -229 132c-22 -96 -82 -132 -160 -132c-84 0 -170 32 -173 124c-3 120 95 154 192 163c46 5 82 8 108 10v41c0 78 -16 117 -67 122c-29 3 -71 -9 -68 -56
c4 -63 -41 -81 -76 -69c-34 11 -49 45 -30 86c28 59 105 72 170 72c55 0 118 -12 162 -51c42 33 98 51 162 51c143 0 218 -101 216 -225zM562 450c-58 -1 -99 -62 -104 -155h193c1 68 -16 157 -89 155zM229 42c56 1 82 63 82 132v78c-14 -2 -32 -4 -56 -7
c-72 -10 -102 -48 -104 -111c-2 -67 34 -94 78 -92zM531 666c16 -30 3 -60 -31 -73c-52 -20 -97 -33 -134 -44c-16 -4 -29 -2 -35 10c-7 12 -1 24 12 34c29 25 65 55 110 87c30 21 62 15 78 -14z" />
    <glyph glyph-name="cacute" unicode="&#x107;" horiz-adv-x="482" 
d="M443 128l19 -15c-35 -67 -108 -123 -202 -123c-132 0 -255 86 -255 254c0 152 109 239 253 239c88 0 152 -29 181 -76c24 -39 22 -97 -27 -114c-40 -15 -93 10 -88 76c4 50 -14 85 -68 82c-68 -5 -121 -86 -111 -207c17 -199 216 -209 298 -116zM349 666
c16 -30 3 -60 -31 -73c-52 -20 -97 -33 -134 -44c-16 -4 -29 -2 -35 10c-7 12 -1 24 12 34c29 25 65 55 110 87c30 21 62 15 78 -14z" />
    <glyph glyph-name="ccaron" unicode="&#x10d;" horiz-adv-x="482" 
d="M443 128l19 -15c-35 -67 -108 -123 -202 -123c-132 0 -255 86 -255 254c0 152 109 239 253 239c88 0 152 -29 181 -76c24 -39 22 -97 -27 -114c-40 -15 -93 10 -88 76c4 50 -14 85 -68 82c-68 -5 -121 -86 -111 -207c17 -199 216 -209 298 -116zM398 694l16 -22
l-141 -132h-41l-140 132l16 22l145 -80z" />
    <glyph glyph-name="ccircumflex" unicode="&#x109;" horiz-adv-x="482" 
d="M443 128l19 -15c-35 -67 -108 -123 -202 -123c-132 0 -255 86 -255 254c0 152 109 239 253 239c88 0 152 -29 181 -76c24 -39 22 -97 -27 -114c-40 -15 -93 10 -88 76c4 50 -14 85 -68 82c-68 -5 -121 -86 -111 -207c17 -199 216 -209 298 -116zM273 694l141 -131
l-17 -23l-144 81l-145 -81l-16 23l140 131h41z" />
    <glyph glyph-name="cdotaccent" unicode="&#x10b;" horiz-adv-x="482" 
d="M443 128l19 -15c-35 -67 -108 -123 -202 -123c-132 0 -255 86 -255 254c0 152 109 239 253 239c88 0 152 -29 181 -76c24 -39 22 -97 -27 -114c-40 -15 -93 10 -88 76c4 50 -14 85 -68 82c-68 -5 -121 -86 -111 -207c17 -199 216 -209 298 -116zM253 687
c36 0 67 -24 67 -65s-31 -64 -67 -64s-67 23 -67 64s31 65 67 65z" />
    <glyph glyph-name="dcaron" unicode="&#x10f;" horiz-adv-x="670" 
d="M567 49l9 -28c-21 -18 -54 -31 -94 -31s-93 20 -102 71c-34 -41 -83 -71 -153 -71c-133 0 -222 94 -222 247s89 246 222 246c65 0 112 -25 145 -61v184c0 39 -10 59 -47 62v32l164 39h25v-658c0 -39 28 -44 53 -32zM259 31c75 0 113 82 113 206s-38 206 -113 206
c-77 0 -114 -90 -114 -206s37 -206 114 -206zM639 741c38 0 69 -31 70 -79c2 -105 -55 -164 -103 -201l-20 20c40 40 58 75 64 121h-11c-39 0 -71 25 -71 69s32 70 71 70z" />
    <glyph glyph-name="eacute" unicode="&#xe9;" horiz-adv-x="489" 
d="M468 259v-15h-322c13 -197 216 -209 298 -116l18 -15c-35 -67 -107 -123 -201 -123c-133 0 -256 86 -256 254c0 148 103 239 247 239c143 0 218 -101 216 -224zM250 451c-58 -2 -99 -63 -105 -156h194c1 69 -16 158 -89 156zM352 666c16 -30 3 -60 -31 -73
c-52 -20 -97 -33 -134 -44c-16 -4 -29 -2 -35 10c-7 12 -1 24 12 34c29 25 65 55 110 87c30 21 62 15 78 -14z" />
    <glyph glyph-name="ebreve" unicode="&#x115;" horiz-adv-x="489" 
d="M468 259v-15h-322c13 -197 216 -209 298 -116l18 -15c-35 -67 -107 -123 -201 -123c-133 0 -256 86 -256 254c0 148 103 239 247 239c143 0 218 -101 216 -224zM250 451c-58 -2 -99 -63 -105 -156h194c1 69 -16 158 -89 156zM357 678l24 -7c-7 -72 -61 -125 -135 -125
c-73 0 -127 53 -134 125l24 7c18 -36 59 -55 110 -55c52 0 93 19 111 55z" />
    <glyph glyph-name="ecaron" unicode="&#x11b;" horiz-adv-x="489" 
d="M468 259v-15h-322c13 -197 216 -209 298 -116l18 -15c-35 -67 -107 -123 -201 -123c-133 0 -256 86 -256 254c0 148 103 239 247 239c143 0 218 -101 216 -224zM250 451c-58 -2 -99 -63 -105 -156h194c1 69 -16 158 -89 156zM392 694l16 -22l-141 -132h-41l-140 132
l16 22l145 -80z" />
    <glyph glyph-name="ecircumflex" unicode="&#xea;" horiz-adv-x="489" 
d="M468 259v-15h-322c13 -197 216 -209 298 -116l18 -15c-35 -67 -107 -123 -201 -123c-133 0 -256 86 -256 254c0 148 103 239 247 239c143 0 218 -101 216 -224zM250 451c-58 -2 -99 -63 -105 -156h194c1 69 -16 158 -89 156zM267 694l141 -131l-17 -23l-144 81l-145 -81
l-16 23l140 131h41z" />
    <glyph glyph-name="edieresis" unicode="&#xeb;" horiz-adv-x="489" 
d="M468 259v-15h-322c13 -197 216 -209 298 -116l18 -15c-35 -67 -107 -123 -201 -123c-133 0 -256 86 -256 254c0 148 103 239 247 239c143 0 218 -101 216 -224zM250 451c-58 -2 -99 -63 -105 -156h194c1 69 -16 158 -89 156zM162 687c36 0 67 -24 67 -65s-31 -64 -67 -64
s-67 23 -67 64s31 65 67 65zM332 687c36 0 67 -24 67 -65s-31 -64 -67 -64s-67 23 -67 64s31 65 67 65z" />
    <glyph glyph-name="edotaccent" unicode="&#x117;" horiz-adv-x="489" 
d="M468 259v-15h-322c13 -197 216 -209 298 -116l18 -15c-35 -67 -107 -123 -201 -123c-133 0 -256 86 -256 254c0 148 103 239 247 239c143 0 218 -101 216 -224zM250 451c-58 -2 -99 -63 -105 -156h194c1 69 -16 158 -89 156zM247 687c36 0 67 -24 67 -65s-31 -64 -67 -64
s-67 23 -67 64s31 65 67 65z" />
    <glyph glyph-name="egrave" unicode="&#xe8;" horiz-adv-x="489" 
d="M468 259v-15h-322c13 -197 216 -209 298 -116l18 -15c-35 -67 -107 -123 -201 -123c-133 0 -256 86 -256 254c0 148 103 239 247 239c143 0 218 -101 216 -224zM250 451c-58 -2 -99 -63 -105 -156h194c1 69 -16 158 -89 156zM350 593c13 -10 18 -22 12 -34
s-20 -14 -35 -10c-37 11 -82 24 -134 44c-34 13 -47 43 -31 73c16 29 47 35 77 14c46 -32 82 -62 111 -87z" />
    <glyph glyph-name="emacron" unicode="&#x113;" horiz-adv-x="489" 
d="M468 259v-15h-322c13 -197 216 -209 298 -116l18 -15c-35 -67 -107 -123 -201 -123c-133 0 -256 86 -256 254c0 148 103 239 247 239c143 0 218 -101 216 -224zM250 451c-58 -2 -99 -63 -105 -156h194c1 69 -16 158 -89 156zM74 637h346v-48h-346v48z" />
    <glyph glyph-name="gbreve" unicode="&#x11f;" horiz-adv-x="567" 
d="M287 86c184 2 275 -35 269 -149c-6 -113 -114 -206 -277 -206c-161 0 -284 51 -273 158c5 44 40 81 97 105c-58 22 -90 59 -76 109c14 46 73 68 121 77c-44 30 -72 75 -72 134c0 108 97 169 203 169c37 0 73 -7 104 -21c4 21 10 43 20 65c25 56 93 80 123 33
c23 -36 -8 -90 -58 -82c-24 4 -42 3 -49 -10c-4 -6 -6 -14 -7 -23c42 -29 70 -74 70 -131c0 -109 -98 -171 -203 -171c-32 0 -64 6 -92 17c-27 -5 -64 -15 -66 -37c-2 -26 30 -38 166 -37zM279 448c-50 0 -79 -48 -79 -134c0 -87 29 -135 79 -135c49 0 79 48 79 135
c0 86 -30 134 -79 134zM445 -114c6 78 -75 82 -171 82c-37 0 -73 3 -105 8c-27 -18 -48 -46 -49 -90c-3 -93 85 -121 165 -121c79 0 154 43 160 121zM391 678l24 -7c-7 -72 -61 -125 -135 -125c-73 0 -127 53 -134 125l24 7c18 -36 59 -55 110 -55c52 0 93 19 111 55z" />
    <glyph glyph-name="gcircumflex" unicode="&#x11d;" horiz-adv-x="567" 
d="M287 86c184 2 275 -35 269 -149c-6 -113 -114 -206 -277 -206c-161 0 -284 51 -273 158c5 44 40 81 97 105c-58 22 -90 59 -76 109c14 46 73 68 121 77c-44 30 -72 75 -72 134c0 108 97 169 203 169c37 0 73 -7 104 -21c4 21 10 43 20 65c25 56 93 80 123 33
c23 -36 -8 -90 -58 -82c-24 4 -42 3 -49 -10c-4 -6 -6 -14 -7 -23c42 -29 70 -74 70 -131c0 -109 -98 -171 -203 -171c-32 0 -64 6 -92 17c-27 -5 -64 -15 -66 -37c-2 -26 30 -38 166 -37zM279 448c-50 0 -79 -48 -79 -134c0 -87 29 -135 79 -135c49 0 79 48 79 135
c0 86 -30 134 -79 134zM445 -114c6 78 -75 82 -171 82c-37 0 -73 3 -105 8c-27 -18 -48 -46 -49 -90c-3 -93 85 -121 165 -121c79 0 154 43 160 121zM301 694l141 -131l-17 -23l-144 81l-145 -81l-16 23l140 131h41z" />
    <glyph glyph-name="gcommaaccent" unicode="&#x123;" horiz-adv-x="567" 
d="M287 86c184 2 275 -35 269 -149c-6 -113 -114 -206 -277 -206c-161 0 -284 51 -273 158c5 44 40 81 97 105c-58 22 -90 59 -76 109c14 46 73 68 121 77c-44 30 -72 75 -72 134c0 108 97 169 203 169c37 0 73 -7 104 -21c4 21 10 43 20 65c25 56 93 80 123 33
c23 -36 -8 -90 -58 -82c-24 4 -42 3 -49 -10c-4 -6 -6 -14 -7 -23c42 -29 70 -74 70 -131c0 -109 -98 -171 -203 -171c-32 0 -64 6 -92 17c-27 -5 -64 -15 -66 -37c-2 -26 30 -38 166 -37zM279 448c-50 0 -79 -48 -79 -134c0 -87 29 -135 79 -135c49 0 79 48 79 135
c0 86 -30 134 -79 134zM445 -114c6 78 -75 82 -171 82c-37 0 -73 3 -105 8c-27 -18 -48 -46 -49 -90c-3 -93 85 -121 165 -121c79 0 154 43 160 121zM271 695c39 0 71 -25 71 -69s-32 -70 -71 -70c-38 0 -70 31 -70 79c-2 105 55 164 103 201l20 -20
c-40 -40 -59 -75 -64 -121h11z" />
    <glyph glyph-name="gdotaccent" unicode="&#x121;" horiz-adv-x="567" 
d="M287 86c184 2 275 -35 269 -149c-6 -113 -114 -206 -277 -206c-161 0 -284 51 -273 158c5 44 40 81 97 105c-58 22 -90 59 -76 109c14 46 73 68 121 77c-44 30 -72 75 -72 134c0 108 97 169 203 169c37 0 73 -7 104 -21c4 21 10 43 20 65c25 56 93 80 123 33
c23 -36 -8 -90 -58 -82c-24 4 -42 3 -49 -10c-4 -6 -6 -14 -7 -23c42 -29 70 -74 70 -131c0 -109 -98 -171 -203 -171c-32 0 -64 6 -92 17c-27 -5 -64 -15 -66 -37c-2 -26 30 -38 166 -37zM279 448c-50 0 -79 -48 -79 -134c0 -87 29 -135 79 -135c49 0 79 48 79 135
c0 86 -30 134 -79 134zM445 -114c6 78 -75 82 -171 82c-37 0 -73 3 -105 8c-27 -18 -48 -46 -49 -90c-3 -93 85 -121 165 -121c79 0 154 43 160 121zM281 687c36 0 67 -24 67 -65s-31 -64 -67 -64s-67 23 -67 64s31 65 67 65z" />
    <glyph glyph-name="hcircumflex" unicode="&#x125;" horiz-adv-x="603" 
d="M545 95c0 -39 10 -60 48 -63v-32h-237v32c38 3 47 24 47 63v212c0 75 -26 125 -92 125c-63 0 -97 -55 -97 -122v-215c0 -39 10 -60 48 -63v-32h-237v32c38 3 48 24 48 63v511c0 39 -10 59 -48 62v32l165 39h24v-318c37 42 87 62 144 62c132 0 187 -81 187 -192v-196z
M201 901l141 -131l-17 -23l-144 81l-145 -81l-16 23l140 131h41z" />
    <glyph glyph-name="dotlessi" unicode="&#x131;" 
d="M209 95c0 -39 10 -60 48 -63v-32h-237v32c38 3 48 24 48 63v256c0 39 -10 59 -48 62v32l165 38h24v-388z" />
    <glyph glyph-name="iacute" unicode="&#xed;" 
d="M209 95c0 -39 10 -60 48 -63v-32h-237v32c38 3 48 24 48 63v256c0 39 -10 59 -48 62v32l165 38h24v-388zM224 666c16 -30 3 -60 -31 -73c-52 -20 -97 -33 -134 -44c-16 -4 -29 -2 -35 10c-7 12 -1 24 12 34c29 25 65 55 110 87c30 21 62 15 78 -14z" />
    <glyph glyph-name="ibreve" unicode="&#x12d;" 
d="M209 95c0 -39 10 -60 48 -63v-32h-237v32c38 3 48 24 48 63v256c0 39 -10 59 -48 62v32l165 38h24v-388zM239 678l24 -7c-7 -72 -61 -125 -135 -125c-73 0 -127 53 -134 125l24 7c18 -36 59 -55 110 -55c52 0 93 19 111 55z" />
    <glyph glyph-name="icircumflex" unicode="&#xee;" 
d="M211 95c0 -39 10 -60 48 -63v-32h-237v32c38 3 48 24 48 63v256c0 39 -10 59 -48 62v32l165 38h24v-388zM151 694l141 -131l-17 -23l-144 81l-145 -81l-16 23l140 131h41z" />
    <glyph glyph-name="idieresis" unicode="&#xef;" 
d="M210 95c0 -39 10 -60 48 -63v-32h-237v32c38 3 48 24 48 63v256c0 39 -10 59 -48 62v32l165 38h24v-388zM45 687c36 0 67 -24 67 -65s-31 -64 -67 -64s-67 23 -67 64s31 65 67 65zM215 687c36 0 67 -24 67 -65s-31 -64 -67 -64s-67 23 -67 64s31 65 67 65z" />
    <glyph glyph-name="igrave" unicode="&#xec;" 
d="M209 95c0 -39 10 -60 48 -63v-32h-237v32c38 3 48 24 48 63v256c0 39 -10 59 -48 62v32l165 38h24v-388zM221 593c13 -10 18 -22 12 -34s-20 -14 -35 -10c-37 11 -82 24 -134 44c-34 13 -47 43 -31 73c16 29 47 35 77 14c46 -32 82 -62 111 -87z" />
    <glyph glyph-name="imacron" unicode="&#x12b;" 
d="M210 95c0 -39 10 -60 48 -63v-32h-237v32c38 3 48 24 48 63v256c0 39 -10 59 -48 62v32l165 38h24v-388zM-43 637h346v-48h-346v48z" />
    <glyph glyph-name="itilde" unicode="&#x129;" 
d="M211 95c0 -39 10 -60 48 -63v-32h-237v32c38 3 48 24 48 63v256c0 39 -10 59 -48 62v32l165 38h24v-388zM58 670c34 0 56 -9 87 -24c29 -15 57 -30 84 -30c25 0 42 14 49 41h27c-5 -68 -29 -109 -90 -109c-38 0 -67 15 -102 30c-27 11 -46 19 -70 19s-45 -13 -60 -40h-27
c6 68 50 113 102 113z" />
    <glyph glyph-name="ij" unicode="&#x133;" horiz-adv-x="537" 
d="M209 95c0 -39 10 -60 48 -63v-32h-237v32c38 3 48 24 48 63v256c0 39 -10 59 -48 62v32l165 38h24v-388zM133 541c-48 0 -88 31 -88 85c0 53 40 85 88 85s88 -32 88 -85c0 -54 -40 -85 -88 -85zM306 445l165 38h24v-509c0 -111 -36 -187 -135 -191
c-61 -3 -119 19 -149 66c-15 24 -27 82 17 104c30 15 62 8 78 -23c9 -19 8 -46 12 -63c9 -32 29 -45 52 -40c18 4 30 24 23 58c-12 63 -39 62 -39 154v312c0 39 -10 59 -48 62v32zM419 541c-48 0 -88 31 -88 85c0 53 40 85 88 85s88 -32 88 -85c0 -54 -40 -85 -88 -85z" />
    <glyph glyph-name="jcircumflex" unicode="&#x135;" horiz-adv-x="238" 
d="M7 445l165 38h24v-509c0 -111 -36 -187 -135 -191c-61 -3 -119 19 -149 66c-15 24 -27 82 17 104c30 15 62 8 78 -23c9 -19 8 -46 12 -63c9 -32 29 -45 52 -40c18 4 30 24 23 58c-12 63 -39 62 -39 154v312c0 39 -10 59 -48 62v32zM73 694l141 -131l-17 -23l-144 81
l-145 -81l-16 23l140 131h41z" />
    <glyph glyph-name="kcommaaccent" unicode="&#x137;" horiz-adv-x="603" 
d="M508 95c23 -32 45 -53 80 -63v-32h-229v32c30 5 22 28 -3 63l-96 136l-51 -46v-90c0 -39 10 -60 47 -63v-32h-236v32c37 3 47 24 47 63v511c0 39 -10 59 -47 62v32l164 39h25v-505l177 158c26 23 29 48 1 50v32h162v-32c-32 -4 -70 -15 -103 -45l-95 -85zM313 -55
c39 0 70 -30 71 -78c2 -105 -55 -164 -104 -202l-19 21c39 40 58 75 64 121c-1 0 -11 -1 -12 -1c-38 0 -70 26 -70 70s32 69 70 69z" />
    <glyph glyph-name="kgreenlandic" unicode="&#x138;" horiz-adv-x="603" 
d="M508 95c23 -32 46 -53 81 -63v-32h-230v32c30 5 23 28 -2 63l-96 136l-52 -46v-90c0 -39 10 -60 48 -63v-32h-237v32c38 3 48 24 48 63v321c0 39 -10 59 -48 62v32l165 39h24v-315l178 158c26 23 28 48 0 50v32h162v-32c-32 -4 -70 -15 -103 -45l-95 -85z" />
    <glyph glyph-name="lacute" unicode="&#x13a;" horiz-adv-x="276" 
d="M219 95c0 -39 9 -60 47 -63v-32h-237v32c38 3 48 24 48 63v511c0 39 -10 59 -48 62v32l165 39h25v-644zM223 884c16 -30 3 -60 -31 -73c-52 -20 -97 -33 -134 -44c-16 -4 -29 -2 -35 10c-7 12 -1 24 12 34c29 25 65 55 110 87c30 21 62 15 78 -14z" />
    <glyph glyph-name="lcaron" unicode="&#x13e;" horiz-adv-x="370" 
d="M210 95c0 -39 9 -60 47 -63v-32h-237v32c38 3 48 24 48 63v511c0 39 -10 59 -48 62v32l165 39h25v-644zM339 741c38 0 69 -31 70 -79c2 -105 -55 -164 -103 -201l-20 20c40 40 58 75 64 121h-11c-39 0 -71 25 -71 69s32 70 71 70z" />
    <glyph glyph-name="lcommaaccent" unicode="&#x13c;" 
d="M210 95c0 -39 9 -60 47 -63v-32h-237v32c38 3 48 24 48 63v511c0 39 -10 59 -48 62v32l165 39h25v-644zM137 -55c39 0 70 -30 71 -78c2 -105 -55 -164 -104 -202l-19 21c39 40 58 75 64 121c-1 0 -11 -1 -12 -1c-38 0 -70 26 -70 70s32 69 70 69z" />
    <glyph glyph-name="ldot" unicode="&#x140;" horiz-adv-x="410" 
d="M210 95c0 -39 9 -60 47 -63v-32h-237v32c38 3 48 24 48 63v511c0 39 -10 59 -48 62v32l165 39h25v-644zM333 420c36 0 67 -24 67 -65s-31 -64 -67 -64s-67 23 -67 64s31 65 67 65z" />
    <glyph glyph-name="nacute" unicode="&#x144;" horiz-adv-x="597" 
d="M540 95c0 -39 10 -60 47 -63v-32h-236v32c37 3 47 24 47 63v212c0 75 -26 125 -92 125c-63 0 -97 -55 -97 -122v-215c0 -39 10 -60 47 -63v-32h-236v32c37 3 47 24 47 63v256c0 39 -10 59 -47 62v32l158 38h25v-71c36 48 89 71 150 71c132 0 187 -81 187 -192v-196z
M399 676c16 -30 3 -60 -31 -73c-52 -20 -97 -33 -134 -44c-16 -4 -29 -2 -35 10c-7 12 -1 24 12 34c29 25 65 55 110 87c30 21 62 15 78 -14z" />
    <glyph glyph-name="napostrophe" unicode="&#x149;" horiz-adv-x="749" 
d="M692 95c0 -39 10 -60 47 -63v-32h-236v32c37 3 47 24 47 63v212c0 75 -26 125 -92 125c-63 0 -97 -55 -97 -122v-215c0 -39 10 -60 47 -63v-32h-236v32c37 3 47 24 47 63v256c0 39 -10 59 -47 62v32l158 38h25v-71c36 48 89 71 150 71c132 0 187 -81 187 -192v-196z
M80 709c39 0 70 -30 71 -78c2 -105 -55 -164 -104 -202l-19 21c39 40 58 75 64 121c-1 0 -11 -1 -12 -1c-38 0 -70 26 -70 70s32 69 70 69z" />
    <glyph glyph-name="ncaron" unicode="&#x148;" horiz-adv-x="597" 
d="M540 95c0 -39 10 -60 47 -63v-32h-236v32c37 3 47 24 47 63v212c0 75 -26 125 -92 125c-63 0 -97 -55 -97 -122v-215c0 -39 10 -60 47 -63v-32h-236v32c37 3 47 24 47 63v256c0 39 -10 59 -47 62v32l158 38h25v-71c36 48 89 71 150 71c132 0 187 -81 187 -192v-196z
M448 694l16 -22l-141 -132h-41l-140 132l16 22l145 -80z" />
    <glyph glyph-name="ncommaaccent" unicode="&#x146;" horiz-adv-x="597" 
d="M540 95c0 -39 10 -60 47 -63v-32h-236v32c37 3 47 24 47 63v212c0 75 -26 125 -92 125c-63 0 -97 -55 -97 -122v-215c0 -39 10 -60 47 -63v-32h-236v32c37 3 47 24 47 63v256c0 39 -10 59 -47 62v32l158 38h25v-71c36 48 89 71 150 71c132 0 187 -81 187 -192v-196z
M302 -55c39 0 70 -30 71 -78c2 -105 -55 -164 -104 -202l-19 21c39 40 58 75 64 121c-1 0 -11 -1 -12 -1c-38 0 -70 26 -70 70s32 69 70 69z" />
    <glyph glyph-name="ntilde" unicode="&#xf1;" horiz-adv-x="597" 
d="M540 95c0 -39 10 -60 47 -63v-32h-236v32c37 3 47 24 47 63v212c0 75 -26 125 -92 125c-63 0 -97 -55 -97 -122v-215c0 -39 10 -60 47 -63v-32h-236v32c37 3 47 24 47 63v256c0 39 -10 59 -47 62v32l158 38h25v-71c36 48 89 71 150 71c132 0 187 -81 187 -192v-196z
M231 670c34 0 56 -9 87 -24c29 -15 57 -30 84 -30c25 0 42 14 49 41h27c-5 -68 -29 -109 -90 -109c-38 0 -67 15 -102 30c-27 11 -46 19 -70 19s-45 -13 -60 -40h-27c6 68 50 113 102 113z" />
    <glyph glyph-name="oacute" unicode="&#xf3;" horiz-adv-x="543" 
d="M264 483c139 0 259 -85 259 -246s-120 -247 -259 -247s-259 86 -259 247s120 246 259 246zM264 31c73 0 113 87 113 206s-40 205 -113 205s-114 -86 -114 -205s41 -206 114 -206zM369 666c16 -30 3 -60 -31 -73c-52 -20 -97 -33 -134 -44c-16 -4 -29 -2 -35 10
c-7 12 -1 24 12 34c29 25 65 55 110 87c30 21 62 15 78 -14z" />
    <glyph glyph-name="obreve" unicode="&#x14f;" horiz-adv-x="543" 
d="M264 483c139 0 259 -85 259 -246s-120 -247 -259 -247s-259 86 -259 247s120 246 259 246zM264 31c73 0 113 87 113 206s-40 205 -113 205s-114 -86 -114 -205s41 -206 114 -206zM374 678l24 -7c-7 -72 -61 -125 -135 -125c-73 0 -127 53 -134 125l24 7
c18 -36 59 -55 110 -55c52 0 93 19 111 55z" />
    <glyph glyph-name="ocircumflex" unicode="&#xf4;" horiz-adv-x="543" 
d="M264 483c139 0 259 -85 259 -246s-120 -247 -259 -247s-259 86 -259 247s120 246 259 246zM264 31c73 0 113 87 113 206s-40 205 -113 205s-114 -86 -114 -205s41 -206 114 -206zM284 694l141 -131l-17 -23l-144 81l-145 -81l-16 23l140 131h41z" />
    <glyph glyph-name="odieresis" unicode="&#xf6;" horiz-adv-x="543" 
d="M264 483c139 0 259 -85 259 -246s-120 -247 -259 -247s-259 86 -259 247s120 246 259 246zM264 31c73 0 113 87 113 206s-40 205 -113 205s-114 -86 -114 -205s41 -206 114 -206zM179 687c36 0 67 -24 67 -65s-31 -64 -67 -64s-67 23 -67 64s31 65 67 65zM349 687
c36 0 67 -24 67 -65s-31 -64 -67 -64s-67 23 -67 64s31 65 67 65z" />
    <glyph glyph-name="ograve" unicode="&#xf2;" horiz-adv-x="543" 
d="M264 483c139 0 259 -85 259 -246s-120 -247 -259 -247s-259 86 -259 247s120 246 259 246zM264 31c73 0 113 87 113 206s-40 205 -113 205s-114 -86 -114 -205s41 -206 114 -206zM367 593c13 -10 18 -22 12 -34s-20 -14 -35 -10c-37 11 -82 24 -134 44
c-34 13 -47 43 -31 73c16 29 47 35 77 14c46 -32 82 -62 111 -87z" />
    <glyph glyph-name="ohungarumlaut" unicode="&#x151;" horiz-adv-x="543" 
d="M264 483c139 0 259 -85 259 -246s-120 -247 -259 -247s-259 86 -259 247s120 246 259 246zM264 31c73 0 113 87 113 206s-40 205 -113 205s-114 -86 -114 -205s41 -206 114 -206zM285 705c25 -23 22 -55 -6 -78c-43 -36 -81 -63 -112 -85c-14 -9 -27 -12 -37 -2
c-10 9 -8 22 0 36c20 33 45 73 77 118c22 30 54 34 78 11zM442 705c25 -23 22 -55 -6 -78c-43 -36 -81 -63 -112 -85c-14 -9 -27 -12 -37 -2c-10 9 -8 22 0 36c20 33 45 73 77 118c22 30 54 34 78 11z" />
    <glyph glyph-name="omacron" unicode="&#x14d;" horiz-adv-x="543" 
d="M264 483c139 0 259 -85 259 -246s-120 -247 -259 -247s-259 86 -259 247s120 246 259 246zM264 31c73 0 113 87 113 206s-40 205 -113 205s-114 -86 -114 -205s41 -206 114 -206zM91 637h346v-48h-346v48z" />
    <glyph glyph-name="oslashacute" unicode="&#x1ff;" horiz-adv-x="543" 
d="M526 464l-61 -62c36 -40 59 -96 59 -166c0 -161 -120 -246 -259 -246c-62 0 -119 16 -164 48l-64 -63l-34 34l62 61c-37 41 -59 97 -59 166c0 162 120 247 259 247c61 0 119 -16 164 -49l63 64zM151 236c0 -26 2 -51 6 -73l201 201c-19 48 -51 78 -93 78
c-73 0 -114 -87 -114 -206zM378 236c0 27 -2 51 -6 74l-200 -201c18 -48 50 -78 93 -78c73 0 113 86 113 205zM367 666c16 -30 3 -60 -31 -73c-52 -20 -97 -33 -134 -44c-16 -4 -29 -2 -35 10c-7 12 -1 24 12 34c29 25 65 55 110 87c30 21 62 15 78 -14z" />
    <glyph glyph-name="otilde" unicode="&#xf5;" horiz-adv-x="543" 
d="M264 483c139 0 259 -85 259 -246s-120 -247 -259 -247s-259 86 -259 247s120 246 259 246zM264 31c73 0 113 87 113 206s-40 205 -113 205s-114 -86 -114 -205s41 -206 114 -206zM191 670c34 0 56 -9 87 -24c29 -15 57 -30 84 -30c25 0 42 14 49 41h27
c-5 -68 -29 -109 -90 -109c-38 0 -67 15 -102 30c-27 11 -46 19 -70 19s-45 -13 -60 -40h-27c6 68 50 113 102 113z" />
    <glyph glyph-name="racute" unicode="&#x155;" horiz-adv-x="450" 
d="M429 420c11 -27 10 -74 -35 -93c-35 -15 -86 6 -93 56c-4 30 -16 41 -34 40c-37 -3 -58 -47 -58 -119v-209c0 -39 10 -60 48 -63v-32h-237v32c38 3 48 24 48 63v256c0 39 -10 59 -48 62v32l159 38h24v-70c22 45 58 68 113 70c54 2 95 -20 113 -63zM323 666
c16 -30 3 -60 -31 -73c-52 -20 -97 -33 -134 -44c-16 -4 -29 -2 -35 10c-7 12 -1 24 12 34c29 25 65 55 110 87c30 21 62 15 78 -14z" />
    <glyph glyph-name="rcaron" unicode="&#x159;" horiz-adv-x="450" 
d="M429 420c11 -27 10 -74 -35 -93c-35 -15 -86 6 -93 56c-4 30 -16 41 -34 40c-37 -3 -58 -47 -58 -119v-209c0 -39 10 -60 48 -63v-32h-237v32c38 3 48 24 48 63v256c0 39 -10 59 -48 62v32l159 38h24v-70c22 45 58 68 113 70c54 2 95 -20 113 -63zM372 694l16 -22
l-141 -132h-41l-140 132l16 22l145 -80z" />
    <glyph glyph-name="rcommaaccent" unicode="&#x157;" horiz-adv-x="450" 
d="M429 420c11 -27 10 -74 -35 -93c-35 -15 -86 6 -93 56c-4 30 -16 41 -34 40c-37 -3 -58 -47 -58 -119v-209c0 -39 10 -60 48 -63v-32h-237v32c38 3 48 24 48 63v256c0 39 -10 59 -48 62v32l159 38h24v-70c22 45 58 68 113 70c54 2 95 -20 113 -63zM136 -55
c39 0 70 -30 71 -78c2 -105 -55 -164 -104 -202l-19 21c39 40 58 75 64 121c-1 0 -11 -1 -12 -1c-38 0 -70 26 -70 70s32 69 70 69z" />
    <glyph glyph-name="sacute" unicode="&#x15b;" horiz-adv-x="411" 
d="M132 398c-7 -52 52 -75 118 -105c75 -34 166 -76 134 -186c-21 -76 -97 -117 -194 -117c-62 0 -141 18 -185 52v121h23c22 -95 97 -138 162 -138c40 0 75 17 82 51c11 52 -40 69 -104 98c-96 44 -174 91 -144 210c20 78 105 101 177 99c50 -1 104 -17 148 -51l1 -108h-23
c-24 90 -61 125 -126 125c-26 0 -63 -9 -69 -51zM313 666c16 -30 3 -60 -31 -73c-52 -20 -97 -33 -134 -44c-16 -4 -29 -2 -35 10c-7 12 -1 24 12 34c29 25 65 55 110 87c30 21 62 15 78 -14z" />
    <glyph glyph-name="scaron" unicode="&#x161;" horiz-adv-x="411" 
d="M132 398c-7 -52 52 -75 118 -105c75 -34 166 -76 134 -186c-21 -76 -97 -117 -194 -117c-62 0 -141 18 -185 52v121h23c22 -95 97 -138 162 -138c40 0 75 17 82 51c11 52 -40 69 -104 98c-96 44 -174 91 -144 210c20 78 105 101 177 99c50 -1 104 -17 148 -51l1 -108h-23
c-24 90 -61 125 -126 125c-26 0 -63 -9 -69 -51zM343 694l16 -22l-141 -132h-41l-140 132l16 22l145 -80z" />
    <glyph glyph-name="scircumflex" unicode="&#x15d;" horiz-adv-x="411" 
d="M132 398c-7 -52 52 -75 118 -105c75 -34 166 -76 134 -186c-21 -76 -97 -117 -194 -117c-62 0 -141 18 -185 52v121h23c22 -95 97 -138 162 -138c40 0 75 17 82 51c11 52 -40 69 -104 98c-96 44 -174 91 -144 210c20 78 105 101 177 99c50 -1 104 -17 148 -51l1 -108h-23
c-24 90 -61 125 -126 125c-26 0 -63 -9 -69 -51zM218 694l141 -131l-17 -23l-144 81l-145 -81l-16 23l140 131h41z" />
    <glyph glyph-name="scommaaccent" unicode="&#x219;" horiz-adv-x="411" 
d="M132 398c-7 -52 52 -75 118 -105c75 -34 166 -76 134 -186c-21 -76 -97 -117 -194 -117c-62 0 -141 18 -185 52v121h23c22 -95 97 -138 162 -138c40 0 75 17 82 51c11 52 -40 69 -104 98c-96 44 -174 91 -144 210c20 78 105 101 177 99c50 -1 104 -17 148 -51l1 -108h-23
c-24 90 -61 125 -126 125c-26 0 -63 -9 -69 -51zM206 -55c39 0 70 -30 71 -78c2 -105 -55 -164 -104 -202l-19 21c39 40 58 75 64 121c-1 0 -11 -1 -12 -1c-38 0 -70 26 -70 70s32 69 70 69z" />
    <glyph glyph-name="tcaron" unicode="&#x165;" horiz-adv-x="443" 
d="M322 84l16 -27c-21 -34 -64 -67 -124 -67c-69 0 -140 27 -140 140v293h-69v51c88 0 147 64 167 144h43v-144h95v-51h-95v-293c0 -33 17 -51 38 -59c23 -8 49 -2 69 13zM392 728c38 0 69 -31 70 -79c2 -105 -55 -164 -103 -201l-20 20c40 40 58 75 64 121h-11
c-39 0 -71 25 -71 69s32 70 71 70z" />
    <glyph glyph-name="tcommaaccent" unicode="&#x163;" horiz-adv-x="358" 
d="M322 84l16 -27c-21 -34 -64 -67 -124 -67c-69 0 -140 27 -140 140v293h-69v51c88 0 147 64 167 144h43v-144h95v-51h-95v-293c0 -33 17 -51 38 -59c23 -8 49 -2 69 13zM160 -55c39 0 70 -30 71 -78c2 -105 -55 -164 -104 -202l-19 21c39 40 58 75 64 121
c-1 0 -11 -1 -12 -1c-38 0 -70 26 -70 70s32 69 70 69z" />
    <glyph glyph-name="uacute" unicode="&#xfa;" horiz-adv-x="587" 
d="M520 95c0 -39 10 -60 47 -63v-32h-189v54c-36 -43 -86 -64 -143 -64c-132 0 -187 82 -187 193v168c0 39 -10 59 -48 62v32l165 38h24v-316c0 -75 27 -125 93 -125c63 0 96 55 96 122v187c0 39 -10 59 -47 62v32l165 38h24v-388zM369 666c16 -30 3 -60 -31 -73
c-52 -20 -97 -33 -134 -44c-16 -4 -29 -2 -35 10c-7 12 -1 24 12 34c29 25 65 55 110 87c30 21 62 15 78 -14z" />
    <glyph glyph-name="ubreve" unicode="&#x16d;" horiz-adv-x="587" 
d="M520 95c0 -39 10 -60 47 -63v-32h-189v54c-36 -43 -86 -64 -143 -64c-132 0 -187 82 -187 193v168c0 39 -10 59 -48 62v32l165 38h24v-316c0 -75 27 -125 93 -125c63 0 96 55 96 122v187c0 39 -10 59 -47 62v32l165 38h24v-388zM394 678l24 -7c-7 -72 -61 -125 -135 -125
c-73 0 -127 53 -134 125l24 7c18 -36 59 -55 110 -55c52 0 93 19 111 55z" />
    <glyph glyph-name="ucircumflex" unicode="&#xfb;" horiz-adv-x="587" 
d="M520 95c0 -39 10 -60 47 -63v-32h-189v54c-36 -43 -86 -64 -143 -64c-132 0 -187 82 -187 193v168c0 39 -10 59 -48 62v32l165 38h24v-316c0 -75 27 -125 93 -125c63 0 96 55 96 122v187c0 39 -10 59 -47 62v32l165 38h24v-388zM303 694l141 -131l-17 -23l-144 81
l-145 -81l-16 23l140 131h41z" />
    <glyph glyph-name="udieresis" unicode="&#xfc;" horiz-adv-x="587" 
d="M520 95c0 -39 10 -60 47 -63v-32h-189v54c-36 -43 -86 -64 -143 -64c-132 0 -187 82 -187 193v168c0 39 -10 59 -48 62v32l165 38h24v-316c0 -75 27 -125 93 -125c63 0 96 55 96 122v187c0 39 -10 59 -47 62v32l165 38h24v-388zM198 687c36 0 67 -24 67 -65
s-31 -64 -67 -64s-67 23 -67 64s31 65 67 65zM368 687c36 0 67 -24 67 -65s-31 -64 -67 -64s-67 23 -67 64s31 65 67 65z" />
    <glyph glyph-name="uhungarumlaut" unicode="&#x171;" horiz-adv-x="587" 
d="M520 95c0 -39 10 -60 47 -63v-32h-189v54c-36 -43 -86 -64 -143 -64c-132 0 -187 82 -187 193v168c0 39 -10 59 -48 62v32l165 38h24v-316c0 -75 27 -125 93 -125c63 0 96 55 96 122v187c0 39 -10 59 -47 62v32l165 38h24v-388zM325 695c25 -23 22 -55 -6 -78
c-43 -36 -81 -63 -112 -85c-14 -9 -27 -12 -37 -2c-10 9 -8 22 0 36c20 33 45 73 77 118c22 30 54 34 78 11zM482 695c25 -23 22 -55 -6 -78c-43 -36 -81 -63 -112 -85c-14 -9 -27 -12 -37 -2c-10 9 -8 22 0 36c20 33 45 73 77 118c22 30 54 34 78 11z" />
    <glyph glyph-name="ugrave" unicode="&#xf9;" horiz-adv-x="587" 
d="M520 95c0 -39 10 -60 47 -63v-32h-189v54c-36 -43 -86 -64 -143 -64c-132 0 -187 82 -187 193v168c0 39 -10 59 -48 62v32l165 38h24v-316c0 -75 27 -125 93 -125c63 0 96 55 96 122v187c0 39 -10 59 -47 62v32l165 38h24v-388zM396 593c13 -10 18 -22 12 -34
s-20 -14 -35 -10c-37 11 -82 24 -134 44c-34 13 -47 43 -31 73c16 29 47 35 77 14c46 -32 82 -62 111 -87z" />
    <glyph glyph-name="umacron" unicode="&#x16b;" horiz-adv-x="587" 
d="M520 95c0 -39 10 -60 47 -63v-32h-189v54c-36 -43 -86 -64 -143 -64c-132 0 -187 82 -187 193v168c0 39 -10 59 -48 62v32l165 38h24v-316c0 -75 27 -125 93 -125c63 0 96 55 96 122v187c0 39 -10 59 -47 62v32l165 38h24v-388zM110 637h346v-48h-346v48z" />
    <glyph glyph-name="uring" unicode="&#x16f;" horiz-adv-x="587" 
d="M520 95c0 -39 10 -60 47 -63v-32h-189v54c-36 -43 -86 -64 -143 -64c-132 0 -187 82 -187 193v168c0 39 -10 59 -48 62v32l165 38h24v-316c0 -75 27 -125 93 -125c63 0 96 55 96 122v187c0 39 -10 59 -47 62v32l165 38h24v-388zM283 729c59 0 111 -37 111 -96
s-52 -96 -111 -96c-60 0 -111 37 -111 96s51 96 111 96zM283 555c30 0 44 36 44 78s-14 77 -44 77s-44 -35 -44 -77s14 -78 44 -78z" />
    <glyph glyph-name="utilde" unicode="&#x169;" horiz-adv-x="587" 
d="M520 95c0 -39 10 -60 47 -63v-32h-189v54c-36 -43 -86 -64 -143 -64c-132 0 -187 82 -187 193v168c0 39 -10 59 -48 62v32l165 38h24v-316c0 -75 27 -125 93 -125c63 0 96 55 96 122v187c0 39 -10 59 -47 62v32l165 38h24v-388zM211 670c34 0 56 -9 87 -24
c29 -15 57 -30 84 -30c25 0 42 14 49 41h27c-5 -68 -29 -109 -90 -109c-38 0 -67 15 -102 30c-27 11 -46 19 -70 19s-45 -13 -60 -40h-27c6 68 50 113 102 113z" />
    <glyph glyph-name="wacute" unicode="&#x1e83;" horiz-adv-x="772" 
d="M618 474h139v-32c-33 -2 -49 -13 -62 -49l-142 -393h-71l-113 312l-109 -312h-64l-151 379c-15 38 -28 60 -65 63v32h251v-32c-37 -3 -49 -26 -36 -63l76 -222l114 317h70l106 -325l87 242c10 30 1 50 -30 51v32zM504 666c16 -30 3 -60 -31 -73c-52 -20 -97 -33 -134 -44
c-16 -4 -29 -2 -35 10c-7 12 -1 24 12 34c29 25 65 55 110 87c30 21 62 15 78 -14z" />
    <glyph glyph-name="wcircumflex" unicode="&#x175;" horiz-adv-x="772" 
d="M618 474h139v-32c-33 -2 -49 -13 -62 -49l-142 -393h-71l-113 312l-109 -312h-64l-151 379c-15 38 -28 60 -65 63v32h251v-32c-37 -3 -49 -26 -36 -63l76 -222l114 317h70l106 -325l87 242c10 30 1 50 -30 51v32zM438 694l141 -131l-17 -23l-144 81l-145 -81l-16 23
l140 131h41z" />
    <glyph glyph-name="wdieresis" unicode="&#x1e85;" horiz-adv-x="772" 
d="M618 474h139v-32c-33 -2 -49 -13 -62 -49l-142 -393h-71l-113 312l-109 -312h-64l-151 379c-15 38 -28 60 -65 63v32h251v-32c-37 -3 -49 -26 -36 -63l76 -222l114 317h70l106 -325l87 242c10 30 1 50 -30 51v32zM333 687c36 0 67 -24 67 -65s-31 -64 -67 -64
s-67 23 -67 64s31 65 67 65zM503 687c36 0 67 -24 67 -65s-31 -64 -67 -64s-67 23 -67 64s31 65 67 65z" />
    <glyph glyph-name="wgrave" unicode="&#x1e81;" horiz-adv-x="772" 
d="M618 474h139v-32c-33 -2 -49 -13 -62 -49l-142 -393h-71l-113 312l-109 -312h-64l-151 379c-15 38 -28 60 -65 63v32h251v-32c-37 -3 -49 -26 -36 -63l76 -222l114 317h70l106 -325l87 242c10 30 1 50 -30 51v32zM501 593c13 -10 18 -22 12 -34s-20 -14 -35 -10
c-37 11 -82 24 -134 44c-34 13 -47 43 -31 73c16 29 47 35 77 14c46 -32 82 -62 111 -87z" />
    <glyph glyph-name="yacute" unicode="&#xfd;" horiz-adv-x="528" 
d="M381 474h132v-32c-32 -2 -45 -14 -60 -49l-174 -418c-66 -151 -103 -191 -165 -202c-33 -6 -88 1 -116 26c-19 16 -44 58 -12 91c30 31 76 14 87 -23c6 -22 11 -48 45 -45c26 2 59 17 114 150l-184 407c-17 37 -34 60 -71 63v32h251v-32c-37 -3 -44 -26 -29 -63l101 -244
l107 258c11 27 5 48 -26 49v32zM407 666c16 -30 3 -60 -31 -73c-52 -20 -97 -33 -134 -44c-16 -4 -29 -2 -35 10c-7 12 -1 24 12 34c29 25 65 55 110 87c30 21 62 15 78 -14z" />
    <glyph glyph-name="ycircumflex" unicode="&#x177;" horiz-adv-x="528" 
d="M381 474h132v-32c-32 -2 -45 -14 -60 -49l-174 -418c-66 -151 -103 -191 -165 -202c-33 -6 -88 1 -116 26c-19 16 -44 58 -12 91c30 31 76 14 87 -23c6 -22 11 -48 45 -45c26 2 59 17 114 150l-184 407c-17 37 -34 60 -71 63v32h251v-32c-37 -3 -44 -26 -29 -63l101 -244
l107 258c11 27 5 48 -26 49v32zM331 694l141 -131l-17 -23l-144 81l-145 -81l-16 23l140 131h41z" />
    <glyph glyph-name="ydieresis" unicode="&#xff;" horiz-adv-x="528" 
d="M381 474h132v-32c-32 -2 -45 -14 -60 -49l-174 -418c-66 -151 -103 -191 -165 -202c-33 -6 -88 1 -116 26c-19 16 -44 58 -12 91c30 31 76 14 87 -23c6 -22 11 -48 45 -45c26 2 59 17 114 150l-184 407c-17 37 -34 60 -71 63v32h251v-32c-37 -3 -44 -26 -29 -63l101 -244
l107 258c11 27 5 48 -26 49v32zM226 687c36 0 67 -24 67 -65s-31 -64 -67 -64s-67 23 -67 64s31 65 67 65zM396 687c36 0 67 -24 67 -65s-31 -64 -67 -64s-67 23 -67 64s31 65 67 65z" />
    <glyph glyph-name="ygrave" unicode="&#x1ef3;" horiz-adv-x="528" 
d="M381 474h132v-32c-32 -2 -45 -14 -60 -49l-174 -418c-66 -151 -103 -191 -165 -202c-33 -6 -88 1 -116 26c-19 16 -44 58 -12 91c30 31 76 14 87 -23c6 -22 11 -48 45 -45c26 2 59 17 114 150l-184 407c-17 37 -34 60 -71 63v32h251v-32c-37 -3 -44 -26 -29 -63l101 -244
l107 258c11 27 5 48 -26 49v32zM384 593c13 -10 18 -22 12 -34s-20 -14 -35 -10c-37 11 -82 24 -134 44c-34 13 -47 43 -31 73c16 29 47 35 77 14c46 -32 82 -62 111 -87z" />
    <glyph glyph-name="zacute" unicode="&#x17a;" horiz-adv-x="476" 
d="M421 143h25l-19 -143h-407v52l250 371h-79c-83 0 -115 -42 -131 -92h-25l20 143h374v-51l-246 -371h107c84 0 115 41 131 91zM368 666c16 -30 3 -60 -31 -73c-52 -20 -97 -33 -134 -44c-16 -4 -29 -2 -35 10c-7 12 -1 24 12 34c29 25 65 55 110 87c30 21 62 15 78 -14z
" />
    <glyph glyph-name="zcaron" unicode="&#x17e;" horiz-adv-x="476" 
d="M421 143h25l-19 -143h-407v52l250 371h-79c-83 0 -115 -42 -131 -92h-25l20 143h374v-51l-246 -371h107c84 0 115 41 131 91zM398 694l16 -22l-141 -132h-41l-140 132l16 22l145 -80z" />
    <glyph glyph-name="zdotaccent" unicode="&#x17c;" horiz-adv-x="476" 
d="M421 143h25l-19 -143h-407v52l250 371h-79c-83 0 -115 -42 -131 -92h-25l20 143h374v-51l-246 -371h107c84 0 115 41 131 91zM263 687c36 0 67 -24 67 -65s-31 -64 -67 -64s-67 23 -67 64s31 65 67 65z" />
    <glyph glyph-name="Eth" unicode="&#xd0;" horiz-adv-x="734" 
d="M321 700c267 0 398 -156 398 -350s-131 -350 -398 -350h-281v32c37 3 47 24 47 63v238h-47v48h47v225c0 39 -10 59 -47 62v32h281zM301 58c173 0 259 117 259 292s-86 292 -259 292h-69v-261h154v-48h-154v-275h69z" />
    <glyph glyph-name="fraction" unicode="&#x2044;" horiz-adv-x="378" 
d="M293 700h45l-253 -699h-45z" />
    <glyph glyph-name="A" unicode="A" horiz-adv-x="729" 
d="M647 95c16 -37 35 -60 72 -63v-32h-270v32c39 2 57 26 43 63l-47 118h-258l-44 -118c-14 -39 1 -60 39 -63v-32h-172v32c37 3 57 25 70 63l185 502c15 39 9 69 -31 72v31h160zM208 270h214l-110 282z" />
    </font>
</defs>
</svg>
