<?xml version="1.0" encoding="utf-8"?>
<!-- Generator: Adobe Illustrator 19.0.0, SVG Export Plug-In . SVG Version: 6.00 Build 0)  -->
<svg version="1.1" id="Capa_1" xmlns="http://www.w3.org/2000/svg" xmlns:xlink="http://www.w3.org/1999/xlink" x="0px" y="0px"
	 viewBox="-73 165.4 463.6 463.6" style="enable-background:new -73 165.4 463.6 463.6;" xml:space="preserve">
<style type="text/css">
	.st0{fill:#00F2A9;}
	.st1{fill:#4C616D;}
</style>
<polygon class="st0" points="30.8,257.2 -65.2,353.2 158.8,577.2 382.8,353.2 286.8,257.2 "/>
<g>
	<path class="st1" d="M-72.4,324.4c0.8,0.8,0.8,1.6,1.6,2.4l224,224c0,0,0,0,0.8,0c0.8,0.8,0.8,0.8,1.6,1.6h0.8
		c0.8,0,1.6,0.8,2.4,0.8s1.6,0,2.4-0.8h0.8c0.8,0,1.6-0.8,1.6-1.6c0,0,0,0,0.8,0l224-224c0.8-0.8,1.6-1.6,1.6-2.4
		c0.8-1.6,0.8-4,0-6.4c-0.8-0.8-0.8-1.6-1.6-2.4l-96-96c-1.6-1.6-3.2-2.4-5.6-2.4h-256c-2.4,0-4,0.8-5.6,2.4l-96,96
		c-0.8,0.8-1.6,1.6-1.6,2.4C-73.2,320.4-73.2,322-72.4,324.4z M363.6,313.2h-76.8c-4.8,0-8,3.2-8,8c0,4.8,3.2,8,8,8h76.8L182.8,510
		l80-185.6l0,0l0,0c0-0.8,0.8-1.6,0.8-2.4l0,0c0,0,0,0,0-0.8c0-0.8,0-1.6-0.8-2.4V318c0-0.8-0.8-1.6-1.6-2.4l0,0L178,233.2h105.6
		L363.6,313.2z M34,233.2h121.6l80,80h-12.8c-4.8,0-8,3.2-8,8c0,4.8,3.2,8,8,8h20l-84,196l-84-196h116c4.8,0,8-3.2,8-8s-3.2-8-8-8
		H82l50.4-50.4c3.2-3.2,3.2-8,0-11.2c-3.2-3.2-8-3.2-11.2,0l-64,64l0,0c-0.8,0.8-0.8,1.6-1.6,2.4v0.8c0,0.8,0,1.6-0.8,2.4
		c0,0,0,0,0,0.8l0,0c0,0.8,0,1.6,0.8,2.4l0,0l0,0l80,185.6L-46,329.2h76.8c4.8,0,8-3.2,8-8c0-4.8-3.2-8-8-8H-46L34,233.2z"/>
	<path class="st1" d="M25.2,294.8c1.6,1.6,4,2.4,5.6,2.4s4-0.8,5.6-2.4l32-32c3.2-3.2,3.2-8,0-11.2s-8-3.2-11.2,0l-32,32
		C22,286.8,22,291.6,25.2,294.8z"/>
	<path class="st1" d="M249.2,262.8l32,32c1.6,1.6,4,2.4,5.6,2.4s4-0.8,5.6-2.4c3.2-3.2,3.2-8,0-11.2l-32-32c-3.2-3.2-8-3.2-11.2,0
		S246,259.6,249.2,262.8z"/>
	<path class="st1" d="M158.8,409.2c-4.8,0-8,3.2-8,8v32c0,4.8,3.2,8,8,8s8-3.2,8-8v-32C166.8,412.4,163.6,409.2,158.8,409.2z"/>
</g>
</svg>
