<?xml version="1.0" encoding="utf-8"?>
<!-- Generator: Adobe Illustrator 24.3.0, SVG Export Plug-In . SVG Version: 6.00 Build 0)  -->
<svg version="1.1" id="Capa_1" xmlns="http://www.w3.org/2000/svg" xmlns:xlink="http://www.w3.org/1999/xlink" x="0px" y="0px"
	 viewBox="0 0 50 50" style="enable-background:new 0 0 50 50;" xml:space="preserve">
<style type="text/css">
	.st0{fill:#00F2A9;}
	.st1{fill:#4C626E;}
</style>
<path class="st0" d="M44.1,8.6c-2.1-2.4-5.1-3.7-8.4-3.7c-3.6,0-6.8,1.4-9.4,4c-0.9,0.9-1.6,1.8-2,2.5c-0.5-0.7-1.1-1.6-2-2.5
	c-2.6-2.6-5.8-4-9.4-4c-6.8,0-11.5,5.7-11.5,12.4c0,9.1,9.7,16.8,22.3,27.8c0.2,0.1,0.4,0.2,0.6,0.2c0.2,0,0.4-0.1,0.6-0.2
	c12.7-11,22.3-18.7,22.3-27.8C47.3,14,46.1,10.9,44.1,8.6z M32.5,26.6h-5c-0.5,0-0.9,0.4-0.9,0.9v5H23v-5c0-0.5-0.4-0.9-0.9-0.9h-5
	V23h5c0.5,0,0.9-0.4,0.9-0.9v-5h3.6v5c0,0.5,0.4,0.9,0.9,0.9h5V26.6z"/>
<g>
	<g>
		<path class="st1" d="M40.4,8.9c-0.5,0-0.9,0.4-0.9,0.9c0,0.5,0.4,0.9,0.9,0.9s0.9-0.4,0.9-0.9C41.3,9.3,40.9,8.9,40.4,8.9z"/>
	</g>
</g>
<g>
	<g>
		<path class="st1" d="M45.1,8c-2.1-2.4-5.1-3.7-8.4-3.7c-3.6,0-6.8,1.4-9.4,4c-0.9,0.9-1.6,1.8-2,2.5c-0.5-0.7-1.1-1.6-2-2.5
			c-2.6-2.6-5.8-4-9.4-4C7.1,4.2,2.4,9.9,2.4,16.7c0,9.1,9.7,16.8,22.3,27.8c0.2,0.1,0.4,0.2,0.6,0.2c0.2,0,0.4-0.1,0.6-0.2
			c12.7-11,22.3-18.7,22.3-27.8C48.2,13.4,47.1,10.3,45.1,8z M25.3,42.6C13.3,32.3,4.2,24.8,4.2,16.7C4.2,10.6,8.4,6,13.9,6
			C17,6,19.7,7.2,22,9.4c1.7,1.7,2.5,3.5,2.5,3.5c0.1,0.3,0.5,0.5,0.8,0.5c0,0,0,0,0,0c0.4,0,0.7-0.2,0.8-0.5c0,0,0.8-1.8,2.5-3.5
			c2.3-2.3,5-3.4,8.1-3.4c5.6,0,9.7,4.6,9.7,10.7C46.5,25,36.7,32.8,25.3,42.6z"/>
	</g>
</g>
<g>
	<g>
		<path class="st1" d="M43.5,12.1c-0.2-0.4-0.8-0.6-1.2-0.4c-0.4,0.2-0.6,0.8-0.4,1.2c0.6,1.1,0.9,2.5,0.9,3.8
			c0,2.6-1.2,5.3-3.9,8.6c-0.3,0.4-0.2,1,0.1,1.3c0.4,0.3,1,0.2,1.3-0.1c2.9-3.6,4.3-6.7,4.3-9.8C44.7,15.1,44.3,13.5,43.5,12.1z"/>
	</g>
</g>
<g>
	<g>
		<path class="st1" d="M33.9,21.4h-5v-5c0-0.5-0.4-0.9-0.9-0.9h-5.4c-0.5,0-0.9,0.4-0.9,0.9v5h-5c-0.5,0-0.9,0.4-0.9,0.9v5.4
			c0,0.5,0.4,0.9,0.9,0.9h5v5c0,0.5,0.4,0.9,0.9,0.9H28c0.5,0,0.9-0.4,0.9-0.9v-5h5c0.5,0,0.9-0.4,0.9-0.9v-5.4
			C34.8,21.8,34.4,21.4,33.9,21.4z M33,26.8h-5c-0.5,0-0.9,0.4-0.9,0.9v5h-3.6v-5c0-0.5-0.4-0.9-0.9-0.9h-5v-3.6h5
			c0.5,0,0.9-0.4,0.9-0.9v-5h3.6v5c0,0.5,0.4,0.9,0.9,0.9h5V26.8z"/>
	</g>
</g>
</svg>
