<?xml version="1.0" encoding="utf-8"?>
<!-- Generator: Adobe Illustrator 24.2.3, SVG Export Plug-In . SVG Version: 6.00 Build 0)  -->
<svg version="1.1" id="Capa_1" xmlns="http://www.w3.org/2000/svg" xmlns:xlink="http://www.w3.org/1999/xlink" x="0px" y="0px"
	 viewBox="0 0 100 50" style="enable-background:new 0 0 100 50;" xml:space="preserve">
<g>
	<path d="M22.5,1.8v1.2c-1.4,0-2.5,0.2-3.2,0.5c-0.7,0.3-1.2,0.8-1.5,1.5c-0.2,0.7-0.4,1.9-0.4,3.4V44c0,1.1,0.1,2,0.2,2.5
		c0.2,0.6,0.5,0.9,0.9,1.1c0.5,0.2,1.1,0.3,2,0.3h3.8c1.4,0,3-0.7,4.7-2.2c1.7-1.4,3.2-3.3,4.6-5.7c1.4-2.3,2.3-4.8,2.7-7.5h1.4
		c-0.1,1.5-0.2,3.4-0.2,5.7c0,1.1,0,2.6,0.1,4.7c0,2,0.2,4.2,0.4,6.4c-2.1-0.1-4.5-0.1-7.1-0.2c-2.6,0-5,0-7.1,0c-1.5,0-5.3,0-7.8,0
		c-2.5,0-5.1,0-7.9,0s-5.4,0.1-7.8,0.2v-1.2c1.3-0.1,2.2-0.2,2.9-0.5c0.6-0.2,1-0.7,1.2-1.5c0.2-0.7,0.3-1.9,0.3-3.4V8.4
		c0-1.5-0.1-2.7-0.3-3.4C4.4,4.3,3.9,3.8,3.3,3.5C2.6,3.3,1.7,3.1,0.5,3.1V1.8c1.2,0,2.8,0.1,4.7,0.1C7.2,2,9.3,2,11.5,2
		c2.1,0,4.1,0,6.1-0.1C19.6,1.9,21.2,1.9,22.5,1.8z"/>
	<path d="M55.3,16.4v27.1c0,1.7,0.3,2.9,0.8,3.5c0.5,0.6,1.4,0.9,2.7,0.9v1.3c-0.8,0-2.1-0.1-3.7-0.2c-1.7-0.1-3.3-0.1-5.1-0.1
		c-1.7,0-3.5,0-5.3,0.1c-1.8,0.1-3.1,0.1-4,0.2V48c1.3,0,2.2-0.3,2.7-0.9c0.5-0.6,0.8-1.8,0.8-3.5V23.9c0-1.9-0.2-3.2-0.7-4.1
		c-0.5-0.9-1.4-1.3-2.7-1.3v-1.3c1.3,0.1,2.6,0.2,3.8,0.2c2.1,0,4-0.1,5.8-0.2C52.1,16.9,53.7,16.7,55.3,16.4z M49.3,0.8
		c2.1,0,3.8,0.4,5,1.3c1.2,0.9,1.8,2.2,1.8,4c0,1.8-0.6,3.1-1.8,4c-1.2,0.9-2.8,1.3-5,1.3c-2.2,0-3.8-0.4-5-1.3
		c-1.2-0.9-1.8-2.2-1.8-4c0-1.8,0.6-3.1,1.8-4C45.5,1.2,47.2,0.8,49.3,0.8z"/>
	<path d="M75.6,0.8v42.7c0,1.7,0.3,2.9,0.8,3.5c0.5,0.6,1.4,0.9,2.7,0.9v1.3c-0.8,0-2.1-0.1-3.7-0.2c-1.7-0.1-3.3-0.1-5.1-0.1
		c-1.7,0-3.5,0-5.3,0.1c-1.8,0.1-3.1,0.1-4,0.2V48c1.3,0,2.2-0.3,2.7-0.9c0.5-0.6,0.8-1.8,0.8-3.5V8.2c0-1.9-0.2-3.2-0.7-4.1
		c-0.5-0.9-1.4-1.3-2.7-1.3V1.5c1.3,0.1,2.6,0.2,3.8,0.2c2.1,0,4-0.1,5.8-0.2C72.4,1.3,74,1.1,75.6,0.8z"/>
	<path d="M96.1,16.4v27.1c0,1.7,0.3,2.9,0.8,3.5c0.5,0.6,1.4,0.9,2.7,0.9v1.3c-0.8,0-2.1-0.1-3.7-0.2c-1.7-0.1-3.3-0.1-5.1-0.1
		c-1.7,0-3.5,0-5.3,0.1c-1.8,0.1-3.1,0.1-4,0.2V48c1.3,0,2.2-0.3,2.7-0.9c0.5-0.6,0.8-1.8,0.8-3.5V23.9c0-1.9-0.2-3.2-0.7-4.1
		c-0.5-0.9-1.4-1.3-2.7-1.3v-1.3c1.3,0.1,2.6,0.2,3.8,0.2c2.1,0,4-0.1,5.8-0.2C92.9,16.9,94.6,16.7,96.1,16.4z M90.1,0.8
		c2.1,0,3.8,0.4,5,1.3c1.2,0.9,1.8,2.2,1.8,4c0,1.8-0.6,3.1-1.8,4c-1.2,0.9-2.8,1.3-5,1.3c-2.2,0-3.8-0.4-5-1.3
		c-1.2-0.9-1.8-2.2-1.8-4c0-1.8,0.6-3.1,1.8-4C86.3,1.2,88,0.8,90.1,0.8z"/>
</g>
</svg>
