<?xml version="1.0" encoding="utf-8"?>
<!-- Generator: Adobe Illustrator 24.2.3, SVG Export Plug-In . SVG Version: 6.00 Build 0)  -->
<svg version="1.1" id="Capa_1" xmlns="http://www.w3.org/2000/svg" xmlns:xlink="http://www.w3.org/1999/xlink" x="0px" y="0px"
	 viewBox="0 0 512 512" style="enable-background:new 0 0 512 512;" xml:space="preserve">
<style type="text/css">
	.st0{fill:#00F2A9;}
	.st1{fill:#4C616D;}
</style>
<g>
	<path class="st0" d="M190.1,270.4c5.2-11,12-21.4,19.9-30.6c16.9-19.6,43.4-29,68.2-34.2V72.1c0-17.7-14.3-32-32-32h-192
		c-17.7,0-32,14.3-32,32v192c0,17.7,14.3,32,32,32H182C182.8,287.2,186.3,278.3,190.1,270.4z M142,225.8v-46.4c0,0,0,0,0,0H95.6
		c-3.6,0-6.6-2.9-6.6-6.6v-35.3c0-3.6,2.9-6.6,6.6-6.6H142c0,0,0,0,0,0V84.7c0-3.6,2.9-6.6,6.6-6.6h35.3c3.6,0,6.6,2.9,6.6,6.6v46.4
		c0,0,0,0,0,0h46.4c3.6,0,6.6,2.9,6.6,6.6v35.3c0,3.6-2.9,6.6-6.6,6.6h-46.4c0,0,0,0,0,0v46.4c0,3.6-2.9,6.6-6.6,6.6h-35.3
		C144.9,232.4,142,229.4,142,225.8z"/>
</g>
<g>
	<path class="st0" d="M180.4,320.6c0,59.2,48.4,107.6,107.6,107.6s107.6-48.4,107.6-107.6S347.3,213,288.1,213
		S180.4,261.4,180.4,320.6z M288.1,234.5c47.4,0,86.1,38.7,86.1,86.1s-38.7,86.1-86.1,86.1S202,367.9,202,320.6
		S240.7,234.5,288.1,234.5z"/>
</g>
<g>
	<path class="st0" d="M405,387.5c-7.8-7.8-20.6-7.8-28.4,0c-7.8,7.8-7.8,20.6,0,28.4l85.3,85.3c7.8,7.8,20.6,7.8,28.4,0
		c7.8-7.8,7.8-20.6,0-28.4L405,387.5z"/>
</g>
<g>
	<path class="st0" d="M386.9,442.6c-5.6-5.6-14.8-5.6-20.4,0s-5.6,14.8,0,20.4l35.4,36.3c5.6,5.6,14.8,5.6,20.4,0
		c5.6-5.6,5.6-14.8,0-20.4L386.9,442.6z"/>
</g>
<g>
	<g>
		<path class="st1" d="M51.3,220.6c3.6,0,6.6-2.9,6.6-6.6V50.9c0-6.1,5-11.1,11.1-11.1H263c6.1,0,11.1,5,11.1,11.1v51.6
			c0,3.6,2.9,6.6,6.6,6.6s6.6-2.9,6.6-6.6V50.9c0-13.3-10.9-24.2-24.2-24.2H68.9c-13.3,0-24.2,10.9-24.2,24.2v163.2
			C44.7,217.7,47.7,220.6,51.3,220.6z"/>
		<path class="st1" d="M148.3,233.9h35.3c3.6,0,6.6-2.9,6.6-6.6V181h46.4c3.6,0,6.6-2.9,6.6-6.6v-35.3c0-3.6-2.9-6.6-6.6-6.6h-46.4
			V86.2c0-3.6-2.9-6.6-6.6-6.6h-35.3c-3.6,0-6.6,2.9-6.6,6.6v46.4H95.4c-3.6,0-6.6,2.9-6.6,6.6v35.3c0,3.6,2.9,6.6,6.6,6.6h46.4
			v46.4C141.8,231,144.7,233.9,148.3,233.9L148.3,233.9z M101.9,167.9v-22.2h46.4c3.6,0,6.6-2.9,6.6-6.6V92.8h22.2v46.4
			c0,3.6,2.9,6.6,6.6,6.6H230v22.2h-46.4c-3.6,0-6.6,2.9-6.6,6.6v46.4h-22.2v-46.4c0-3.6-2.9-6.6-6.6-6.6H101.9z"/>
		<path class="st1" d="M365,328.5c-3.4-1.2-7.2,0.6-8.3,4c-3.5,10.1-9.2,19.1-16.8,26.7c-13.4,13.4-31.3,20.8-50.3,20.8
			s-36.8-7.4-50.3-20.8c-13.4-13.4-20.8-31.3-20.8-50.3c0-19,7.4-36.8,20.8-50.3c13.4-13.4,31.3-20.8,50.3-20.8
			c19,0,36.8,7.4,50.3,20.8c12.3,12.3,19.7,28.7,20.7,46.1c0.2,3.6,3.3,6.4,6.9,6.2c3.6-0.2,6.4-3.3,6.2-6.9
			c-1.2-20.6-9.9-40-24.5-54.7c-15.9-15.9-37-24.7-59.5-24.7c-22.5,0-43.6,8.8-59.5,24.7c-32.8,32.8-32.8,86.2,0,119.1
			c15.9,15.9,37,24.7,59.5,24.7c22.5,0,43.6-8.8,59.5-24.7c9-9,15.7-19.7,19.9-31.6C370.2,333.4,368.4,329.7,365,328.5L365,328.5z"
			/>
		<path class="st1" d="M490,462.7l-59.8-59.8c-2.6-2.6-6.7-2.6-9.3,0l-2.9,2.9l-13.2-13.2l2.9-2.9c2.6-2.6,2.6-6.7,0-9.3l-18.8-18.8
			c8.5-16,13-34,13-52.7c0-30-11.7-58.3-32.9-79.5c-21.2-21.2-49.5-32.9-79.5-32.9c-0.8,0-1.6,0-2.3,0v-63.5c0-3.6-2.9-6.6-6.6-6.6
			s-6.6,2.9-6.6,6.6v64.5c-24.2,3.3-46.5,14.3-64,31.9c-12.9,12.9-21.9,28.1-27.2,44.3H68.9c-6.1,0-11.1-5-11.1-11.1v-18
			c0-3.6-2.9-6.6-6.6-6.6c-3.6,0-6.6,2.9-6.6,6.6v18c0,13.3,10.9,24.2,24.2,24.2h110.4c-7.1,35.6,3.1,74.1,30.7,101.6
			c21.2,21.2,49.5,32.9,79.5,32.9c18.7,0,36.6-4.5,52.7-13l18.8,18.8c1.2,1.2,2.9,1.9,4.6,1.9c1.7,0,3.4-0.7,4.6-1.9l2.9-2.9
			l13.2,13.2l-2.9,2.9c-2.6,2.6-2.6,6.7,0,9.3l22.4,22.4c2.6,2.6,6.7,2.6,9.3,0c2.6-2.6,2.6-6.7,0-9.3L397.4,445l28.2-28.2
			l55.2,55.2c1.3,1.3,3,1.9,4.6,1.9c1.7,0,3.4-0.6,4.6-1.9C492.5,469.4,492.5,465.2,490,462.7L490,462.7z M219.3,379.2
			c-38.7-38.7-38.7-101.7,0-140.5c19.4-19.4,44.8-29,70.2-29s50.9,9.7,70.2,29c18.8,18.8,29.1,43.7,29.1,70.2
			c0,26.5-10.3,51.5-29.1,70.2c-19.4,19.4-44.8,29-70.2,29C264.1,408.2,238.7,398.5,219.3,379.2L219.3,379.2z M353.7,401.3
			c5.4-3.8,10.5-8.1,15.3-12.8s9.1-9.9,12.8-15.3l11.9,11.9l-28.2,28.2L353.7,401.3z M382.4,415l13.2-13.2l13.2,13.2l-13.2,13.2
			L382.4,415z"/>
	</g>
</g>
</svg>
