<?xml version="1.0" encoding="utf-8"?>
<!-- Generator: Adobe Illustrator 24.2.3, SVG Export Plug-In . SVG Version: 6.00 Build 0)  -->
<svg version="1.1" id="Capa_1" xmlns="http://www.w3.org/2000/svg" xmlns:xlink="http://www.w3.org/1999/xlink" x="0px" y="0px"
	 viewBox="0 0 512 512" style="enable-background:new 0 0 512 512;" xml:space="preserve">
<style type="text/css">
	.st0{fill:#4C616D;}
	.st1{fill:#00F2A9;}
</style>
<g>
	<g>
		<path class="st0" d="M322.3,193.5h-38.9v-38.9c0-3.8-3.1-7-7-7h-41.7c-3.8,0-7,3.1-7,7v38.9h-38.9c-3.8,0-7,3.1-7,7v41.7
			c0,3.8,3.1,7,7,7h38.9v38.9c0,3.8,3.1,7,7,7h41.7c3.8,0,7-3.1,7-7v-38.9h38.9c3.8,0,7-3.1,7-7v-41.7
			C329.2,196.6,326.1,193.5,322.3,193.5z M315.3,235.2h-38.9c-3.8,0-7,3.1-7,7v38.9h-27.8v-38.9c0-3.8-3.1-7-7-7h-38.9v-27.8h38.9
			c3.8,0,7-3.1,7-7v-38.9h27.8v38.9c0,3.8,3.1,7,7,7h38.9V235.2z"/>
	</g>
</g>
<path class="st1" d="M95.5,109.5v146.4c0,72.8,32.8,141.6,90.4,187.2l69.6,56l69.6-56c57.6-45.6,90.4-114.4,90.4-187.2V109.5
	c0-15.2-10.4-28-25.6-31.2L255.5,51.1L121.1,78.3C105.9,80.7,95.5,94.3,95.5,109.5z M127.5,127.9c0-7.2,4.8-13.6,12-15.2l116-29.6
	l116,28.8c7.2,1.6,12,8,12,15.2v116c0,70.4-33.6,136.8-89.6,179.2l-38.4,28.8l-38.4-28.8c-56-42.4-89.6-108.8-89.6-179.2V127.9z"/>
<path class="st0" d="M257.1,11.1C257.1,11.1,256.3,11.1,257.1,11.1c-0.8,0-1.6,0-1.6,0h-0.8h-0.8L119.5,38.3c-18.4,4-32,20-32,39.2
	v146.4c0,76,33.6,146.4,92.8,193.6l69.6,56l0.8,0.8c0,0,0.8,0,0.8,0.8c0.8,0,1.6,0.8,3.2,0.8c0.8,0,1.6,0,3.2-0.8c0,0,0.8,0,0.8-0.8
	c0,0,0.8,0,0.8-0.8l69.6-56c60.8-47.2,94.4-117.6,94.4-193.6V77.5c0-19.2-13.6-35.2-32-39.2L257.1,11.1z M407.5,77.5v146.4
	c0,71.2-32,136.8-87.2,180.8l-56.8,45.6v-27.2l35.2-26.4c58.4-43.2,92.8-112.8,92.8-185.6v-64c0-4.8-3.2-8-8-8s-8,3.2-8,8v64
	c0,68-32,132-86.4,172.8l-38.4,28.8c-2.4,1.6-3.2,4-3.2,6.4v31.2l-56.8-45.6c-55.2-44-87.2-110.4-87.2-180.8V77.5
	c0-11.2,8-21.6,19.2-23.2l124.8-25.6v16L137.9,71.9c-11.2,3.2-18.4,12.8-18.4,24v115.2c0,72.8,34.4,142.4,92.8,185.6
	c1.6,0.8,3.2,1.6,4.8,1.6c2.4,0,4.8-0.8,6.4-3.2c2.4-3.2,1.6-8.8-1.6-11.2c-54.4-40.8-86.4-104.8-86.4-172.8V95.9c0-4,2.4-7.2,6.4-8
	l113.6-28.8l113.6,28.8c3.2,0.8,6.4,4,6.4,8v19.2c0,4.8,3.2,8,8,8s8-3.2,8-8V95.9c0-11.2-7.2-20.8-18.4-23.2l-109.6-28v-16
	l124.8,24.8C399.5,55.9,407.5,66.3,407.5,77.5z"/>
</svg>
