<?xml version="1.0" encoding="utf-8"?>
<!-- Generator: Adobe Illustrator 19.0.0, SVG Export Plug-In . SVG Version: 6.00 Build 0)  -->
<svg version="1.1" id="Capa_1" xmlns="http://www.w3.org/2000/svg" xmlns:xlink="http://www.w3.org/1999/xlink" x="0px" y="0px"
	 viewBox="-73 165 464 464" style="enable-background:new -73 165 464 464;" xml:space="preserve">
<style type="text/css">
	.st0{fill:#00F2A9;}
	.st1{fill:#4C616D;}
</style>
<g>
	<path class="st0" d="M191,269v-32h16c8.8,0,16-7.2,16-16s-7.2-16-16-16h-96c-8.8,0-16,7.2-16,16s7.2,16,16,16h16v32H191z"/>
	<path class="st0" d="M-1,461c0,88,72,160,160,160s160-72,160-160s-72-160-160-160S-1,373-1,461z M159,333c70.4,0,128,57.6,128,128
		s-57.6,128-128,128S31,531.4,31,461S88.6,333,159,333z"/>
</g>
<g>
	<path class="st1" d="M-41,429c0,110.4,89.6,200,200,200s200-89.6,200-200c0-60-27.2-114.4-69.6-151.2l13.6-13.6l10.4,10.4
		c1.6,1.6,4,2.4,5.6,2.4s4-0.8,5.6-2.4c3.2-3.2,3.2-8,0-11.2l-32-32c-3.2-3.2-8-3.2-11.2,0c-3.2,3.2-3.2,8,0,11.2l10.4,10.4
		l-14.4,14.4c-23.2-16.8-49.6-28.8-78.4-34.4v-20h8c13.6,0,24-10.4,24-24s-10.4-24-24-24h-96c-13.6,0-24,10.4-24,24s10.4,24,24,24h8
		v20c-28.8,5.6-55.2,17.6-78.4,34.4L26.2,253l10.4-10.4c3.2-3.2,3.2-8,0-11.2c-3.2-3.2-8-3.2-11.2,0L-5,261.8c-3.2,3.2-3.2,8,0,11.2
		c1.6,1.6,4,2.4,5.6,2.4s4-0.8,5.6-2.4l8.8-8.8l13.6,13.6C-13.8,314.6-41,369-41,429z M343,429c0,101.6-82.4,184-184,184
		S-25,530.6-25,429s82.4-184,184-184S343,327.4,343,429z M135,213h24c4.8,0,8-3.2,8-8s-3.2-8-8-8h-48c-4.8,0-8-3.2-8-8s3.2-8,8-8h96
		c4.8,0,8,3.2,8,8s-3.2,8-8,8h-16c-4.8,0-8,3.2-8,8v25.6c-8-0.8-16-1.6-24-1.6s-16,0.8-24,1.6V213z"/>
	<path class="st1" d="M159,581C75,581,7,513,7,429s68-152,152-152c4.8,0,8-3.2,8-8s-3.2-8-8-8C66.2,261-9,336.2-9,429
		s75.2,168,168,168s168-75.2,168-168c0-4.8-3.2-8-8-8s-8,3.2-8,8C311,513,243,581,159,581z"/>
	<path class="st1" d="M159,293c-4.8,0-8,3.2-8,8v32c0,4.8,3.2,8,8,8s8-3.2,8-8v-24c62.4,4,112,56,112,120s-49.6,116-112,120v-24
		c0-4.8-3.2-8-8-8s-8,3.2-8,8v32c0,4.8,3.2,8,8,8c75.2,0,136-60.8,136-136S234.2,293,159,293z"/>
	<circle class="st1" cx="71" cy="341" r="8"/>
	<circle class="st1" cx="39" cy="429" r="8"/>
	<circle class="st1" cx="71" cy="517" r="8"/>
	<path class="st1" d="M228.6,359.4c-3.2-3.2-8-3.2-11.2,0l-36,36c-6.4-4-14.4-6.4-22.4-6.4c-22.4,0-40,17.6-40,40s17.6,40,40,40
		s40-17.6,40-40c0-8-2.4-16-6.4-22.4l36-36C231.8,367.4,231.8,362.6,228.6,359.4z M183,429c0,13.6-10.4,24-24,24s-24-10.4-24-24
		s10.4-24,24-24c4,0,7.2,0.8,10.4,2.4l-16,16c-3.2,3.2-3.2,8,0,11.2c1.6,1.6,4,2.4,5.6,2.4s4-0.8,5.6-2.4l16-16
		C182.2,421.8,183,425,183,429z"/>
</g>
</svg>
